<svg width="557" height="627" fill="none" xmlns="http://www.w3.org/2000/svg"><path d="M256.139 0H99.609C73.86 0 54.887 4.459 42.69 13.376 31.849 23.408 26.428 39.013 26.428 60.192v66.88c0 21.179 5.42 36.227 16.263 45.144 12.197 10.032 31.17 15.048 56.92 15.048h140.266c17.618 0 31.17 3.901 40.657 11.704 9.487 8.917 14.23 20.621 14.23 35.112v25.08H73.183c-25.75 0-44.723 4.459-56.92 13.376C5.42 282.568 0 298.173 0 319.352v247.456c0 21.179 5.42 36.227 16.263 45.144C28.46 621.984 47.433 627 73.183 627h410.634c25.75 0 44.045-5.016 54.887-15.048C550.901 603.035 557 587.987 557 566.808V252.472c0-84.715-27.782-148.251-83.347-190.608C419.444 20.62 346.939 0 256.139 0z" fill="#FF7D04"/></svg>