<svg width="1200" height="732" fill="none" xmlns="http://www.w3.org/2000/svg"><path d="M285.44.947h510.672c24.43 0 42.43 5.262 54.002 15.784 10.286 11.837 15.429 30.251 15.429 55.242v30.966c0 24.99-5.143 42.747-15.429 53.269-11.572 11.838-29.572 17.756-54.002 17.756h-19.645c-16.715 0-29.572 4.604-38.573 13.811-9 10.522-13.5 24.333-13.5 41.431V249.6h406.176c24.43 0 42.43 5.261 54 15.783 10.29 11.838 15.43 30.252 15.43 55.242v340.35c0 24.99-5.14 42.746-15.43 53.269C1173 726.081 1155 732 1130.57 732H69.431c-24.43 0-41.787-5.919-52.073-17.756C5.786 703.721 0 685.965 0 660.975V241.708C0 92.593 4.746 89.124 57.462 39.144 108.893-9.522 199.294.947 285.44.947z" fill="#0A7272"/></svg>