<svg width="1727" height="2915" fill="none" xmlns="http://www.w3.org/2000/svg"><path d="M1175.99 2915H168.494c-62.781 0-120.258-42.36-149.996-77.5C-7.936 2797.97 2 2726.46 2 2643v-119c0-161 79.5-161 79.5-161h688.999c312.501 0 369.001-145.5 369.001-561v-224.5H460.015c-62.781 0-124.47 0-169.388-49.22-40.609-44.5-40.609-116.5-40.609-317.79V441.21c0-290.207 7.002-348.706 40.476-393.207C323.968 3.502 406.494 1 484.494 1H1522.49c62.79 0 105.5-5.575 161 47.003s38.01 309.745 38.01 393.207v1032.84c0 333.85 25.13 816.23-35.87 1034.23S1550.93 2915 1175.99 2915z" fill="#232323"/></svg>