<svg width="1771" height="1953" fill="none" xmlns="http://www.w3.org/2000/svg"><path d="M1200.42 1952.5H178.423c-62.778 0-109.036-15.15-138.774-45.44C13.216 1872.98 0 1819.97 0 1748.02v-227.2c0-71.95 13.216-123.07 39.65-153.36 29.737-34.08 75.995-51.12 138.773-51.12H1117c91.22 0 164-77.84 164-149.84v-94.4H446.417c-62.778 0-109.036-15.15-138.773-45.44-26.433-34.08-39.65-87.093-39.65-159.04V204.48c0-71.947 13.217-123.067 39.65-153.36C337.381 17.04 383.639 0 446.418 0H1560.99c62.78 0 107.39 17.04 133.82 51.12 29.74 30.293 44.61 81.413 44.61 153.36v890.34c0 287.79 93.47 509.31-42 653.2-97.08 182.98-122.08 204.48-497 204.48z" fill="#232323"/></svg>