<svg width="388" height="506" fill="none" xmlns="http://www.w3.org/2000/svg"><path d="M178.423 506H50.978c-17.937 0-30.681-4.048-38.233-12.144C4.248 486.66 0 474.516 0 457.424v-53.973c0-17.092 4.248-29.686 12.745-37.782 7.552-7.196 20.296-10.794 38.233-10.794h116.117c12.272 0 21.713-3.599 28.321-10.795 6.608-6.297 9.912-15.292 9.912-26.987v-20.24H50.978c-17.937 0-30.681-4.048-38.233-12.144C4.248 277.513 0 265.369 0 248.277V48.576c0-17.092 4.248-29.685 12.745-37.781C20.297 3.598 33.04 0 50.977 0h286.044c17.937 0 31.153 3.598 39.65 10.795C384.224 18.89 388 31.485 388 48.576v253.675c0 68.366-18.881 119.191-56.642 152.474C292.652 488.908 241.674 506 178.423 506z" fill="#095353"/></svg>