<svg width="130" height="178" fill="none" xmlns="http://www.w3.org/2000/svg"><path d="M11.028 5.399l.039-.045.043-.039c3.02-2.699 7.6-3.95 13.53-3.95h35.372c20.711 0 37.36 5.756 49.835 17.36h0C122.672 30.679 129 48.54 129 72.119v86.845c0 5.944-1.389 10.435-4.424 13.179-2.73 3.053-7.199 4.451-13.114 4.451H18.668c-5.956 0-10.553-1.417-13.572-4.453l.709-.705-.71.705c-2.728-2.744-3.965-7.232-3.965-13.177V90.596c0-5.96 1.243-10.562 3.926-13.597l.039-.044.043-.039c3.02-2.7 7.6-3.95 13.53-3.95H67.74v-5.93c0-3.804-1.01-6.778-2.948-9.018-1.903-1.899-4.67-2.915-8.455-2.915H24.639c-5.956 0-10.553-1.417-13.571-4.453-2.73-2.744-3.966-7.232-3.966-13.177V18.995c0-5.96 1.243-10.561 3.926-13.596z" stroke="#232323" stroke-width="2"/></svg>