<svg width="244" height="178" fill="none" xmlns="http://www.w3.org/2000/svg"><path d="M7.165 14.992l-.044.04-.039.043C3.458 19.127 1.744 25.311 1.744 33.42v48.614c0 28.393 7.896 51.175 23.778 68.235v.001c16.347 17.525 40.8 26.203 73.166 26.203H218.14c8.14 0 14.192-1.904 17.861-5.971 4.094-3.647 6.013-9.664 6.013-17.757V25.212c0-8.134-1.938-14.337-6.014-18.387-3.669-3.646-9.718-5.342-17.86-5.342h-94.037c-8.157 0-14.377 1.702-18.453 5.302l-.044.039-.039.043c-3.625 4.052-5.338 10.236-5.338 18.345v67.817h-8.53c-5.309 0-9.498-1.412-12.662-4.152-2.708-2.705-4.13-6.618-4.13-11.894V33.42c0-8.135-1.937-14.337-6.013-18.388-3.67-3.646-9.718-5.341-17.86-5.341H25.618c-8.157 0-14.377 1.701-18.453 5.301z" stroke="#232323" stroke-width="2"/></svg>