<svg width="387" height="506" fill="none" xmlns="http://www.w3.org/2000/svg"><path d="M209.036 0h127.117c17.891 0 30.602 4.048 38.135 12.144C382.763 19.34 387 31.484 387 48.576v53.973c0 17.092-4.237 29.686-12.712 37.782-7.533 7.196-20.244 10.794-38.135 10.794H220.336c-12.241 0-21.657 3.599-28.248 10.795-6.592 6.297-9.887 15.292-9.887 26.987v20.24h153.952c17.891 0 30.603 4.048 38.135 12.144 8.475 7.196 12.712 19.34 12.712 36.432v199.701c0 17.092-4.237 29.685-12.712 37.781-7.532 7.197-20.244 10.795-38.135 10.795H50.847c-17.89 0-31.073-3.598-39.548-10.795C3.766 487.109 0 474.516 0 457.424V203.749c0-68.366 18.832-119.19 56.496-152.474C95.102 17.092 145.95 0 209.036 0z" fill="#0A7272"/></svg>