<svg width="387" height="506" fill="none" xmlns="http://www.w3.org/2000/svg"><path d="M209.036 0h127.117c17.891 0 31.073 3.598 39.548 10.795C383.233 18.89 387 31.485 387 48.576v53.973c0 17.092-3.767 29.236-11.299 36.432-8.475 8.096-21.657 12.144-39.548 12.144H220.336c-12.241 0-21.657 3.149-28.248 9.446-6.592 7.196-9.887 16.641-9.887 28.336v20.24h153.952c17.891 0 31.073 3.598 39.548 10.794 7.533 8.096 11.299 20.69 11.299 37.782v199.701c0 17.092-3.766 29.236-11.299 36.432-8.475 8.096-21.657 12.144-39.548 12.144H50.847c-17.89 0-30.603-4.048-38.135-12.144C4.237 486.66 0 474.516 0 457.424V203.749c0-68.366 19.303-119.64 57.909-153.824C95.573 16.642 145.949 0 209.036 0z" fill="#095353"/></svg>