<svg width="131" height="178" fill="none" xmlns="http://www.w3.org/2000/svg"><path d="M119.778 5.399l-.039-.045-.044-.039c-3.02-2.699-7.599-3.95-13.529-3.95H70.794c-20.712 0-37.36 5.756-49.835 17.36h0C8.132 30.679 1.805 48.54 1.805 72.119v86.845c0 5.944 1.389 10.435 4.424 13.179 2.73 3.053 7.198 4.451 13.113 4.451h92.795c5.956 0 10.553-1.417 13.572-4.453l-.709-.705.709.705c2.729-2.744 3.966-7.232 3.966-13.177V90.596c0-5.96-1.243-10.562-3.926-13.597l-.039-.044-.044-.039c-3.02-2.7-7.599-3.95-13.529-3.95H63.066v-5.93c0-3.804 1.01-6.778 2.948-9.018 1.902-1.899 4.67-2.915 8.455-2.915h31.697c5.956 0 10.553-1.417 13.572-4.453 2.729-2.744 3.966-7.232 3.966-13.177V18.995c0-5.96-1.243-10.561-3.926-13.596z" stroke="#232323" stroke-width="2"/></svg>