<svg width="287" height="390" fill="none" xmlns="http://www.w3.org/2000/svg"><path d="M276.86 10.026l.039.044.044.039C282.894 15.379 286 24.39 286 37.44v41.6c0 13.037-3.101 22.434-9.1 28.412-5.286 5.267-14.35 8.028-27.477 8.028h-85.591c-9.25 0-16.503 2.841-21.605 8.635-5.097 5.093-7.577 12.306-7.577 21.485v16.6h114.773c13.1 0 22.146 3.096 27.437 9.026l.039.044.044.039c5.951 5.27 9.057 14.281 9.057 27.331v153.92c0 13.037-3.101 22.434-9.1 28.412-5.286 5.267-14.35 8.028-27.477 8.028H38.577c-13.08 0-22.518-2.742-28.52-8.03C4.751 374.992 2 365.59 2 352.56V157.04c0-52.527 13.87-91.386 41.43-116.785h0C71.74 14.112 109.057 1 155.482 1h93.941c13.1 0 22.146 3.096 27.437 9.026z" fill="#F5F6FF" stroke="#232323" stroke-width="2"/><path d="M56.293 268.5h-4.125l-6.211-8.684v8.684h-3.633v-17.133h3.633v8.297l6.14-8.297h3.868l-6.246 8.227 6.574 8.906zm13.781-6.574c0 1.094-.148 2.062-.445 2.906-.29.844-.715 1.559-1.277 2.145a5.373 5.373 0 01-2.016 1.312c-.781.297-1.664.445-2.648.445-.922 0-1.77-.148-2.544-.445a5.654 5.654 0 01-2.003-1.312c-.563-.586-1-1.301-1.313-2.145-.305-.844-.457-1.812-.457-2.906 0-1.453.258-2.684.773-3.692.516-1.007 1.25-1.773 2.204-2.296.953-.524 2.09-.786 3.41-.786 1.226 0 2.312.262 3.258.786.953.523 1.699 1.289 2.238 2.296.547 1.008.82 2.239.82 3.692zm-9.058 0c0 .859.093 1.582.28 2.168.188.586.481 1.027.88 1.324.398.297.918.445 1.558.445.633 0 1.145-.148 1.535-.445.399-.297.688-.738.868-1.324.187-.586.281-1.309.281-2.168 0-.867-.094-1.586-.281-2.156-.18-.579-.469-1.012-.868-1.301-.398-.289-.917-.434-1.558-.434-.945 0-1.633.324-2.063.973-.421.648-.632 1.621-.632 2.918zm19.3-6.774c1.477 0 2.668.575 3.575 1.723.914 1.148 1.37 2.832 1.37 5.051 0 1.484-.214 2.734-.644 3.75-.43 1.008-1.023 1.769-1.781 2.285-.758.516-1.629.773-2.613.773-.633 0-1.176-.078-1.63-.234a4.185 4.185 0 01-1.16-.621 5.53 5.53 0 01-.831-.82h-.188a10.14 10.14 0 01.188 1.921v5.286h-3.575v-18.868h2.907l.504 1.7h.164c.234-.352.52-.676.855-.973a3.75 3.75 0 011.207-.703c.477-.18 1.027-.27 1.652-.27zm-1.148 2.86c-.625 0-1.121.129-1.488.386-.368.258-.637.645-.809 1.161-.164.515-.254 1.168-.27 1.957v.386c0 .844.079 1.559.235 2.145.164.586.433 1.031.808 1.336.383.305.907.457 1.57.457.548 0 .997-.152 1.349-.457.351-.305.613-.75.785-1.336.18-.594.27-1.317.27-2.168 0-1.281-.2-2.246-.599-2.895-.398-.648-1.015-.972-1.851-.972zm20.953-2.614V268.5h-3.586v-10.418H91.79V268.5h-3.574v-13.102h11.906zm15.656 6.528c0 1.094-.148 2.062-.445 2.906-.289.844-.715 1.559-1.277 2.145a5.378 5.378 0 01-2.016 1.312c-.781.297-1.664.445-2.648.445-.922 0-1.77-.148-2.543-.445a5.649 5.649 0 01-2.004-1.312c-.563-.586-1-1.301-1.313-2.145-.304-.844-.457-1.812-.457-2.906 0-1.453.258-2.684.774-3.692.515-1.007 1.25-1.773 2.203-2.296.953-.524 2.09-.786 3.41-.786 1.227 0 2.312.262 3.258.786.953.523 1.699 1.289 2.238 2.296.547 1.008.82 2.239.82 3.692zm-9.058 0c0 .859.093 1.582.281 2.168.188.586.48 1.027.879 1.324.398.297.918.445 1.559.445.632 0 1.144-.148 1.535-.445.398-.297.687-.738.867-1.324.187-.586.281-1.309.281-2.168 0-.867-.094-1.586-.281-2.156-.18-.579-.469-1.012-.867-1.301-.399-.289-.918-.434-1.559-.434-.945 0-1.633.324-2.062.973-.422.648-.633 1.621-.633 2.918zm19.301-6.774c1.476 0 2.668.575 3.574 1.723.914 1.148 1.371 2.832 1.371 5.051 0 1.484-.215 2.734-.645 3.75-.429 1.008-1.023 1.769-1.781 2.285-.758.516-1.629.773-2.613.773-.633 0-1.176-.078-1.629-.234a4.182 4.182 0 01-1.16-.621 5.483 5.483 0 01-.832-.82h-.188a10.207 10.207 0 01.188 1.921v5.286h-3.575v-18.868h2.907l.504 1.7h.164c.234-.352.519-.676.855-.973a3.747 3.747 0 011.207-.703c.477-.18 1.028-.27 1.653-.27zm-1.149 2.86c-.625 0-1.121.129-1.488.386-.367.258-.637.645-.809 1.161-.164.515-.254 1.168-.269 1.957v.386c0 .844.078 1.559.234 2.145.164.586.434 1.031.809 1.336.382.305.906.457 1.57.457.547 0 .996-.152 1.348-.457.351-.305.613-.75.785-1.336.179-.594.269-1.317.269-2.168 0-1.281-.199-2.246-.597-2.895-.399-.648-1.016-.972-1.852-.972zm14.414-2.883c1.758 0 3.106.383 4.043 1.148.938.766 1.406 1.93 1.406 3.493v8.73h-2.496l-.691-1.781h-.094a6.652 6.652 0 01-1.148 1.148 3.93 3.93 0 01-1.348.656c-.508.141-1.125.211-1.852.211-.773 0-1.468-.148-2.085-.445a3.315 3.315 0 01-1.442-1.359c-.351-.618-.527-1.399-.527-2.344 0-1.391.488-2.414 1.465-3.07.976-.664 2.441-1.032 4.394-1.102l2.274-.07v-.574c0-.688-.18-1.192-.539-1.512-.36-.32-.86-.481-1.5-.481-.633 0-1.254.09-1.864.27-.609.18-1.219.406-1.828.68l-1.183-2.415a10.157 10.157 0 012.332-.867 11.303 11.303 0 012.683-.316zm1.899 7.301l-1.383.047c-1.156.031-1.961.238-2.414.621-.446.382-.668.886-.668 1.511 0 .547.16.938.48 1.172.321.227.739.34 1.254.34.766 0 1.41-.226 1.934-.68.531-.453.797-1.097.797-1.933v-1.078zm18.082-4.348h-4.289V268.5h-3.575v-10.418h-4.3v-2.684h12.164v2.684zm5.906-2.684v5.18c0 .266-.012.602-.035 1.008-.016.398-.039.805-.071 1.219-.031.414-.062.785-.093 1.113-.032.328-.055.551-.071.668l6.047-9.188h4.301V268.5h-3.457v-5.227c0-.429.016-.902.047-1.418.031-.523.066-1.015.105-1.476.039-.461.067-.809.082-1.043l-6.023 9.164h-4.289v-13.102h3.457zm25.453 3.434c0 .703-.223 1.305-.668 1.805-.437.492-1.086.808-1.945.949v.094c.906.109 1.636.425 2.191.949.555.516.832 1.168.832 1.957 0 .75-.195 1.422-.586 2.016-.39.586-1.011 1.05-1.863 1.394-.852.336-1.965.504-3.34.504h-6.234v-13.102h6.234c1.024 0 1.942.11 2.754.329.812.211 1.453.566 1.922 1.066.469.5.703 1.18.703 2.039zm-3.293 5.566c0-.515-.203-.886-.609-1.113-.399-.234-.993-.351-1.782-.351h-2.355v3.093h2.426c.672 0 1.226-.125 1.664-.375.437-.25.656-.668.656-1.254zm-.328-5.285c0-.406-.16-.707-.481-.902-.32-.195-.793-.293-1.418-.293h-2.519v2.59h2.109c.758 0 1.332-.11 1.723-.328.391-.219.586-.575.586-1.067zm10.676-3.715v5.04h4.992v-5.04h3.574V268.5h-3.574v-5.402h-4.992v5.402h-3.575v-13.102h3.575zm12.316 13.102v-13.102h3.574v5.063h1.723c1.336 0 2.437.141 3.305.422.875.281 1.523.711 1.945 1.289.422.57.633 1.289.633 2.156 0 .844-.196 1.578-.586 2.203-.391.625-1.008 1.11-1.852 1.453-.843.344-1.949.516-3.316.516h-5.426zm3.574-2.473h1.653c.695 0 1.265-.125 1.711-.375.445-.257.668-.683.668-1.277 0-.508-.204-.875-.61-1.102-.406-.226-1.012-.339-1.816-.339h-1.606v3.093zm9.504 2.473v-13.102h3.574V268.5h-3.574zm10.793-13.102v5.18c0 .266-.012.602-.035 1.008-.016.398-.039.805-.07 1.219-.032.414-.063.785-.094 1.113-.031.328-.055.551-.07.668l6.047-9.188h4.3V268.5h-3.457v-5.227c0-.429.016-.902.047-1.418.031-.523.067-1.015.106-1.476.039-.461.066-.809.082-1.043l-6.024 9.164h-4.289v-13.102h3.457zm9.094-5.636c-.086.828-.32 1.558-.703 2.191-.383.633-.981 1.125-1.793 1.477-.813.351-1.906.527-3.281.527-1.414 0-2.516-.168-3.305-.504-.789-.344-1.352-.828-1.688-1.453-.336-.633-.539-1.379-.609-2.238h3.199c.071.883.293 1.468.668 1.758.375.281.977.421 1.805.421.687 0 1.25-.156 1.687-.468.438-.313.7-.883.786-1.711h3.234zm-130.676 38.636V301.5h-3.586v-10.418h-4.746V301.5h-3.574v-13.102h11.906zm15.656 6.528c0 1.094-.148 2.062-.445 2.906-.289.844-.715 1.559-1.277 2.145a5.378 5.378 0 01-2.016 1.312c-.781.297-1.664.445-2.648.445-.922 0-1.77-.148-2.543-.445a5.649 5.649 0 01-2.004-1.312c-.563-.586-1-1.301-1.313-2.145-.304-.844-.457-1.812-.457-2.906 0-1.453.258-2.684.774-3.692.515-1.007 1.25-1.773 2.203-2.296.953-.524 2.09-.786 3.41-.786 1.227 0 2.313.262 3.258.786.953.523 1.699 1.289 2.238 2.296.547 1.008.82 2.239.82 3.692zm-9.058 0c0 .859.094 1.582.281 2.168.188.586.481 1.027.879 1.324.398.297.918.445 1.559.445.632 0 1.144-.148 1.535-.445.398-.297.687-.738.867-1.324.187-.586.281-1.309.281-2.168 0-.867-.094-1.586-.281-2.156-.18-.579-.469-1.012-.867-1.301-.399-.289-.918-.434-1.559-.434-.945 0-1.633.324-2.062.973-.422.648-.633 1.621-.633 2.918zm19.301-6.774c1.476 0 2.668.575 3.574 1.723.914 1.148 1.371 2.832 1.371 5.051 0 1.484-.215 2.734-.645 3.75-.429 1.008-1.023 1.769-1.781 2.285-.758.516-1.629.773-2.613.773-.633 0-1.176-.078-1.629-.234a4.182 4.182 0 01-1.16-.621 5.483 5.483 0 01-.832-.82h-.188a10.207 10.207 0 01.188 1.921v5.286h-3.574v-18.868h2.906l.504 1.7h.164c.234-.352.519-.676.855-.973a3.747 3.747 0 011.207-.703c.477-.18 1.028-.27 1.653-.27zm-1.149 2.86c-.625 0-1.121.129-1.488.386-.367.258-.637.645-.809 1.161-.164.515-.254 1.168-.269 1.957v.386c0 .844.078 1.559.234 2.145.164.586.434 1.031.809 1.336.383.305.906.457 1.57.457.547 0 .996-.152 1.348-.457.351-.305.613-.75.785-1.336.18-.594.269-1.317.269-2.168 0-1.281-.199-2.246-.597-2.895-.399-.648-1.016-.972-1.852-.972zm19.887.07h-4.289V301.5h-3.574v-10.418h-4.301v-2.684h12.164v2.684zm7.816-2.953c1.758 0 3.106.383 4.043 1.148.938.766 1.407 1.93 1.407 3.493v8.73h-2.497l-.691-1.781h-.094a6.652 6.652 0 01-1.148 1.148 3.93 3.93 0 01-1.348.656c-.508.141-1.125.211-1.851.211-.774 0-1.469-.148-2.086-.445a3.315 3.315 0 01-1.442-1.359c-.351-.618-.527-1.399-.527-2.344 0-1.391.488-2.414 1.465-3.07.976-.664 2.441-1.032 4.394-1.102l2.274-.07v-.574c0-.688-.18-1.192-.539-1.512-.36-.32-.86-.481-1.5-.481-.633 0-1.254.09-1.864.27-.609.18-1.218.406-1.828.68l-1.183-2.415a10.157 10.157 0 012.332-.867 11.303 11.303 0 012.683-.316zm1.899 7.301l-1.383.047c-1.156.031-1.961.238-2.414.621-.445.382-.668.886-.668 1.511 0 .547.16.938.48 1.172.321.227.739.34 1.254.34.766 0 1.41-.226 1.934-.68.531-.453.797-1.097.797-1.933v-1.078zm18.972 6.07h-3.574v-10.418h-3.293c-.164 1.922-.359 3.559-.586 4.91-.226 1.352-.515 2.453-.867 3.305-.351.844-.789 1.461-1.312 1.851-.524.391-1.168.586-1.934.586a6.3 6.3 0 01-1.137-.093 3.95 3.95 0 01-.902-.282V298.5c.172.07.355.129.551.176.195.039.394.058.597.058.227 0 .442-.089.645-.269.203-.18.394-.488.574-.926.18-.445.348-1.059.504-1.84.164-.781.313-1.769.445-2.965.133-1.195.258-2.64.375-4.336h9.914V301.5z" fill="#232323"/></svg>