<svg width="184" height="240" fill="none" xmlns="http://www.w3.org/2000/svg"><path d="M177.785 6.035l.04.044.044.038C181.203 9.021 183 14.033 183 21.453v23.836c0 7.407-1.792 12.658-5.174 15.971-2.963 2.903-8.109 4.482-15.722 4.482H94.881c-5.47 0-9.818 1.653-12.888 5.076-3.067 3.02-4.534 7.274-4.534 12.61v9.938h84.645c7.587 0 12.715 1.765 15.681 5.035l.04.043.044.039c3.334 2.903 5.131 7.916 5.131 15.335v104.729c0 7.408-1.792 12.658-5.174 15.971-2.963 2.903-8.109 4.482-15.722 4.482H21.895c-7.564 0-12.94-1.559-16.328-4.483C2.587 231.203 1 225.949 1 218.547V89.982c0-30.021 8.06-52.15 24-66.596v-.001C41.405 8.489 63.043 1 90.016 1h72.089c7.587 0 12.715 1.765 15.681 5.035z" stroke="#F5F6FF" stroke-width="2"/></svg>