<svg width="286" height="221" fill="none" xmlns="http://www.w3.org/2000/svg"><path d="M209.564 151.563l.023-.024.022-.026c2.833-3.363 4.205-7.736 4.205-13.02v-9.84H20.419c-7.034 0-12.018-1.535-15.16-4.409C2.484 120.968 1 115.766 1 108.437V21.216C1 13.839 2.503 8.86 5.258 5.997 8.4 2.733 13.38 1 20.418 1h245.145c7.052 0 11.803 1.738 14.555 4.954l.038.045.043.04c3.102 2.865 4.784 7.825 4.784 15.177v110.795c0 29.695-7.708 51.785-22.949 66.463C247.133 212.796 227.171 220 202.038 220H20.418c-7.033 0-12.017-1.536-15.159-4.41C2.484 212.314 1 207.112 1 199.784v-23.573c0-7.378 1.503-12.357 4.258-15.219 3.142-3.264 8.122-4.997 15.16-4.997H197.5c5.105 0 9.179-1.434 12.064-4.432z" stroke="#F5F6FF" stroke-width="2"/></svg>