<svg width="287" height="390" fill="none" xmlns="http://www.w3.org/2000/svg"><path d="M145.75 266.948l.023-.023.022-.025c5.065-5.767 7.555-13.3 7.555-22.5v-16.6H38.577c-13.08 0-22.518-2.742-28.52-8.03C4.751 213.792 2 204.39 2 191.36V37.44c0-13.077 2.77-22.105 8.056-27.372C16.056 4.09 25.49 1 38.576 1h210.847c13.1 0 22.146 3.096 27.437 9.026l.039.044.044.039C282.894 15.379 286 24.39 286 37.44v195.52c0 52.518-14.214 91.728-42.474 117.825C215.917 376.231 178.951 389 132.518 389H38.577c-13.08 0-22.518-2.742-28.52-8.03C4.752 374.992 2 365.59 2 352.56v-41.6c0-13.077 2.771-22.106 8.056-27.372 6-5.978 15.434-9.068 28.52-9.068h85.592c9.224 0 16.47-2.478 21.582-7.572z" fill="#F5F6FF" stroke="#232323" stroke-width="2"/><path d="M74.258 95.144c-.766 0-1.527.11-2.285.329-.75.218-1.485.48-2.204.785l-1.148-2.93a13.915 13.915 0 012.672-.879 13.441 13.441 0 013.035-.328c1.258 0 2.379.2 3.363.598a6.52 6.52 0 012.508 1.722c.688.758 1.207 1.684 1.559 2.778.36 1.094.539 2.34.539 3.738 0 1.758-.297 3.297-.89 4.617a6.66 6.66 0 01-2.72 3.071c-1.226.726-2.793 1.089-4.699 1.089-.984 0-1.87-.07-2.66-.211a12.666 12.666 0 01-2.402-.668v-3.046a24.88 24.88 0 002.531.668c.781.156 1.555.234 2.32.234.735 0 1.383-.09 1.946-.27a3.887 3.887 0 001.441-.82c.398-.367.707-.82.926-1.359.226-.547.355-1.184.387-1.91h-7.43v-2.977h7.406c-.023-.672-.137-1.266-.34-1.781a3.81 3.81 0 00-.855-1.336 3.587 3.587 0 00-1.313-.832 4.778 4.778 0 00-1.687-.282zm14.883 1.254v5.04h4.992v-5.04h3.574V109.5h-3.574v-5.402H89.14v5.402h-3.575V96.398h3.575zm23.156 2.684h-4.289V109.5h-3.574V99.082h-4.301v-2.684h12.164v2.684zm7.851-2.93c1.211 0 2.254.235 3.129.704a4.809 4.809 0 012.028 2.015c.476.883.715 1.961.715 3.234v1.735h-8.45c.039 1.008.34 1.801.903 2.379.57.57 1.359.855 2.367.855.836 0 1.601-.086 2.297-.258.695-.171 1.41-.429 2.144-.773v2.766a8.545 8.545 0 01-2.039.703c-.703.148-1.558.222-2.566.222-1.313 0-2.477-.242-3.492-.726a5.428 5.428 0 01-2.379-2.215c-.571-.992-.856-2.242-.856-3.75 0-1.531.258-2.805.774-3.82.523-1.024 1.25-1.79 2.179-2.297.93-.516 2.012-.774 3.246-.774zm.024 2.543c-.695 0-1.274.223-1.734.668-.454.446-.715 1.145-.786 2.098h5.016a3.544 3.544 0 00-.293-1.418 2.204 2.204 0 00-.82-.984c-.36-.243-.821-.364-1.383-.364zm16.043-2.543c1.476 0 2.668.575 3.574 1.723.914 1.148 1.371 2.832 1.371 5.051 0 1.484-.215 2.734-.644 3.75-.43 1.008-1.024 1.769-1.782 2.285-.757.516-1.629.773-2.613.773-.633 0-1.176-.078-1.629-.234a4.182 4.182 0 01-1.16-.621 5.53 5.53 0 01-.832-.82h-.188a10.207 10.207 0 01.188 1.921v5.286h-3.574V96.398h2.906l.504 1.7h.164c.234-.352.52-.676.855-.973a3.758 3.758 0 011.207-.703c.477-.18 1.028-.27 1.653-.27zm-1.149 2.86c-.625 0-1.121.129-1.488.386-.367.258-.637.645-.808 1.161-.165.515-.254 1.168-.27 1.957v.386c0 .844.078 1.559.234 2.145.164.586.434 1.031.809 1.336.383.305.906.457 1.57.457.547 0 .996-.152 1.348-.457.351-.305.613-.75.785-1.336.18-.594.27-1.317.27-2.168 0-1.281-.2-2.246-.598-2.895-.398-.648-1.016-.972-1.852-.972zm20.954-2.614V109.5h-3.586V99.082h-4.746V109.5h-3.575V96.398h11.907zm11.039-.246c1.476 0 2.668.575 3.574 1.723.914 1.148 1.371 2.832 1.371 5.051 0 1.484-.215 2.734-.645 3.75-.429 1.008-1.023 1.769-1.781 2.285-.758.516-1.629.773-2.613.773-.633 0-1.176-.078-1.629-.234a4.182 4.182 0 01-1.16-.621 5.483 5.483 0 01-.832-.82h-.188a10.207 10.207 0 01.188 1.921v5.286h-3.574V96.398h2.906l.504 1.7h.164a4.98 4.98 0 01.855-.973 3.758 3.758 0 011.207-.703c.477-.18 1.028-.27 1.653-.27zm-1.149 2.86c-.625 0-1.121.129-1.488.386-.367.258-.637.645-.809 1.161-.164.515-.254 1.168-.269 1.957v.386c0 .844.078 1.559.234 2.145.164.586.434 1.031.809 1.336.383.305.906.457 1.57.457.547 0 .996-.152 1.348-.457.351-.305.613-.75.785-1.336.18-.594.269-1.317.269-2.168 0-1.281-.199-2.246-.597-2.895-.399-.648-1.016-.972-1.852-.972zm14.414-2.883c1.758 0 3.106.383 4.043 1.148.938.766 1.406 1.93 1.406 3.493v8.73h-2.496l-.691-1.781h-.094a6.652 6.652 0 01-1.148 1.148 3.93 3.93 0 01-1.348.656c-.508.141-1.125.211-1.851.211-.774 0-1.469-.148-2.086-.445a3.315 3.315 0 01-1.442-1.359c-.351-.618-.527-1.399-.527-2.344 0-1.391.488-2.414 1.465-3.07.976-.664 2.441-1.032 4.394-1.102l2.274-.07v-.574c0-.688-.18-1.192-.539-1.512-.36-.32-.86-.48-1.5-.48-.633 0-1.254.09-1.864.269-.609.18-1.218.406-1.828.68l-1.183-2.415a10.143 10.143 0 012.332-.867c.867-.21 1.761-.316 2.683-.316zm1.899 7.301l-1.383.047c-1.156.031-1.961.238-2.414.621-.446.382-.668.886-.668 1.511 0 .547.16.938.48 1.172.321.227.739.34 1.254.34.766 0 1.41-.226 1.934-.68.531-.453.797-1.097.797-1.933v-1.078zm10.699-7.032v5.18c0 .266-.012.602-.035 1.008-.016.398-.039.805-.071 1.219-.031.414-.062.785-.093 1.113-.032.328-.055.551-.071.668l6.047-9.188H203V109.5h-3.457v-5.227c0-.429.016-.902.047-1.418.031-.523.066-1.015.105-1.476.039-.461.067-.809.082-1.043l-6.023 9.164h-4.289V96.398h3.457zm9.094-5.636c-.086.828-.321 1.558-.704 2.191-.382.633-.98 1.125-1.792 1.477-.813.351-1.907.527-3.282.527-1.414 0-2.515-.168-3.304-.504-.789-.344-1.352-.828-1.688-1.453-.336-.633-.539-1.379-.609-2.238h3.199c.07.882.293 1.469.668 1.757.375.282.976.422 1.805.422.687 0 1.25-.156 1.687-.468.438-.313.699-.883.785-1.711h3.235zm9.515 5.39c.946 0 1.828.125 2.649.375.82.242 1.484.621 1.992 1.137.508.508.762 1.164.762 1.969 0 .789-.239 1.418-.715 1.887-.477.46-1.11.792-1.899.996v.117a6.755 6.755 0 011.5.539c.453.226.813.539 1.078.937.266.399.399.922.399 1.571 0 .726-.231 1.398-.692 2.015-.46.61-1.167 1.102-2.121 1.477-.945.375-2.16.562-3.644.562-.703 0-1.367-.031-1.992-.093a14.235 14.235 0 01-1.7-.27 7.787 7.787 0 01-1.347-.445v-2.953c.539.25 1.203.48 1.992.691a9.904 9.904 0 002.543.316c.648 0 1.234-.046 1.758-.14.531-.094.949-.25 1.254-.469a1.06 1.06 0 00.468-.902c0-.352-.136-.641-.41-.867-.265-.235-.676-.407-1.23-.516-.547-.117-1.242-.176-2.086-.176h-1.383v-2.472h1.313c1.187 0 2.105-.098 2.753-.293.649-.196.973-.555.973-1.079 0-.422-.207-.738-.621-.949-.414-.21-1.098-.316-2.051-.316-.617 0-1.297.074-2.039.222-.742.141-1.437.344-2.086.61l-1.054-2.496a15.663 15.663 0 012.46-.703c.891-.188 1.95-.282 3.176-.282zm-116.484 33c1.476 0 2.668.575 3.574 1.723.914 1.148 1.371 2.832 1.371 5.051 0 1.484-.215 2.734-.644 3.75-.43 1.008-1.024 1.769-1.782 2.285-.757.516-1.629.773-2.613.773-.633 0-1.176-.078-1.629-.234a4.186 4.186 0 01-1.16-.621 5.535 5.535 0 01-.832-.82h-.188a10.138 10.138 0 01.188 1.921v5.286h-3.574v-18.868h2.906l.504 1.7h.164c.234-.352.52-.676.856-.973a3.75 3.75 0 011.206-.703c.477-.18 1.028-.27 1.653-.27zm-1.149 2.86c-.625 0-1.12.129-1.488.386-.367.258-.637.645-.808 1.161-.165.515-.254 1.168-.27 1.957v.386c0 .844.078 1.559.234 2.145.165.586.434 1.031.809 1.336.383.305.906.457 1.57.457.547 0 .996-.152 1.348-.457.351-.305.613-.75.785-1.336.18-.594.27-1.317.27-2.168 0-1.281-.2-2.246-.598-2.895-.398-.648-1.016-.972-1.852-.972zm14.45-2.86c1.211 0 2.254.235 3.129.703a4.807 4.807 0 012.027 2.016c.476.883.715 1.961.715 3.234v1.735h-8.449c.039 1.008.339 1.801.902 2.379.57.57 1.359.855 2.367.855.836 0 1.602-.086 2.297-.258.695-.171 1.41-.429 2.144-.773v2.766a8.545 8.545 0 01-2.039.703c-.703.148-1.558.222-2.566.222-1.313 0-2.477-.242-3.492-.726a5.428 5.428 0 01-2.379-2.215c-.57-.992-.856-2.242-.856-3.75 0-1.531.258-2.805.774-3.82.523-1.024 1.25-1.789 2.18-2.297.929-.516 2.011-.774 3.246-.774zm.023 2.543c-.695 0-1.273.223-1.734.668-.453.446-.715 1.145-.785 2.098h5.015c-.008-.531-.105-1.004-.293-1.418a2.196 2.196 0 00-.82-.984c-.359-.243-.82-.364-1.383-.364zm28.266-2.297V142.5h-19.512v-13.102h3.574v10.418h4.395v-10.418h3.574v10.418h4.394v-10.418h3.575zm9.164-.246c1.211 0 2.254.235 3.129.703a4.807 4.807 0 012.027 2.016c.477.883.715 1.961.715 3.234v1.735h-8.449c.039 1.008.339 1.801.902 2.379.57.57 1.359.855 2.367.855.836 0 1.602-.086 2.297-.258.695-.171 1.41-.429 2.145-.773v2.766a8.575 8.575 0 01-2.039.703c-.704.148-1.559.222-2.567.222-1.312 0-2.476-.242-3.492-.726a5.428 5.428 0 01-2.379-2.215c-.57-.992-.855-2.242-.855-3.75 0-1.531.257-2.805.773-3.82.523-1.024 1.25-1.789 2.18-2.297.929-.516 2.011-.774 3.246-.774zm.023 2.543c-.695 0-1.273.223-1.734.668-.453.446-.715 1.145-.785 2.098h5.015c-.008-.531-.105-1.004-.293-1.418a2.196 2.196 0 00-.82-.984c-.359-.243-.82-.364-1.383-.364zm12.328-2.297v5.04h4.993v-5.04h3.574V142.5h-3.574v-5.402h-4.993v5.402h-3.574v-13.102h3.574zm15.774 0v5.18c0 .266-.012.602-.035 1.008-.016.398-.039.805-.071 1.219-.031.414-.062.785-.093 1.113-.032.328-.055.551-.071.668l6.047-9.188h4.301V142.5h-3.457v-5.227c0-.429.015-.902.047-1.418.031-.523.066-1.015.105-1.476.039-.461.067-.809.082-1.043l-6.023 9.164h-4.289v-13.102h3.457zm15.832 13.102h-3.867l3.527-5.18a4.902 4.902 0 01-1.254-.773 3.792 3.792 0 01-.949-1.266c-.242-.508-.363-1.117-.363-1.828 0-1.305.492-2.305 1.476-3 .992-.703 2.27-1.055 3.832-1.055h6.094V142.5h-3.574v-4.875h-1.969l-2.953 4.875zm.597-9.023c0 .546.215.976.645 1.289.438.304 1 .457 1.688.457h1.992v-3.305h-2.45c-.64 0-1.113.156-1.418.469a1.49 1.49 0 00-.457 1.09z" fill="#232323"/></svg>