<svg width="287" height="390" fill="none" xmlns="http://www.w3.org/2000/svg"><path d="M145.75 266.948l.023-.023.022-.025c5.065-5.767 7.555-13.3 7.555-22.5v-16.6H38.577c-13.08 0-22.518-2.742-28.52-8.03C4.751 213.792 2 204.39 2 191.36V37.44c0-13.077 2.77-22.105 8.056-27.372C16.056 4.09 25.49 1 38.576 1h210.847c13.1 0 22.146 3.096 27.437 9.026l.039.044.044.039C282.894 15.379 286 24.39 286 37.44v195.52c0 52.518-14.214 91.728-42.474 117.825C215.917 376.231 178.951 389 132.518 389H38.577c-13.08 0-22.518-2.742-28.52-8.03C4.752 374.992 2 365.59 2 352.56v-41.6c0-13.077 2.771-22.106 8.056-27.372 6-5.978 15.434-9.068 28.52-9.068h85.592c9.224 0 16.47-2.478 21.582-7.572z" fill="#F5F6FF" stroke="#232323" stroke-width="2"/><path d="M83.809 100.91c0 1.32-.165 2.524-.493 3.61-.328 1.078-.828 2.007-1.5 2.789-.664.781-1.507 1.382-2.53 1.804-1.024.414-2.235.621-3.634.621-1.398 0-2.609-.207-3.633-.621-1.023-.422-1.87-1.023-2.542-1.804-.665-.782-1.16-1.715-1.489-2.801-.328-1.086-.492-2.293-.492-3.621 0-1.774.29-3.317.867-4.63.586-1.32 1.485-2.343 2.696-3.07 1.21-.726 2.75-1.09 4.617-1.09 1.86 0 3.386.364 4.582 1.09 1.203.727 2.094 1.75 2.672 3.07.586 1.321.879 2.872.879 4.653zm-12.504 0c0 1.195.148 2.227.445 3.094.305.859.777 1.523 1.418 1.992.64.461 1.469.692 2.484.692 1.032 0 1.867-.231 2.508-.692.64-.469 1.106-1.133 1.395-1.992.297-.867.445-1.899.445-3.094 0-1.797-.336-3.21-1.008-4.242-.672-1.031-1.777-1.547-3.316-1.547-1.024 0-1.86.235-2.508.703-.64.461-1.113 1.125-1.418 1.992-.297.86-.445 1.891-.445 3.094zm26.613-1.828h-4.29V109.5h-3.573V99.082h-4.301v-2.684h12.164v2.684zm9.738-2.93c1.477 0 2.668.575 3.574 1.723.915 1.148 1.372 2.832 1.372 5.051 0 1.484-.215 2.734-.645 3.75-.43 1.008-1.023 1.769-1.781 2.285-.758.516-1.629.773-2.614.773-.632 0-1.175-.078-1.628-.234a4.188 4.188 0 01-1.161-.621 5.576 5.576 0 01-.832-.82h-.187a9.786 9.786 0 01.187 1.921v5.286h-3.574V96.398h2.906l.504 1.7h.164c.235-.352.52-.676.856-.973a3.747 3.747 0 011.207-.703c.476-.18 1.027-.27 1.652-.27zm-1.148 2.86c-.625 0-1.121.129-1.488.386-.368.258-.637.645-.809 1.161-.164.515-.254 1.168-.27 1.957v.386c0 .844.079 1.559.235 2.145.164.586.433 1.031.808 1.336.383.305.907.457 1.571.457.547 0 .996-.152 1.347-.457.352-.305.614-.75.786-1.336.179-.594.269-1.317.269-2.168 0-1.281-.199-2.246-.598-2.895-.398-.648-1.015-.972-1.851-.972zm14.414-2.883c1.758 0 3.105.383 4.043 1.148.937.766 1.406 1.93 1.406 3.493v8.73h-2.496l-.691-1.781h-.094a6.62 6.62 0 01-1.149 1.148c-.39.297-.839.516-1.347.656-.508.141-1.125.211-1.852.211-.773 0-1.469-.148-2.086-.445a3.313 3.313 0 01-1.441-1.359c-.352-.618-.527-1.399-.527-2.344 0-1.391.488-2.414 1.464-3.07.977-.664 2.442-1.032 4.395-1.102l2.273-.07v-.574c0-.688-.179-1.192-.539-1.512-.359-.32-.859-.48-1.5-.48a6.55 6.55 0 00-1.863.269c-.609.18-1.219.406-1.828.68l-1.184-2.415a10.178 10.178 0 012.332-.867c.867-.21 1.762-.316 2.684-.316zm1.898 7.301l-1.382.047c-1.157.031-1.961.238-2.415.621-.445.382-.668.886-.668 1.511 0 .547.161.938.481 1.172.32.227.738.34 1.254.34.765 0 1.41-.226 1.933-.68.532-.453.797-1.097.797-1.933v-1.078zm12.563 6.304c-1.297 0-2.403-.234-3.317-.703-.914-.476-1.609-1.211-2.086-2.203-.476-.992-.714-2.262-.714-3.808 0-1.602.269-2.907.808-3.914.547-1.016 1.301-1.762 2.262-2.239.969-.476 2.09-.715 3.363-.715.906 0 1.688.09 2.344.27a9.1 9.1 0 011.734.621l-1.054 2.766a16.666 16.666 0 00-1.571-.551 4.932 4.932 0 00-1.453-.223c-.625 0-1.144.149-1.558.446-.414.288-.723.726-.926 1.312-.203.586-.305 1.32-.305 2.203 0 .867.11 1.586.328 2.156.219.571.535.996.95 1.278.414.273.917.41 1.511.41.742 0 1.403-.098 1.981-.293a7.76 7.76 0 001.687-.844v3.059a5.872 5.872 0 01-1.722.738c-.594.156-1.348.234-2.262.234zm18.762-.234h-3.575V99.082h-3.293c-.164 1.922-.359 3.559-.586 4.91-.226 1.352-.515 2.453-.867 3.305-.351.844-.789 1.461-1.312 1.851-.524.391-1.168.586-1.934.586a6.3 6.3 0 01-1.137-.093 3.95 3.95 0 01-.902-.282V106.5c.172.07.356.129.551.176.195.039.394.058.598.058.226 0 .441-.089.644-.269.203-.18.395-.488.574-.926.18-.445.348-1.059.504-1.84.164-.781.313-1.769.445-2.965.133-1.195.258-2.64.375-4.336h9.915V109.5zm9.164-13.348c1.211 0 2.253.235 3.129.704a4.812 4.812 0 012.027 2.015c.476.883.715 1.961.715 3.234v1.735h-8.45c.04 1.008.34 1.801.903 2.379.57.57 1.359.855 2.367.855.836 0 1.602-.086 2.297-.258.695-.171 1.41-.429 2.144-.773v2.766a8.545 8.545 0 01-2.039.703c-.703.148-1.558.222-2.566.222-1.313 0-2.477-.242-3.492-.726a5.428 5.428 0 01-2.379-2.215c-.57-.992-.856-2.242-.856-3.75 0-1.531.258-2.805.774-3.82.523-1.024 1.25-1.79 2.179-2.297.93-.516 2.012-.774 3.247-.774zm.023 2.543c-.695 0-1.273.223-1.734.668-.453.446-.715 1.145-.786 2.098h5.016c-.008-.531-.105-1.004-.293-1.418a2.204 2.204 0 00-.82-.984c-.36-.243-.82-.364-1.383-.364zm20.367 1.137c0 .703-.222 1.305-.668 1.805-.437.492-1.086.808-1.945.949v.094c.906.109 1.637.425 2.191.949.555.516.832 1.168.832 1.957 0 .75-.195 1.422-.586 2.016-.39.586-1.011 1.05-1.863 1.394-.851.336-1.965.504-3.34.504h-6.234V96.398h6.234c1.024 0 1.942.11 2.754.329.813.21 1.453.566 1.922 1.066.469.5.703 1.18.703 2.039zm-3.293 5.566c0-.515-.203-.886-.609-1.113-.399-.234-.992-.351-1.781-.351h-2.356v3.093h2.426c.672 0 1.226-.125 1.664-.375.438-.25.656-.668.656-1.254zm-.328-5.285c0-.406-.16-.707-.48-.902-.321-.195-.793-.293-1.418-.293h-2.52v2.59h2.11c.757 0 1.332-.11 1.722-.328.391-.219.586-.575.586-1.067zm7.102 9.387V96.398h3.574v5.063h1.723c1.335 0 2.437.141 3.304.422.875.281 1.524.711 1.946 1.289.421.57.632 1.289.632 2.156 0 .844-.195 1.578-.586 2.203-.39.625-1.007 1.11-1.851 1.453-.844.344-1.949.516-3.317.516h-5.425zm3.574-2.473h1.652c.696 0 1.266-.125 1.711-.375.445-.257.668-.683.668-1.277 0-.508-.203-.875-.609-1.102-.406-.226-1.012-.339-1.817-.339h-1.605v3.093zm9.504 2.473V96.398h3.574V109.5h-3.574zm12.738-13.348c1.211 0 2.254.235 3.129.704a4.8 4.8 0 012.027 2.015c.477.883.715 1.961.715 3.234v1.735h-8.449c.039 1.008.34 1.801.902 2.379.571.57 1.36.855 2.368.855.835 0 1.601-.086 2.296-.258a11.58 11.58 0 002.145-.773v2.766a8.56 8.56 0 01-2.039.703c-.703.148-1.559.222-2.567.222-1.312 0-2.476-.242-3.492-.726a5.428 5.428 0 01-2.379-2.215c-.57-.992-.855-2.242-.855-3.75 0-1.531.258-2.805.773-3.82.524-1.024 1.25-1.79 2.18-2.297.93-.516 2.012-.774 3.246-.774zm.024 2.543c-.696 0-1.274.223-1.735.668-.453.446-.715 1.145-.785 2.098h5.016a3.544 3.544 0 00-.293-1.418 2.2 2.2 0 00-.821-.984c-.359-.243-.82-.364-1.382-.364zM44.586 129.152c1.477 0 2.668.575 3.574 1.723.914 1.148 1.371 2.832 1.371 5.051 0 1.484-.215 2.734-.644 3.75-.43 1.008-1.024 1.769-1.782 2.285-.757.516-1.628.773-2.613.773-.633 0-1.176-.078-1.629-.234a4.186 4.186 0 01-1.16-.621 5.534 5.534 0 01-.832-.82h-.187a10.106 10.106 0 01.188 1.921v5.286h-3.575v-18.868h2.906l.504 1.7h.164c.234-.352.52-.676.856-.973a3.748 3.748 0 011.207-.703c.476-.18 1.027-.27 1.652-.27zm-1.148 2.86c-.626 0-1.122.129-1.489.386-.367.258-.636.645-.808 1.161-.164.515-.254 1.168-.27 1.957v.386c0 .844.078 1.559.234 2.145.165.586.434 1.031.81 1.336.382.305.905.457 1.57.457.546 0 .995-.152 1.347-.457.352-.305.613-.75.785-1.336.18-.594.27-1.317.27-2.168 0-1.281-.2-2.246-.598-2.895-.398-.648-1.016-.972-1.852-.972zm14.449-2.86c1.21 0 2.254.235 3.129.703a4.806 4.806 0 012.027 2.016c.477.883.715 1.961.715 3.234v1.735h-8.45c.04 1.008.34 1.801.903 2.379.57.57 1.36.855 2.367.855.836 0 1.602-.086 2.297-.258.695-.171 1.41-.429 2.145-.773v2.766a8.552 8.552 0 01-2.04.703c-.703.148-1.558.222-2.566.222-1.312 0-2.477-.242-3.492-.726a5.43 5.43 0 01-2.379-2.215c-.57-.992-.855-2.242-.855-3.75 0-1.531.257-2.805.773-3.82.523-1.024 1.25-1.789 2.18-2.297.93-.516 2.011-.774 3.246-.774zm.023 2.543c-.695 0-1.273.223-1.734.668-.453.446-.715 1.145-.785 2.098h5.015a3.532 3.532 0 00-.293-1.418 2.2 2.2 0 00-.82-.984c-.36-.243-.82-.364-1.383-.364zm28.266-2.297V142.5H66.664v-13.102h3.574v10.418h4.395v-10.418h3.574v10.418h4.395v-10.418h3.574zm9.164-.246c1.21 0 2.254.235 3.129.703a4.802 4.802 0 012.027 2.016c.477.883.715 1.961.715 3.234v1.735h-8.45c.04 1.008.34 1.801.903 2.379.57.57 1.36.855 2.367.855.836 0 1.602-.086 2.297-.258.695-.171 1.41-.429 2.145-.773v2.766a8.561 8.561 0 01-2.04.703c-.703.148-1.558.222-2.566.222-1.312 0-2.476-.242-3.492-.726a5.43 5.43 0 01-2.379-2.215c-.57-.992-.855-2.242-.855-3.75 0-1.531.257-2.805.773-3.82.523-1.024 1.25-1.789 2.18-2.297.93-.516 2.012-.774 3.246-.774zm.023 2.543c-.695 0-1.273.223-1.734.668-.453.446-.715 1.145-.785 2.098h5.015a3.532 3.532 0 00-.293-1.418 2.2 2.2 0 00-.82-.984c-.36-.243-.82-.364-1.383-.364zm12.328-2.297v5.04h4.993v-5.04h3.574V142.5h-3.574v-5.402h-4.993v5.402h-3.574v-13.102h3.574zm15.774 0v5.18c0 .266-.012.602-.035 1.008-.016.398-.039.805-.071 1.219-.031.414-.062.785-.093 1.113-.032.328-.055.551-.071.668l6.047-9.188h4.301V142.5h-3.457v-5.227c0-.429.016-.902.047-1.418.031-.523.066-1.015.105-1.476.039-.461.067-.809.082-1.043l-6.023 9.164h-4.289v-13.102h3.457zm15.832 13.102h-3.867l3.527-5.18a4.902 4.902 0 01-1.254-.773 3.792 3.792 0 01-.949-1.266c-.242-.508-.363-1.117-.363-1.828 0-1.305.492-2.305 1.476-3 .992-.703 2.27-1.055 3.832-1.055h6.094V142.5h-3.574v-4.875h-1.969l-2.953 4.875zm.598-9.023c0 .546.214.976.644 1.289.438.304 1 .457 1.688.457h1.992v-3.305h-2.449c-.641 0-1.114.156-1.418.469a1.486 1.486 0 00-.457 1.09zm29.648-4.079v10.489h1.922v7.312h-3.211V142.5h-8.813v4.699h-3.211v-7.312h1.102c.578-.883 1.063-1.891 1.453-3.024.399-1.133.719-2.332.961-3.597.25-1.274.43-2.563.539-3.868h9.258zm-3.574 2.684h-2.684a34.183 34.183 0 01-.48 2.813 22.856 22.856 0 01-.703 2.601 16.25 16.25 0 01-1.032 2.391h4.899v-7.805zm19.465 10.418h-3.575v-10.418h-3.293c-.164 1.922-.359 3.559-.586 4.91-.226 1.352-.515 2.453-.867 3.305-.351.844-.789 1.461-1.312 1.851-.524.391-1.168.586-1.934.586a6.3 6.3 0 01-1.137-.093 3.966 3.966 0 01-.902-.282V139.5c.172.07.356.129.551.176.195.039.394.058.598.058.226 0 .441-.089.644-.269.203-.18.395-.488.574-.926.18-.445.348-1.059.504-1.84.164-.781.313-1.769.446-2.965.132-1.195.257-2.64.375-4.336h9.914V142.5zm5.754 0h-3.868l3.528-5.18a4.868 4.868 0 01-1.254-.773 3.792 3.792 0 01-.949-1.266c-.243-.508-.364-1.117-.364-1.828 0-1.305.492-2.305 1.477-3 .992-.703 2.269-1.055 3.832-1.055h6.094V142.5h-3.575v-4.875h-1.968l-2.953 4.875zm.597-9.023c0 .546.215.976.645 1.289.437.304 1 .457 1.687.457h1.992v-3.305h-2.449c-.64 0-1.113.156-1.418.469a1.49 1.49 0 00-.457 1.09zm18.153 9.023v-17.133h10.828v3h-7.196v3.574H215c1.609 0 2.93.223 3.961.668 1.039.446 1.805 1.063 2.297 1.852.5.781.75 1.676.75 2.684 0 1.695-.567 3.011-1.699 3.949-1.125.937-2.918 1.406-5.379 1.406h-4.992zm3.632-2.977h1.219c1.102 0 1.969-.175 2.602-.527.632-.359.949-.976.949-1.851 0-.61-.156-1.075-.469-1.395-.305-.32-.746-.539-1.324-.656-.57-.117-1.254-.176-2.051-.176h-.926v4.605zm22.477 2.977H224.07v-2.52l4.301-4.347a63.836 63.836 0 002.086-2.227c.531-.601.914-1.148 1.148-1.64.243-.493.364-1.02.364-1.582 0-.68-.192-1.188-.574-1.524-.375-.344-.879-.515-1.512-.515-.664 0-1.309.152-1.934.457-.625.304-1.277.738-1.957 1.3l-1.969-2.332c.493-.422 1.012-.82 1.559-1.195a7.257 7.257 0 011.922-.902c.734-.235 1.613-.352 2.637-.352 1.125 0 2.089.203 2.894.609.813.407 1.438.961 1.875 1.665.438.695.656 1.484.656 2.367 0 .945-.187 1.808-.562 2.59-.375.781-.922 1.554-1.641 2.32a47.406 47.406 0 01-2.578 2.543l-2.203 2.074v.164h7.465v3.047zm14.121-3.551h-2.063v3.551h-3.539v-3.551h-7.312v-2.519l7.512-11.063h3.339v10.77h2.063v2.812zm-5.602-2.812v-2.907c0-.273.004-.597.012-.972l.047-1.125c.016-.375.031-.707.047-.996l.047-.621h-.094c-.148.32-.305.632-.469.937a13.33 13.33 0 01-.574.938l-3.141 4.746h4.125z" fill="#232323"/></svg>