<svg width="287" height="390" viewBox="0 0 287 390" fill="none" xmlns="http://www.w3.org/2000/svg">
<path d="M276.86 10.0257L276.899 10.0696L276.943 10.1086C282.894 15.3794 286 24.3905 286 37.44V79.04C286 92.0767 282.899 101.474 276.9 107.452C271.614 112.719 262.55 115.48 249.423 115.48H163.832C154.582 115.48 147.329 118.321 142.227 124.115C137.13 129.208 134.65 136.421 134.65 145.6V161.2V162.2H135.65H249.423C262.523 162.2 271.569 165.296 276.86 171.226L276.899 171.27L276.943 171.309C282.894 176.579 286 185.59 286 198.64V352.56C286 365.597 282.899 374.994 276.9 380.972C271.614 386.239 262.55 389 249.423 389H38.5766C25.4969 389 16.0591 386.258 10.0575 380.97C4.75127 374.992 2 365.59 2 352.56V157.04C2 104.513 15.8708 65.6544 43.4295 40.2553L43.4303 40.2547C71.7402 14.1116 109.057 1 155.482 1H249.423C262.523 1 271.569 4.0955 276.86 10.0257Z" fill="#F5F6FF" stroke="#232323" stroke-width="2"/>
<path d="M75.7227 251.367H81.0547C83.3359 251.367 85.0625 251.688 86.2344 252.328C87.4062 252.969 87.9922 254.094 87.9922 255.703C87.9922 256.352 87.8867 256.938 87.6758 257.461C87.4727 257.984 87.1758 258.414 86.7852 258.75C86.3945 259.086 85.918 259.305 85.3555 259.406V259.523C85.9258 259.641 86.4414 259.844 86.9023 260.133C87.3633 260.414 87.7305 260.828 88.0039 261.375C88.2852 261.914 88.4258 262.633 88.4258 263.531C88.4258 264.57 88.1719 265.461 87.6641 266.203C87.1562 266.945 86.4297 267.516 85.4844 267.914C84.5469 268.305 83.4297 268.5 82.1328 268.5H75.7227V251.367ZM79.3555 258.152H81.4648C82.5195 258.152 83.25 257.988 83.6562 257.66C84.0625 257.324 84.2656 256.832 84.2656 256.184C84.2656 255.527 84.0234 255.059 83.5391 254.777C83.0625 254.488 82.3047 254.344 81.2656 254.344H79.3555V258.152ZM79.3555 261.035V265.5H81.7227C82.8164 265.5 83.5781 265.289 84.0078 264.867C84.4375 264.445 84.6523 263.879 84.6523 263.168C84.6523 262.746 84.5586 262.375 84.3711 262.055C84.1836 261.734 83.8672 261.484 83.4219 261.305C82.9844 261.125 82.3789 261.035 81.6055 261.035H79.3555ZM95.1406 255.398V260.438H100.133V255.398H103.707V268.5H100.133V263.098H95.1406V268.5H91.5664V255.398H95.1406ZM112.859 255.152C114.07 255.152 115.113 255.387 115.988 255.855C116.863 256.316 117.539 256.988 118.016 257.871C118.492 258.754 118.73 259.832 118.73 261.105V262.84H110.281C110.32 263.848 110.621 264.641 111.184 265.219C111.754 265.789 112.543 266.074 113.551 266.074C114.387 266.074 115.152 265.988 115.848 265.816C116.543 265.645 117.258 265.387 117.992 265.043V267.809C117.344 268.129 116.664 268.363 115.953 268.512C115.25 268.66 114.395 268.734 113.387 268.734C112.074 268.734 110.91 268.492 109.895 268.008C108.887 267.523 108.094 266.785 107.516 265.793C106.945 264.801 106.66 263.551 106.66 262.043C106.66 260.512 106.918 259.238 107.434 258.223C107.957 257.199 108.684 256.434 109.613 255.926C110.543 255.41 111.625 255.152 112.859 255.152ZM112.883 257.695C112.188 257.695 111.609 257.918 111.148 258.363C110.695 258.809 110.434 259.508 110.363 260.461H115.379C115.371 259.93 115.273 259.457 115.086 259.043C114.906 258.629 114.633 258.301 114.266 258.059C113.906 257.816 113.445 257.695 112.883 257.695ZM133.414 255.398V265.887H135.336V273.199H132.125V268.5H123.312V273.199H120.102V265.887H121.203C121.781 265.004 122.266 263.996 122.656 262.863C123.055 261.73 123.375 260.531 123.617 259.266C123.867 257.992 124.047 256.703 124.156 255.398H133.414ZM129.84 258.082H127.156C127.031 259.051 126.871 259.988 126.676 260.895C126.488 261.793 126.254 262.66 125.973 263.496C125.691 264.324 125.348 265.121 124.941 265.887H129.84V258.082ZM144.863 255.152C146.34 255.152 147.531 255.727 148.438 256.875C149.352 258.023 149.809 259.707 149.809 261.926C149.809 263.41 149.594 264.66 149.164 265.676C148.734 266.684 148.141 267.445 147.383 267.961C146.625 268.477 145.754 268.734 144.77 268.734C144.137 268.734 143.594 268.656 143.141 268.5C142.688 268.336 142.301 268.129 141.98 267.879C141.66 267.621 141.383 267.348 141.148 267.059H140.961C141.023 267.371 141.07 267.691 141.102 268.02C141.133 268.348 141.148 268.668 141.148 268.98V274.266H137.574V255.398H140.48L140.984 257.098H141.148C141.383 256.746 141.668 256.422 142.004 256.125C142.34 255.828 142.742 255.594 143.211 255.422C143.688 255.242 144.238 255.152 144.863 255.152ZM143.715 258.012C143.09 258.012 142.594 258.141 142.227 258.398C141.859 258.656 141.59 259.043 141.418 259.559C141.254 260.074 141.164 260.727 141.148 261.516V261.902C141.148 262.746 141.227 263.461 141.383 264.047C141.547 264.633 141.816 265.078 142.191 265.383C142.574 265.688 143.098 265.84 143.762 265.84C144.309 265.84 144.758 265.688 145.109 265.383C145.461 265.078 145.723 264.633 145.895 264.047C146.074 263.453 146.164 262.73 146.164 261.879C146.164 260.598 145.965 259.633 145.566 258.984C145.168 258.336 144.551 258.012 143.715 258.012ZM158.164 255.152C159.375 255.152 160.418 255.387 161.293 255.855C162.168 256.316 162.844 256.988 163.32 257.871C163.797 258.754 164.035 259.832 164.035 261.105V262.84H155.586C155.625 263.848 155.926 264.641 156.488 265.219C157.059 265.789 157.848 266.074 158.855 266.074C159.691 266.074 160.457 265.988 161.152 265.816C161.848 265.645 162.562 265.387 163.297 265.043V267.809C162.648 268.129 161.969 268.363 161.258 268.512C160.555 268.66 159.699 268.734 158.691 268.734C157.379 268.734 156.215 268.492 155.199 268.008C154.191 267.523 153.398 266.785 152.82 265.793C152.25 264.801 151.965 263.551 151.965 262.043C151.965 260.512 152.223 259.238 152.738 258.223C153.262 257.199 153.988 256.434 154.918 255.926C155.848 255.41 156.93 255.152 158.164 255.152ZM158.188 257.695C157.492 257.695 156.914 257.918 156.453 258.363C156 258.809 155.738 259.508 155.668 260.461H160.684C160.676 259.93 160.578 259.457 160.391 259.043C160.211 258.629 159.938 258.301 159.57 258.059C159.211 257.816 158.75 257.695 158.188 257.695ZM170.516 255.398V260.438H175.508V255.398H179.082V268.5H175.508V263.098H170.516V268.5H166.941V255.398H170.516ZM186.289 255.398V260.578C186.289 260.844 186.277 261.18 186.254 261.586C186.238 261.984 186.215 262.391 186.184 262.805C186.152 263.219 186.121 263.59 186.09 263.918C186.059 264.246 186.035 264.469 186.02 264.586L192.066 255.398H196.367V268.5H192.91V263.273C192.91 262.844 192.926 262.371 192.957 261.855C192.988 261.332 193.023 260.84 193.062 260.379C193.102 259.918 193.129 259.57 193.145 259.336L187.121 268.5H182.832V255.398H186.289ZM205.531 255.152C206.742 255.152 207.785 255.387 208.66 255.855C209.535 256.316 210.211 256.988 210.688 257.871C211.164 258.754 211.402 259.832 211.402 261.105V262.84H202.953C202.992 263.848 203.293 264.641 203.855 265.219C204.426 265.789 205.215 266.074 206.223 266.074C207.059 266.074 207.824 265.988 208.52 265.816C209.215 265.645 209.93 265.387 210.664 265.043V267.809C210.016 268.129 209.336 268.363 208.625 268.512C207.922 268.66 207.066 268.734 206.059 268.734C204.746 268.734 203.582 268.492 202.566 268.008C201.559 267.523 200.766 266.785 200.188 265.793C199.617 264.801 199.332 263.551 199.332 262.043C199.332 260.512 199.59 259.238 200.105 258.223C200.629 257.199 201.355 256.434 202.285 255.926C203.215 255.41 204.297 255.152 205.531 255.152ZM205.555 257.695C204.859 257.695 204.281 257.918 203.82 258.363C203.367 258.809 203.105 259.508 203.035 260.461H208.051C208.043 259.93 207.945 259.457 207.758 259.043C207.578 258.629 207.305 258.301 206.938 258.059C206.578 257.816 206.117 257.695 205.555 257.695ZM65.9492 294.926C65.9492 296.02 65.8008 296.988 65.5039 297.832C65.2148 298.676 64.7891 299.391 64.2266 299.977C63.6719 300.555 63 300.992 62.2109 301.289C61.4297 301.586 60.5469 301.734 59.5625 301.734C58.6406 301.734 57.793 301.586 57.0195 301.289C56.2539 300.992 55.5859 300.555 55.0156 299.977C54.4531 299.391 54.0156 298.676 53.7031 297.832C53.3984 296.988 53.2461 296.02 53.2461 294.926C53.2461 293.473 53.5039 292.242 54.0195 291.234C54.5352 290.227 55.2695 289.461 56.2227 288.938C57.1758 288.414 58.3125 288.152 59.6328 288.152C60.8594 288.152 61.9453 288.414 62.8906 288.938C63.8438 289.461 64.5898 290.227 65.1289 291.234C65.6758 292.242 65.9492 293.473 65.9492 294.926ZM56.8906 294.926C56.8906 295.785 56.9844 296.508 57.1719 297.094C57.3594 297.68 57.6523 298.121 58.0508 298.418C58.4492 298.715 58.9688 298.863 59.6094 298.863C60.2422 298.863 60.7539 298.715 61.1445 298.418C61.543 298.121 61.832 297.68 62.0117 297.094C62.1992 296.508 62.293 295.785 62.293 294.926C62.293 294.059 62.1992 293.34 62.0117 292.77C61.832 292.191 61.543 291.758 61.1445 291.469C60.7461 291.18 60.2266 291.035 59.5859 291.035C58.6406 291.035 57.9531 291.359 57.5234 292.008C57.1016 292.656 56.8906 293.629 56.8906 294.926ZM68.1055 293.648C68.1055 291.719 68.3438 290.078 68.8203 288.727C69.2969 287.375 70.0547 286.297 71.0938 285.492C72.1328 284.68 73.4961 284.129 75.1836 283.84C76.0273 283.691 76.8828 283.57 77.75 283.477C78.625 283.375 79.5312 283.262 80.4688 283.137L80.8789 286.266C80.4727 286.312 80.0312 286.363 79.5547 286.418C79.0781 286.473 78.5977 286.531 78.1133 286.594C77.6289 286.648 77.1602 286.707 76.707 286.77C76.2539 286.824 75.8438 286.879 75.4766 286.934C74.6797 287.059 74.0156 287.254 73.4844 287.52C72.9531 287.785 72.5469 288.207 72.2656 288.785C71.9844 289.363 71.8125 290.195 71.75 291.281H71.9258C72.1133 290.984 72.3789 290.684 72.7227 290.379C73.0664 290.066 73.4922 289.809 74 289.605C74.5078 289.395 75.0938 289.289 75.7578 289.289C76.8047 289.289 77.7109 289.504 78.4766 289.934C79.2422 290.363 79.832 291.004 80.2461 291.855C80.668 292.699 80.8789 293.754 80.8789 295.02C80.8789 296.504 80.6055 297.746 80.0586 298.746C79.5195 299.738 78.7695 300.484 77.8086 300.984C76.8477 301.484 75.7344 301.734 74.4688 301.734C73.5 301.734 72.625 301.559 71.8438 301.207C71.0625 300.855 70.3906 300.336 69.8281 299.648C69.2734 298.961 68.8477 298.117 68.5508 297.117C68.2539 296.109 68.1055 294.953 68.1055 293.648ZM74.6797 298.84C75.1875 298.84 75.6289 298.73 76.0039 298.512C76.3867 298.285 76.6836 297.918 76.8945 297.41C77.1133 296.895 77.2227 296.203 77.2227 295.336C77.2227 294.289 77.0469 293.461 76.6953 292.852C76.3516 292.234 75.7617 291.926 74.9258 291.926C74.418 291.926 73.9414 292.051 73.4961 292.301C73.0586 292.543 72.6875 292.824 72.3828 293.145C72.0781 293.457 71.8672 293.723 71.75 293.941C71.75 294.559 71.7969 295.16 71.8906 295.746C71.9922 296.324 72.1523 296.848 72.3711 297.316C72.5898 297.785 72.8867 298.156 73.2617 298.43C73.6445 298.703 74.1172 298.84 74.6797 298.84ZM95.5625 301.5H91.9883V291.082H88.6953C88.5312 293.004 88.3359 294.641 88.1094 295.992C87.8828 297.344 87.5938 298.445 87.2422 299.297C86.8906 300.141 86.4531 300.758 85.9297 301.148C85.4062 301.539 84.7617 301.734 83.9961 301.734C83.5742 301.734 83.1953 301.703 82.8594 301.641C82.5312 301.578 82.2305 301.484 81.957 301.359V298.5C82.1289 298.57 82.3125 298.629 82.5078 298.676C82.7031 298.715 82.9023 298.734 83.1055 298.734C83.332 298.734 83.5469 298.645 83.75 298.465C83.9531 298.285 84.1445 297.977 84.3242 297.539C84.5039 297.094 84.6719 296.48 84.8281 295.699C84.9922 294.918 85.1406 293.93 85.2734 292.734C85.4062 291.539 85.5312 290.094 85.6484 288.398H95.5625V301.5ZM104.691 288.129C106.449 288.129 107.797 288.512 108.734 289.277C109.672 290.043 110.141 291.207 110.141 292.77V301.5H107.645L106.953 299.719H106.859C106.484 300.188 106.102 300.57 105.711 300.867C105.32 301.164 104.871 301.383 104.363 301.523C103.855 301.664 103.238 301.734 102.512 301.734C101.738 301.734 101.043 301.586 100.426 301.289C99.8164 300.992 99.3359 300.539 98.9844 299.93C98.6328 299.312 98.457 298.531 98.457 297.586C98.457 296.195 98.9453 295.172 99.9219 294.516C100.898 293.852 102.363 293.484 104.316 293.414L106.59 293.344V292.77C106.59 292.082 106.41 291.578 106.051 291.258C105.691 290.938 105.191 290.777 104.551 290.777C103.918 290.777 103.297 290.867 102.688 291.047C102.078 291.227 101.469 291.453 100.859 291.727L99.6758 289.312C100.371 288.945 101.148 288.656 102.008 288.445C102.875 288.234 103.77 288.129 104.691 288.129ZM106.59 295.43L105.207 295.477C104.051 295.508 103.246 295.715 102.793 296.098C102.348 296.48 102.125 296.984 102.125 297.609C102.125 298.156 102.285 298.547 102.605 298.781C102.926 299.008 103.344 299.121 103.859 299.121C104.625 299.121 105.27 298.895 105.793 298.441C106.324 297.988 106.59 297.344 106.59 296.508V295.43ZM116.973 288.398V293.191C116.973 293.762 117.109 294.191 117.383 294.48C117.664 294.762 118.055 294.902 118.555 294.902C119.242 294.902 119.879 294.824 120.465 294.668C121.059 294.512 121.656 294.309 122.258 294.059V288.398H125.832V301.5H122.258V296.297C121.688 296.594 121.043 296.867 120.324 297.117C119.613 297.367 118.801 297.492 117.887 297.492C116.52 297.492 115.43 297.145 114.617 296.449C113.805 295.746 113.398 294.688 113.398 293.273V288.398H116.973ZM133.156 288.398V293.438H138.148V288.398H141.723V301.5H138.148V296.098H133.156V301.5H129.582V288.398H133.156ZM157.379 294.926C157.379 296.02 157.23 296.988 156.934 297.832C156.645 298.676 156.219 299.391 155.656 299.977C155.102 300.555 154.43 300.992 153.641 301.289C152.859 301.586 151.977 301.734 150.992 301.734C150.07 301.734 149.223 301.586 148.449 301.289C147.684 300.992 147.016 300.555 146.445 299.977C145.883 299.391 145.445 298.676 145.133 297.832C144.828 296.988 144.676 296.02 144.676 294.926C144.676 293.473 144.934 292.242 145.449 291.234C145.965 290.227 146.699 289.461 147.652 288.938C148.605 288.414 149.742 288.152 151.062 288.152C152.289 288.152 153.375 288.414 154.32 288.938C155.273 289.461 156.02 290.227 156.559 291.234C157.105 292.242 157.379 293.473 157.379 294.926ZM148.32 294.926C148.32 295.785 148.414 296.508 148.602 297.094C148.789 297.68 149.082 298.121 149.48 298.418C149.879 298.715 150.398 298.863 151.039 298.863C151.672 298.863 152.184 298.715 152.574 298.418C152.973 298.121 153.262 297.68 153.441 297.094C153.629 296.508 153.723 295.785 153.723 294.926C153.723 294.059 153.629 293.34 153.441 292.77C153.262 292.191 152.973 291.758 152.574 291.469C152.176 291.18 151.656 291.035 151.016 291.035C150.07 291.035 149.383 291.359 148.953 292.008C148.531 292.656 148.32 293.629 148.32 294.926ZM169.379 288.398V291.082H163.906V301.5H160.332V288.398H169.379ZM183.723 294.926C183.723 296.02 183.574 296.988 183.277 297.832C182.988 298.676 182.562 299.391 182 299.977C181.445 300.555 180.773 300.992 179.984 301.289C179.203 301.586 178.32 301.734 177.336 301.734C176.414 301.734 175.566 301.586 174.793 301.289C174.027 300.992 173.359 300.555 172.789 299.977C172.227 299.391 171.789 298.676 171.477 297.832C171.172 296.988 171.02 296.02 171.02 294.926C171.02 293.473 171.277 292.242 171.793 291.234C172.309 290.227 173.043 289.461 173.996 288.938C174.949 288.414 176.086 288.152 177.406 288.152C178.633 288.152 179.719 288.414 180.664 288.938C181.617 289.461 182.363 290.227 182.902 291.234C183.449 292.242 183.723 293.473 183.723 294.926ZM174.664 294.926C174.664 295.785 174.758 296.508 174.945 297.094C175.133 297.68 175.426 298.121 175.824 298.418C176.223 298.715 176.742 298.863 177.383 298.863C178.016 298.863 178.527 298.715 178.918 298.418C179.316 298.121 179.605 297.68 179.785 297.094C179.973 296.508 180.066 295.785 180.066 294.926C180.066 294.059 179.973 293.34 179.785 292.77C179.605 292.191 179.316 291.758 178.918 291.469C178.52 291.18 178 291.035 177.359 291.035C176.414 291.035 175.727 291.359 175.297 292.008C174.875 292.656 174.664 293.629 174.664 294.926ZM193.191 301.5V284.367H204.02V287.367H196.824V290.941H198.254C199.863 290.941 201.184 291.164 202.215 291.609C203.254 292.055 204.02 292.672 204.512 293.461C205.012 294.242 205.262 295.137 205.262 296.145C205.262 297.84 204.695 299.156 203.562 300.094C202.438 301.031 200.645 301.5 198.184 301.5H193.191ZM196.824 298.523H198.043C199.145 298.523 200.012 298.348 200.645 297.996C201.277 297.637 201.594 297.02 201.594 296.145C201.594 295.535 201.438 295.07 201.125 294.75C200.82 294.43 200.379 294.211 199.801 294.094C199.23 293.977 198.547 293.918 197.75 293.918H196.824V298.523ZM219.301 301.5H207.324V298.98L211.625 294.633C212.492 293.742 213.188 293 213.711 292.406C214.242 291.805 214.625 291.258 214.859 290.766C215.102 290.273 215.223 289.746 215.223 289.184C215.223 288.504 215.031 287.996 214.648 287.66C214.273 287.316 213.77 287.145 213.137 287.145C212.473 287.145 211.828 287.297 211.203 287.602C210.578 287.906 209.926 288.34 209.246 288.902L207.277 286.57C207.77 286.148 208.289 285.75 208.836 285.375C209.391 285 210.031 284.699 210.758 284.473C211.492 284.238 212.371 284.121 213.395 284.121C214.52 284.121 215.484 284.324 216.289 284.73C217.102 285.137 217.727 285.691 218.164 286.395C218.602 287.09 218.82 287.879 218.82 288.762C218.82 289.707 218.633 290.57 218.258 291.352C217.883 292.133 217.336 292.906 216.617 293.672C215.906 294.438 215.047 295.285 214.039 296.215L211.836 298.289V298.453H219.301V301.5ZM233.422 297.949H231.359V301.5H227.82V297.949H220.508V295.43L228.02 284.367H231.359V295.137H233.422V297.949ZM227.82 295.137V292.23C227.82 291.957 227.824 291.633 227.832 291.258C227.848 290.883 227.863 290.508 227.879 290.133C227.895 289.758 227.91 289.426 227.926 289.137C227.949 288.84 227.965 288.633 227.973 288.516H227.879C227.73 288.836 227.574 289.148 227.41 289.453C227.246 289.75 227.055 290.062 226.836 290.391L223.695 295.137H227.82Z" fill="#232323"/>
</svg>
