<svg width="287" height="390" fill="none" xmlns="http://www.w3.org/2000/svg"><path d="M276.86 10.026l.039.044.044.039C282.894 15.379 286 24.39 286 37.44v41.6c0 13.037-3.101 22.434-9.1 28.412-5.286 5.267-14.35 8.028-27.477 8.028h-85.591c-9.25 0-16.503 2.841-21.605 8.635-5.097 5.093-7.577 12.306-7.577 21.485v16.6h114.773c13.1 0 22.146 3.096 27.437 9.026l.039.044.044.039c5.951 5.27 9.057 14.281 9.057 27.331v153.92c0 13.037-3.101 22.434-9.1 28.412-5.286 5.267-14.35 8.028-27.477 8.028H38.577c-13.08 0-22.518-2.742-28.52-8.03C4.751 374.992 2 365.59 2 352.56V157.04c0-52.527 13.87-91.386 41.43-116.785h0C71.74 14.112 109.057 1 155.482 1h93.941c13.1 0 22.146 3.096 27.437 9.026z" fill="#F5F6FF" stroke="#232323" stroke-width="2"/><path d="M75.723 251.367h5.332c2.28 0 4.007.321 5.18.961 1.171.641 1.757 1.766 1.757 3.375 0 .649-.105 1.235-.316 1.758-.203.523-.5.953-.89 1.289a2.952 2.952 0 01-1.43.656v.117c.57.118 1.085.321 1.546.61.461.281.829.695 1.102 1.242.281.539.422 1.258.422 2.156 0 1.039-.254 1.93-.762 2.672-.508.742-1.234 1.313-2.18 1.711-.937.391-2.054.586-3.351.586h-6.41v-17.133zm3.633 6.785h2.109c1.054 0 1.785-.164 2.191-.492.406-.336.61-.828.61-1.476 0-.657-.243-1.125-.727-1.407-.477-.289-1.234-.433-2.273-.433h-1.91v3.808zm0 2.883v4.465h2.367c1.093 0 1.855-.211 2.285-.633.43-.422.644-.988.644-1.699a2.16 2.16 0 00-.28-1.113c-.188-.321-.505-.571-.95-.75-.438-.18-1.043-.27-1.816-.27h-2.25zm15.785-5.637v5.04h4.992v-5.04h3.574V268.5h-3.574v-5.402h-4.992v5.402h-3.575v-13.102h3.575zm17.718-.246c1.211 0 2.254.235 3.129.703a4.81 4.81 0 012.028 2.016c.476.883.714 1.961.714 3.234v1.735h-8.449c.039 1.008.34 1.801.903 2.379.57.57 1.359.855 2.367.855.836 0 1.601-.086 2.297-.258.695-.171 1.41-.429 2.144-.773v2.766a8.545 8.545 0 01-2.039.703c-.703.148-1.558.222-2.566.222-1.313 0-2.477-.242-3.492-.726a5.428 5.428 0 01-2.379-2.215c-.571-.992-.856-2.242-.856-3.75 0-1.531.258-2.805.774-3.82.523-1.024 1.25-1.789 2.179-2.297.93-.516 2.012-.774 3.246-.774zm.024 2.543c-.695 0-1.274.223-1.735.668-.453.446-.714 1.145-.785 2.098h5.016a3.544 3.544 0 00-.293-1.418 2.203 2.203 0 00-.82-.984c-.36-.243-.821-.364-1.383-.364zm20.531-2.297v10.489h1.922v7.312h-3.211V268.5h-8.813v4.699h-3.21v-7.312h1.101c.578-.883 1.063-1.891 1.453-3.024.399-1.133.719-2.332.961-3.597.25-1.274.43-2.563.539-3.868h9.258zm-3.574 2.684h-2.684a34.183 34.183 0 01-.48 2.813 22.856 22.856 0 01-.703 2.601 16.25 16.25 0 01-1.032 2.391h4.899v-7.805zm15.023-2.93c1.477 0 2.668.575 3.575 1.723.914 1.148 1.371 2.832 1.371 5.051 0 1.484-.215 2.734-.645 3.75-.43 1.008-1.023 1.769-1.781 2.285-.758.516-1.629.773-2.613.773-.633 0-1.176-.078-1.629-.234a4.203 4.203 0 01-1.161-.621 5.576 5.576 0 01-.832-.82h-.187a9.786 9.786 0 01.187 1.921v5.286h-3.574v-18.868h2.906l.504 1.7h.164c.235-.352.52-.676.856-.973a3.747 3.747 0 011.207-.703c.477-.18 1.027-.27 1.652-.27zm-1.148 2.86c-.625 0-1.121.129-1.488.386-.368.258-.637.645-.809 1.161-.164.515-.254 1.168-.27 1.957v.386c0 .844.079 1.559.235 2.145.164.586.433 1.031.808 1.336.383.305.907.457 1.571.457.547 0 .996-.152 1.347-.457.352-.305.614-.75.786-1.336.179-.594.269-1.317.269-2.168 0-1.281-.199-2.246-.598-2.895-.398-.648-1.015-.972-1.851-.972zm14.449-2.86c1.211 0 2.254.235 3.129.703a4.801 4.801 0 012.027 2.016c.477.883.715 1.961.715 3.234v1.735h-8.449c.039 1.008.34 1.801.902 2.379.571.57 1.36.855 2.367.855.836 0 1.602-.086 2.297-.258.696-.171 1.41-.429 2.145-.773v2.766a8.56 8.56 0 01-2.039.703c-.703.148-1.559.222-2.567.222-1.312 0-2.476-.242-3.492-.726a5.428 5.428 0 01-2.379-2.215c-.57-.992-.855-2.242-.855-3.75 0-1.531.258-2.805.773-3.82.524-1.024 1.25-1.789 2.18-2.297.93-.516 2.012-.774 3.246-.774zm.024 2.543c-.696 0-1.274.223-1.735.668-.453.446-.715 1.145-.785 2.098h5.016a3.544 3.544 0 00-.293-1.418 2.198 2.198 0 00-.821-.984c-.359-.243-.82-.364-1.382-.364zm12.328-2.297v5.04h4.992v-5.04h3.574V268.5h-3.574v-5.402h-4.992v5.402h-3.575v-13.102h3.575zm15.773 0v5.18c0 .266-.012.602-.035 1.008-.016.398-.039.805-.07 1.219-.032.414-.063.785-.094 1.113-.031.328-.055.551-.07.668l6.046-9.188h4.301V268.5h-3.457v-5.227c0-.429.016-.902.047-1.418.031-.523.066-1.015.105-1.476.04-.461.067-.809.083-1.043l-6.024 9.164h-4.289v-13.102h3.457zm19.242-.246c1.211 0 2.254.235 3.129.703a4.81 4.81 0 012.028 2.016c.476.883.714 1.961.714 3.234v1.735h-8.449c.039 1.008.34 1.801.902 2.379.571.57 1.36.855 2.368.855.836 0 1.601-.086 2.297-.258.695-.171 1.41-.429 2.144-.773v2.766a8.545 8.545 0 01-2.039.703c-.703.148-1.559.222-2.566.222-1.313 0-2.477-.242-3.493-.726a5.43 5.43 0 01-2.378-2.215c-.571-.992-.856-2.242-.856-3.75 0-1.531.258-2.805.773-3.82.524-1.024 1.25-1.789 2.18-2.297.93-.516 2.012-.774 3.246-.774zm.024 2.543c-.696 0-1.274.223-1.735.668-.453.446-.715 1.145-.785 2.098h5.016a3.544 3.544 0 00-.293-1.418 2.203 2.203 0 00-.82-.984c-.36-.243-.821-.364-1.383-.364zM65.949 294.926c0 1.094-.148 2.062-.445 2.906-.29.844-.715 1.559-1.277 2.145a5.373 5.373 0 01-2.016 1.312c-.781.297-1.664.445-2.648.445-.922 0-1.77-.148-2.544-.445a5.654 5.654 0 01-2.003-1.312c-.563-.586-1-1.301-1.313-2.145-.305-.844-.457-1.812-.457-2.906 0-1.453.258-2.684.773-3.692.516-1.007 1.25-1.773 2.204-2.296.953-.524 2.09-.786 3.41-.786 1.226 0 2.312.262 3.258.786.953.523 1.699 1.289 2.238 2.296.547 1.008.82 2.239.82 3.692zm-9.058 0c0 .859.093 1.582.28 2.168.188.586.481 1.027.88 1.324.398.297.918.445 1.558.445.633 0 1.145-.148 1.535-.445.399-.297.688-.738.868-1.324.187-.586.281-1.309.281-2.168 0-.867-.094-1.586-.281-2.156-.18-.579-.469-1.012-.867-1.301-.399-.289-.918-.434-1.56-.434-.944 0-1.632.324-2.062.973-.421.648-.632 1.621-.632 2.918zm11.215-1.278c0-1.929.238-3.57.714-4.921.477-1.352 1.235-2.43 2.274-3.235 1.039-.812 2.402-1.363 4.09-1.652.843-.149 1.699-.27 2.566-.363.875-.102 1.781-.215 2.719-.34l.41 3.129-1.324.152c-.477.055-.957.113-1.442.176-.484.054-.953.113-1.406.176-.453.054-.863.109-1.23.164-.797.125-1.461.32-1.993.586-.53.265-.937.687-1.218 1.265-.282.578-.454 1.41-.516 2.496h.176a4.3 4.3 0 01.797-.902c.343-.313.77-.57 1.277-.774.508-.21 1.094-.316 1.758-.316 1.047 0 1.953.215 2.719.645.765.429 1.355 1.07 1.77 1.921.421.844.632 1.899.632 3.165 0 1.484-.273 2.726-.82 3.726-.54.992-1.29 1.738-2.25 2.238-.961.5-2.075.75-3.34.75-.969 0-1.844-.175-2.625-.527a5.49 5.49 0 01-2.016-1.559c-.555-.687-.98-1.531-1.277-2.531-.297-1.008-.445-2.164-.445-3.469zm6.574 5.192c.507 0 .949-.11 1.324-.328.383-.227.68-.594.89-1.102.22-.515.329-1.207.329-2.074 0-1.047-.176-1.875-.528-2.484-.343-.618-.933-.926-1.77-.926-.507 0-.984.125-1.429.375a4.566 4.566 0 00-1.113.844c-.305.312-.516.578-.633.796 0 .618.047 1.219.14 1.805a6.25 6.25 0 00.481 1.57c.219.469.516.84.89 1.114.383.273.856.41 1.419.41zm20.882 2.66h-3.574v-10.418h-3.293c-.164 1.922-.36 3.559-.586 4.91-.226 1.352-.515 2.453-.867 3.305-.351.844-.789 1.461-1.312 1.851-.524.391-1.168.586-1.934.586-.422 0-.8-.031-1.137-.093a3.958 3.958 0 01-.902-.282V298.5c.172.07.356.129.55.176.196.039.395.058.599.058.226 0 .44-.089.644-.269.203-.18.394-.488.574-.926.18-.445.348-1.059.504-1.84.164-.781.313-1.769.445-2.965.133-1.195.258-2.64.375-4.336h9.915V301.5zm9.129-13.371c1.758 0 3.106.383 4.043 1.148.938.766 1.407 1.93 1.407 3.493v8.73h-2.496l-.692-1.781h-.094a6.617 6.617 0 01-1.148 1.148 3.93 3.93 0 01-1.348.656c-.508.141-1.125.211-1.851.211-.774 0-1.469-.148-2.086-.445a3.313 3.313 0 01-1.442-1.359c-.351-.618-.527-1.399-.527-2.344 0-1.391.488-2.414 1.465-3.07.976-.664 2.441-1.032 4.394-1.102l2.274-.07v-.574c0-.688-.18-1.192-.539-1.512-.36-.32-.86-.481-1.5-.481a6.54 6.54 0 00-1.863.27c-.61.18-1.219.406-1.829.68l-1.183-2.415a10.162 10.162 0 012.332-.867 11.31 11.31 0 012.683-.316zm1.899 7.301l-1.383.047c-1.156.031-1.961.238-2.414.621-.445.382-.668.886-.668 1.511 0 .547.16.938.48 1.172.321.227.739.34 1.254.34.766 0 1.411-.226 1.934-.68.531-.453.797-1.097.797-1.933v-1.078zm10.383-7.032v4.793c0 .571.136 1 .41 1.289.281.282.672.422 1.172.422a7.41 7.41 0 001.91-.234 13.842 13.842 0 001.793-.609v-5.661h3.574V301.5h-3.574v-5.203c-.57.297-1.215.57-1.934.82-.711.25-1.523.375-2.437.375-1.367 0-2.457-.347-3.27-1.043-.812-.703-1.219-1.761-1.219-3.176v-4.875h3.575zm16.183 0v5.04h4.992v-5.04h3.575V301.5h-3.575v-5.402h-4.992v5.402h-3.574v-13.102h3.574zm24.223 6.528c0 1.094-.149 2.062-.445 2.906-.289.844-.715 1.559-1.278 2.145a5.366 5.366 0 01-2.015 1.312c-.782.297-1.664.445-2.649.445-.922 0-1.769-.148-2.543-.445a5.666 5.666 0 01-2.004-1.312c-.562-.586-1-1.301-1.312-2.145-.305-.844-.457-1.812-.457-2.906 0-1.453.258-2.684.773-3.692.516-1.007 1.25-1.773 2.203-2.296.953-.524 2.09-.786 3.41-.786 1.227 0 2.313.262 3.258.786.953.523 1.7 1.289 2.239 2.296.546 1.008.82 2.239.82 3.692zm-9.059 0c0 .859.094 1.582.282 2.168.187.586.48 1.027.878 1.324.399.297.918.445 1.559.445.633 0 1.145-.148 1.535-.445.399-.297.688-.738.867-1.324.188-.586.282-1.309.282-2.168 0-.867-.094-1.586-.282-2.156-.179-.579-.468-1.012-.867-1.301-.398-.289-.918-.434-1.558-.434-.946 0-1.633.324-2.063.973-.422.648-.633 1.621-.633 2.918zm21.059-6.528v2.684h-5.473V301.5h-3.574v-13.102h9.047zm14.344 6.528c0 1.094-.149 2.062-.446 2.906-.289.844-.715 1.559-1.277 2.145a5.378 5.378 0 01-2.016 1.312c-.781.297-1.664.445-2.648.445-.922 0-1.77-.148-2.543-.445a5.649 5.649 0 01-2.004-1.312c-.562-.586-1-1.301-1.312-2.145-.305-.844-.457-1.812-.457-2.906 0-1.453.257-2.684.773-3.692.516-1.007 1.25-1.773 2.203-2.296.953-.524 2.09-.786 3.41-.786 1.227 0 2.313.262 3.258.786.953.523 1.699 1.289 2.238 2.296.547 1.008.821 2.239.821 3.692zm-9.059 0c0 .859.094 1.582.281 2.168.188.586.481 1.027.879 1.324.399.297.918.445 1.559.445.633 0 1.144-.148 1.535-.445.398-.297.687-.738.867-1.324.188-.586.281-1.309.281-2.168 0-.867-.093-1.586-.281-2.156-.18-.579-.469-1.012-.867-1.301-.398-.289-.918-.434-1.559-.434-.945 0-1.632.324-2.062.973-.422.648-.633 1.621-.633 2.918zm18.527 6.574v-17.133h10.829v3h-7.196v3.574h1.43c1.609 0 2.93.223 3.961.668 1.039.446 1.805 1.063 2.297 1.852.5.781.75 1.676.75 2.684 0 1.695-.567 3.011-1.7 3.949-1.124.937-2.917 1.406-5.378 1.406h-4.993zm3.633-2.977h1.219c1.102 0 1.969-.175 2.602-.527.632-.359.949-.976.949-1.851 0-.61-.156-1.075-.469-1.395-.305-.32-.746-.539-1.324-.656-.571-.117-1.254-.176-2.051-.176h-.926v4.605zm22.477 2.977h-11.977v-2.52l4.301-4.347a63.836 63.836 0 002.086-2.227c.531-.601.914-1.148 1.148-1.64.243-.493.364-1.02.364-1.582 0-.68-.192-1.188-.575-1.524-.375-.344-.878-.515-1.511-.515-.664 0-1.309.152-1.934.457-.625.304-1.277.738-1.957 1.3l-1.969-2.332c.493-.422 1.012-.82 1.559-1.195a7.257 7.257 0 011.922-.902c.734-.235 1.613-.352 2.637-.352 1.125 0 2.089.203 2.894.609.813.407 1.438.961 1.875 1.665.438.695.656 1.484.656 2.367 0 .945-.187 1.808-.562 2.59-.375.781-.922 1.554-1.641 2.32a47.406 47.406 0 01-2.578 2.543l-2.203 2.074v.164h7.465v3.047zm14.121-3.551h-2.063v3.551h-3.539v-3.551h-7.312v-2.519l7.512-11.063h3.339v10.77h2.063v2.812zm-5.602-2.812v-2.907c0-.273.004-.597.012-.972l.047-1.125c.016-.375.031-.707.047-.996l.047-.621h-.094c-.149.32-.305.632-.469.937a13.33 13.33 0 01-.574.938l-3.141 4.746h4.125z" fill="#232323"/></svg>