<svg width="287" height="390" fill="none" xmlns="http://www.w3.org/2000/svg"><path d="M145.75 266.948l.023-.023.022-.025c5.065-5.767 7.555-13.3 7.555-22.5v-16.6H38.577c-13.08 0-22.518-2.742-28.52-8.03C4.751 213.792 2 204.39 2 191.36V37.44c0-13.077 2.77-22.105 8.056-27.372C16.056 4.09 25.49 1 38.576 1h210.847c13.1 0 22.146 3.096 27.437 9.026l.039.044.044.039C282.894 15.379 286 24.39 286 37.44v195.52c0 52.518-14.214 91.728-42.474 117.825C215.917 376.231 178.951 389 132.518 389H38.577c-13.08 0-22.518-2.742-28.52-8.03C4.752 374.992 2 365.59 2 352.56v-41.6c0-13.077 2.771-22.106 8.056-27.372 6-5.978 15.434-9.068 28.52-9.068h85.592c9.224 0 16.47-2.478 21.582-7.572z" fill="#F5F6FF" stroke="#232323" stroke-width="2"/><path d="M77.188 109.5l-4.126-13.441h-.105c.016.32.04.804.07 1.453.04.64.075 1.324.106 2.05.031.727.047 1.383.047 1.969v7.969h-3.246V92.367h4.945l4.055 13.102h.07l4.3-13.102h4.946V109.5h-3.387v-8.109c0-.539.008-1.161.024-1.864.023-.703.05-1.37.082-2.004l.07-1.441h-.105L80.516 109.5h-3.329zm27.011-6.574c0 1.094-.148 2.062-.445 2.906-.289.844-.715 1.559-1.277 2.145a5.378 5.378 0 01-2.016 1.312c-.781.297-1.664.445-2.648.445-.922 0-1.77-.148-2.544-.445a5.654 5.654 0 01-2.003-1.312c-.563-.586-1-1.301-1.313-2.145-.305-.844-.457-1.812-.457-2.906 0-1.453.258-2.684.773-3.692.516-1.007 1.25-1.773 2.204-2.296.953-.524 2.09-.786 3.41-.786 1.226 0 2.312.262 3.258.785.953.524 1.699 1.29 2.238 2.297.547 1.008.82 2.239.82 3.692zm-9.058 0c0 .859.093 1.582.28 2.168.188.586.481 1.027.88 1.324.398.297.918.445 1.558.445.633 0 1.145-.148 1.535-.445.399-.297.688-.738.868-1.324.187-.586.281-1.309.281-2.168 0-.867-.094-1.586-.281-2.156-.18-.579-.469-1.012-.868-1.301-.398-.29-.917-.434-1.558-.434-.945 0-1.633.324-2.063.973-.421.648-.632 1.621-.632 2.918zm11.214-1.278c0-1.93.239-3.57.715-4.921.477-1.352 1.235-2.43 2.274-3.235 1.039-.812 2.402-1.363 4.09-1.652.843-.149 1.699-.27 2.566-.363.875-.102 1.781-.215 2.719-.34l.41 3.129-1.324.152c-.477.055-.957.113-1.442.176a57.27 57.27 0 00-1.406.175c-.453.055-.863.11-1.23.165-.797.125-1.461.32-1.993.585-.531.266-.937.688-1.218 1.266-.282.578-.454 1.41-.516 2.496h.176a4.3 4.3 0 01.797-.902c.343-.313.769-.57 1.277-.773.508-.212 1.094-.317 1.758-.317 1.047 0 1.953.215 2.719.645.765.43 1.355 1.07 1.769 1.922.422.843.633 1.898.633 3.164 0 1.484-.274 2.726-.82 3.726-.539.992-1.289 1.738-2.25 2.238-.961.5-2.075.75-3.34.75-.969 0-1.844-.175-2.625-.527a5.49 5.49 0 01-2.016-1.559c-.555-.687-.98-1.531-1.277-2.531-.297-1.008-.446-2.164-.446-3.469zm6.575 5.192c.508 0 .949-.11 1.324-.328.383-.227.68-.594.891-1.102.218-.515.328-1.207.328-2.074 0-1.047-.176-1.875-.528-2.484-.343-.618-.933-.926-1.769-.926-.508 0-.985.125-1.43.375a4.58 4.58 0 00-1.113.844c-.305.312-.516.578-.633.796 0 .618.047 1.219.141 1.805.101.578.261 1.102.48 1.57.219.469.516.84.891 1.114.383.273.855.41 1.418.41zm12.609-10.442v5.18c0 .266-.012.602-.035 1.008-.016.398-.039.805-.07 1.219-.032.414-.063.785-.094 1.113-.031.328-.055.551-.07.668l6.046-9.188h4.301V109.5h-3.457v-5.227c0-.429.016-.902.047-1.418.031-.523.066-1.015.105-1.476.04-.461.067-.809.083-1.043l-6.024 9.164h-4.289V96.398h3.457zm25.57 13.102h-3.574V99.082h-3.293c-.164 1.922-.359 3.559-.586 4.91-.226 1.352-.515 2.453-.867 3.305-.351.844-.789 1.461-1.312 1.851-.524.391-1.168.586-1.934.586a6.3 6.3 0 01-1.137-.093 3.95 3.95 0 01-.902-.282V106.5c.172.07.355.129.551.176.195.039.394.058.597.058.227 0 .442-.089.645-.269.203-.18.394-.488.574-.926.18-.445.348-1.059.504-1.84.164-.781.313-1.769.445-2.965.133-1.195.258-2.64.375-4.336h9.914V109.5zm7.336-8.039h2.52c1.344 0 2.453.141 3.328.422s1.527.711 1.957 1.289c.43.57.645 1.289.645 2.156 0 .844-.196 1.578-.586 2.203-.391.625-1.012 1.11-1.864 1.453-.851.344-1.965.516-3.34.516h-6.234V96.398h3.574v5.063zm4.875 3.914c0-.508-.203-.875-.609-1.102-.406-.226-1.012-.339-1.816-.339h-2.45v3.093h2.496c.696 0 1.266-.125 1.711-.375.446-.257.668-.683.668-1.277zm9.868-8.977v5.04h4.992v-5.04h3.574V109.5h-3.574v-5.402h-4.992v5.402h-3.575V96.398h3.575zm12.316 13.102V96.398h3.574v5.063h1.723c1.336 0 2.437.141 3.304.422.875.281 1.524.711 1.946 1.289.422.57.633 1.289.633 2.156 0 .844-.196 1.578-.586 2.203-.391.625-1.008 1.11-1.852 1.453-.844.344-1.949.516-3.316.516h-5.426zm3.574-2.473h1.652c.696 0 1.266-.125 1.711-.375.446-.257.668-.683.668-1.277 0-.508-.203-.875-.609-1.102-.406-.226-1.012-.339-1.816-.339h-1.606v3.093zm9.504 2.473V96.398h3.574V109.5h-3.574zm12.738-13.348c1.211 0 2.254.235 3.129.704a4.809 4.809 0 012.028 2.015c.476.883.714 1.961.714 3.234v1.735h-8.449c.039 1.008.34 1.801.903 2.379.57.57 1.359.855 2.367.855.836 0 1.601-.086 2.297-.258.695-.171 1.41-.429 2.144-.773v2.766a8.545 8.545 0 01-2.039.703c-.703.148-1.559.222-2.566.222-1.313 0-2.477-.242-3.493-.726a5.43 5.43 0 01-2.378-2.215c-.571-.992-.856-2.242-.856-3.75 0-1.531.258-2.805.774-3.82.523-1.024 1.25-1.79 2.179-2.297.93-.516 2.012-.774 3.246-.774zm.024 2.543c-.696 0-1.274.223-1.735.668-.453.446-.714 1.145-.785 2.098h5.016a3.544 3.544 0 00-.293-1.418 2.204 2.204 0 00-.82-.984c-.36-.243-.821-.364-1.383-.364zM76.262 129.398V142.5h-3.586v-10.418H67.93V142.5h-3.575v-13.102h11.907zm11.039-.246c1.476 0 2.668.575 3.574 1.723.914 1.148 1.371 2.832 1.371 5.051 0 1.484-.215 2.734-.644 3.75-.43 1.008-1.024 1.769-1.782 2.285-.757.516-1.629.773-2.613.773-.633 0-1.176-.078-1.629-.234a4.186 4.186 0 01-1.16-.621 5.535 5.535 0 01-.832-.82h-.188a10.138 10.138 0 01.188 1.921v5.286h-3.574v-18.868h2.906l.504 1.7h.164c.234-.352.52-.676.855-.973a3.75 3.75 0 011.207-.703c.477-.18 1.028-.27 1.653-.27zm-1.149 2.86c-.625 0-1.12.129-1.488.386-.367.258-.637.645-.808 1.161-.165.515-.254 1.168-.27 1.957v.386c0 .844.078 1.559.234 2.145.164.586.434 1.031.809 1.336.383.305.906.457 1.57.457.547 0 .996-.152 1.348-.457.351-.305.613-.75.785-1.336.18-.594.27-1.317.27-2.168 0-1.281-.2-2.246-.598-2.895-.398-.648-1.016-.972-1.852-.972zm12.504-2.614v5.18c0 .266-.012.602-.035 1.008-.015.398-.039.805-.07 1.219a57.39 57.39 0 01-.094 1.113c-.031.328-.055.551-.07.668l6.047-9.188h4.3V142.5h-3.457v-5.227c0-.429.016-.902.047-1.418.031-.523.067-1.015.106-1.476.039-.461.066-.809.082-1.043l-6.024 9.164H95.2v-13.102h3.457zm25.571 13.102h-3.575v-10.418h-3.293c-.164 1.922-.359 3.559-.586 4.91-.226 1.352-.515 2.453-.867 3.305-.351.844-.789 1.461-1.312 1.851-.524.391-1.168.586-1.934.586a6.3 6.3 0 01-1.137-.093 3.966 3.966 0 01-.902-.282V139.5c.172.07.356.129.551.176.195.039.394.058.598.058.226 0 .441-.089.644-.269.203-.18.395-.488.574-.926.18-.445.348-1.059.504-1.84.164-.781.313-1.769.446-2.965.132-1.195.257-2.64.374-4.336h9.915V142.5zm15.668-6.574c0 1.094-.149 2.062-.446 2.906-.289.844-.715 1.559-1.277 2.145a5.378 5.378 0 01-2.016 1.312c-.781.297-1.664.445-2.648.445-.922 0-1.77-.148-2.543-.445a5.649 5.649 0 01-2.004-1.312c-.563-.586-1-1.301-1.313-2.145-.304-.844-.457-1.812-.457-2.906 0-1.453.258-2.684.774-3.692.515-1.007 1.25-1.773 2.203-2.296.953-.524 2.09-.786 3.41-.786 1.227 0 2.313.262 3.258.786.953.523 1.699 1.289 2.238 2.296.547 1.008.821 2.239.821 3.692zm-9.059 0c0 .859.094 1.582.281 2.168.188.586.481 1.027.879 1.324.399.297.918.445 1.559.445.633 0 1.144-.148 1.535-.445.398-.297.687-.738.867-1.324.188-.586.281-1.309.281-2.168 0-.867-.093-1.586-.281-2.156-.18-.579-.469-1.012-.867-1.301-.399-.289-.918-.434-1.559-.434-.945 0-1.633.324-2.062.973-.422.648-.633 1.621-.633 2.918zm30.633-6.528l-4.828 6.282 5.285 6.82h-3.821l-4.992-6.645v6.645h-3.328v-6.645l-4.992 6.645h-3.82l5.285-6.82-4.828-6.282h3.691l4.664 6.364v-6.364h3.328v6.364l4.664-6.364h3.692zm7.734-.246c1.211 0 2.254.235 3.129.703a4.801 4.801 0 012.027 2.016c.477.883.715 1.961.715 3.234v1.735h-8.449c.039 1.008.34 1.801.902 2.379.571.57 1.36.855 2.368.855.835 0 1.601-.086 2.296-.258a11.58 11.58 0 002.145-.773v2.766a8.545 8.545 0 01-2.039.703c-.703.148-1.559.222-2.567.222-1.312 0-2.476-.242-3.492-.726a5.433 5.433 0 01-2.379-2.215c-.57-.992-.855-2.242-.855-3.75 0-1.531.258-2.805.773-3.82.524-1.024 1.25-1.789 2.18-2.297.93-.516 2.012-.774 3.246-.774zm.024 2.543c-.696 0-1.274.223-1.735.668-.453.446-.715 1.145-.785 2.098h5.016a3.544 3.544 0 00-.293-1.418 2.198 2.198 0 00-.821-.984c-.359-.243-.82-.364-1.382-.364zm12.328-2.297v5.04h4.992v-5.04h3.574V142.5h-3.574v-5.402h-4.992v5.402h-3.575v-13.102h3.575zm15.773 0v5.18c0 .266-.012.602-.035 1.008-.016.398-.039.805-.07 1.219-.032.414-.063.785-.094 1.113-.031.328-.055.551-.07.668l6.046-9.188h4.301V142.5h-3.457v-5.227c0-.429.016-.902.047-1.418a54.35 54.35 0 01.106-1.476c.039-.461.066-.809.082-1.043l-6.024 9.164h-4.289v-13.102h3.457zM213.16 142.5h-3.867l3.527-5.18a4.902 4.902 0 01-1.254-.773 3.805 3.805 0 01-.949-1.266c-.242-.508-.363-1.117-.363-1.828 0-1.305.492-2.305 1.476-3 .993-.703 2.27-1.055 3.832-1.055h6.094V142.5h-3.574v-4.875h-1.969l-2.953 4.875zm.598-9.023c0 .546.215.976.644 1.289.438.304 1 .457 1.688.457h1.992v-3.305h-2.449c-.641 0-1.113.156-1.418.469a1.486 1.486 0 00-.457 1.09z" fill="#232323"/></svg>