<svg width="150" height="196" viewBox="0 0 150 196" fill="none" xmlns="http://www.w3.org/2000/svg">
<path d="M80.6929 0H129.763C136.669 0 141.576 1.56262 144.484 4.68787C147.755 7.46587 149.391 12.1537 149.391 18.7515V39.5864C149.391 46.1842 147.755 51.0457 144.484 54.1709C141.576 56.9489 136.669 58.3379 129.763 58.3379H85.0547C80.3295 58.3379 76.6947 59.7269 74.1503 62.5049C71.6059 64.9356 70.3337 68.4081 70.3337 72.9224V80.7355H129.763C136.669 80.7355 141.576 82.2981 144.484 85.4233C147.755 88.2013 149.391 92.8892 149.391 99.4869V176.576C149.391 183.174 147.755 188.036 144.484 191.161C141.576 193.939 136.669 195.328 129.763 195.328H19.628C12.7219 195.328 7.63312 193.939 4.36178 191.161C1.45393 188.036 0 183.174 0 176.576V78.652C0 52.261 7.26964 32.6414 21.8089 19.7932C36.7117 6.59774 56.3397 0 80.6929 0Z" fill="#FF7D04"/>
<path d="M41.0566 127.209H43.7227C44.8633 127.209 45.7266 127.369 46.3125 127.689C46.8984 128.01 47.1914 128.572 47.1914 129.377C47.1914 129.701 47.1387 129.994 47.0332 130.256C46.9316 130.518 46.7832 130.732 46.5879 130.9C46.3926 131.068 46.1543 131.178 45.873 131.229V131.287C46.1582 131.346 46.416 131.447 46.6465 131.592C46.877 131.732 47.0605 131.939 47.1973 132.213C47.3379 132.482 47.4082 132.842 47.4082 133.291C47.4082 133.811 47.2812 134.256 47.0273 134.627C46.7734 134.998 46.4102 135.283 45.9375 135.482C45.4688 135.678 44.9102 135.775 44.2617 135.775H41.0566V127.209ZM42.873 130.602H43.9277C44.4551 130.602 44.8203 130.52 45.0234 130.355C45.2266 130.188 45.3281 129.941 45.3281 129.617C45.3281 129.289 45.207 129.055 44.9648 128.914C44.7266 128.77 44.3477 128.697 43.8281 128.697H42.873V130.602ZM42.873 132.043V134.275H44.0566C44.6035 134.275 44.9844 134.17 45.1992 133.959C45.4141 133.748 45.5215 133.465 45.5215 133.109C45.5215 132.898 45.4746 132.713 45.3809 132.553C45.2871 132.393 45.1289 132.268 44.9062 132.178C44.6875 132.088 44.3848 132.043 43.998 132.043H42.873ZM50.7656 129.225V131.744H53.2617V129.225H55.0488V135.775H53.2617V133.074H50.7656V135.775H48.9785V129.225H50.7656ZM59.625 129.102C60.2305 129.102 60.752 129.219 61.1895 129.453C61.627 129.684 61.9648 130.02 62.2031 130.461C62.4414 130.902 62.5605 131.441 62.5605 132.078V132.945H58.3359C58.3555 133.449 58.5059 133.846 58.7871 134.135C59.0723 134.42 59.4668 134.562 59.9707 134.562C60.3887 134.562 60.7715 134.52 61.1191 134.434C61.4668 134.348 61.8242 134.219 62.1914 134.047V135.43C61.8672 135.59 61.5273 135.707 61.1719 135.781C60.8203 135.855 60.3926 135.893 59.8887 135.893C59.2324 135.893 58.6504 135.771 58.1426 135.529C57.6387 135.287 57.2422 134.918 56.9531 134.422C56.668 133.926 56.5254 133.301 56.5254 132.547C56.5254 131.781 56.6543 131.145 56.9121 130.637C57.1738 130.125 57.5371 129.742 58.002 129.488C58.4668 129.23 59.0078 129.102 59.625 129.102ZM59.6367 130.373C59.2891 130.373 59 130.484 58.7695 130.707C58.543 130.93 58.4121 131.279 58.377 131.756H60.8848C60.8809 131.49 60.832 131.254 60.7383 131.047C60.6484 130.84 60.5117 130.676 60.3281 130.555C60.1484 130.434 59.918 130.373 59.6367 130.373ZM69.9023 129.225V134.469H70.8633V138.125H69.2578V135.775H64.8516V138.125H63.2461V134.469H63.7969C64.0859 134.027 64.3281 133.523 64.5234 132.957C64.7227 132.391 64.8828 131.791 65.0039 131.158C65.1289 130.521 65.2188 129.877 65.2734 129.225H69.9023ZM68.1152 130.566H66.7734C66.7109 131.051 66.6309 131.52 66.5332 131.973C66.4395 132.422 66.3223 132.855 66.1816 133.273C66.041 133.688 65.8691 134.086 65.666 134.469H68.1152V130.566ZM75.627 129.102C76.3652 129.102 76.9609 129.389 77.4141 129.963C77.8711 130.537 78.0996 131.379 78.0996 132.488C78.0996 133.23 77.9922 133.855 77.7773 134.363C77.5625 134.867 77.2656 135.248 76.8867 135.506C76.5078 135.764 76.0723 135.893 75.5801 135.893C75.2637 135.893 74.9922 135.854 74.7656 135.775C74.5391 135.693 74.3457 135.59 74.1855 135.465C74.0254 135.336 73.8867 135.199 73.7695 135.055H73.6758C73.707 135.211 73.7305 135.371 73.7461 135.535C73.7617 135.699 73.7695 135.859 73.7695 136.016V138.658H71.9824V129.225H73.4355L73.6875 130.074H73.7695C73.8867 129.898 74.0293 129.736 74.1973 129.588C74.3652 129.439 74.5664 129.322 74.8008 129.236C75.0391 129.146 75.3145 129.102 75.627 129.102ZM75.0527 130.531C74.7402 130.531 74.4922 130.596 74.3086 130.725C74.125 130.854 73.9902 131.047 73.9043 131.305C73.8223 131.562 73.7773 131.889 73.7695 132.283V132.477C73.7695 132.898 73.8086 133.256 73.8867 133.549C73.9688 133.842 74.1035 134.064 74.291 134.217C74.4824 134.369 74.7441 134.445 75.0762 134.445C75.3496 134.445 75.5742 134.369 75.75 134.217C75.9258 134.064 76.0566 133.842 76.1426 133.549C76.2324 133.252 76.2773 132.891 76.2773 132.465C76.2773 131.824 76.1777 131.342 75.9785 131.018C75.7793 130.693 75.4707 130.531 75.0527 130.531ZM82.2773 129.102C82.8828 129.102 83.4043 129.219 83.8418 129.453C84.2793 129.684 84.6172 130.02 84.8555 130.461C85.0938 130.902 85.2129 131.441 85.2129 132.078V132.945H80.9883C81.0078 133.449 81.1582 133.846 81.4395 134.135C81.7246 134.42 82.1191 134.562 82.623 134.562C83.041 134.562 83.4238 134.52 83.7715 134.434C84.1191 134.348 84.4766 134.219 84.8438 134.047V135.43C84.5195 135.59 84.1797 135.707 83.8242 135.781C83.4727 135.855 83.0449 135.893 82.541 135.893C81.8848 135.893 81.3027 135.771 80.7949 135.529C80.291 135.287 79.8945 134.918 79.6055 134.422C79.3203 133.926 79.1777 133.301 79.1777 132.547C79.1777 131.781 79.3066 131.145 79.5645 130.637C79.8262 130.125 80.1895 129.742 80.6543 129.488C81.1191 129.23 81.6602 129.102 82.2773 129.102ZM82.2891 130.373C81.9414 130.373 81.6523 130.484 81.4219 130.707C81.1953 130.93 81.0645 131.279 81.0293 131.756H83.5371C83.5332 131.49 83.4844 131.254 83.3906 131.047C83.3008 130.84 83.1641 130.676 82.9805 130.555C82.8008 130.434 82.5703 130.373 82.2891 130.373ZM88.4531 129.225V131.744H90.9492V129.225H92.7363V135.775H90.9492V133.074H88.4531V135.775H86.666V129.225H88.4531ZM96.3398 129.225V131.814C96.3398 131.947 96.334 132.115 96.3223 132.318C96.3145 132.518 96.3027 132.721 96.2871 132.928C96.2715 133.135 96.2559 133.32 96.2402 133.484C96.2246 133.648 96.2129 133.76 96.2051 133.818L99.2285 129.225H101.379V135.775H99.6504V133.162C99.6504 132.947 99.6582 132.711 99.6738 132.453C99.6895 132.191 99.707 131.945 99.7266 131.715C99.7461 131.484 99.7598 131.311 99.7676 131.193L96.7559 135.775H94.6113V129.225H96.3398ZM105.961 129.102C106.566 129.102 107.088 129.219 107.525 129.453C107.963 129.684 108.301 130.02 108.539 130.461C108.777 130.902 108.896 131.441 108.896 132.078V132.945H104.672C104.691 133.449 104.842 133.846 105.123 134.135C105.408 134.42 105.803 134.562 106.307 134.562C106.725 134.562 107.107 134.52 107.455 134.434C107.803 134.348 108.16 134.219 108.527 134.047V135.43C108.203 135.59 107.863 135.707 107.508 135.781C107.156 135.855 106.729 135.893 106.225 135.893C105.568 135.893 104.986 135.771 104.479 135.529C103.975 135.287 103.578 134.918 103.289 134.422C103.004 133.926 102.861 133.301 102.861 132.547C102.861 131.781 102.99 131.145 103.248 130.637C103.51 130.125 103.873 129.742 104.338 129.488C104.803 129.23 105.344 129.102 105.961 129.102ZM105.973 130.373C105.625 130.373 105.336 130.484 105.105 130.707C104.879 130.93 104.748 131.279 104.713 131.756H107.221C107.217 131.49 107.168 131.254 107.074 131.047C106.984 130.84 106.848 130.676 106.664 130.555C106.484 130.434 106.254 130.373 105.973 130.373ZM36.1699 148.488C36.1699 149.035 36.0957 149.52 35.9473 149.941C35.8027 150.363 35.5898 150.721 35.3086 151.014C35.0312 151.303 34.6953 151.521 34.3008 151.67C33.9102 151.818 33.4688 151.893 32.9766 151.893C32.5156 151.893 32.0918 151.818 31.7051 151.67C31.3223 151.521 30.9883 151.303 30.7031 151.014C30.4219 150.721 30.2031 150.363 30.0469 149.941C29.8945 149.52 29.8184 149.035 29.8184 148.488C29.8184 147.762 29.9473 147.146 30.2051 146.643C30.4629 146.139 30.8301 145.756 31.3066 145.494C31.7832 145.232 32.3516 145.102 33.0117 145.102C33.625 145.102 34.168 145.232 34.6406 145.494C35.1172 145.756 35.4902 146.139 35.7598 146.643C36.0332 147.146 36.1699 147.762 36.1699 148.488ZM31.6406 148.488C31.6406 148.918 31.6875 149.279 31.7812 149.572C31.875 149.865 32.0215 150.086 32.2207 150.234C32.4199 150.383 32.6797 150.457 33 150.457C33.3164 150.457 33.5723 150.383 33.7676 150.234C33.9668 150.086 34.1113 149.865 34.2012 149.572C34.2949 149.279 34.3418 148.918 34.3418 148.488C34.3418 148.055 34.2949 147.695 34.2012 147.41C34.1113 147.121 33.9668 146.904 33.7676 146.76C33.5684 146.615 33.3086 146.543 32.9883 146.543C32.5156 146.543 32.1719 146.705 31.957 147.029C31.7461 147.354 31.6406 147.84 31.6406 148.488ZM37.248 147.85C37.248 146.885 37.3672 146.064 37.6055 145.389C37.8438 144.713 38.2227 144.174 38.7422 143.771C39.2617 143.365 39.9434 143.09 40.7871 142.945C41.209 142.871 41.6367 142.811 42.0703 142.764C42.5078 142.713 42.9609 142.656 43.4297 142.594L43.6348 144.158C43.4316 144.182 43.2109 144.207 42.9727 144.234C42.7344 144.262 42.4941 144.291 42.252 144.322C42.0098 144.35 41.7754 144.379 41.5488 144.41C41.3223 144.438 41.1172 144.465 40.9336 144.492C40.5352 144.555 40.2031 144.652 39.9375 144.785C39.6719 144.918 39.4688 145.129 39.3281 145.418C39.1875 145.707 39.1016 146.123 39.0703 146.666H39.1582C39.252 146.518 39.3848 146.367 39.5566 146.215C39.7285 146.059 39.9414 145.93 40.1953 145.828C40.4492 145.723 40.7422 145.67 41.0742 145.67C41.5977 145.67 42.0508 145.777 42.4336 145.992C42.8164 146.207 43.1113 146.527 43.3184 146.953C43.5293 147.375 43.6348 147.902 43.6348 148.535C43.6348 149.277 43.498 149.898 43.2246 150.398C42.9551 150.895 42.5801 151.268 42.0996 151.518C41.6191 151.768 41.0625 151.893 40.4297 151.893C39.9453 151.893 39.5078 151.805 39.1172 151.629C38.7266 151.453 38.3906 151.193 38.1094 150.85C37.832 150.506 37.6191 150.084 37.4707 149.584C37.3223 149.08 37.248 148.502 37.248 147.85ZM40.5352 150.445C40.7891 150.445 41.0098 150.391 41.1973 150.281C41.3887 150.168 41.5371 149.984 41.6426 149.73C41.752 149.473 41.8066 149.127 41.8066 148.693C41.8066 148.17 41.7188 147.756 41.543 147.451C41.3711 147.143 41.0762 146.988 40.6582 146.988C40.4043 146.988 40.166 147.051 39.9434 147.176C39.7246 147.297 39.5391 147.438 39.3867 147.598C39.2344 147.754 39.1289 147.887 39.0703 147.996C39.0703 148.305 39.0938 148.605 39.1406 148.898C39.1914 149.188 39.2715 149.449 39.3809 149.684C39.4902 149.918 39.6387 150.104 39.8262 150.24C40.0176 150.377 40.2539 150.445 40.5352 150.445ZM50.9766 151.775H49.1895V146.566H47.543C47.4609 147.527 47.3633 148.346 47.25 149.021C47.1367 149.697 46.9922 150.248 46.8164 150.674C46.6406 151.096 46.4219 151.404 46.1602 151.6C45.8984 151.795 45.5762 151.893 45.1934 151.893C44.9824 151.893 44.793 151.877 44.625 151.846C44.4609 151.814 44.3105 151.768 44.1738 151.705V150.275C44.2598 150.311 44.3516 150.34 44.4492 150.363C44.5469 150.383 44.6465 150.393 44.748 150.393C44.8613 150.393 44.9688 150.348 45.0703 150.258C45.1719 150.168 45.2676 150.014 45.3574 149.795C45.4473 149.572 45.5312 149.266 45.6094 148.875C45.6914 148.484 45.7656 147.99 45.832 147.393C45.8984 146.795 45.9609 146.072 46.0195 145.225H50.9766V151.775ZM55.541 145.09C56.4199 145.09 57.0938 145.281 57.5625 145.664C58.0312 146.047 58.2656 146.629 58.2656 147.41V151.775H57.0176L56.6719 150.885H56.625C56.4375 151.119 56.2461 151.311 56.0508 151.459C55.8555 151.607 55.6309 151.717 55.377 151.787C55.123 151.857 54.8145 151.893 54.4512 151.893C54.0645 151.893 53.7168 151.818 53.4082 151.67C53.1035 151.521 52.8633 151.295 52.6875 150.99C52.5117 150.682 52.4238 150.291 52.4238 149.818C52.4238 149.123 52.668 148.611 53.1562 148.283C53.6445 147.951 54.377 147.768 55.3535 147.732L56.4902 147.697V147.41C56.4902 147.066 56.4004 146.814 56.2207 146.654C56.041 146.494 55.791 146.414 55.4707 146.414C55.1543 146.414 54.8438 146.459 54.5391 146.549C54.2344 146.639 53.9297 146.752 53.625 146.889L53.0332 145.682C53.3809 145.498 53.7695 145.354 54.1992 145.248C54.6328 145.143 55.0801 145.09 55.541 145.09ZM56.4902 148.74L55.7988 148.764C55.2207 148.779 54.8184 148.883 54.5918 149.074C54.3691 149.266 54.2578 149.518 54.2578 149.83C54.2578 150.104 54.3379 150.299 54.498 150.416C54.6582 150.529 54.8672 150.586 55.125 150.586C55.5078 150.586 55.8301 150.473 56.0918 150.246C56.3574 150.02 56.4902 149.697 56.4902 149.279V148.74ZM61.6816 145.225V147.621C61.6816 147.906 61.75 148.121 61.8867 148.266C62.0273 148.406 62.2227 148.477 62.4727 148.477C62.8164 148.477 63.1348 148.438 63.4277 148.359C63.7246 148.281 64.0234 148.18 64.3242 148.055V145.225H66.1113V151.775H64.3242V149.174C64.0391 149.322 63.7168 149.459 63.3574 149.584C63.002 149.709 62.5957 149.771 62.1387 149.771C61.4551 149.771 60.9102 149.598 60.5039 149.25C60.0977 148.898 59.8945 148.369 59.8945 147.662V145.225H61.6816ZM69.7734 145.225V147.744H72.2695V145.225H74.0566V151.775H72.2695V149.074H69.7734V151.775H67.9863V145.225H69.7734ZM81.8848 148.488C81.8848 149.035 81.8105 149.52 81.6621 149.941C81.5176 150.363 81.3047 150.721 81.0234 151.014C80.7461 151.303 80.4102 151.521 80.0156 151.67C79.625 151.818 79.1836 151.893 78.6914 151.893C78.2305 151.893 77.8066 151.818 77.4199 151.67C77.0371 151.521 76.7031 151.303 76.418 151.014C76.1367 150.721 75.918 150.363 75.7617 149.941C75.6094 149.52 75.5332 149.035 75.5332 148.488C75.5332 147.762 75.6621 147.146 75.9199 146.643C76.1777 146.139 76.5449 145.756 77.0215 145.494C77.498 145.232 78.0664 145.102 78.7266 145.102C79.3398 145.102 79.8828 145.232 80.3555 145.494C80.832 145.756 81.2051 146.139 81.4746 146.643C81.748 147.146 81.8848 147.762 81.8848 148.488ZM77.3555 148.488C77.3555 148.918 77.4023 149.279 77.4961 149.572C77.5898 149.865 77.7363 150.086 77.9355 150.234C78.1348 150.383 78.3945 150.457 78.7148 150.457C79.0312 150.457 79.2871 150.383 79.4824 150.234C79.6816 150.086 79.8262 149.865 79.916 149.572C80.0098 149.279 80.0566 148.918 80.0566 148.488C80.0566 148.055 80.0098 147.695 79.916 147.41C79.8262 147.121 79.6816 146.904 79.4824 146.76C79.2832 146.615 79.0234 146.543 78.7031 146.543C78.2305 146.543 77.8867 146.705 77.6719 147.029C77.4609 147.354 77.3555 147.84 77.3555 148.488ZM87.8848 145.225V146.566H85.1484V151.775H83.3613V145.225H87.8848ZM95.0566 148.488C95.0566 149.035 94.9824 149.52 94.834 149.941C94.6895 150.363 94.4766 150.721 94.1953 151.014C93.918 151.303 93.582 151.521 93.1875 151.67C92.7969 151.818 92.3555 151.893 91.8633 151.893C91.4023 151.893 90.9785 151.818 90.5918 151.67C90.209 151.521 89.875 151.303 89.5898 151.014C89.3086 150.721 89.0898 150.363 88.9336 149.941C88.7812 149.52 88.7051 149.035 88.7051 148.488C88.7051 147.762 88.834 147.146 89.0918 146.643C89.3496 146.139 89.7168 145.756 90.1934 145.494C90.6699 145.232 91.2383 145.102 91.8984 145.102C92.5117 145.102 93.0547 145.232 93.5273 145.494C94.0039 145.756 94.377 146.139 94.6465 146.643C94.9199 147.146 95.0566 147.762 95.0566 148.488ZM90.5273 148.488C90.5273 148.918 90.5742 149.279 90.668 149.572C90.7617 149.865 90.9082 150.086 91.1074 150.234C91.3066 150.383 91.5664 150.457 91.8867 150.457C92.2031 150.457 92.459 150.383 92.6543 150.234C92.8535 150.086 92.998 149.865 93.0879 149.572C93.1816 149.279 93.2285 148.918 93.2285 148.488C93.2285 148.055 93.1816 147.695 93.0879 147.41C92.998 147.121 92.8535 146.904 92.6543 146.76C92.4551 146.615 92.1953 146.543 91.875 146.543C91.4023 146.543 91.0586 146.705 90.8438 147.029C90.6328 147.354 90.5273 147.84 90.5273 148.488ZM99.791 151.775V143.209H105.205V144.709H101.607V146.496H102.322C103.127 146.496 103.787 146.607 104.303 146.83C104.822 147.053 105.205 147.361 105.451 147.756C105.701 148.146 105.826 148.594 105.826 149.098C105.826 149.945 105.543 150.604 104.977 151.072C104.414 151.541 103.518 151.775 102.287 151.775H99.791ZM101.607 150.287H102.217C102.768 150.287 103.201 150.199 103.518 150.023C103.834 149.844 103.992 149.535 103.992 149.098C103.992 148.793 103.914 148.561 103.758 148.4C103.605 148.24 103.385 148.131 103.096 148.072C102.811 148.014 102.469 147.984 102.07 147.984H101.607V150.287ZM112.846 151.775H106.857V150.516L109.008 148.342C109.441 147.896 109.789 147.525 110.051 147.229C110.316 146.928 110.508 146.654 110.625 146.408C110.746 146.162 110.807 145.898 110.807 145.617C110.807 145.277 110.711 145.023 110.52 144.855C110.332 144.684 110.08 144.598 109.764 144.598C109.432 144.598 109.109 144.674 108.797 144.826C108.484 144.979 108.158 145.195 107.818 145.477L106.834 144.311C107.08 144.1 107.34 143.9 107.613 143.713C107.891 143.525 108.211 143.375 108.574 143.262C108.941 143.145 109.381 143.086 109.893 143.086C110.455 143.086 110.938 143.188 111.34 143.391C111.746 143.594 112.059 143.871 112.277 144.223C112.496 144.57 112.605 144.965 112.605 145.406C112.605 145.879 112.512 146.311 112.324 146.701C112.137 147.092 111.863 147.479 111.504 147.861C111.148 148.244 110.719 148.668 110.215 149.133L109.113 150.17V150.252H112.846V151.775ZM119.906 150H118.875V151.775H117.105V150H113.449V148.74L117.205 143.209H118.875V148.594H119.906V150ZM117.105 148.594V147.141C117.105 147.004 117.107 146.842 117.111 146.654C117.119 146.467 117.127 146.279 117.135 146.092C117.143 145.904 117.15 145.738 117.158 145.594C117.17 145.445 117.178 145.342 117.182 145.283H117.135C117.061 145.443 116.982 145.6 116.9 145.752C116.818 145.9 116.723 146.057 116.613 146.221L115.043 148.594H117.105Z" fill="#F5F6FF"/>
</svg>
