<svg width="150" height="196" fill="none" xmlns="http://www.w3.org/2000/svg"><path d="M68.88 0H19.683C12.759 0 7.839 1.563 4.923 4.688 1.645 7.466.005 12.154.005 18.752v20.834c0 6.598 1.64 11.46 4.92 14.585 2.915 2.778 7.835 4.167 14.759 4.167h44.824c4.737 0 8.381 1.389 10.932 4.167 2.551 2.43 3.827 5.903 3.827 10.417v7.814H19.683c-6.924 0-11.844 1.562-14.76 4.687C1.645 88.201.005 92.89.005 99.487v77.089c0 6.598 1.64 11.46 4.92 14.585 2.915 2.778 7.835 4.167 14.759 4.167h110.42c6.924 0 12.025-1.389 15.305-4.167 2.916-3.125 4.373-7.987 4.373-14.585V78.652c0-26.391-7.288-46.01-21.865-58.859C112.975 6.598 93.296 0 68.88 0z" fill="#FF7D04"/><path d="M26.432 134.565h2.666c1.14 0 2.004.161 2.59.481.585.32.878.883.878 1.687 0 .325-.052.618-.158.879a1.59 1.59 0 01-.445.645 1.476 1.476 0 01-.715.328v.059c.285.058.543.16.774.304.23.141.413.348.55.621.14.27.211.629.211 1.078 0 .52-.127.965-.38 1.336-.255.371-.618.657-1.09.856-.47.195-1.028.293-1.676.293h-3.205v-8.567zm1.816 3.393h1.055c.527 0 .892-.082 1.095-.246.204-.168.305-.414.305-.738 0-.328-.121-.563-.363-.703-.238-.145-.617-.217-1.137-.217h-.955v1.904zm0 1.441v2.233h1.184c.547 0 .927-.106 1.142-.317.215-.211.322-.494.322-.849a1.08 1.08 0 00-.14-.557c-.094-.16-.252-.285-.475-.375-.218-.09-.521-.135-.908-.135h-1.125zm8.807-2.941c.605 0 1.127.117 1.564.352a2.4 2.4 0 011.014 1.007c.238.442.357.981.357 1.618v.867h-4.224c.02.504.17.9.45 1.189.286.285.68.428 1.184.428.418 0 .801-.043 1.149-.129a5.84 5.84 0 001.072-.387v1.383a4.3 4.3 0 01-1.02.352 6.331 6.331 0 01-1.283.111c-.656 0-1.238-.121-1.746-.363a2.713 2.713 0 01-1.19-1.108c-.284-.496-.427-1.121-.427-1.875 0-.765.129-1.402.387-1.91a2.63 2.63 0 011.09-1.148c.465-.258 1.005-.387 1.623-.387zm.011 1.271c-.347 0-.636.112-.867.334-.226.223-.357.573-.392 1.049h2.508a1.77 1.77 0 00-.147-.709 1.1 1.1 0 00-.41-.492c-.18-.121-.41-.182-.692-.182zm3.979 1.477c0-.965.12-1.785.357-2.461.239-.676.617-1.215 1.137-1.617.52-.406 1.201-.682 2.045-.826a19.8 19.8 0 011.283-.182c.438-.051.89-.107 1.36-.17l.205 1.565a155.061 155.061 0 00-1.383.164c-.242.027-.477.056-.703.088-.227.027-.432.054-.615.082-.399.062-.731.16-.997.293a1.328 1.328 0 00-.609.632c-.14.289-.227.705-.258 1.248h.088c.094-.148.227-.298.398-.451.172-.156.385-.285.64-.386.253-.106.546-.159.878-.159.523 0 .977.108 1.36.323.382.214.677.535.884.961.211.421.317.949.317 1.582 0 .742-.137 1.363-.41 1.863-.27.496-.645.869-1.125 1.119-.481.25-1.038.375-1.67.375a3.16 3.16 0 01-1.313-.264 2.734 2.734 0 01-1.008-.779 3.644 3.644 0 01-.638-1.266c-.149-.503-.223-1.082-.223-1.734zm3.287 2.596c.254 0 .475-.055.662-.164.191-.114.34-.297.446-.551.109-.258.163-.604.163-1.037 0-.524-.087-.938-.263-1.242-.172-.309-.467-.463-.885-.463-.254 0-.492.062-.715.187a2.295 2.295 0 00-.556.422 1.896 1.896 0 00-.317.399c0 .308.024.609.07.902.051.289.131.551.24.785.11.234.258.42.446.557.192.136.428.205.709.205zm3.996-1.155v-1.464h3.147v1.464h-3.147zm8.092-4.189c.738 0 1.334.287 1.787.861.457.575.686 1.416.686 2.526 0 .742-.108 1.367-.323 1.875-.215.504-.511.884-.89 1.142a2.266 2.266 0 01-1.307.387c-.316 0-.588-.039-.814-.117a2.094 2.094 0 01-.58-.311 2.746 2.746 0 01-.416-.41h-.094a4.778 4.778 0 01.093.961v2.643h-1.787v-9.434h1.453l.252.85h.083c.117-.176.26-.338.427-.487a1.89 1.89 0 01.604-.351 2.33 2.33 0 01.826-.135zm-.574 1.43c-.313 0-.56.064-.744.193-.184.129-.319.322-.405.58-.082.258-.127.584-.135.979v.193c0 .422.04.779.118 1.072.082.293.217.516.404.668.191.153.453.229.785.229.274 0 .498-.076.674-.229.176-.152.307-.375.392-.668.09-.297.135-.658.135-1.084 0-.64-.1-1.123-.298-1.447-.2-.324-.508-.486-.926-.486zm7.207-1.442c.879 0 1.553.192 2.021.575.469.382.703.964.703 1.746v4.365H64.53l-.345-.891h-.047a3.281 3.281 0 01-.575.574c-.195.149-.42.258-.673.329a3.53 3.53 0 01-.926.105c-.387 0-.735-.074-1.043-.223a1.656 1.656 0 01-.72-.679c-.177-.309-.265-.7-.265-1.172 0-.696.245-1.207.733-1.535.488-.332 1.22-.516 2.197-.551l1.137-.035v-.287c0-.344-.09-.596-.27-.756-.18-.16-.43-.24-.75-.24a3.27 3.27 0 00-.931.134c-.305.09-.61.203-.914.34l-.592-1.207a5.088 5.088 0 011.166-.434c.434-.105.88-.158 1.342-.158zm.949 3.651l-.691.023c-.579.016-.98.119-1.208.311a.947.947 0 00-.334.756c0 .273.08.468.24.585.16.114.37.17.628.17.383 0 .705-.113.966-.339.266-.227.399-.549.399-.967v-.539zm6.006-3.639c.473 0 .914.063 1.324.188.41.121.742.31.996.568.254.254.381.582.381.984 0 .395-.12.709-.357.944-.239.23-.555.396-.95.498v.058c.278.067.528.156.75.27.227.113.407.269.54.469.132.199.199.46.199.785 0 .363-.116.699-.346 1.007-.23.305-.584.551-1.06.739-.473.187-1.08.281-1.823.281-.352 0-.684-.016-.996-.047a6.92 6.92 0 01-.85-.135 3.845 3.845 0 01-.673-.222v-1.477c.27.125.601.24.996.346.398.105.822.158 1.271.158a5 5 0 00.88-.07c.265-.047.474-.125.626-.235a.53.53 0 00.234-.451.537.537 0 00-.205-.433c-.132-.118-.338-.204-.615-.258a5.084 5.084 0 00-1.043-.088h-.691v-1.236h.656c.594 0 1.053-.049 1.377-.147.324-.098.486-.277.486-.539 0-.211-.103-.369-.31-.475-.207-.105-.55-.158-1.026-.158-.308 0-.648.037-1.02.112-.37.07-.718.171-1.042.304l-.528-1.248a7.8 7.8 0 011.23-.351 7.785 7.785 0 011.589-.141zm7.928 0c.738 0 1.333.287 1.787.861.457.575.685 1.416.685 2.526 0 .742-.107 1.367-.322 1.875-.215.504-.512.884-.89 1.142a2.266 2.266 0 01-1.307.387c-.317 0-.588-.039-.815-.117a2.095 2.095 0 01-.58-.311 2.746 2.746 0 01-.416-.41h-.094a5.07 5.07 0 01.094.961v2.643h-1.787v-9.434h1.453l.252.85h.082c.117-.176.26-.338.428-.487.168-.148.369-.265.603-.351a2.33 2.33 0 01.827-.135zm-.575 1.43c-.312 0-.56.064-.744.193-.183.129-.318.322-.404.58-.082.258-.127.584-.135.979v.193c0 .422.04.779.117 1.072.082.293.217.516.405.668.191.153.453.229.785.229.273 0 .498-.076.674-.229.175-.152.306-.375.392-.668.09-.297.135-.658.135-1.084 0-.64-.1-1.123-.299-1.447-.2-.324-.508-.486-.926-.486zm7.207-1.442c.88 0 1.553.192 2.022.575.469.382.703.964.703 1.746v4.365h-1.248l-.346-.891h-.047a3.281 3.281 0 01-.574.574c-.195.149-.42.258-.674.329-.254.07-.562.105-.925.105-.387 0-.735-.074-1.043-.223a1.657 1.657 0 01-.721-.679c-.176-.309-.264-.7-.264-1.172 0-.696.244-1.207.733-1.535.488-.332 1.22-.516 2.197-.551l1.137-.035v-.287c0-.344-.09-.596-.27-.756-.18-.16-.43-.24-.75-.24a3.27 3.27 0 00-.932.134 7.26 7.26 0 00-.914.34l-.591-1.207a5.089 5.089 0 011.166-.434 5.68 5.68 0 011.341-.158zm.95 3.651l-.692.023c-.578.016-.98.119-1.207.311a.947.947 0 00-.334.756c0 .273.08.468.24.585.16.114.37.17.627.17.383 0 .705-.113.967-.339.266-.227.399-.549.399-.967v-.539zm3.222-.891c0-.965.12-1.785.358-2.461.238-.676.617-1.215 1.136-1.617.52-.406 1.202-.682 2.045-.826.422-.074.85-.135 1.284-.182.437-.051.89-.107 1.359-.17l.205 1.565a153.179 153.179 0 00-1.383.164 24.3 24.3 0 00-.703.088c-.227.027-.432.054-.615.082a3.4 3.4 0 00-.996.293 1.328 1.328 0 00-.61.632c-.14.289-.226.705-.257 1.248h.087c.094-.148.227-.298.399-.451a2.266 2.266 0 011.518-.545c.523 0 .976.108 1.359.323.383.214.677.535.885.961.21.421.316.949.316 1.582 0 .742-.137 1.363-.41 1.863-.27.496-.645.869-1.125 1.119s-1.037.375-1.67.375a3.16 3.16 0 01-1.313-.264 2.733 2.733 0 01-1.007-.779 3.643 3.643 0 01-.64-1.266c-.148-.503-.222-1.082-.222-1.734zm3.287 2.596c.254 0 .475-.055.662-.164.192-.114.34-.297.446-.551.11-.258.164-.604.164-1.037 0-.524-.088-.938-.264-1.242-.172-.309-.467-.463-.885-.463-.254 0-.492.062-.715.187a2.295 2.295 0 00-.556.422 1.9 1.9 0 00-.317.399c0 .308.024.609.07.902.052.289.132.551.241.785.11.234.258.42.445.557.192.136.428.205.71.205zm10.53-1.957c0 .547-.075 1.031-.223 1.453a2.859 2.859 0 01-.639 1.072 2.679 2.679 0 01-1.007.656 3.698 3.698 0 01-1.325.223c-.46 0-.885-.074-1.271-.223a2.821 2.821 0 01-1.002-.656c-.281-.293-.5-.65-.656-1.072-.153-.422-.229-.906-.229-1.453 0-.727.129-1.342.387-1.846a2.648 2.648 0 011.101-1.148c.477-.262 1.045-.393 1.705-.393.614 0 1.157.131 1.629.393.477.261.85.644 1.119 1.148.274.504.411 1.119.411 1.846zm-4.53 0c0 .429.047.791.141 1.084.094.293.24.513.44.662.199.148.458.222.779.222.316 0 .572-.074.767-.222.2-.149.344-.369.434-.662.094-.293.141-.655.141-1.084 0-.434-.047-.793-.141-1.078-.09-.289-.234-.506-.434-.651-.199-.144-.459-.217-.779-.217-.473 0-.816.163-1.031.487-.211.324-.317.81-.317 1.459zm11.426-1.922h-2.144v5.209h-1.788v-5.209h-2.15v-1.342h6.082v1.342zm5.52-1.342h1.968l-2.595 3.141 2.824 3.41h-2.027l-2.678-3.322v3.322h-1.787v-6.551h1.787v3.182l2.508-3.182zm5.818-.135c.879 0 1.553.192 2.021.575.469.382.704.964.704 1.746v4.365h-1.248l-.346-.891h-.047a3.274 3.274 0 01-.574.574 1.98 1.98 0 01-.674.329 3.53 3.53 0 01-.926.105c-.387 0-.734-.074-1.043-.223a1.654 1.654 0 01-.72-.679c-.176-.309-.264-.7-.264-1.172 0-.696.244-1.207.732-1.535.489-.332 1.221-.516 2.198-.551l1.136-.035v-.287c0-.344-.09-.596-.269-.756-.18-.16-.43-.24-.75-.24-.317 0-.627.044-.932.134-.305.09-.609.203-.914.34l-.592-1.207a5.105 5.105 0 011.166-.434 5.685 5.685 0 011.342-.158zm.949 3.651l-.691.023c-.578.016-.981.119-1.207.311a.946.946 0 00-.334.756c0 .273.08.468.24.585.16.114.369.17.627.17.383 0 .705-.113.967-.339.265-.227.398-.549.398-.967v-.539z" fill="#F5F6FF"/></svg>