<svg width="151" height="196" fill="none" xmlns="http://www.w3.org/2000/svg"><path d="M69.698 195.327h-49.07c-6.906 0-11.995-1.389-15.266-4.167C2.454 188.035 1 183.173 1 176.575V155.74c0-6.597 1.454-11.285 4.362-14.063 3.271-3.125 8.36-4.688 15.266-4.688h44.708c4.725 0 8.36-1.215 10.905-3.646 2.544-2.778 3.816-6.424 3.816-10.939v-7.813H20.628c-6.906 0-11.995-1.389-15.266-4.167C2.454 107.299 1 102.438 1 95.84V18.75C1 12.154 2.454 7.466 5.362 4.688 8.633 1.563 13.722 0 20.628 0h110.135c6.906 0 11.813 1.563 14.721 4.688 3.271 2.778 4.907 7.466 4.907 14.063v97.925c0 26.391-7.451 46.184-22.354 59.379-14.539 12.849-33.986 19.273-58.339 19.273z" fill="#FF7D04"/><path d="M45.91 49.837c0 .66-.082 1.262-.246 1.805a3.81 3.81 0 01-.75 1.394 3.26 3.26 0 01-1.266.902c-.511.207-1.117.311-1.816.311-.7 0-1.305-.104-1.816-.31a3.31 3.31 0 01-1.272-.903 3.853 3.853 0 01-.744-1.4 6.243 6.243 0 01-.246-1.81c0-.888.144-1.659.434-2.315a3.31 3.31 0 011.347-1.535c.606-.364 1.375-.545 2.309-.545.93 0 1.693.181 2.29.545a3.287 3.287 0 011.337 1.535c.293.66.44 1.435.44 2.326zm-6.252 0c0 .598.074 1.113.223 1.547.152.43.389.761.709.996.32.23.734.346 1.242.346.516 0 .934-.116 1.254-.346.32-.235.553-.567.697-.996.149-.434.223-.95.223-1.547 0-.899-.168-1.606-.504-2.121-.336-.516-.889-.774-1.658-.774-.512 0-.93.118-1.254.352-.32.23-.557.562-.71.996-.148.43-.222.945-.222 1.547zm13.307-.914H50.82v5.209h-1.787v-5.21h-2.15v-1.34h6.082v1.34zm4.869-1.465c.738 0 1.334.287 1.787.861.457.575.686 1.416.686 2.526 0 .742-.108 1.367-.323 1.875-.215.504-.511.885-.89 1.142a2.268 2.268 0 01-1.307.387c-.316 0-.588-.039-.814-.117a2.092 2.092 0 01-.58-.31 2.756 2.756 0 01-.416-.41h-.094a5.044 5.044 0 01.094.961v2.642H54.19V47.58h1.453l.252.85h.082a2.5 2.5 0 01.427-.487 1.89 1.89 0 01.604-.351 2.33 2.33 0 01.826-.135zm-.574 1.43c-.313 0-.56.064-.744.193-.184.129-.319.322-.405.58-.082.258-.127.584-.134.979v.193c0 .422.039.78.117 1.072.082.293.216.516.404.668.192.153.453.229.785.229.274 0 .498-.076.674-.229.176-.152.307-.375.393-.668a3.78 3.78 0 00.134-1.084c0-.64-.1-1.123-.299-1.447-.199-.324-.507-.486-.925-.486zm7.207-1.442c.879 0 1.552.192 2.021.575.469.382.703.964.703 1.746v4.365h-1.248l-.345-.89h-.047a3.318 3.318 0 01-.574.573 1.98 1.98 0 01-.674.329 3.53 3.53 0 01-.926.105c-.387 0-.734-.074-1.043-.223a1.657 1.657 0 01-.72-.68c-.176-.308-.264-.698-.264-1.171 0-.695.244-1.207.732-1.535.488-.332 1.22-.516 2.197-.551l1.137-.035v-.287c0-.344-.09-.596-.27-.756-.18-.16-.43-.24-.75-.24-.316 0-.627.044-.931.134-.305.09-.61.203-.914.34l-.592-1.207a5.081 5.081 0 011.166-.433c.434-.106.88-.159 1.342-.159zm.949 3.65l-.691.024c-.578.016-.98.12-1.207.31a.948.948 0 00-.334.757c0 .273.08.468.24.586.16.113.369.17.627.17.383 0 .705-.114.967-.34.265-.227.398-.55.398-.967v-.54zm6.281 3.153c-.648 0-1.2-.117-1.658-.352a2.345 2.345 0 01-1.043-1.101c-.238-.496-.357-1.131-.357-1.904 0-.801.134-1.454.404-1.957.273-.508.65-.881 1.13-1.12.485-.238 1.046-.357 1.683-.357.453 0 .843.045 1.171.135.332.086.621.19.867.31l-.527 1.383a8.396 8.396 0 00-.785-.275 2.468 2.468 0 00-.726-.112c-.313 0-.573.075-.78.223-.207.145-.361.363-.463.656-.101.293-.152.66-.152 1.102 0 .433.055.793.164 1.078.11.285.268.498.475.639.207.136.459.205.756.205.37 0 .7-.05.99-.147.289-.101.57-.242.843-.422v1.53a2.93 2.93 0 01-.86.369c-.298.078-.675.117-1.132.117zm9.381-.117h-1.787v-5.21h-1.647c-.082.962-.18 1.78-.292 2.456-.114.676-.258 1.227-.434 1.652-.176.422-.395.73-.656.926-.262.195-.584.293-.967.293-.211 0-.4-.016-.568-.047a1.963 1.963 0 01-.452-.14v-1.43c.086.035.178.064.276.088.097.02.197.029.299.029a.48.48 0 00.322-.135c.101-.09.197-.244.287-.463a5.32 5.32 0 00.252-.92c.082-.39.156-.884.223-1.482a53.2 53.2 0 00.187-2.168h4.957v6.55zm4.582-6.674c.606 0 1.127.117 1.565.352a2.4 2.4 0 011.013 1.007c.239.442.358.98.358 1.618v.867H84.37c.02.504.17.9.451 1.19.285.284.68.427 1.184.427.418 0 .8-.043 1.148-.129a5.839 5.839 0 001.073-.387v1.383c-.325.16-.665.277-1.02.352a6.32 6.32 0 01-1.283.111c-.656 0-1.239-.121-1.746-.363a2.711 2.711 0 01-1.19-1.108c-.285-.496-.427-1.12-.427-1.875 0-.765.128-1.402.386-1.91.262-.512.625-.894 1.09-1.148.465-.258 1.006-.387 1.623-.387zm.012 1.272c-.348 0-.637.11-.867.334-.227.222-.358.572-.393 1.048h2.508a1.765 1.765 0 00-.147-.709 1.1 1.1 0 00-.41-.492c-.18-.121-.41-.181-.691-.181zm10.184.568c0 .351-.112.652-.334.902-.22.246-.544.404-.973.475v.047c.453.054.818.213 1.095.474.278.258.416.584.416.979 0 .375-.097.71-.292 1.008-.196.293-.506.525-.932.697-.426.168-.983.252-1.67.252h-3.117v-6.55h3.117c.512 0 .97.054 1.377.163.406.106.726.283.96.533.235.25.353.59.353 1.02zm-1.647 2.783c0-.258-.102-.443-.305-.557-.199-.117-.496-.175-.89-.175h-1.178v1.547h1.213c.336 0 .613-.063.832-.188.219-.125.328-.334.328-.627zm-.164-2.643a.492.492 0 00-.24-.45c-.16-.098-.397-.147-.71-.147h-1.26v1.295h1.056c.378 0 .666-.055.861-.164.195-.11.293-.287.293-.534zm3.55 4.694v-6.55h1.788v2.53h.861c.668 0 1.219.07 1.652.211.438.14.762.356.973.645.211.285.317.644.317 1.078 0 .422-.098.789-.293 1.102-.196.312-.504.554-.926.726-.422.172-.975.258-1.658.258h-2.713zm1.788-1.236h.826c.348 0 .633-.063.855-.188.223-.129.334-.342.334-.639 0-.254-.101-.437-.304-.55-.203-.114-.506-.17-.908-.17h-.803v1.547zm4.752 1.236v-6.55h1.787v6.55h-1.787zm6.369-6.674c.605 0 1.127.117 1.564.352.438.23.776.566 1.014 1.007.238.442.357.98.357 1.618v.867h-4.224c.019.504.17.9.451 1.19.285.284.68.427 1.184.427.418 0 .8-.043 1.148-.129a5.823 5.823 0 001.072-.387v1.383a4.3 4.3 0 01-1.019.352c-.352.074-.78.111-1.283.111-.657 0-1.239-.121-1.747-.363a2.715 2.715 0 01-1.189-1.108c-.285-.496-.428-1.12-.428-1.875 0-.765.129-1.402.387-1.91.262-.512.625-.894 1.09-1.148.465-.258 1.006-.387 1.623-.387zm.012 1.272a1.2 1.2 0 00-.868.334c-.226.222-.357.572-.392 1.048h2.508a1.764 1.764 0 00-.147-.709 1.1 1.1 0 00-.41-.492c-.18-.121-.41-.181-.691-.181zM26.299 63.458c.738 0 1.334.287 1.787.861.457.575.686 1.416.686 2.526 0 .742-.108 1.367-.323 1.875-.215.504-.512.885-.89 1.142a2.267 2.267 0 01-1.307.387c-.316 0-.588-.039-.814-.117a2.093 2.093 0 01-.58-.31 2.76 2.76 0 01-.417-.41h-.093a4.777 4.777 0 01.093.96v2.643h-1.787V63.58h1.453l.252.85h.082a2.54 2.54 0 01.428-.487 1.89 1.89 0 01.604-.351c.238-.09.513-.135.826-.135zm-.574 1.43c-.313 0-.56.064-.745.193-.183.129-.318.322-.404.58-.082.258-.127.584-.135.979v.193c0 .422.04.78.118 1.072.082.293.216.516.404.668.191.153.453.229.785.229.273 0 .498-.076.674-.229.176-.152.306-.375.392-.668.09-.297.135-.658.135-1.084 0-.64-.1-1.123-.299-1.447-.199-.324-.507-.486-.925-.486zm7.224-1.43c.606 0 1.127.117 1.565.352a2.4 2.4 0 011.013 1.007c.239.442.358.98.358 1.618v.867H31.66c.02.504.17.9.451 1.19.286.284.68.427 1.184.427.418 0 .8-.043 1.148-.129a5.84 5.84 0 001.073-.387v1.383c-.325.16-.664.278-1.02.352-.352.074-.78.111-1.283.111-.656 0-1.238-.121-1.746-.363a2.712 2.712 0 01-1.19-1.108c-.285-.496-.427-1.12-.427-1.875 0-.765.128-1.402.386-1.91.262-.512.625-.894 1.09-1.148.465-.258 1.006-.387 1.623-.387zm.012 1.272c-.348 0-.637.11-.867.334-.227.222-.358.572-.393 1.048h2.508a1.767 1.767 0 00-.147-.709 1.1 1.1 0 00-.41-.492c-.18-.121-.41-.181-.691-.181zm14.133-1.149v6.55h-9.756v-6.55h1.787v5.209h2.197v-5.209h1.787v5.209h2.198v-5.209h1.787zm4.582-.123c.605 0 1.127.117 1.564.352.438.23.776.566 1.014 1.007.238.442.357.98.357 1.618v.867h-4.224c.02.504.17.9.45 1.19.286.284.68.427 1.184.427.419 0 .801-.043 1.149-.129a5.839 5.839 0 001.072-.387v1.383c-.324.16-.664.278-1.02.352a6.32 6.32 0 01-1.282.111c-.657 0-1.239-.121-1.747-.363a2.712 2.712 0 01-1.19-1.108c-.284-.496-.427-1.12-.427-1.875 0-.765.13-1.402.387-1.91.262-.512.625-.894 1.09-1.148.465-.258 1.006-.387 1.623-.387zm.011 1.272c-.347 0-.636.11-.867.334-.226.222-.357.572-.392 1.048h2.508a1.767 1.767 0 00-.147-.709 1.101 1.101 0 00-.41-.492c-.18-.121-.41-.181-.691-.181zm6.165-1.149v2.52h2.496v-2.52h1.787v6.55h-1.787v-2.7h-2.496v2.7h-1.787v-6.55h1.787zm7.886 0v2.59c0 .133-.006.3-.017.504-.008.199-.02.402-.035.61a28.77 28.77 0 01-.083.89l3.024-4.594h2.15v6.55H69.05V67.52c0-.215.008-.452.023-.71.016-.261.034-.507.053-.738.02-.23.033-.404.041-.521l-3.012 4.582H64.01v-6.55h1.728zm7.916 6.55h-1.933l1.763-2.589a2.453 2.453 0 01-.627-.387 1.9 1.9 0 01-.474-.633c-.121-.253-.182-.558-.182-.914 0-.652.246-1.152.739-1.5.496-.351 1.134-.527 1.916-.527h3.046v6.55h-1.787v-2.437h-.984l-1.477 2.438zm.3-4.51c0 .273.107.487.321.644.22.152.5.228.844.228h.996v-1.652h-1.224c-.32 0-.557.078-.71.234a.744.744 0 00-.228.545zm14.823-2.04v5.244h.961v3.656h-1.605v-2.35h-4.406v2.35H82.12v-3.656h.55c.29-.441.532-.945.727-1.511.2-.567.36-1.166.48-1.8.126-.636.216-1.28.27-1.933h4.63zm-1.787 1.342h-1.342c-.062.484-.142.953-.24 1.406-.094.45-.21.883-.351 1.3a8.138 8.138 0 01-.516 1.196h2.45v-3.902zm9.733 5.209h-1.787v-5.21h-1.647c-.082.962-.18 1.78-.293 2.456-.113.676-.258 1.227-.433 1.652-.176.422-.395.73-.657.926-.262.195-.584.293-.967.293-.21 0-.4-.016-.568-.047a1.963 1.963 0 01-.451-.14v-1.43c.086.035.178.064.275.088.098.02.198.029.3.029a.48.48 0 00.321-.135c.102-.09.198-.244.287-.463a5.4 5.4 0 00.253-.92c.082-.39.156-.884.222-1.482s.129-1.32.188-2.168h4.957v6.55zm2.877 0h-1.934l1.764-2.59a2.453 2.453 0 01-.627-.387 1.9 1.9 0 01-.475-.633c-.121-.253-.181-.558-.181-.914 0-.652.246-1.152.738-1.5.496-.351 1.135-.527 1.916-.527h3.047v6.55h-1.787v-2.437h-.985L99.6 70.132zm.298-4.512c0 .274.108.488.323.645.218.152.5.228.843.228h.997v-1.652h-1.225c-.32 0-.557.078-.709.234a.744.744 0 00-.229.545zm9.077 4.512v-8.567h5.414v1.5h-3.598v1.788h.715c.805 0 1.465.11 1.98.334.52.222.903.53 1.149.925.25.39.375.838.375 1.342 0 .848-.283 1.506-.85 1.975-.562.468-1.459.703-2.689.703h-2.496zm1.816-1.488h.609c.551 0 .985-.088 1.301-.264.317-.18.475-.488.475-.926 0-.305-.078-.537-.235-.697-.152-.16-.373-.27-.662-.328a5.166 5.166 0 00-1.025-.088h-.463v2.303zm11.238 1.488h-5.988v-1.26l2.15-2.174a30.6 30.6 0 001.043-1.113c.266-.3.457-.574.575-.82.121-.246.181-.51.181-.791 0-.34-.095-.594-.287-.762-.187-.172-.439-.258-.756-.258-.332 0-.654.076-.967.229a4.999 4.999 0 00-.978.65l-.984-1.166c.246-.21.505-.41.779-.598.277-.187.598-.338.961-.45.367-.118.806-.177 1.318-.177.563 0 1.045.102 1.447.305.407.203.719.48.938.832.219.348.328.742.328 1.184 0 .472-.094.904-.281 1.295-.188.39-.461.777-.82 1.16-.356.383-.786.806-1.29 1.271l-1.101 1.037v.082h3.732v1.524zm7.061-1.776h-1.031v1.776h-1.77v-1.776h-3.656v-1.26l3.756-5.53h1.67v5.384h1.031v1.406zm-2.801-1.406v-1.453c0-.137.002-.299.006-.486l.023-.563c.008-.187.016-.353.024-.498.012-.148.019-.252.023-.31h-.047c-.074.16-.152.316-.234.468a6.76 6.76 0 01-.287.47l-1.57 2.372h2.062z" fill="#F5F6FF"/></svg>