<svg width="151" height="196" viewBox="0 0 151 196" fill="none" xmlns="http://www.w3.org/2000/svg">
<path d="M69.6981 195.327H20.628C13.7219 195.327 8.63315 193.938 5.36181 191.16C2.45396 188.035 1 183.173 1 176.575V155.74C1 149.143 2.45396 144.455 5.36181 141.677C8.63315 138.552 13.7219 136.989 20.628 136.989H65.3363C70.0615 136.989 73.6963 135.774 76.2407 133.343C78.7851 130.565 80.0573 126.919 80.0573 122.404V114.591H20.628C13.7219 114.591 8.63311 113.202 5.36178 110.424C2.45392 107.299 1 102.438 1 95.8399V18.7505C1 12.1528 2.45392 7.46489 5.36178 4.68689C8.63311 1.56165 13.7219 -0.000976562 20.628 -0.000976562H130.763C137.669 -0.000976562 142.576 1.56165 145.484 4.68689C148.755 7.46489 150.391 12.1528 150.391 18.7505V116.675C150.391 143.066 142.94 162.859 128.037 176.054C113.498 188.903 94.0513 195.327 69.6981 195.327Z" fill="#FF7D04"/>
<path d="M45.9102 49.8369C45.9102 50.4971 45.8281 51.0986 45.6641 51.6416C45.5 52.1807 45.25 52.6455 44.9141 53.0361C44.582 53.4268 44.1602 53.7275 43.6484 53.9385C43.1367 54.1455 42.5312 54.249 41.832 54.249C41.1328 54.249 40.5273 54.1455 40.0156 53.9385C39.5039 53.7275 39.0801 53.4268 38.7441 53.0361C38.4121 52.6455 38.1641 52.1787 38 51.6357C37.8359 51.0928 37.7539 50.4893 37.7539 49.8252C37.7539 48.9385 37.8984 48.167 38.1875 47.5107C38.4805 46.8506 38.9297 46.3389 39.5352 45.9756C40.1406 45.6123 40.9102 45.4307 41.8438 45.4307C42.7734 45.4307 43.5371 45.6123 44.1348 45.9756C44.7363 46.3389 45.1816 46.8506 45.4707 47.5107C45.7637 48.1709 45.9102 48.9463 45.9102 49.8369ZM39.6582 49.8369C39.6582 50.4346 39.7324 50.9502 39.8809 51.3838C40.0332 51.8135 40.2695 52.1455 40.5898 52.3799C40.9102 52.6104 41.3242 52.7256 41.832 52.7256C42.3477 52.7256 42.7656 52.6104 43.0859 52.3799C43.4062 52.1455 43.6387 51.8135 43.7832 51.3838C43.9316 50.9502 44.0059 50.4346 44.0059 49.8369C44.0059 48.9385 43.8379 48.2314 43.502 47.7158C43.166 47.2002 42.6133 46.9424 41.8438 46.9424C41.332 46.9424 40.9141 47.0596 40.5898 47.2939C40.2695 47.5244 40.0332 47.8564 39.8809 48.29C39.7324 48.7197 39.6582 49.2354 39.6582 49.8369ZM52.9648 48.9229H50.8203V54.1318H49.0332V48.9229H46.8828V47.5811H52.9648V48.9229ZM57.834 47.458C58.5723 47.458 59.168 47.7451 59.6211 48.3193C60.0781 48.8936 60.3066 49.7354 60.3066 50.8447C60.3066 51.5869 60.1992 52.2119 59.9844 52.7197C59.7695 53.2236 59.4727 53.6045 59.0938 53.8623C58.7148 54.1201 58.2793 54.249 57.7871 54.249C57.4707 54.249 57.1992 54.21 56.9727 54.1318C56.7461 54.0498 56.5527 53.9463 56.3926 53.8213C56.2324 53.6924 56.0938 53.5557 55.9766 53.4111H55.8828C55.9141 53.5674 55.9375 53.7275 55.9531 53.8916C55.9688 54.0557 55.9766 54.2158 55.9766 54.3721V57.0146H54.1895V47.5811H55.6426L55.8945 48.4307H55.9766C56.0938 48.2549 56.2363 48.0928 56.4043 47.9443C56.5723 47.7959 56.7734 47.6787 57.0078 47.5928C57.2461 47.5029 57.5215 47.458 57.834 47.458ZM57.2598 48.8877C56.9473 48.8877 56.6992 48.9521 56.5156 49.0811C56.332 49.21 56.1973 49.4033 56.1113 49.6611C56.0293 49.9189 55.9844 50.2451 55.9766 50.6396V50.833C55.9766 51.2549 56.0156 51.6123 56.0938 51.9053C56.1758 52.1982 56.3105 52.4209 56.498 52.5732C56.6895 52.7256 56.9512 52.8018 57.2832 52.8018C57.5566 52.8018 57.7812 52.7256 57.957 52.5732C58.1328 52.4209 58.2637 52.1982 58.3496 51.9053C58.4395 51.6084 58.4844 51.2471 58.4844 50.8213C58.4844 50.1807 58.3848 49.6982 58.1855 49.374C57.9863 49.0498 57.6777 48.8877 57.2598 48.8877ZM64.4668 47.4463C65.3457 47.4463 66.0195 47.6377 66.4883 48.0205C66.957 48.4033 67.1914 48.9854 67.1914 49.7666V54.1318H65.9434L65.5977 53.2412H65.5508C65.3633 53.4756 65.1719 53.667 64.9766 53.8154C64.7812 53.9639 64.5566 54.0732 64.3027 54.1436C64.0488 54.2139 63.7402 54.249 63.377 54.249C62.9902 54.249 62.6426 54.1748 62.334 54.0264C62.0293 53.8779 61.7891 53.6514 61.6133 53.3467C61.4375 53.0381 61.3496 52.6475 61.3496 52.1748C61.3496 51.4795 61.5938 50.9678 62.082 50.6396C62.5703 50.3076 63.3027 50.124 64.2793 50.0889L65.416 50.0537V49.7666C65.416 49.4229 65.3262 49.1709 65.1465 49.0107C64.9668 48.8506 64.7168 48.7705 64.3965 48.7705C64.0801 48.7705 63.7695 48.8154 63.4648 48.9053C63.1602 48.9951 62.8555 49.1084 62.5508 49.2451L61.959 48.0381C62.3066 47.8545 62.6953 47.71 63.125 47.6045C63.5586 47.499 64.0059 47.4463 64.4668 47.4463ZM65.416 51.0967L64.7246 51.1201C64.1465 51.1357 63.7441 51.2393 63.5176 51.4307C63.2949 51.6221 63.1836 51.874 63.1836 52.1865C63.1836 52.46 63.2637 52.6553 63.4238 52.7725C63.584 52.8857 63.793 52.9424 64.0508 52.9424C64.4336 52.9424 64.7559 52.8291 65.0176 52.6025C65.2832 52.376 65.416 52.0537 65.416 51.6357V51.0967ZM71.6973 54.249C71.0488 54.249 70.4961 54.1318 70.0391 53.8975C69.582 53.6592 69.2344 53.292 68.9961 52.7959C68.7578 52.2998 68.6387 51.665 68.6387 50.8916C68.6387 50.0908 68.7734 49.4385 69.043 48.9346C69.3164 48.4268 69.6934 48.0537 70.1738 47.8154C70.6582 47.5771 71.2188 47.458 71.8555 47.458C72.3086 47.458 72.6992 47.5029 73.0273 47.5928C73.3594 47.6787 73.6484 47.7822 73.8945 47.9033L73.3672 49.2861C73.0859 49.1729 72.8242 49.0811 72.582 49.0107C72.3398 48.9365 72.0977 48.8994 71.8555 48.8994C71.543 48.8994 71.2832 48.9736 71.0762 49.1221C70.8691 49.2666 70.7148 49.4854 70.6133 49.7783C70.5117 50.0713 70.4609 50.4385 70.4609 50.8799C70.4609 51.3135 70.5156 51.6729 70.625 51.958C70.7344 52.2432 70.8926 52.4561 71.0996 52.5967C71.3066 52.7334 71.5586 52.8018 71.8555 52.8018C72.2266 52.8018 72.5566 52.7529 72.8457 52.6553C73.1348 52.5537 73.416 52.4131 73.6895 52.2334V53.7627C73.416 53.9346 73.1289 54.0576 72.8281 54.1318C72.5312 54.21 72.1543 54.249 71.6973 54.249ZM81.0781 54.1318H79.291V48.9229H77.6445C77.5625 49.8838 77.4648 50.7021 77.3516 51.3779C77.2383 52.0537 77.0938 52.6045 76.918 53.0303C76.7422 53.4521 76.5234 53.7607 76.2617 53.9561C76 54.1514 75.6777 54.249 75.2949 54.249C75.084 54.249 74.8945 54.2334 74.7266 54.2021C74.5625 54.1709 74.4121 54.124 74.2754 54.0615V52.6318C74.3613 52.667 74.4531 52.6963 74.5508 52.7197C74.6484 52.7393 74.748 52.749 74.8496 52.749C74.9629 52.749 75.0703 52.7041 75.1719 52.6143C75.2734 52.5244 75.3691 52.3701 75.459 52.1514C75.5488 51.9287 75.6328 51.6221 75.7109 51.2314C75.793 50.8408 75.8672 50.3467 75.9336 49.749C76 49.1514 76.0625 48.4287 76.1211 47.5811H81.0781V54.1318ZM85.6602 47.458C86.2656 47.458 86.7871 47.5752 87.2246 47.8096C87.6621 48.04 88 48.376 88.2383 48.8174C88.4766 49.2588 88.5957 49.7979 88.5957 50.4346V51.3018H84.3711C84.3906 51.8057 84.541 52.2021 84.8223 52.4912C85.1074 52.7764 85.502 52.9189 86.0059 52.9189C86.4238 52.9189 86.8066 52.876 87.1543 52.79C87.502 52.7041 87.8594 52.5752 88.2266 52.4033V53.7861C87.9023 53.9463 87.5625 54.0635 87.207 54.1377C86.8555 54.2119 86.4277 54.249 85.9238 54.249C85.2676 54.249 84.6855 54.1279 84.1777 53.8857C83.6738 53.6436 83.2773 53.2744 82.9883 52.7783C82.7031 52.2822 82.5605 51.6572 82.5605 50.9033C82.5605 50.1377 82.6895 49.501 82.9473 48.9932C83.209 48.4814 83.5723 48.0986 84.0371 47.8447C84.502 47.5869 85.043 47.458 85.6602 47.458ZM85.6719 48.7295C85.3242 48.7295 85.0352 48.8408 84.8047 49.0635C84.5781 49.2861 84.4473 49.6357 84.4121 50.1123H86.9199C86.916 49.8467 86.8672 49.6104 86.7734 49.4033C86.6836 49.1963 86.5469 49.0322 86.3633 48.9111C86.1836 48.79 85.9531 48.7295 85.6719 48.7295ZM95.8555 49.2979C95.8555 49.6494 95.7441 49.9502 95.5215 50.2002C95.3027 50.4463 94.9785 50.6045 94.5488 50.6748V50.7217C95.002 50.7764 95.3672 50.9346 95.6445 51.1963C95.9219 51.4541 96.0605 51.7803 96.0605 52.1748C96.0605 52.5498 95.9629 52.8857 95.7676 53.1826C95.5723 53.4756 95.2617 53.708 94.8359 53.8799C94.4102 54.0479 93.8535 54.1318 93.166 54.1318H90.0488V47.5811H93.166C93.6777 47.5811 94.1367 47.6357 94.543 47.7451C94.9492 47.8506 95.2695 48.0283 95.5039 48.2783C95.7383 48.5283 95.8555 48.8682 95.8555 49.2979ZM94.209 52.0811C94.209 51.8232 94.1074 51.6377 93.9043 51.5244C93.7051 51.4072 93.4082 51.3486 93.0137 51.3486H91.8359V52.8955H93.0488C93.3848 52.8955 93.6621 52.833 93.8809 52.708C94.0996 52.583 94.209 52.374 94.209 52.0811ZM94.0449 49.4385C94.0449 49.2354 93.9648 49.085 93.8047 48.9873C93.6445 48.8896 93.4082 48.8408 93.0957 48.8408H91.8359V50.1357H92.8906C93.2695 50.1357 93.5566 50.0811 93.752 49.9717C93.9473 49.8623 94.0449 49.6846 94.0449 49.4385ZM97.5957 54.1318V47.5811H99.3828V50.1123H100.244C100.912 50.1123 101.463 50.1826 101.896 50.3232C102.334 50.4639 102.658 50.6787 102.869 50.9678C103.08 51.2529 103.186 51.6123 103.186 52.0459C103.186 52.4678 103.088 52.835 102.893 53.1475C102.697 53.46 102.389 53.7021 101.967 53.874C101.545 54.0459 100.992 54.1318 100.309 54.1318H97.5957ZM99.3828 52.8955H100.209C100.557 52.8955 100.842 52.833 101.064 52.708C101.287 52.5791 101.398 52.3662 101.398 52.0693C101.398 51.8154 101.297 51.6318 101.094 51.5186C100.891 51.4053 100.588 51.3486 100.186 51.3486H99.3828V52.8955ZM104.135 54.1318V47.5811H105.922V54.1318H104.135ZM110.504 47.458C111.109 47.458 111.631 47.5752 112.068 47.8096C112.506 48.04 112.844 48.376 113.082 48.8174C113.32 49.2588 113.439 49.7979 113.439 50.4346V51.3018H109.215C109.234 51.8057 109.385 52.2021 109.666 52.4912C109.951 52.7764 110.346 52.9189 110.85 52.9189C111.268 52.9189 111.65 52.876 111.998 52.79C112.346 52.7041 112.703 52.5752 113.07 52.4033V53.7861C112.746 53.9463 112.406 54.0635 112.051 54.1377C111.699 54.2119 111.271 54.249 110.768 54.249C110.111 54.249 109.529 54.1279 109.021 53.8857C108.518 53.6436 108.121 53.2744 107.832 52.7783C107.547 52.2822 107.404 51.6572 107.404 50.9033C107.404 50.1377 107.533 49.501 107.791 48.9932C108.053 48.4814 108.416 48.0986 108.881 47.8447C109.346 47.5869 109.887 47.458 110.504 47.458ZM110.516 48.7295C110.168 48.7295 109.879 48.8408 109.648 49.0635C109.422 49.2861 109.291 49.6357 109.256 50.1123H111.764C111.76 49.8467 111.711 49.6104 111.617 49.4033C111.527 49.1963 111.391 49.0322 111.207 48.9111C111.027 48.79 110.797 48.7295 110.516 48.7295ZM26.2988 63.458C27.0371 63.458 27.6328 63.7451 28.0859 64.3193C28.543 64.8936 28.7715 65.7354 28.7715 66.8447C28.7715 67.5869 28.6641 68.2119 28.4492 68.7197C28.2344 69.2236 27.9375 69.6045 27.5586 69.8623C27.1797 70.1201 26.7441 70.249 26.252 70.249C25.9355 70.249 25.6641 70.21 25.4375 70.1318C25.2109 70.0498 25.0176 69.9463 24.8574 69.8213C24.6973 69.6924 24.5586 69.5557 24.4414 69.4111H24.3477C24.3789 69.5674 24.4023 69.7275 24.418 69.8916C24.4336 70.0557 24.4414 70.2158 24.4414 70.3721V73.0146H22.6543V63.5811H24.1074L24.3594 64.4307H24.4414C24.5586 64.2549 24.7012 64.0928 24.8691 63.9443C25.0371 63.7959 25.2383 63.6787 25.4727 63.5928C25.7109 63.5029 25.9863 63.458 26.2988 63.458ZM25.7246 64.8877C25.4121 64.8877 25.1641 64.9521 24.9805 65.0811C24.7969 65.21 24.6621 65.4033 24.5762 65.6611C24.4941 65.9189 24.4492 66.2451 24.4414 66.6396V66.833C24.4414 67.2549 24.4805 67.6123 24.5586 67.9053C24.6406 68.1982 24.7754 68.4209 24.9629 68.5732C25.1543 68.7256 25.416 68.8018 25.748 68.8018C26.0215 68.8018 26.2461 68.7256 26.4219 68.5732C26.5977 68.4209 26.7285 68.1982 26.8145 67.9053C26.9043 67.6084 26.9492 67.2471 26.9492 66.8213C26.9492 66.1807 26.8496 65.6982 26.6504 65.374C26.4512 65.0498 26.1426 64.8877 25.7246 64.8877ZM32.9492 63.458C33.5547 63.458 34.0762 63.5752 34.5137 63.8096C34.9512 64.04 35.2891 64.376 35.5273 64.8174C35.7656 65.2588 35.8848 65.7979 35.8848 66.4346V67.3018H31.6602C31.6797 67.8057 31.8301 68.2021 32.1113 68.4912C32.3965 68.7764 32.791 68.9189 33.2949 68.9189C33.7129 68.9189 34.0957 68.876 34.4434 68.79C34.791 68.7041 35.1484 68.5752 35.5156 68.4033V69.7861C35.1914 69.9463 34.8516 70.0635 34.4961 70.1377C34.1445 70.2119 33.7168 70.249 33.2129 70.249C32.5566 70.249 31.9746 70.1279 31.4668 69.8857C30.9629 69.6436 30.5664 69.2744 30.2773 68.7783C29.9922 68.2822 29.8496 67.6572 29.8496 66.9033C29.8496 66.1377 29.9785 65.501 30.2363 64.9932C30.498 64.4814 30.8613 64.0986 31.3262 63.8447C31.791 63.5869 32.332 63.458 32.9492 63.458ZM32.9609 64.7295C32.6133 64.7295 32.3242 64.8408 32.0938 65.0635C31.8672 65.2861 31.7363 65.6357 31.7012 66.1123H34.209C34.2051 65.8467 34.1562 65.6104 34.0625 65.4033C33.9727 65.1963 33.8359 65.0322 33.6523 64.9111C33.4727 64.79 33.2422 64.7295 32.9609 64.7295ZM47.0938 63.5811V70.1318H37.3379V63.5811H39.125V68.79H41.3223V63.5811H43.1094V68.79H45.3066V63.5811H47.0938ZM51.6758 63.458C52.2812 63.458 52.8027 63.5752 53.2402 63.8096C53.6777 64.04 54.0156 64.376 54.2539 64.8174C54.4922 65.2588 54.6113 65.7979 54.6113 66.4346V67.3018H50.3867C50.4062 67.8057 50.5566 68.2021 50.8379 68.4912C51.123 68.7764 51.5176 68.9189 52.0215 68.9189C52.4395 68.9189 52.8223 68.876 53.1699 68.79C53.5176 68.7041 53.875 68.5752 54.2422 68.4033V69.7861C53.918 69.9463 53.5781 70.0635 53.2227 70.1377C52.8711 70.2119 52.4434 70.249 51.9395 70.249C51.2832 70.249 50.7012 70.1279 50.1934 69.8857C49.6895 69.6436 49.293 69.2744 49.0039 68.7783C48.7188 68.2822 48.5762 67.6572 48.5762 66.9033C48.5762 66.1377 48.7051 65.501 48.9629 64.9932C49.2246 64.4814 49.5879 64.0986 50.0527 63.8447C50.5176 63.5869 51.0586 63.458 51.6758 63.458ZM51.6875 64.7295C51.3398 64.7295 51.0508 64.8408 50.8203 65.0635C50.5938 65.2861 50.4629 65.6357 50.4277 66.1123H52.9355C52.9316 65.8467 52.8828 65.6104 52.7891 65.4033C52.6992 65.1963 52.5625 65.0322 52.3789 64.9111C52.1992 64.79 51.9688 64.7295 51.6875 64.7295ZM57.8516 63.5811V66.1006H60.3477V63.5811H62.1348V70.1318H60.3477V67.4307H57.8516V70.1318H56.0645V63.5811H57.8516ZM65.7383 63.5811V66.1709C65.7383 66.3037 65.7324 66.4717 65.7207 66.6748C65.7129 66.874 65.7012 67.0771 65.6855 67.2842C65.6699 67.4912 65.6543 67.6768 65.6387 67.8408C65.623 68.0049 65.6113 68.1162 65.6035 68.1748L68.627 63.5811H70.7773V70.1318H69.0488V67.5186C69.0488 67.3037 69.0566 67.0674 69.0723 66.8096C69.0879 66.5479 69.1055 66.3018 69.125 66.0713C69.1445 65.8408 69.1582 65.667 69.166 65.5498L66.1543 70.1318H64.0098V63.5811H65.7383ZM73.6543 70.1318H71.7207L73.4844 67.542C73.2617 67.4482 73.0527 67.3193 72.8574 67.1553C72.6621 66.9873 72.5039 66.7764 72.3828 66.5225C72.2617 66.2686 72.2012 65.9639 72.2012 65.6084C72.2012 64.9561 72.4473 64.4561 72.9395 64.1084C73.4355 63.7568 74.0742 63.5811 74.8555 63.5811H77.9023V70.1318H76.1152V67.6943H75.1309L73.6543 70.1318ZM73.9531 65.6201C73.9531 65.8936 74.0605 66.1084 74.2754 66.2646C74.4941 66.417 74.7754 66.4932 75.1191 66.4932H76.1152V64.8408H74.8906C74.5703 64.8408 74.334 64.9189 74.1816 65.0752C74.0293 65.2275 73.9531 65.4092 73.9531 65.6201ZM88.7773 63.5811V68.8252H89.7383V72.4814H88.1328V70.1318H83.7266V72.4814H82.1211V68.8252H82.6719C82.9609 68.3838 83.2031 67.8799 83.3984 67.3135C83.5977 66.7471 83.7578 66.1475 83.8789 65.5146C84.0039 64.8779 84.0938 64.2334 84.1484 63.5811H88.7773ZM86.9902 64.9229H85.6484C85.5859 65.4072 85.5059 65.876 85.4082 66.3291C85.3145 66.7783 85.1973 67.2119 85.0566 67.6299C84.916 68.0439 84.7441 68.4424 84.541 68.8252H86.9902V64.9229ZM96.7227 70.1318H94.9355V64.9229H93.2891C93.207 65.8838 93.1094 66.7021 92.9961 67.3779C92.8828 68.0537 92.7383 68.6045 92.5625 69.0303C92.3867 69.4521 92.168 69.7607 91.9062 69.9561C91.6445 70.1514 91.3223 70.249 90.9395 70.249C90.7285 70.249 90.5391 70.2334 90.3711 70.2021C90.207 70.1709 90.0566 70.124 89.9199 70.0615V68.6318C90.0059 68.667 90.0977 68.6963 90.1953 68.7197C90.293 68.7393 90.3926 68.749 90.4941 68.749C90.6074 68.749 90.7148 68.7041 90.8164 68.6143C90.918 68.5244 91.0137 68.3701 91.1035 68.1514C91.1934 67.9287 91.2773 67.6221 91.3555 67.2314C91.4375 66.8408 91.5117 66.3467 91.5781 65.749C91.6445 65.1514 91.707 64.4287 91.7656 63.5811H96.7227V70.1318ZM99.5996 70.1318H97.666L99.4297 67.542C99.207 67.4482 98.998 67.3193 98.8027 67.1553C98.6074 66.9873 98.4492 66.7764 98.3281 66.5225C98.207 66.2686 98.1465 65.9639 98.1465 65.6084C98.1465 64.9561 98.3926 64.4561 98.8848 64.1084C99.3809 63.7568 100.02 63.5811 100.801 63.5811H103.848V70.1318H102.061V67.6943H101.076L99.5996 70.1318ZM99.8984 65.6201C99.8984 65.8936 100.006 66.1084 100.221 66.2646C100.439 66.417 100.721 66.4932 101.064 66.4932H102.061V64.8408H100.836C100.516 64.8408 100.279 64.9189 100.127 65.0752C99.9746 65.2275 99.8984 65.4092 99.8984 65.6201ZM108.975 70.1318V61.5654H114.389V63.0654H110.791V64.8525H111.506C112.311 64.8525 112.971 64.9639 113.486 65.1865C114.006 65.4092 114.389 65.7178 114.635 66.1123C114.885 66.5029 115.01 66.9502 115.01 67.4541C115.01 68.3018 114.727 68.96 114.16 69.4287C113.598 69.8975 112.701 70.1318 111.471 70.1318H108.975ZM110.791 68.6436H111.4C111.951 68.6436 112.385 68.5557 112.701 68.3799C113.018 68.2002 113.176 67.8916 113.176 67.4541C113.176 67.1494 113.098 66.917 112.941 66.7568C112.789 66.5967 112.568 66.4873 112.279 66.4287C111.994 66.3701 111.652 66.3408 111.254 66.3408H110.791V68.6436ZM122.029 70.1318H116.041V68.8721L118.191 66.6982C118.625 66.2529 118.973 65.8818 119.234 65.585C119.5 65.2842 119.691 65.0107 119.809 64.7646C119.93 64.5186 119.99 64.2549 119.99 63.9736C119.99 63.6338 119.895 63.3799 119.703 63.2119C119.516 63.04 119.264 62.9541 118.947 62.9541C118.615 62.9541 118.293 63.0303 117.98 63.1826C117.668 63.335 117.342 63.5518 117.002 63.833L116.018 62.667C116.264 62.4561 116.523 62.2568 116.797 62.0693C117.074 61.8818 117.395 61.7314 117.758 61.6182C118.125 61.501 118.564 61.4424 119.076 61.4424C119.639 61.4424 120.121 61.5439 120.523 61.7471C120.93 61.9502 121.242 62.2275 121.461 62.5791C121.68 62.9268 121.789 63.3213 121.789 63.7627C121.789 64.2354 121.695 64.667 121.508 65.0576C121.32 65.4482 121.047 65.835 120.688 66.2178C120.332 66.6006 119.902 67.0244 119.398 67.4893L118.297 68.5264V68.6084H122.029V70.1318ZM129.09 68.3564H128.059V70.1318H126.289V68.3564H122.633V67.0967L126.389 61.5654H128.059V66.9502H129.09V68.3564ZM126.289 66.9502V65.4971C126.289 65.3604 126.291 65.1982 126.295 65.0107C126.303 64.8232 126.311 64.6357 126.318 64.4482C126.326 64.2607 126.334 64.0947 126.342 63.9502C126.354 63.8018 126.361 63.6982 126.365 63.6396H126.318C126.244 63.7998 126.166 63.9561 126.084 64.1084C126.002 64.2568 125.906 64.4131 125.797 64.5771L124.227 66.9502H126.289Z" fill="#F5F6FF"/>
</svg>
