<svg width="158" height="102" fill="none" xmlns="http://www.w3.org/2000/svg"><path d="M71.086 3.782l.078.087.089.078c1.018.9 1.788 2.649 1.788 5.845v10.88c0 3.17-.76 5.09-1.874 6.197l1.41 1.419-1.41-1.42c-.9.894-2.704 1.596-5.985 1.596H42.724c-2.782 0-5.195.862-6.934 2.804-1.728 1.746-2.46 4.117-2.46 6.812v6.08h31.852c3.227 0 4.996.768 5.904 1.782l.078.087.089.078c1.018.9 1.788 2.649 1.788 5.845v40.256c0 3.17-.76 5.09-1.874 6.197-.9.893-2.704 1.595-5.985 1.595H9.859c-3.166 0-5.124-.654-6.255-1.599C2.656 97.281 2 95.346 2 92.208V41.072C2 27.625 5.558 18.01 12.308 11.809l.001-.002C19.354 5.323 28.695 2 40.533 2h24.649c3.227 0 4.996.768 5.904 1.782zm82.986-.012l.078.089.087.078c1.002.898 1.763 2.651 1.763 5.855v10.88c0 3.178-.751 5.101-1.848 6.208-.878.885-2.641 1.584-5.864 1.584h-22.123c-2.757 0-5.145.868-6.862 2.815-1.704 1.747-2.422 4.115-2.422 6.801v6.08h31.407c3.167 0 4.896.764 5.784 1.77l.078.089.087.078c1.002.898 1.763 2.651 1.763 5.855v40.256c0 3.178-.751 5.101-1.848 6.208-.878.885-2.641 1.584-5.864 1.584H93.791c-3.108 0-5.024-.651-6.13-1.588-.934-1.12-1.582-3.061-1.582-6.204V41.072c0-13.455 3.508-23.074 10.155-29.273l.002-.002C103.17 5.318 112.359 2 124.007 2h24.281c3.167 0 4.896.764 5.784 1.77z" stroke="#FF7D04" stroke-width="4"/></svg>