<svg width="624" height="865" viewBox="0 0 624 865" fill="none" xmlns="http://www.w3.org/2000/svg">
<path d="M286.949 865H81.9854C53.1387 865 32.6423 858.08 20.4963 844.24C6.83209 831.938 -6.10352e-05 811.178 -6.10352e-05 781.96V689.693C-6.10352e-05 660.476 6.83209 638.947 20.4963 625.107C32.6423 612.804 53.1387 606.653 81.9854 606.653H268.73C288.467 606.653 303.65 600.502 314.277 588.2C324.905 577.436 330.219 562.058 330.219 542.067V507.467H81.9854C53.1386 507.467 32.6423 500.547 20.4963 486.707C6.83209 474.404 0 453.644 0 424.427V83.04C0 53.8222 6.83209 32.2934 20.4963 18.4534C32.6423 6.15118 53.1386 0 81.9854 0H542.015C570.861 0 592.117 6.15118 605.781 18.4534C617.927 32.2934 624 53.8222 624 83.04V516.693C624 633.564 593.635 720.449 532.905 777.347C470.657 835.782 388.672 865 286.949 865Z" fill="#232323"/>
</svg>
