<svg width="150" height="196" fill="none" xmlns="http://www.w3.org/2000/svg"><path d="M80.693 195.328h49.07c6.906 0 11.813-1.562 14.721-4.688 3.271-2.778 4.907-7.466 4.907-14.063v-20.835c0-6.598-1.636-11.46-4.907-14.585-2.908-2.778-7.815-4.167-14.721-4.167H85.055c-4.726 0-8.36-1.389-10.905-4.167-2.544-2.431-3.816-5.903-3.816-10.417v-7.813h59.429c6.906 0 11.813-1.563 14.721-4.688 3.271-2.778 4.907-7.466 4.907-14.064v-77.09c0-6.597-1.636-11.458-4.907-14.584C141.576 1.39 136.669 0 129.763 0H19.628C12.722 0 7.633 1.39 4.362 4.167 1.454 7.293 0 12.154 0 18.752v97.924c0 26.391 7.27 46.011 21.809 58.859 14.903 13.195 34.53 19.793 58.884 19.793z" fill="#FF7D04"/><path d="M41.79 53.553l-2.063-6.721h-.053l.035.727c.02.32.037.662.053 1.025.015.363.023.691.023.984v3.985h-1.623v-8.567h2.473l2.027 6.551h.035l2.15-6.55h2.473v8.566h-1.693v-4.055c0-.27.004-.58.012-.932.011-.351.025-.685.04-1.002l.036-.72h-.053l-2.209 6.709H41.79zm13.505-3.287c0 .547-.074 1.03-.223 1.453a2.857 2.857 0 01-.638 1.072c-.278.29-.614.508-1.008.656-.39.149-.832.223-1.324.223a3.52 3.52 0 01-1.272-.223 2.827 2.827 0 01-1.002-.656 3.06 3.06 0 01-.656-1.072 4.277 4.277 0 01-.229-1.453c0-.727.13-1.342.387-1.846a2.654 2.654 0 011.102-1.148c.476-.262 1.045-.393 1.705-.393.613 0 1.156.13 1.629.393.476.261.85.644 1.119 1.148.273.504.41 1.12.41 1.846zm-4.53 0c0 .43.047.79.141 1.084.094.293.24.513.44.662.199.148.459.222.779.222.316 0 .572-.074.768-.222.199-.149.343-.37.433-.662.094-.293.14-.655.14-1.084 0-.434-.046-.793-.14-1.078-.09-.29-.234-.506-.433-.65-.2-.145-.46-.218-.78-.218-.472 0-.816.162-1.031.487-.21.324-.316.81-.316 1.459zm5.608-.639c0-.965.12-1.785.358-2.461.238-.676.617-1.215 1.136-1.617.52-.406 1.201-.682 2.045-.826.422-.075.85-.135 1.283-.182.438-.05.89-.107 1.36-.17l.205 1.564-.662.077c-.239.027-.479.056-.721.088-.242.027-.477.056-.703.087-.227.028-.432.055-.615.083-.399.062-.73.16-.996.292a1.333 1.333 0 00-.61.633c-.14.29-.226.705-.258 1.248h.088c.094-.148.227-.298.399-.45.171-.157.384-.286.638-.388.254-.105.547-.158.88-.158.523 0 .976.108 1.359.322.382.215.677.536.884.962.211.421.317.949.317 1.581 0 .743-.137 1.364-.41 1.864-.27.496-.645.869-1.125 1.119s-1.038.375-1.67.375c-.485 0-.922-.088-1.313-.264a2.744 2.744 0 01-1.008-.779 3.64 3.64 0 01-.638-1.266c-.149-.504-.223-1.082-.223-1.734zm3.287 2.596c.254 0 .475-.055.662-.164.192-.114.34-.297.446-.551.109-.258.164-.604.164-1.037 0-.524-.088-.938-.264-1.242-.172-.31-.467-.463-.885-.463-.254 0-.492.062-.715.187a2.293 2.293 0 00-.556.422c-.153.156-.258.29-.317.398 0 .309.024.61.07.903.051.289.132.55.24.785.11.234.259.42.446.557.192.136.428.205.71.205zm6.305-5.221v2.59c0 .133-.006.3-.018.504-.008.199-.02.402-.035.61a27.94 27.94 0 01-.082.89l3.023-4.594h2.15v6.55h-1.728V50.94c0-.215.008-.452.024-.71.015-.261.033-.507.053-.738.02-.23.033-.404.04-.521l-3.011 4.582h-2.145v-6.551h1.729zm12.785 6.55h-1.787v-5.208h-1.647a31.2 31.2 0 01-.293 2.455c-.113.676-.257 1.226-.433 1.652-.176.422-.395.73-.656.926-.262.195-.584.293-.967.293-.211 0-.4-.016-.569-.047a1.964 1.964 0 01-.45-.14v-1.43c.085.035.177.064.275.088.097.02.197.029.299.029a.48.48 0 00.322-.135c.101-.09.197-.244.287-.463a5.32 5.32 0 00.252-.92c.082-.39.156-.884.223-1.482.066-.598.128-1.32.187-2.168h4.957v6.55zm3.668-4.019h1.26c.672 0 1.226.07 1.664.211.437.14.764.356.978.645.215.285.323.644.323 1.078 0 .422-.098.789-.293 1.101-.196.313-.506.555-.932.727-.426.172-.983.258-1.67.258h-3.117v-6.551h1.787v2.531zm2.438 1.957c0-.254-.102-.437-.305-.55-.203-.114-.506-.17-.908-.17h-1.225v1.546h1.248c.348 0 .633-.062.856-.187.222-.129.334-.342.334-.639zm4.933-4.488v2.52h2.496v-2.52h1.787v6.55h-1.787v-2.7H89.79v2.7h-1.787v-6.55h1.787zm6.158 6.55v-6.55h1.787v2.531h.862c.668 0 1.218.07 1.652.211.438.14.762.356.973.645.211.285.316.644.316 1.078 0 .422-.098.789-.293 1.101-.195.313-.504.555-.926.727-.421.172-.974.258-1.658.258h-2.713zm1.787-1.236h.827c.347 0 .632-.062.855-.187.223-.129.334-.342.334-.639 0-.254-.102-.437-.305-.55-.203-.114-.505-.17-.908-.17h-.803v1.546zm4.752 1.237v-6.551h1.787v6.55h-1.787zm6.369-6.674c.606 0 1.127.117 1.565.352.437.23.775.566 1.014 1.007.238.442.357.98.357 1.617v.868h-4.225c.02.504.17.9.452 1.19.285.284.679.427 1.183.427.418 0 .801-.043 1.149-.13a5.85 5.85 0 001.072-.386v1.383c-.324.16-.664.277-1.02.352a6.314 6.314 0 01-1.283.11c-.656 0-1.238-.12-1.746-.362a2.71 2.71 0 01-1.189-1.108c-.286-.496-.428-1.12-.428-1.875 0-.765.129-1.402.387-1.91a2.63 2.63 0 011.089-1.148c.465-.258 1.006-.387 1.623-.387zm.012 1.271a1.2 1.2 0 00-.867.334c-.227.223-.357.573-.393 1.05h2.508a1.78 1.78 0 00-.146-.71 1.106 1.106 0 00-.41-.492c-.18-.121-.411-.182-.692-.182zM37.529 63.002v6.55h-1.793v-5.208h-2.373v5.209h-1.787v-6.551h5.953zm5.52-.123c.738 0 1.334.287 1.787.861.457.574.686 1.416.686 2.526 0 .742-.108 1.367-.323 1.875-.215.503-.511.884-.89 1.142a2.267 2.267 0 01-1.307.387c-.317 0-.588-.04-.815-.117a2.093 2.093 0 01-.58-.31 2.76 2.76 0 01-.416-.411h-.093a4.777 4.777 0 01.093.961v2.642h-1.787v-9.433h1.453l.252.85h.082a2.54 2.54 0 01.428-.487 1.89 1.89 0 01.604-.351c.238-.09.513-.135.826-.135zm-.574 1.43c-.313 0-.56.064-.745.193-.183.129-.318.322-.404.58-.082.258-.127.584-.135.979v.193c0 .422.04.78.118 1.072.082.293.216.516.404.668.191.153.453.229.785.229.274 0 .498-.076.674-.229.176-.152.306-.375.393-.668.09-.297.134-.658.134-1.084 0-.64-.1-1.123-.299-1.447-.199-.324-.507-.486-.925-.486zm6.252-1.307v2.59c0 .133-.006.3-.018.504-.008.199-.02.402-.035.61a28.77 28.77 0 01-.082.89l3.023-4.594h2.15v6.55h-1.728V66.94c0-.214.008-.45.023-.708.016-.262.034-.508.053-.739.02-.23.034-.404.041-.521l-3.011 4.582h-2.145v-6.551h1.729zm10.564-.123c.738 0 1.334.287 1.787.861.457.574.686 1.416.686 2.526 0 .742-.108 1.367-.323 1.875-.214.503-.511.884-.89 1.142a2.267 2.267 0 01-1.307.387c-.316 0-.588-.04-.814-.117a2.093 2.093 0 01-.58-.31 2.76 2.76 0 01-.416-.411h-.094a4.748 4.748 0 01.094.961v2.642h-1.787v-9.433H57.1l.252.85h.082c.117-.176.26-.338.427-.487a1.89 1.89 0 01.604-.351c.238-.09.513-.135.826-.135zm-.574 1.43c-.313 0-.56.064-.744.193-.184.129-.319.322-.405.58-.082.258-.127.584-.134.979v.193c0 .422.039.78.117 1.072.082.293.217.516.404.668.192.153.453.229.785.229.274 0 .498-.076.674-.229.176-.152.307-.375.393-.668a3.78 3.78 0 00.134-1.084c0-.64-.1-1.123-.298-1.447-.2-.324-.508-.486-.926-.486zm10.389 5.244h-1.788v-5.21h-1.646c-.082.962-.18 1.78-.293 2.456-.113.676-.258 1.226-.434 1.652-.175.422-.394.73-.656.926-.262.195-.584.293-.967.293-.21 0-.4-.016-.568-.047a1.965 1.965 0 01-.451-.14v-1.43c.086.035.178.064.275.088.098.02.197.029.299.029a.48.48 0 00.322-.135c.102-.09.198-.244.287-.463a5.32 5.32 0 00.252-.92c.082-.39.157-.884.223-1.482s.129-1.32.187-2.168h4.958v6.55zm7.834-3.287a4.37 4.37 0 01-.223 1.453 2.872 2.872 0 01-.639 1.072c-.277.29-.613.508-1.008.656-.39.149-.832.223-1.324.223-.46 0-.885-.074-1.271-.223a2.826 2.826 0 01-1.002-.656 3.06 3.06 0 01-.657-1.072c-.152-.422-.228-.906-.228-1.453 0-.727.129-1.342.387-1.846a2.654 2.654 0 011.101-1.148c.477-.262 1.045-.393 1.705-.393.613 0 1.156.13 1.63.393.476.261.849.644 1.118 1.148.274.504.41 1.12.41 1.846zm-4.53 0c0 .43.047.79.14 1.084.094.293.241.513.44.662.2.148.46.222.78.222.316 0 .572-.074.767-.222.2-.149.344-.37.434-.662.093-.293.14-.655.14-1.084 0-.434-.047-.793-.14-1.079-.09-.289-.235-.505-.434-.65-.2-.144-.459-.217-.78-.217-.472 0-.816.162-1.03.487-.211.324-.317.81-.317 1.459zm15.317-3.264l-2.415 3.14 2.643 3.41h-1.91l-2.496-3.322v3.323h-1.664V66.23l-2.496 3.322h-1.91l2.642-3.41-2.414-3.141h1.846l2.332 3.182v-3.182h1.664v3.182l2.332-3.182h1.846zm3.867-.123c.605 0 1.127.117 1.564.352.438.23.776.566 1.014 1.007.238.442.357.98.357 1.618v.867h-4.224c.02.504.17.9.45 1.19.286.284.68.427 1.184.427.418 0 .801-.043 1.149-.13a5.841 5.841 0 001.072-.386v1.383c-.324.16-.664.277-1.02.352a6.32 6.32 0 01-1.283.11c-.656 0-1.238-.12-1.746-.362a2.711 2.711 0 01-1.19-1.108c-.284-.496-.427-1.12-.427-1.875 0-.765.129-1.402.387-1.91.262-.512.625-.895 1.09-1.148.465-.258 1.006-.387 1.623-.387zm.012 1.271c-.348 0-.637.112-.868.334-.226.223-.357.573-.392 1.05h2.507a1.765 1.765 0 00-.146-.71 1.1 1.1 0 00-.41-.492c-.18-.121-.41-.182-.691-.182zm6.163-1.148v2.52h2.497v-2.52h1.787v6.55h-1.787v-2.7h-2.497v2.7h-1.787v-6.55h1.787zm7.887 0v2.59c0 .133-.006.3-.017.504a19.003 19.003 0 01-.082 1.166c-.016.164-.028.275-.036.334l3.024-4.594h2.15v6.55h-1.728V66.94c0-.214.008-.45.023-.708.016-.262.033-.508.053-.739.019-.23.033-.404.041-.521l-3.012 4.582h-2.144v-6.551h1.728zm7.916 6.55h-1.933l1.763-2.59a2.478 2.478 0 01-.627-.386 1.902 1.902 0 01-.474-.633 2.109 2.109 0 01-.182-.914c0-.652.246-1.152.738-1.5.497-.351 1.135-.527 1.916-.527h3.047v6.55h-1.787v-2.437h-.984l-1.477 2.438zm.299-4.511c0 .273.108.488.322.645.219.152.5.228.844.228h.996v-1.652h-1.224c-.321 0-.557.078-.709.234a.742.742 0 00-.229.545z" fill="#F5F6FF"/></svg>