<svg width="150" height="196" fill="none" xmlns="http://www.w3.org/2000/svg"><path d="M68.88 195.327H19.683c-6.924 0-11.844-1.562-14.76-4.688-3.279-2.778-4.919-7.466-4.919-14.063v-20.835c0-6.598 1.64-11.46 4.92-14.585 2.915-2.778 7.835-4.167 14.759-4.167h44.824c4.737 0 8.381-1.389 10.932-4.167 2.551-2.43 3.827-5.903 3.827-10.417v-7.813H19.683c-6.924 0-11.844-1.563-14.76-4.688C1.645 107.126.005 102.438.005 95.84V18.75c0-6.597 1.64-11.458 4.92-14.584C7.839 1.388 12.759 0 19.683 0h110.42c6.924 0 12.025 1.39 15.305 4.167 2.916 3.126 4.373 7.987 4.373 14.585v97.924c0 26.391-7.288 46.011-21.865 58.859-14.941 13.195-34.62 19.793-59.036 19.793z" fill="#FF7D04"/><path d="M31.535 54.132h-2.062l-3.106-4.342v4.342h-1.816v-8.567h1.816v4.149l3.07-4.149h1.934l-3.123 4.114 3.287 4.453zm6.89-3.287c0 .547-.073 1.031-.222 1.453-.144.422-.357.78-.639 1.072-.277.29-.613.508-1.007.656a3.697 3.697 0 01-1.325.223 3.51 3.51 0 01-1.271-.223 2.826 2.826 0 01-1.002-.656 3.06 3.06 0 01-.656-1.072c-.153-.422-.229-.906-.229-1.453 0-.727.13-1.342.387-1.846a2.654 2.654 0 011.102-1.148c.476-.262 1.044-.393 1.705-.393.613 0 1.156.13 1.629.393.476.261.85.644 1.119 1.148.273.504.41 1.12.41 1.846zm-4.528 0c0 .43.046.79.14 1.084.094.293.24.513.44.662.199.148.459.222.779.222.316 0 .572-.074.767-.222.2-.149.344-.37.434-.662.094-.293.14-.655.14-1.084 0-.434-.046-.793-.14-1.078-.09-.29-.234-.506-.434-.65-.199-.145-.459-.218-.779-.218-.472 0-.816.163-1.031.487-.211.324-.316.81-.316 1.459zm9.65-3.387c.738 0 1.334.287 1.787.861.457.575.685 1.416.685 2.526 0 .742-.107 1.367-.322 1.875-.215.504-.512.885-.89 1.142a2.267 2.267 0 01-1.307.387 2.52 2.52 0 01-.815-.117 2.092 2.092 0 01-.58-.31 2.751 2.751 0 01-.415-.41h-.094a5.077 5.077 0 01.094.961v2.642h-1.788V47.58h1.453l.252.85h.083c.117-.176.26-.338.427-.487a1.89 1.89 0 01.604-.351c.238-.09.513-.135.826-.135zm-.574 1.43c-.313 0-.56.064-.745.193-.183.129-.318.322-.404.58-.082.258-.127.584-.134.979v.193c0 .422.038.78.117 1.072.082.293.216.516.404.668.191.153.453.229.785.229.273 0 .498-.076.674-.229.176-.152.307-.375.392-.668.09-.297.135-.658.135-1.084 0-.64-.1-1.123-.299-1.447-.199-.324-.507-.486-.925-.486zm10.476-1.307v6.55h-1.793v-5.208h-2.373v5.209h-1.787v-6.55h5.953zm7.828 3.264a4.38 4.38 0 01-.222 1.453c-.145.422-.358.78-.639 1.072-.277.29-.613.508-1.008.656-.39.149-.832.223-1.324.223a3.52 3.52 0 01-1.272-.223 2.827 2.827 0 01-1.002-.656 3.06 3.06 0 01-.656-1.072c-.152-.422-.228-.906-.228-1.453 0-.727.129-1.342.386-1.846a2.654 2.654 0 011.102-1.148c.477-.262 1.045-.393 1.705-.393.613 0 1.156.13 1.629.393.477.261.85.644 1.12 1.148.273.504.41 1.12.41 1.846zm-4.529 0c0 .43.047.79.14 1.084.094.293.24.513.44.662.2.148.46.222.78.222.316 0 .572-.074.767-.222.2-.149.344-.37.434-.662.093-.293.14-.655.14-1.084 0-.434-.047-.793-.14-1.078-.09-.29-.235-.506-.434-.65-.2-.145-.459-.218-.78-.218-.472 0-.816.163-1.03.487-.212.324-.317.81-.317 1.459zm9.65-3.387c.739 0 1.334.287 1.788.861.457.575.685 1.416.685 2.526 0 .742-.107 1.367-.322 1.875-.215.504-.512.885-.89 1.142a2.267 2.267 0 01-1.307.387c-.317 0-.588-.039-.815-.117a2.093 2.093 0 01-.58-.31 2.76 2.76 0 01-.416-.41h-.094a5.076 5.076 0 01.094.961v2.642h-1.787V47.58h1.453l.252.85h.082a2.5 2.5 0 01.428-.487c.168-.148.369-.265.603-.351.239-.09.514-.135.826-.135zm-.574 1.43c-.312 0-.56.064-.744.193-.183.129-.318.322-.404.58-.082.258-.127.584-.135.979v.193c0 .422.04.78.117 1.072.082.293.217.516.404.668.192.153.454.229.786.229.273 0 .498-.076.674-.229.175-.152.306-.375.392-.668.09-.297.135-.658.135-1.084 0-.64-.1-1.123-.299-1.447-.2-.324-.508-.486-.926-.486zm7.207-1.442c.88 0 1.553.192 2.022.575.469.382.703.964.703 1.746v4.365h-1.248l-.346-.89h-.047a3.318 3.318 0 01-.574.573 1.97 1.97 0 01-.674.329c-.254.07-.562.105-.926.105-.386 0-.734-.074-1.043-.223a1.657 1.657 0 01-.72-.68c-.176-.308-.264-.698-.264-1.171 0-.695.244-1.207.733-1.535.488-.332 1.22-.516 2.197-.551l1.137-.035v-.287c0-.344-.09-.596-.27-.756-.18-.16-.43-.24-.75-.24-.317 0-.627.044-.932.134-.304.09-.61.203-.914.34l-.592-1.207a5.084 5.084 0 011.166-.433 5.634 5.634 0 011.342-.159zm.95 3.65l-.692.024c-.578.016-.98.12-1.207.31a.948.948 0 00-.334.757c0 .273.08.468.24.586.16.113.37.17.627.17.383 0 .705-.114.967-.34.266-.227.399-.55.399-.967v-.54zm9.04-2.173h-2.144v5.209H79.09v-5.21h-2.15v-1.34h6.082v1.34zm2.954-1.342v2.59c0 .133-.006.3-.018.504-.008.199-.02.402-.035.61a29.526 29.526 0 01-.082.89l3.023-4.594h2.15v6.55h-1.728V51.52c0-.215.008-.452.024-.71.015-.261.033-.507.052-.738.02-.23.033-.404.041-.521l-3.011 4.582h-2.145v-6.55h1.729zM98.7 49.298c0 .351-.111.652-.334.902-.219.246-.543.404-.973.475v.047c.454.054.819.213 1.096.474.278.258.416.584.416.979 0 .375-.097.71-.293 1.008-.195.293-.506.525-.931.697-.426.168-.983.252-1.67.252h-3.118v-6.55h3.118c.511 0 .97.054 1.377.163.406.106.726.283.96.533.235.25.352.59.352 1.02zm-1.646 2.783c0-.258-.102-.443-.305-.557-.2-.117-.496-.175-.89-.175h-1.178v1.547h1.212c.337 0 .614-.063.833-.188.218-.125.328-.334.328-.627zm-.164-2.643a.492.492 0 00-.24-.45c-.16-.098-.397-.147-.71-.147h-1.26v1.295h1.055c.38 0 .666-.055.862-.164.195-.11.293-.287.293-.534zm5.338-1.857v2.52h2.496v-2.52h1.787v6.55h-1.787v-2.7h-2.496v2.7h-1.788v-6.55h1.788zm6.158 6.55v-6.55h1.787v2.531h.861c.668 0 1.219.07 1.653.211.437.14.761.356.972.645.211.285.317.644.317 1.078 0 .422-.098.789-.293 1.102-.196.312-.504.554-.926.726-.422.172-.975.258-1.658.258h-2.713zm1.787-1.236H111c.348 0 .633-.062.855-.187.223-.129.334-.342.334-.639 0-.254-.101-.437-.304-.55-.203-.114-.506-.17-.908-.17h-.803v1.547zm4.752 1.237v-6.55h1.787v6.55h-1.787zm5.396-6.55v2.589c0 .133-.006.3-.017.504a19.003 19.003 0 01-.082 1.166c-.016.164-.028.275-.035.334l3.023-4.594h2.15v6.55h-1.728V51.52c0-.215.008-.452.023-.71.016-.261.033-.507.053-.738.02-.23.033-.404.041-.521l-3.012 4.582h-2.144v-6.55h1.728zm4.547-2.82a2.61 2.61 0 01-.351 1.096c-.192.317-.491.563-.897.739-.406.175-.953.263-1.641.263-.707 0-1.257-.084-1.652-.252-.394-.171-.676-.414-.844-.726a2.86 2.86 0 01-.304-1.12h1.599c.035.442.147.735.334.88.188.14.489.21.903.21.343 0 .625-.078.843-.234.219-.156.35-.441.393-.855h1.617zM59.53 63.582v6.55h-1.793v-5.21h-2.373v5.21h-1.787v-6.55h5.953zm7.828 3.263a4.38 4.38 0 01-.222 1.453c-.145.422-.358.78-.639 1.072-.277.29-.613.508-1.008.656-.39.149-.832.223-1.324.223-.46 0-.885-.074-1.271-.223a2.826 2.826 0 01-1.002-.656 3.06 3.06 0 01-.657-1.072c-.152-.422-.228-.906-.228-1.453 0-.727.129-1.342.386-1.846a2.654 2.654 0 011.102-1.148c.477-.262 1.045-.393 1.705-.393.614 0 1.156.13 1.63.393.476.261.849.644 1.118 1.148.274.504.41 1.12.41 1.846zm-4.529 0c0 .43.047.79.14 1.084.095.293.24.513.44.662.2.148.46.223.78.223.316 0 .572-.075.767-.223.2-.149.344-.37.434-.662.093-.293.14-.655.14-1.084 0-.434-.047-.793-.14-1.078-.09-.29-.235-.506-.434-.65-.2-.145-.459-.218-.78-.218-.472 0-.816.162-1.03.487-.212.324-.317.81-.317 1.459zm9.65-3.387c.739 0 1.334.287 1.788.861.457.575.685 1.416.685 2.526 0 .742-.107 1.367-.322 1.875-.215.504-.512.885-.89 1.142a2.267 2.267 0 01-1.307.387c-.317 0-.588-.039-.815-.117a2.092 2.092 0 01-.58-.31 2.757 2.757 0 01-.416-.41h-.094a5.076 5.076 0 01.094.961v2.642h-1.787V63.58h1.453l.252.85h.082a2.5 2.5 0 01.428-.487c.168-.148.369-.265.603-.351.239-.09.514-.135.827-.135zm-.574 1.43c-.312 0-.56.064-.744.193-.184.129-.318.322-.404.58-.082.258-.127.584-.135.979v.193c0 .422.04.78.117 1.072.082.293.217.516.404.668.192.153.454.229.786.229.273 0 .498-.076.673-.229.176-.152.307-.375.393-.668.09-.297.135-.658.135-1.084 0-.64-.1-1.123-.299-1.447-.2-.324-.508-.486-.926-.486zm9.944.035h-2.145v5.209h-1.787v-5.21h-2.15v-1.34h6.082v1.34zm3.908-1.477c.879 0 1.553.192 2.021.575.469.382.703.964.703 1.746v4.365h-1.248l-.345-.89h-.047a3.318 3.318 0 01-.574.573 1.97 1.97 0 01-.674.329 3.53 3.53 0 01-.926.105c-.387 0-.734-.074-1.043-.223a1.657 1.657 0 01-.72-.68c-.177-.308-.264-.699-.264-1.171 0-.695.244-1.207.732-1.535.488-.332 1.22-.516 2.197-.551l1.137-.035v-.287c0-.344-.09-.596-.27-.756-.18-.16-.43-.24-.75-.24a3.27 3.27 0 00-.931.134c-.305.09-.61.203-.914.34l-.592-1.207a5.083 5.083 0 011.166-.433c.434-.106.88-.159 1.342-.159zm.949 3.65l-.691.024c-.579.016-.98.12-1.207.31a.948.948 0 00-.334.756c0 .274.08.47.24.586.16.114.369.17.627.17.383 0 .705-.113.967-.34.265-.226.398-.548.398-.966v-.54zm9.486 3.036h-1.787v-5.21H92.76c-.082.962-.18 1.78-.293 2.456-.114.676-.258 1.227-.434 1.652-.176.422-.394.73-.656.926-.262.195-.584.293-.967.293-.21 0-.4-.016-.568-.047a1.963 1.963 0 01-.451-.14v-1.43c.086.035.177.064.275.088.098.02.197.029.299.029a.48.48 0 00.322-.135c.102-.09.197-.244.287-.463a5.32 5.32 0 00.252-.92c.082-.39.156-.884.223-1.482a53.2 53.2 0 00.187-2.168h4.957v6.55z" fill="#F5F6FF"/></svg>