<svg width="150" height="196" fill="none" xmlns="http://www.w3.org/2000/svg"><path d="M80.693 0h49.07c6.906 0 11.813 1.563 14.721 4.688 3.271 2.778 4.907 7.466 4.907 14.064v20.834c0 6.598-1.636 11.46-4.907 14.585-2.908 2.778-7.815 4.167-14.721 4.167H85.055c-4.726 0-8.36 1.389-10.905 4.167-2.544 2.43-3.816 5.903-3.816 10.417v7.814h59.429c6.906 0 11.813 1.562 14.721 4.687 3.271 2.778 4.907 7.466 4.907 14.064v77.089c0 6.598-1.636 11.46-4.907 14.585-2.908 2.778-7.815 4.167-14.721 4.167H19.628c-6.906 0-11.995-1.389-15.266-4.167C1.454 188.036 0 183.174 0 176.576V78.652c0-26.391 7.27-46.01 21.809-58.859C36.712 6.598 56.339 0 80.693 0z" fill="#FF7D04"/><path d="M41.057 127.209h2.666c1.14 0 2.004.16 2.59.48.585.321.878.883.878 1.688 0 .324-.052.617-.158.879a1.59 1.59 0 01-.445.644 1.477 1.477 0 01-.715.329v.058c.285.059.543.16.774.305.23.14.413.347.55.621.14.269.211.629.211 1.078 0 .52-.127.965-.38 1.336-.255.371-.618.656-1.09.855-.47.196-1.028.293-1.676.293h-3.205v-8.566zm1.816 3.393h1.055c.527 0 .892-.082 1.095-.247.204-.167.305-.414.305-.738 0-.328-.121-.562-.363-.703-.238-.144-.617-.217-1.137-.217h-.955v1.905zm0 1.441v2.232h1.184c.546 0 .927-.105 1.142-.316.215-.211.323-.494.323-.85 0-.211-.047-.396-.141-.556-.094-.16-.252-.285-.475-.375-.218-.09-.521-.135-.908-.135h-1.125zm7.893-2.818v2.519h2.496v-2.519h1.787v6.55h-1.787v-2.701h-2.496v2.701h-1.788v-6.55h1.788zm8.859-.123c.605 0 1.127.117 1.565.351.437.231.775.567 1.013 1.008.238.441.357.98.357 1.617v.867h-4.224c.02.504.17.901.451 1.19.285.285.68.427 1.184.427.418 0 .8-.042 1.148-.128a5.84 5.84 0 001.072-.387v1.383c-.324.16-.664.277-1.02.351a6.33 6.33 0 01-1.282.112c-.657 0-1.239-.122-1.746-.364a2.711 2.711 0 01-1.19-1.107c-.285-.496-.428-1.121-.428-1.875 0-.766.13-1.402.387-1.91.262-.512.625-.895 1.09-1.149.465-.258 1.006-.386 1.623-.386zm.012 1.271c-.348 0-.637.111-.867.334-.227.223-.358.572-.393 1.049h2.508a1.765 1.765 0 00-.147-.709 1.1 1.1 0 00-.41-.492c-.18-.121-.41-.182-.691-.182zm10.265-1.148v5.244h.961v3.656h-1.605v-2.35h-4.406v2.35h-1.606v-3.656h.55c.29-.442.532-.946.727-1.512.2-.566.36-1.166.48-1.799.126-.637.216-1.281.27-1.933h4.63zm-1.787 1.341h-1.342c-.062.485-.142.954-.24 1.407-.094.449-.21.882-.351 1.3a8.138 8.138 0 01-.516 1.196h2.45v-3.903zm7.512-1.464c.738 0 1.334.287 1.787.861.457.574.686 1.416.686 2.525 0 .742-.108 1.367-.323 1.875-.215.504-.511.885-.89 1.143a2.266 2.266 0 01-1.307.387 2.48 2.48 0 01-.814-.118 2.094 2.094 0 01-.58-.31 2.793 2.793 0 01-.417-.41h-.093a5.074 5.074 0 01.094.961v2.642h-1.788v-9.433h1.454l.251.849h.082c.118-.176.26-.338.428-.486.168-.149.37-.266.604-.352.238-.09.513-.134.826-.134zm-.574 1.429c-.313 0-.56.065-.744.194-.184.129-.319.322-.405.58-.082.257-.127.584-.135.978v.194c0 .421.04.779.118 1.072.082.293.216.515.404.668.191.152.453.228.785.228.274 0 .498-.076.674-.228.176-.153.307-.375.393-.668.09-.297.134-.658.134-1.084 0-.641-.1-1.123-.299-1.447-.199-.325-.507-.487-.925-.487zm7.224-1.429c.606 0 1.127.117 1.565.351.437.231.775.567 1.014 1.008.238.441.357.98.357 1.617v.867h-4.225c.02.504.17.901.451 1.19.286.285.68.427 1.184.427.418 0 .8-.042 1.148-.128a5.843 5.843 0 001.073-.387v1.383a4.26 4.26 0 01-1.02.351 6.33 6.33 0 01-1.283.112c-.656 0-1.238-.122-1.746-.364a2.71 2.71 0 01-1.19-1.107c-.285-.496-.427-1.121-.427-1.875 0-.766.129-1.402.386-1.91a2.64 2.64 0 011.09-1.149c.465-.258 1.006-.386 1.623-.386zm.012 1.271c-.348 0-.637.111-.867.334-.227.223-.358.572-.393 1.049h2.508a1.763 1.763 0 00-.146-.709 1.1 1.1 0 00-.41-.492c-.18-.121-.41-.182-.692-.182zm6.164-1.148v2.519h2.496v-2.519h1.787v6.55H90.95v-2.701h-2.496v2.701h-1.787v-6.55h1.787zm7.887 0v2.589c0 .133-.006.301-.018.504-.008.2-.02.403-.035.61a27.85 27.85 0 01-.082.89l3.023-4.593h2.151v6.55H99.65v-2.613c0-.215.008-.451.024-.709.015-.262.033-.508.053-.738.02-.231.033-.404.04-.522l-3.011 4.582H94.61v-6.55h1.729zm9.621-.123c.605 0 1.127.117 1.564.351.438.231.776.567 1.014 1.008.238.441.357.98.357 1.617v.867h-4.224c.019.504.17.901.451 1.19.285.285.68.427 1.184.427.418 0 .8-.042 1.148-.128a5.825 5.825 0 001.072-.387v1.383c-.324.16-.664.277-1.019.351a6.33 6.33 0 01-1.283.112c-.657 0-1.239-.122-1.746-.364a2.711 2.711 0 01-1.19-1.107c-.285-.496-.428-1.121-.428-1.875 0-.766.129-1.402.387-1.91.262-.512.625-.895 1.09-1.149.465-.258 1.006-.386 1.623-.386zm.012 1.271c-.348 0-.637.111-.868.334-.226.223-.357.572-.392 1.049h2.508a1.762 1.762 0 00-.147-.709 1.098 1.098 0 00-.41-.492c-.18-.121-.41-.182-.691-.182zM36.17 148.488c0 .547-.074 1.032-.223 1.453a2.86 2.86 0 01-.638 1.073 2.693 2.693 0 01-1.008.656c-.39.148-.832.223-1.324.223a3.53 3.53 0 01-1.272-.223 2.835 2.835 0 01-1.002-.656 3.062 3.062 0 01-.656-1.073 4.27 4.27 0 01-.229-1.453c0-.726.13-1.342.387-1.845a2.656 2.656 0 011.102-1.149c.476-.262 1.045-.392 1.705-.392.613 0 1.156.13 1.629.392.476.262.85.645 1.119 1.149.273.503.41 1.119.41 1.845zm-4.53 0c0 .43.047.791.141 1.084.094.293.24.514.44.662.199.149.459.223.779.223.316 0 .572-.074.768-.223.199-.148.343-.369.433-.662.094-.293.14-.654.14-1.084 0-.433-.046-.793-.14-1.078-.09-.289-.234-.506-.433-.65-.2-.145-.46-.217-.78-.217-.472 0-.816.162-1.031.486-.21.325-.316.811-.316 1.459zm5.608-.638c0-.965.12-1.786.358-2.461.238-.676.617-1.215 1.136-1.618.52-.406 1.201-.681 2.045-.826a19.8 19.8 0 011.283-.181c.438-.051.89-.108 1.36-.17l.205 1.564-.662.076c-.239.028-.479.057-.721.088-.242.028-.477.057-.703.088-.227.028-.432.055-.615.082-.399.063-.73.16-.996.293a1.335 1.335 0 00-.61.633c-.14.289-.226.705-.258 1.248h.088c.094-.148.227-.299.399-.451a2.11 2.11 0 01.638-.387c.254-.105.547-.158.88-.158.523 0 .976.107 1.359.322.382.215.677.535.884.961.211.422.317.949.317 1.582 0 .742-.137 1.363-.41 1.863a2.66 2.66 0 01-1.125 1.12c-.48.25-1.038.375-1.67.375a3.16 3.16 0 01-1.313-.264 2.754 2.754 0 01-1.008-.779 3.643 3.643 0 01-.638-1.266c-.149-.504-.223-1.082-.223-1.734zm3.287 2.595c.254 0 .475-.054.662-.164.192-.113.34-.297.446-.551.109-.257.164-.603.164-1.037 0-.523-.088-.937-.264-1.242-.172-.308-.467-.463-.885-.463-.254 0-.492.063-.715.188a2.296 2.296 0 00-.556.422 1.924 1.924 0 00-.317.398c0 .309.024.609.07.902a3.2 3.2 0 00.24.786c.11.234.259.42.446.556.192.137.428.205.71.205zm10.442 1.33H49.19v-5.209h-1.647a31.29 31.29 0 01-.293 2.455c-.113.676-.258 1.227-.434 1.653-.175.422-.394.73-.656.926-.262.195-.584.293-.967.293-.21 0-.4-.016-.568-.047a1.978 1.978 0 01-.451-.141v-1.43c.086.036.178.065.275.088.098.02.198.03.299.03a.48.48 0 00.322-.135c.102-.09.198-.244.287-.463.09-.223.174-.529.252-.92.082-.391.157-.885.223-1.482.066-.598.129-1.321.188-2.168h4.957v6.55zm4.564-6.685c.879 0 1.553.191 2.022.574.468.383.703.965.703 1.746v4.365h-1.248l-.346-.89h-.047a3.316 3.316 0 01-.574.574c-.196.148-.42.258-.674.328-.254.07-.563.106-.926.106-.386 0-.734-.075-1.043-.223a1.658 1.658 0 01-.72-.68c-.176-.308-.264-.699-.264-1.172 0-.695.244-1.207.732-1.535.489-.332 1.221-.515 2.197-.551l1.137-.035v-.287c0-.344-.09-.596-.27-.756-.179-.16-.429-.24-.75-.24a3.26 3.26 0 00-.93.135 7.16 7.16 0 00-.915.34l-.592-1.207a5.088 5.088 0 011.166-.434 5.685 5.685 0 011.342-.158zm.95 3.65l-.692.024c-.578.015-.98.119-1.207.31a.95.95 0 00-.334.756c0 .274.08.469.24.586.16.113.37.17.627.17.383 0 .705-.113.967-.34.265-.226.398-.549.398-.967v-.539zm5.19-3.515v2.396c0 .285.069.5.206.645.14.14.336.211.586.211.343 0 .662-.039.955-.118a6.91 6.91 0 00.896-.304v-2.83h1.787v6.55h-1.787v-2.601a7.321 7.321 0 01-.967.41 3.664 3.664 0 01-1.218.187c-.684 0-1.229-.173-1.635-.521-.406-.352-.61-.881-.61-1.588v-2.437h1.788zm8.092 0v2.519h2.496v-2.519h1.788v6.55h-1.788v-2.701h-2.496v2.701h-1.787v-6.55h1.787zm12.112 3.263c0 .547-.075 1.032-.223 1.453a2.85 2.85 0 01-.639 1.073 2.692 2.692 0 01-1.007.656 3.719 3.719 0 01-1.325.223 3.53 3.53 0 01-1.271-.223 2.833 2.833 0 01-1.002-.656 3.062 3.062 0 01-.656-1.073c-.153-.421-.229-.906-.229-1.453 0-.726.13-1.342.387-1.845a2.656 2.656 0 011.102-1.149c.476-.262 1.044-.392 1.705-.392.613 0 1.156.13 1.629.392.476.262.85.645 1.119 1.149.273.503.41 1.119.41 1.845zm-4.53 0c0 .43.047.791.141 1.084.094.293.24.514.44.662.199.149.458.223.779.223.316 0 .572-.074.767-.223.2-.148.344-.369.434-.662.094-.293.14-.654.14-1.084 0-.433-.046-.793-.14-1.078-.09-.289-.234-.506-.434-.65-.199-.145-.459-.217-.779-.217-.472 0-.816.162-1.031.486-.211.325-.316.811-.316 1.459zm10.53-3.263v1.341h-2.737v5.209h-1.787v-6.55h4.524zm7.172 3.263c0 .547-.075 1.032-.223 1.453-.145.422-.357.78-.639 1.073a2.693 2.693 0 01-1.007.656 3.719 3.719 0 01-1.325.223 3.53 3.53 0 01-1.271-.223 2.835 2.835 0 01-1.002-.656 3.062 3.062 0 01-.656-1.073c-.153-.421-.229-.906-.229-1.453 0-.726.129-1.342.387-1.845a2.656 2.656 0 011.101-1.149c.477-.262 1.045-.392 1.705-.392.614 0 1.157.13 1.63.392a2.76 2.76 0 011.118 1.149c.274.503.41 1.119.41 1.845zm-4.53 0c0 .43.047.791.141 1.084.094.293.24.514.44.662.199.149.458.223.779.223.316 0 .572-.074.767-.223.2-.148.344-.369.434-.662.094-.293.14-.654.14-1.084 0-.433-.046-.793-.14-1.078-.09-.289-.234-.506-.434-.65-.199-.145-.459-.217-.779-.217-.473 0-.816.162-1.031.486-.211.325-.317.811-.317 1.459zm9.264 3.287v-8.566h5.414v1.5h-3.598v1.787h.715c.805 0 1.465.111 1.981.334.519.223.902.531 1.148.926.25.39.375.838.375 1.342 0 .847-.283 1.506-.849 1.974-.563.469-1.459.703-2.69.703h-2.496zm1.816-1.488h.61c.551 0 .984-.088 1.301-.264.316-.179.474-.488.474-.925 0-.305-.078-.537-.234-.698-.153-.16-.373-.269-.662-.328a5.214 5.214 0 00-1.026-.088h-.463v2.303zm11.239 1.488h-5.989v-1.259l2.151-2.174c.433-.446.781-.817 1.043-1.113.265-.301.457-.575.574-.821a1.77 1.77 0 00.182-.791c0-.34-.096-.594-.287-.762-.188-.171-.44-.257-.756-.257-.332 0-.655.076-.967.228a4.982 4.982 0 00-.979.651l-.984-1.166c.246-.211.506-.411.779-.598.278-.188.598-.338.961-.451.367-.117.807-.176 1.319-.176.562 0 1.045.102 1.447.305.406.203.719.48.937.832.219.347.328.742.328 1.183 0 .473-.093.905-.281 1.295a4.635 4.635 0 01-.82 1.16c-.356.383-.785.807-1.289 1.272l-1.102 1.037v.082h3.733v1.523zm7.06-1.775h-1.031v1.775h-1.77V150h-3.656v-1.26l3.756-5.531h1.67v5.385h1.031V150zm-2.801-1.406v-1.453c0-.137.002-.299.006-.487l.024-.562c.008-.188.015-.354.023-.498l.024-.311h-.047a6.482 6.482 0 01-.522.938l-1.57 2.373h2.062z" fill="#F5F6FF"/></svg>