<svg width="624" height="865" fill="none" xmlns="http://www.w3.org/2000/svg"><path d="M286.949 865H81.985c-28.846 0-49.343-6.92-61.489-20.76C6.832 831.938 0 811.178 0 781.96v-92.267c0-29.217 6.832-50.746 20.496-64.586 12.146-12.303 32.643-18.454 61.49-18.454H268.73c19.737 0 34.92-6.151 45.547-18.453 10.628-10.764 15.942-26.142 15.942-46.133v-34.6H81.985c-28.846 0-49.343-6.92-61.489-20.76C6.832 474.404 0 453.644 0 424.427V83.04c0-29.218 6.832-50.747 20.496-64.587C32.642 6.151 53.14 0 81.986 0h460.029c28.846 0 50.102 6.151 63.766 18.453C617.927 32.293 624 53.823 624 83.04v433.653c0 116.871-30.365 203.756-91.095 260.654C470.657 835.782 388.672 865 286.949 865z" fill="#232323"/></svg>