<svg width="151" height="196" fill="none" xmlns="http://www.w3.org/2000/svg"><path d="M69.698 0h-49.07C13.722 0 8.633 1.387 5.362 4.165 2.454 7.292 1 12.153 1 18.751v20.835c0 6.598 1.454 11.285 4.362 14.063 3.271 3.126 8.36 4.688 15.266 4.688h44.708c4.725 0 8.36 1.216 10.905 3.646 2.544 2.778 3.816 6.425 3.816 10.939v7.813H20.628c-6.906 0-11.995 1.389-15.266 4.167C2.454 88.027 1 92.889 1 99.486v77.09c0 6.597 1.454 11.285 4.362 14.063 3.271 3.126 8.36 4.688 15.266 4.688h110.135c6.906 0 11.813-1.562 14.721-4.688 3.271-2.778 4.907-7.466 4.907-14.063V78.651c0-26.39-7.451-46.184-22.354-59.38C113.498 6.424 94.051 0 69.698 0z" fill="#FF7D04"/><path d="M41.135 128.019a4.08 4.08 0 00-1.143.164c-.375.109-.742.24-1.101.392l-.575-1.465a6.958 6.958 0 012.854-.603c.629 0 1.19.099 1.682.299.496.195.914.482 1.254.861.343.379.603.842.779 1.389.18.547.27 1.17.27 1.869 0 .879-.15 1.648-.446 2.308a3.332 3.332 0 01-1.36 1.536c-.613.363-1.396.544-2.349.544-.492 0-.935-.035-1.33-.105a6.369 6.369 0 01-1.201-.334v-1.523c.457.144.879.255 1.265.334a5.92 5.92 0 001.16.117c.368 0 .692-.045.973-.135.285-.094.526-.23.72-.41.2-.184.354-.41.464-.68a2.8 2.8 0 00.193-.955H39.53v-1.488h3.703a2.678 2.678 0 00-.17-.891 1.805 1.805 0 00-1.084-1.084 2.383 2.383 0 00-.843-.14zm7.441.627v2.519h2.496v-2.519h1.787v6.55h-1.787v-2.701h-2.496v2.701H46.79v-6.55h1.787zm11.578 1.341H58.01v5.209h-1.787v-5.209h-2.15v-1.341h6.081v1.341zm3.926-1.465c.606 0 1.127.118 1.564.352.438.23.776.566 1.014 1.008.239.441.358.98.358 1.617v.867H62.79c.02.504.17.901.451 1.19.285.285.68.427 1.184.427.418 0 .8-.043 1.148-.129a5.762 5.762 0 001.073-.386v1.383c-.325.16-.665.277-1.02.351-.352.074-.78.111-1.283.111-.656 0-1.238-.121-1.746-.363a2.711 2.711 0 01-1.19-1.107c-.285-.496-.428-1.121-.428-1.875 0-.766.13-1.403.387-1.91.262-.512.625-.895 1.09-1.149.465-.258 1.006-.387 1.623-.387zm.012 1.272c-.348 0-.637.111-.867.334-.227.223-.358.572-.393 1.049h2.508a1.765 1.765 0 00-.147-.709 1.1 1.1 0 00-.41-.492c-.18-.122-.41-.182-.691-.182zm8.021-1.272c.739 0 1.334.288 1.787.862.457.574.686 1.416.686 2.525 0 .742-.108 1.367-.322 1.875-.215.504-.512.885-.891 1.143a2.265 2.265 0 01-1.307.386c-.316 0-.588-.039-.814-.117a2.09 2.09 0 01-.58-.31 2.784 2.784 0 01-.416-.41h-.094a5.075 5.075 0 01.094.961v2.642h-1.787v-9.433h1.453l.252.849h.082c.117-.176.26-.338.428-.486.168-.149.369-.266.603-.352a2.33 2.33 0 01.826-.135zm-.574 1.43c-.312 0-.56.065-.744.194-.184.128-.318.322-.404.58-.082.257-.127.584-.135.978v.193c0 .422.039.78.117 1.073.082.293.217.515.404.668.192.152.454.228.785.228.274 0 .499-.076.674-.228.176-.153.307-.375.393-.668.09-.297.135-.658.135-1.084 0-.641-.1-1.123-.3-1.448-.198-.324-.507-.486-.925-.486zm10.477-1.306v6.55h-1.793v-5.209H77.85v5.209h-1.787v-6.55h5.953zm5.52-.124c.737 0 1.333.288 1.786.862.457.574.686 1.416.686 2.525 0 .742-.108 1.367-.322 1.875-.215.504-.512.885-.891 1.143a2.265 2.265 0 01-1.307.386c-.316 0-.588-.039-.814-.117a2.092 2.092 0 01-.58-.31 2.79 2.79 0 01-.416-.41h-.094a5.074 5.074 0 01.094.961v2.642H83.89v-9.433h1.453l.252.849h.082c.117-.176.26-.338.428-.486.167-.149.369-.266.603-.352a2.33 2.33 0 01.826-.135zm-.575 1.43c-.313 0-.56.065-.744.194-.184.128-.319.322-.404.58-.082.257-.127.584-.135.978v.193c0 .422.039.78.117 1.073.082.293.217.515.404.668.192.152.453.228.785.228.274 0 .498-.076.674-.228.176-.153.307-.375.393-.668.09-.297.135-.658.135-1.084 0-.641-.1-1.123-.3-1.448-.198-.324-.507-.486-.925-.486zm7.207-1.441c.879 0 1.553.191 2.021.574.47.383.704.965.704 1.746v4.365h-1.249l-.345-.89h-.047a3.352 3.352 0 01-.574.574c-.196.148-.42.258-.674.328a3.53 3.53 0 01-.926.105c-.387 0-.734-.074-1.043-.222a1.658 1.658 0 01-.72-.68c-.176-.308-.264-.699-.264-1.172 0-.695.244-1.207.732-1.535.489-.332 1.22-.516 2.198-.551l1.136-.035v-.287c0-.344-.09-.596-.27-.756-.179-.16-.429-.24-.75-.24-.316 0-.626.045-.931.135-.305.09-.61.203-.914.34l-.592-1.207a5.04 5.04 0 011.166-.434 5.63 5.63 0 011.342-.158zm.95 3.65l-.692.024c-.578.015-.98.119-1.207.31a.948.948 0 00-.334.756c0 .273.08.469.24.586.16.113.37.17.627.17.383 0 .705-.113.967-.34.265-.227.398-.549.398-.967v-.539zm5.349-3.515v2.589c0 .133-.006.301-.018.504-.008.199-.019.403-.035.61a28.559 28.559 0 01-.082.89l3.023-4.593h2.151v6.55h-1.729v-2.613c0-.215.008-.451.024-.709.015-.262.033-.508.053-.738a43.6 43.6 0 00.041-.522l-3.012 4.582h-2.145v-6.55h1.729zm4.547-2.819c-.043.414-.16.779-.352 1.096-.191.316-.49.562-.896.738-.407.176-.954.264-1.641.264-.707 0-1.258-.084-1.652-.252-.395-.172-.676-.414-.844-.727a2.86 2.86 0 01-.305-1.119h1.6c.035.442.146.735.334.879.187.141.488.211.902.211.344 0 .625-.078.844-.234.219-.157.35-.442.392-.856h1.618zm4.757 2.695c.473 0 .915.063 1.325.188.41.121.742.311.996.568.254.254.381.582.381.985 0 .394-.119.709-.358.943-.238.231-.554.397-.949.498v.059c.277.066.527.156.75.269.227.114.406.27.539.469.133.199.199.461.199.785 0 .363-.115.699-.345 1.008-.231.305-.584.551-1.061.738-.473.188-1.08.281-1.822.281-.352 0-.684-.015-.996-.046a7.326 7.326 0 01-.85-.135 3.941 3.941 0 01-.674-.223v-1.476c.27.125.602.24.996.345.399.106.823.159 1.272.159.324 0 .617-.024.879-.071.265-.047.474-.125.627-.234a.531.531 0 00.234-.451.538.538 0 00-.205-.434c-.133-.117-.338-.203-.615-.258a5.159 5.159 0 00-1.043-.088h-.692v-1.236h.657c.593 0 1.052-.049 1.377-.146.324-.098.486-.278.486-.54 0-.21-.104-.369-.311-.474-.207-.106-.548-.158-1.025-.158-.309 0-.648.037-1.02.111-.371.07-.718.172-1.043.305l-.527-1.248a7.791 7.791 0 011.231-.352 7.776 7.776 0 011.587-.141zm-58.242 16c.739 0 1.334.288 1.787.862.457.574.686 1.416.686 2.525 0 .742-.108 1.367-.322 1.875-.215.504-.512.885-.89 1.143a2.265 2.265 0 01-1.308.386c-.316 0-.587-.039-.814-.117a2.09 2.09 0 01-.58-.31 2.788 2.788 0 01-.416-.41h-.094a5.042 5.042 0 01.094.961v2.642h-1.787v-9.433h1.453l.252.849h.082c.117-.176.26-.338.428-.486.168-.149.369-.266.603-.352a2.33 2.33 0 01.826-.135zm-.574 1.43c-.312 0-.56.065-.744.194-.184.128-.318.322-.404.58-.082.257-.127.584-.135.978v.193c0 .422.039.78.117 1.073.082.293.217.515.404.668.192.152.454.228.785.228.274 0 .499-.076.674-.228.176-.153.307-.375.393-.668.09-.297.135-.658.135-1.084 0-.641-.1-1.123-.3-1.448-.198-.324-.507-.486-.925-.486zm7.225-1.43c.605 0 1.127.118 1.564.352.438.23.776.566 1.014 1.008.238.441.357.98.357 1.617v.867h-4.224c.02.504.17.901.45 1.19.286.285.68.427 1.184.427.418 0 .801-.043 1.149-.129a5.762 5.762 0 001.072-.386v1.383c-.324.16-.664.277-1.02.351a6.331 6.331 0 01-1.283.111c-.656 0-1.238-.121-1.746-.363a2.711 2.711 0 01-1.19-1.107c-.284-.496-.427-1.121-.427-1.875 0-.766.129-1.403.387-1.91a2.628 2.628 0 011.09-1.149c.465-.258 1.005-.387 1.623-.387zm.011 1.272c-.347 0-.636.111-.867.334-.226.223-.357.572-.392 1.049h2.508a1.767 1.767 0 00-.147-.709 1.1 1.1 0 00-.41-.492c-.18-.122-.41-.182-.692-.182zm14.133-1.148v6.55h-9.756v-6.55h1.788v5.208h2.197v-5.208h1.787v5.208h2.197v-5.208h1.787zm4.582-.124c.606 0 1.127.118 1.565.352.437.23.775.566 1.013 1.008.239.441.358.98.358 1.617v.867h-4.225c.02.504.17.901.451 1.19.285.285.68.427 1.184.427.418 0 .8-.043 1.148-.129a5.764 5.764 0 001.073-.386v1.383a4.26 4.26 0 01-1.02.351c-.351.074-.78.111-1.283.111-.656 0-1.238-.121-1.746-.363a2.71 2.71 0 01-1.19-1.107c-.285-.496-.427-1.121-.427-1.875 0-.766.129-1.403.386-1.91.262-.512.625-.895 1.09-1.149.465-.258 1.006-.387 1.623-.387zm.012 1.272c-.348 0-.637.111-.867.334-.227.223-.358.572-.393 1.049h2.508a1.763 1.763 0 00-.147-.709 1.1 1.1 0 00-.41-.492c-.18-.122-.41-.182-.691-.182zm6.164-1.148v2.519h2.496v-2.519h1.787v6.55h-1.787v-2.701h-2.496v2.701h-1.787v-6.55h1.787zm7.887 0v2.589c0 .133-.006.301-.018.504-.008.199-.02.403-.035.61a27.85 27.85 0 01-.082.89l3.023-4.593h2.15v6.55H94.28v-2.613c0-.215.008-.451.024-.709.015-.262.033-.508.053-.738.019-.231.033-.405.04-.522l-3.011 4.582H89.24v-6.55h1.729zm7.916 6.55H96.95l1.764-2.59a2.43 2.43 0 01-.627-.386 1.9 1.9 0 01-.475-.633 2.125 2.125 0 01-.181-.914c0-.652.246-1.152.738-1.5.496-.352 1.135-.527 1.916-.527h3.047v6.55h-1.787v-2.437h-.985l-1.476 2.437zm.299-4.511c0 .273.107.488.322.644.219.152.5.229.844.229h.996v-1.653h-1.225c-.32 0-.556.078-.709.235a.744.744 0 00-.228.545z" fill="#F5F6FF"/></svg>