<svg width="287" height="390" fill="none" xmlns="http://www.w3.org/2000/svg"><path d="M276.86 10.026l.039.044.044.039C282.894 15.379 286 24.39 286 37.44v41.6c0 13.037-3.101 22.434-9.1 28.412-5.286 5.267-14.35 8.028-27.477 8.028h-85.591c-9.25 0-16.503 2.841-21.605 8.635-5.097 5.093-7.577 12.306-7.577 21.485v16.6h114.773c13.1 0 22.146 3.096 27.437 9.026l.039.044.044.039c5.951 5.27 9.057 14.281 9.057 27.331v153.92c0 13.037-3.101 22.434-9.1 28.412-5.286 5.267-14.35 8.028-27.477 8.028H38.577c-13.08 0-22.518-2.742-28.52-8.03C4.751 374.992 2 365.59 2 352.56V157.04c0-52.527 13.87-91.386 41.43-116.785h0C71.74 14.112 109.057 1 155.482 1h93.941c13.1 0 22.146 3.096 27.437 9.026z" fill="#F5F6FF" stroke="#232323" stroke-width="2"/><path d="M46.086 267.867h5.332c2.281 0 4.008.321 5.18.961 1.172.641 1.758 1.766 1.758 3.375 0 .649-.106 1.235-.317 1.758-.203.523-.5.953-.89 1.289-.391.336-.868.555-1.43.656v.117c.57.118 1.086.321 1.547.61.46.281.828.695 1.101 1.242.281.539.422 1.258.422 2.156 0 1.039-.254 1.93-.762 2.672-.508.742-1.234 1.313-2.18 1.711-.937.391-2.054.586-3.35.586h-6.411v-17.133zm3.633 6.785h2.11c1.054 0 1.784-.164 2.19-.492.407-.336.61-.828.61-1.476 0-.657-.242-1.125-.727-1.407-.476-.289-1.234-.433-2.273-.433h-1.91v3.808zm0 2.883V282h2.367c1.094 0 1.855-.211 2.285-.633.43-.422.645-.988.645-1.699a2.16 2.16 0 00-.282-1.113c-.187-.321-.504-.571-.949-.75-.437-.18-1.043-.27-1.816-.27h-2.25zm17.613-5.883c1.211 0 2.254.235 3.129.703a4.806 4.806 0 012.027 2.016c.477.883.715 1.961.715 3.234v1.735h-8.45c.04 1.008.34 1.801.903 2.379.57.57 1.36.855 2.367.855.836 0 1.602-.086 2.297-.258.696-.171 1.41-.429 2.145-.773v2.766a8.552 8.552 0 01-2.04.703c-.702.148-1.558.222-2.566.222-1.312 0-2.476-.242-3.492-.726a5.43 5.43 0 01-2.379-2.215c-.57-.992-.855-2.242-.855-3.75 0-1.531.258-2.805.773-3.82.524-1.024 1.25-1.789 2.18-2.297.93-.516 2.012-.774 3.246-.774zm.024 2.543c-.696 0-1.274.223-1.735.668-.453.446-.715 1.145-.785 2.098h5.016a3.532 3.532 0 00-.293-1.418 2.2 2.2 0 00-.82-.984c-.36-.243-.821-.364-1.383-.364zm7.957 2.953c0-1.929.238-3.57.714-4.921.477-1.352 1.235-2.43 2.274-3.235 1.039-.812 2.402-1.363 4.09-1.652.843-.149 1.699-.27 2.566-.363.875-.102 1.781-.215 2.719-.34l.41 3.129-1.324.152c-.477.055-.957.113-1.442.176a52.22 52.22 0 00-1.406.176c-.453.054-.863.109-1.23.164-.797.125-1.461.32-1.993.586-.53.265-.937.687-1.218 1.265-.282.578-.454 1.41-.516 2.496h.176a4.3 4.3 0 01.797-.902c.343-.313.77-.57 1.277-.774.508-.21 1.094-.316 1.758-.316 1.047 0 1.953.215 2.719.645.765.429 1.355 1.07 1.77 1.921.421.844.632 1.899.632 3.165 0 1.484-.273 2.726-.82 3.726-.54.992-1.29 1.738-2.25 2.238-.961.5-2.075.75-3.34.75-.969 0-1.844-.175-2.625-.527a5.49 5.49 0 01-2.016-1.559c-.554-.687-.98-1.531-1.277-2.531-.297-1.008-.445-2.164-.445-3.469zm6.574 5.192c.507 0 .949-.11 1.324-.328.383-.227.68-.594.89-1.102.22-.515.329-1.207.329-2.074 0-1.047-.176-1.875-.528-2.484-.343-.618-.933-.926-1.77-.926-.507 0-.984.125-1.429.375a4.566 4.566 0 00-1.113.844c-.305.312-.516.578-.633.796 0 .618.047 1.219.14 1.805a6.25 6.25 0 00.481 1.57c.219.469.516.84.89 1.114.384.273.856.41 1.419.41zm7.992-2.309v-2.929h6.293v2.929h-6.293zm16.183-8.379c1.477 0 2.668.575 3.575 1.723.914 1.148 1.371 2.832 1.371 5.051 0 1.484-.215 2.734-.645 3.75-.429 1.008-1.023 1.769-1.781 2.285-.758.516-1.629.773-2.613.773-.633 0-1.176-.078-1.629-.234a4.182 4.182 0 01-1.16-.621 5.483 5.483 0 01-.832-.82h-.188a10.207 10.207 0 01.188 1.921v5.286h-3.575v-18.868h2.907l.504 1.7h.164c.234-.352.519-.676.855-.973a3.747 3.747 0 011.207-.703c.477-.18 1.028-.27 1.652-.27zm-1.148 2.86c-.625 0-1.121.129-1.488.386-.367.258-.637.645-.809 1.161-.164.515-.254 1.168-.269 1.957v.386c0 .844.078 1.559.234 2.145.164.586.434 1.031.809 1.336.382.305.906.457 1.57.457.547 0 .996-.152 1.348-.457.351-.305.613-.75.785-1.336.179-.594.269-1.317.269-2.168 0-1.281-.199-2.246-.597-2.895-.399-.648-1.016-.972-1.852-.972zm14.414-2.883c1.758 0 3.106.383 4.043 1.148.938.766 1.406 1.93 1.406 3.493V285h-2.496l-.691-1.781h-.094a6.652 6.652 0 01-1.148 1.148 3.93 3.93 0 01-1.348.656c-.508.141-1.125.211-1.852.211-.773 0-1.468-.148-2.086-.445a3.318 3.318 0 01-1.441-1.359c-.351-.618-.527-1.399-.527-2.344 0-1.391.488-2.414 1.465-3.07.976-.664 2.441-1.032 4.394-1.102l2.274-.07v-.574c0-.688-.18-1.192-.539-1.512-.36-.32-.86-.481-1.5-.481-.633 0-1.254.09-1.864.27-.609.18-1.219.406-1.828.68l-1.184-2.415a10.183 10.183 0 012.333-.867 11.303 11.303 0 012.683-.316zm1.899 7.301l-1.383.047c-1.156.031-1.961.238-2.414.621-.446.382-.668.886-.668 1.511 0 .547.16.938.48 1.172.32.227.738.34 1.254.34.766 0 1.41-.226 1.934-.68.531-.453.797-1.097.797-1.933v-1.078zm12.011-7.278c.946 0 1.828.125 2.649.375.82.243 1.484.621 1.992 1.137.508.508.762 1.164.762 1.969 0 .789-.239 1.418-.715 1.887-.477.46-1.11.792-1.899.996v.117a6.755 6.755 0 011.5.539c.453.226.813.539 1.078.937.266.399.399.922.399 1.571 0 .726-.231 1.398-.692 2.015-.46.61-1.167 1.102-2.121 1.477-.945.375-2.16.562-3.644.562-.703 0-1.367-.031-1.992-.093a14.268 14.268 0 01-1.7-.27 7.787 7.787 0 01-1.347-.445v-2.953c.539.25 1.203.48 1.992.691a9.904 9.904 0 002.543.316c.648 0 1.234-.046 1.758-.14.531-.094.949-.25 1.254-.469a1.06 1.06 0 00.468-.902c0-.352-.136-.641-.41-.867-.265-.235-.675-.407-1.23-.516-.547-.117-1.242-.176-2.086-.176h-1.383v-2.472h1.313c1.187 0 2.105-.098 2.753-.293.649-.196.973-.555.973-1.079 0-.421-.207-.738-.621-.949-.414-.211-1.098-.316-2.051-.316-.617 0-1.297.074-2.039.222-.742.141-1.437.344-2.086.61l-1.054-2.496a15.588 15.588 0 012.46-.703c.891-.188 1.95-.282 3.176-.282zm15.856 0c1.476 0 2.668.575 3.574 1.723.914 1.148 1.371 2.832 1.371 5.051 0 1.484-.215 2.734-.644 3.75-.43 1.008-1.024 1.769-1.782 2.285-.758.516-1.629.773-2.613.773-.633 0-1.176-.078-1.629-.234a4.182 4.182 0 01-1.16-.621 5.53 5.53 0 01-.832-.82h-.188a10.207 10.207 0 01.188 1.921v5.286h-3.574v-18.868h2.906l.504 1.7h.164c.234-.352.519-.676.855-.973a3.758 3.758 0 011.207-.703c.477-.18 1.028-.27 1.653-.27zm-1.149 2.86c-.625 0-1.121.129-1.488.386-.367.258-.637.645-.809 1.161-.164.515-.253 1.168-.269 1.957v.386c0 .844.078 1.559.234 2.145.164.586.434 1.031.809 1.336.383.305.906.457 1.57.457.547 0 .996-.152 1.348-.457.351-.305.613-.75.785-1.336.18-.594.27-1.317.27-2.168 0-1.281-.2-2.246-.598-2.895-.399-.648-1.016-.972-1.852-.972zm14.414-2.883c1.758 0 3.106.383 4.043 1.148.938.766 1.407 1.93 1.407 3.493V285h-2.497l-.691-1.781h-.094a6.617 6.617 0 01-1.148 1.148 3.93 3.93 0 01-1.348.656c-.508.141-1.125.211-1.851.211-.774 0-1.469-.148-2.086-.445a3.315 3.315 0 01-1.442-1.359c-.351-.618-.527-1.399-.527-2.344 0-1.391.488-2.414 1.465-3.07.976-.664 2.441-1.032 4.394-1.102l2.274-.07v-.574c0-.688-.18-1.192-.539-1.512-.36-.32-.86-.481-1.5-.481-.633 0-1.254.09-1.864.27-.609.18-1.218.406-1.828.68l-1.183-2.415a10.157 10.157 0 012.332-.867 11.31 11.31 0 012.683-.316zm1.899 7.301l-1.383.047c-1.156.031-1.961.238-2.414.621-.445.382-.668.886-.668 1.511 0 .547.16.938.48 1.172.321.227.739.34 1.254.34.766 0 1.411-.226 1.934-.68.531-.453.797-1.097.797-1.933v-1.078zm6.445-1.782c0-1.929.238-3.57.715-4.921.477-1.352 1.234-2.43 2.273-3.235 1.039-.812 2.403-1.363 4.09-1.652.844-.149 1.699-.27 2.567-.363.875-.102 1.781-.215 2.718-.34l.411 3.129-1.325.152c-.476.055-.957.113-1.441.176-.484.054-.953.113-1.406.176-.453.054-.864.109-1.231.164-.797.125-1.461.32-1.992.586-.531.265-.937.687-1.219 1.265-.281.578-.453 1.41-.515 2.496h.175c.188-.297.454-.597.797-.902.344-.313.77-.57 1.278-.774.507-.21 1.093-.316 1.757-.316 1.047 0 1.954.215 2.719.645.766.429 1.356 1.07 1.77 1.921.422.844.633 1.899.633 3.165 0 1.484-.274 2.726-.821 3.726-.539.992-1.289 1.738-2.25 2.238-.961.5-2.074.75-3.34.75-.968 0-1.843-.175-2.625-.527a5.487 5.487 0 01-2.015-1.559c-.555-.687-.981-1.531-1.278-2.531-.296-1.008-.445-2.164-.445-3.469zm6.574 5.192c.508 0 .95-.11 1.325-.328.382-.227.679-.594.89-1.102.219-.515.328-1.207.328-2.074 0-1.047-.175-1.875-.527-2.484-.344-.618-.934-.926-1.77-.926-.507 0-.984.125-1.429.375a4.567 4.567 0 00-1.114.844c-.304.312-.515.578-.632.796 0 .618.047 1.219.14 1.805.102.578.262 1.102.481 1.57.219.469.515.84.89 1.114.383.273.856.41 1.418.41zm21.059-3.914c0 1.094-.148 2.062-.445 2.906-.289.844-.715 1.559-1.278 2.145a5.366 5.366 0 01-2.015 1.312c-.782.297-1.664.445-2.649.445-.922 0-1.769-.148-2.543-.445a5.666 5.666 0 01-2.004-1.312c-.562-.586-1-1.301-1.312-2.145-.305-.844-.457-1.812-.457-2.906 0-1.453.258-2.684.773-3.692.516-1.007 1.25-1.773 2.203-2.296.953-.524 2.09-.786 3.411-.786 1.226 0 2.312.262 3.257.786.953.523 1.7 1.289 2.239 2.296.546 1.008.82 2.239.82 3.692zm-9.059 0c0 .859.094 1.582.282 2.168.187.586.48 1.027.879 1.324.398.297.917.445 1.558.445.633 0 1.145-.148 1.535-.445.399-.297.688-.738.867-1.324.188-.586.282-1.309.282-2.168 0-.867-.094-1.586-.282-2.156-.179-.579-.468-1.012-.867-1.301-.398-.289-.918-.434-1.558-.434-.946 0-1.633.324-2.063.973-.422.648-.633 1.621-.633 2.918zm22.852-3.844h-4.289V285h-3.574v-10.418h-4.301v-2.684h12.164v2.684zm11.039-2.684h3.937l-5.191 6.282 5.648 6.82h-4.054l-5.356-6.645V285h-3.574v-13.102h3.574v6.364l5.016-6.364zm11.637-.269c1.757 0 3.105.383 4.043 1.148.937.766 1.406 1.93 1.406 3.493V285h-2.496l-.692-1.781h-.093a6.62 6.62 0 01-1.149 1.148c-.39.297-.84.516-1.347.656-.508.141-1.125.211-1.852.211-.773 0-1.469-.148-2.086-.445a3.313 3.313 0 01-1.441-1.359c-.352-.618-.528-1.399-.528-2.344 0-1.391.489-2.414 1.465-3.07.977-.664 2.442-1.032 4.395-1.102l2.273-.07v-.574c0-.688-.18-1.192-.539-1.512-.359-.32-.859-.481-1.5-.481a6.54 6.54 0 00-1.863.27c-.61.18-1.219.406-1.828.68l-1.184-2.415a10.175 10.175 0 012.332-.867 11.312 11.312 0 012.684-.316zm1.898 7.301l-1.383.047c-1.156.031-1.961.238-2.414.621-.445.382-.668.886-.668 1.511 0 .547.16.938.481 1.172.32.227.738.34 1.254.34.765 0 1.41-.226 1.933-.68.532-.453.797-1.097.797-1.933v-1.078z" fill="#232323"/></svg>