<svg xmlns="http://www.w3.org/2000/svg" width="465" height="939" viewBox="0 0 465 939" fill="none">
  <path fill-rule="evenodd" clip-rule="evenodd" d="M49.9097 7.6537e-05C46.849 7.6537e-05 44.3679 2.4297 44.3679 5.4268V17.9214C44.3679 22.3397 40.7862 25.9214 36.3679 25.9214H24C10.7452 25.9214 0 36.6666 0 49.9214L0 915C0 928.255 10.7452 939 24 939H441C454.255 939 465 928.255 465 915V49.9214C465 36.6666 454.255 25.9214 441 25.9214L174.183 25.9213C169.765 25.9213 166.183 22.3396 166.183 17.9213V5.42673C166.183 2.42963 163.702 0 160.642 0L49.9097 7.6537e-05Z" fill="#0A7272"/>
</svg>