<svg width="287" height="390" viewBox="0 0 287 390" fill="none" xmlns="http://www.w3.org/2000/svg">
<path d="M155.482 0H249.423C262.645 0 272.039 3.12 277.606 9.36C283.869 14.9067 287 24.2667 287 37.44V79.04C287 92.2133 283.869 101.92 277.606 108.16C272.039 113.707 262.645 116.48 249.423 116.48H163.832C154.786 116.48 147.827 119.253 142.956 124.8C138.085 129.653 135.65 136.587 135.65 145.6V161.2H249.423C262.645 161.2 272.039 164.32 277.606 170.56C283.869 176.107 287 185.467 287 198.64V352.56C287 365.733 283.869 375.44 277.606 381.68C272.039 387.227 262.645 390 249.423 390H38.5766C25.3552 390 15.6131 387.227 9.35037 381.68C3.78345 375.44 1 365.733 1 352.56V157.04C1 104.347 14.9173 65.1733 42.7518 39.52C71.2822 13.1733 108.859 0 155.482 0Z" fill="#FF7D04"/>
</svg>
