<svg width="184" height="223" viewBox="0 0 184 223" fill="none" xmlns="http://www.w3.org/2000/svg">
<path d="M177.786 6.02469L177.826 6.06821L177.87 6.10678C181.203 9.00367 183 14.0044 183 21.408V45.1947C183 52.5858 181.208 57.8242 177.827 61.1303C174.864 64.0272 169.718 65.6027 162.104 65.6027H94.8807C89.4115 65.6027 85.0642 67.2526 81.9936 70.6683C78.9263 73.6818 77.4591 77.9282 77.4591 83.2533V92.1734V93.1734H78.4591H162.104C169.691 93.1734 174.82 94.9352 177.786 98.198L177.826 98.2415L177.87 98.2801C181.203 101.177 183 106.178 183 113.581V201.592C183 208.983 181.208 214.221 177.827 217.528C174.864 220.425 169.718 222 162.104 222H21.8955C14.3307 222 8.95499 220.444 5.56615 217.526C2.58753 214.219 1 208.977 1 201.592V89.7947C1 59.8368 9.05994 37.7545 24.9992 23.339L24.9999 23.3383C41.4033 8.47373 63.0415 1 90.015 1H162.104C169.691 1 174.82 2.76185 177.786 6.02469Z" stroke="#F5F6FF" stroke-width="2"/>
</svg>
