<svg width="131" height="178" viewBox="0 0 131 178" fill="none" xmlns="http://www.w3.org/2000/svg">
<path id="&#226;&#128;&#156;&#226;&#128;&#157;" d="M119.44 172.559L119.401 172.604L119.357 172.643C116.338 175.342 111.758 176.593 105.828 176.593H70.4559C49.7444 176.593 33.0961 170.837 20.6211 159.233L20.6204 159.232C7.79552 147.28 1.46761 129.418 1.46761 105.84L1.46761 18.9951C1.46761 13.0508 2.85666 8.56026 5.89189 5.81642C8.62139 2.76332 13.0905 1.36523 19.0053 1.36523L111.8 1.36523C117.756 1.36523 122.353 2.78202 125.372 5.81755L124.663 6.52269L125.372 5.81755C128.101 8.56197 129.338 13.0496 129.338 18.9951V87.3622C129.338 93.3225 128.095 97.9238 125.412 100.959L125.373 101.003L125.329 101.042C122.309 103.741 117.73 104.992 111.8 104.992L62.7277 104.992V110.921C62.7277 114.726 63.7384 117.7 65.6758 119.94C67.5784 121.839 70.3457 122.855 74.131 122.855L105.828 122.855C111.784 122.855 116.381 124.272 119.4 127.308C122.129 130.052 123.366 134.54 123.366 140.485V158.963C123.366 164.923 122.123 169.524 119.44 172.559Z" stroke="#232323" stroke-width="2"/>
</svg>
