<svg width="287" height="390" viewBox="0 0 287 390" fill="none" xmlns="http://www.w3.org/2000/svg">
<path d="M132.518 390H38.5767C25.3552 390 15.6132 387.227 9.35042 381.68C3.78352 375.44 1 365.733 1 352.56V310.96C1 297.787 3.78352 288.427 9.35042 282.88C15.6132 276.64 25.3552 273.52 38.5767 273.52H124.168C133.214 273.52 140.173 271.093 145.044 266.24C149.915 260.693 152.35 253.413 152.35 244.4V228.8H38.5767C25.3553 228.8 15.6131 226.027 9.35035 220.48C3.78344 214.24 1 204.533 1 191.36V37.44C1 24.2667 3.78344 14.9067 9.35035 9.36C15.6131 3.12 25.3553 0 38.5767 0H249.423C262.645 0 272.039 3.12 277.606 9.36C283.869 14.9067 287 24.2667 287 37.44V232.96C287 285.653 272.735 325.173 244.204 351.52C216.37 377.173 179.141 390 132.518 390Z" fill="#FF7D04"/>
</svg>
