<svg width="387" height="506" viewBox="0 0 387 506" fill="none" xmlns="http://www.w3.org/2000/svg">
<path d="M209.036 0H336.153C354.044 0 366.755 4.048 374.288 12.144C382.763 19.3405 387 31.4845 387 48.576V102.549C387 119.641 382.763 132.235 374.288 140.331C366.755 147.527 354.044 151.125 336.153 151.125H220.336C208.095 151.125 198.679 154.724 192.088 161.92C185.496 168.217 182.201 177.212 182.201 188.907V209.147H336.153C354.044 209.147 366.756 213.195 374.288 221.291C382.763 228.487 387 240.631 387 257.723V457.424C387 474.516 382.763 487.109 374.288 495.205C366.756 502.402 354.044 506 336.153 506H50.8467C32.9562 506 19.7737 502.402 11.2993 495.205C3.76642 487.109 0 474.516 0 457.424V203.749C0 135.383 18.8321 84.5582 56.4963 51.2747C95.1022 17.0916 145.949 0 209.036 0Z" fill="#095353"/>
</svg>
