<svg width="287" height="390" viewBox="0 0 287 390" fill="none" xmlns="http://www.w3.org/2000/svg">
<path d="M145.75 266.948L145.773 266.925L145.795 266.9C150.86 261.133 153.35 253.6 153.35 244.4V228.8V227.8H152.35H38.5767C25.4968 227.8 16.059 225.058 10.0574 219.77C4.75122 213.792 2 204.39 2 191.36V37.44C2 24.3629 4.77087 15.3345 10.0562 10.0684C16.0562 4.09014 25.4902 1 38.5767 1H249.423C262.523 1 271.569 4.0955 276.86 10.0257L276.899 10.0696L276.943 10.1086C282.894 15.3794 286 24.3905 286 37.44V232.96C286 285.478 271.786 324.688 243.526 350.785C215.917 376.231 178.951 389 132.518 389H38.5767C25.4969 389 16.0591 386.258 10.0576 380.97C4.75133 374.992 2 365.59 2 352.56V310.96C2 297.883 4.77096 288.854 10.0562 283.588C16.0563 277.61 25.4902 274.52 38.5767 274.52H124.168C133.392 274.52 140.638 272.042 145.75 266.948Z" fill="#F5F6FF" stroke="#232323" stroke-width="2"/>
<path d="M94.0391 93H89.9141L83.7031 84.3164V93H80.0703V75.8672H83.7031V84.1641L89.8438 75.8672H93.7109L87.4648 84.0938L94.0391 93ZM101.281 79.6289C103.039 79.6289 104.387 80.0117 105.324 80.7773C106.262 81.543 106.73 82.707 106.73 84.2695V93H104.234L103.543 91.2188H103.449C103.074 91.6875 102.691 92.0703 102.301 92.3672C101.91 92.6641 101.461 92.8828 100.953 93.0234C100.445 93.1641 99.8281 93.2344 99.1016 93.2344C98.3281 93.2344 97.6328 93.0859 97.0156 92.7891C96.4062 92.4922 95.9258 92.0391 95.5742 91.4297C95.2227 90.8125 95.0469 90.0312 95.0469 89.0859C95.0469 87.6953 95.5352 86.6719 96.5117 86.0156C97.4883 85.3516 98.9531 84.9844 100.906 84.9141L103.18 84.8438V84.2695C103.18 83.582 103 83.0781 102.641 82.7578C102.281 82.4375 101.781 82.2773 101.141 82.2773C100.508 82.2773 99.8867 82.3672 99.2773 82.5469C98.668 82.7266 98.0586 82.9531 97.4492 83.2266L96.2656 80.8125C96.9609 80.4453 97.7383 80.1562 98.5977 79.9453C99.4648 79.7344 100.359 79.6289 101.281 79.6289ZM103.18 86.9297L101.797 86.9766C100.641 87.0078 99.8359 87.2148 99.3828 87.5977C98.9375 87.9805 98.7148 88.4844 98.7148 89.1094C98.7148 89.6562 98.875 90.0469 99.1953 90.2812C99.5156 90.5078 99.9336 90.6211 100.449 90.6211C101.215 90.6211 101.859 90.3945 102.383 89.9414C102.914 89.4883 103.18 88.8438 103.18 88.0078V86.9297ZM119.012 79.8984H122.949L117.758 86.1797L123.406 93H119.352L113.996 86.3555V93H110.422V79.8984H113.996V86.2617L119.012 79.8984ZM143.129 83.332C143.129 84.0352 142.906 84.6367 142.461 85.1367C142.023 85.6289 141.375 85.9453 140.516 86.0859V86.1797C141.422 86.2891 142.152 86.6055 142.707 87.1289C143.262 87.6445 143.539 88.2969 143.539 89.0859C143.539 89.8359 143.344 90.5078 142.953 91.1016C142.562 91.6875 141.941 92.1523 141.09 92.4961C140.238 92.832 139.125 93 137.75 93H131.516V79.8984H137.75C138.773 79.8984 139.691 80.0078 140.504 80.2266C141.316 80.4375 141.957 80.793 142.426 81.293C142.895 81.793 143.129 82.4727 143.129 83.332ZM139.836 88.8984C139.836 88.3828 139.633 88.0117 139.227 87.7852C138.828 87.5508 138.234 87.4336 137.445 87.4336H135.09V90.5273H137.516C138.188 90.5273 138.742 90.4023 139.18 90.1523C139.617 89.9023 139.836 89.4844 139.836 88.8984ZM139.508 83.6133C139.508 83.207 139.348 82.9062 139.027 82.7109C138.707 82.5156 138.234 82.418 137.609 82.418H135.09V85.0078H137.199C137.957 85.0078 138.531 84.8984 138.922 84.6797C139.312 84.4609 139.508 84.1055 139.508 83.6133ZM152.012 79.6523C153.223 79.6523 154.266 79.8867 155.141 80.3555C156.016 80.8164 156.691 81.4883 157.168 82.3711C157.645 83.2539 157.883 84.332 157.883 85.6055V87.3398H149.434C149.473 88.3477 149.773 89.1406 150.336 89.7188C150.906 90.2891 151.695 90.5742 152.703 90.5742C153.539 90.5742 154.305 90.4883 155 90.3164C155.695 90.1445 156.41 89.8867 157.145 89.543V92.3086C156.496 92.6289 155.816 92.8633 155.105 93.0117C154.402 93.1602 153.547 93.2344 152.539 93.2344C151.227 93.2344 150.062 92.9922 149.047 92.5078C148.039 92.0234 147.246 91.2852 146.668 90.293C146.098 89.3008 145.812 88.0508 145.812 86.543C145.812 85.0117 146.07 83.7383 146.586 82.7227C147.109 81.6992 147.836 80.9336 148.766 80.4258C149.695 79.9102 150.777 79.6523 152.012 79.6523ZM152.035 82.1953C151.34 82.1953 150.762 82.418 150.301 82.8633C149.848 83.3086 149.586 84.0078 149.516 84.9609H154.531C154.523 84.4297 154.426 83.957 154.238 83.543C154.059 83.1289 153.785 82.8008 153.418 82.5586C153.059 82.3164 152.598 82.1953 152.035 82.1953ZM166.109 93.2344C164.812 93.2344 163.707 93 162.793 92.5312C161.879 92.0547 161.184 91.3203 160.707 90.3281C160.23 89.3359 159.992 88.0664 159.992 86.5195C159.992 84.918 160.262 83.6133 160.801 82.6055C161.348 81.5898 162.102 80.8438 163.062 80.3672C164.031 79.8906 165.152 79.6523 166.426 79.6523C167.332 79.6523 168.113 79.7422 168.77 79.9219C169.434 80.0938 170.012 80.3008 170.504 80.543L169.449 83.3086C168.887 83.082 168.363 82.8984 167.879 82.7578C167.395 82.6094 166.91 82.5352 166.426 82.5352C165.801 82.5352 165.281 82.6836 164.867 82.9805C164.453 83.2695 164.145 83.707 163.941 84.293C163.738 84.8789 163.637 85.6133 163.637 86.4961C163.637 87.3633 163.746 88.082 163.965 88.6523C164.184 89.2227 164.5 89.6484 164.914 89.9297C165.328 90.2031 165.832 90.3398 166.426 90.3398C167.168 90.3398 167.828 90.2422 168.406 90.0469C168.984 89.8438 169.547 89.5625 170.094 89.2031V92.2617C169.547 92.6055 168.973 92.8516 168.371 93C167.777 93.1562 167.023 93.2344 166.109 93.2344ZM183.98 82.582H179.691V93H176.117V82.582H171.816V79.8984H183.98V82.582ZM189.887 79.8984V85.0781C189.887 85.3438 189.875 85.6797 189.852 86.0859C189.836 86.4844 189.812 86.8906 189.781 87.3047C189.75 87.7188 189.719 88.0898 189.688 88.418C189.656 88.7461 189.633 88.9688 189.617 89.0859L195.664 79.8984H199.965V93H196.508V87.7734C196.508 87.3438 196.523 86.8711 196.555 86.3555C196.586 85.832 196.621 85.3398 196.66 84.8789C196.699 84.418 196.727 84.0703 196.742 83.8359L190.719 93H186.43V79.8984H189.887ZM43.7539 112.898V123.387H45.6758V130.699H42.4648V126H33.6523V130.699H30.4414V123.387H31.543C32.1211 122.504 32.6055 121.496 32.9961 120.363C33.3945 119.23 33.7148 118.031 33.957 116.766C34.207 115.492 34.3867 114.203 34.4961 112.898H43.7539ZM40.1797 115.582H37.4961C37.3711 116.551 37.2109 117.488 37.0156 118.395C36.8281 119.293 36.5938 120.16 36.3125 120.996C36.0312 121.824 35.6875 122.621 35.2812 123.387H40.1797V115.582ZM59.8203 119.426C59.8203 120.52 59.6719 121.488 59.375 122.332C59.0859 123.176 58.6602 123.891 58.0977 124.477C57.543 125.055 56.8711 125.492 56.082 125.789C55.3008 126.086 54.418 126.234 53.4336 126.234C52.5117 126.234 51.6641 126.086 50.8906 125.789C50.125 125.492 49.457 125.055 48.8867 124.477C48.3242 123.891 47.8867 123.176 47.5742 122.332C47.2695 121.488 47.1172 120.52 47.1172 119.426C47.1172 117.973 47.375 116.742 47.8906 115.734C48.4062 114.727 49.1406 113.961 50.0938 113.438C51.0469 112.914 52.1836 112.652 53.5039 112.652C54.7305 112.652 55.8164 112.914 56.7617 113.438C57.7148 113.961 58.4609 114.727 59 115.734C59.5469 116.742 59.8203 117.973 59.8203 119.426ZM50.7617 119.426C50.7617 120.285 50.8555 121.008 51.043 121.594C51.2305 122.18 51.5234 122.621 51.9219 122.918C52.3203 123.215 52.8398 123.363 53.4805 123.363C54.1133 123.363 54.625 123.215 55.0156 122.918C55.4141 122.621 55.7031 122.18 55.8828 121.594C56.0703 121.008 56.1641 120.285 56.1641 119.426C56.1641 118.559 56.0703 117.84 55.8828 117.27C55.7031 116.691 55.4141 116.258 55.0156 115.969C54.6172 115.68 54.0977 115.535 53.457 115.535C52.5117 115.535 51.8242 115.859 51.3945 116.508C50.9727 117.156 50.7617 118.129 50.7617 119.426ZM71.3633 112.898H75.3008L70.1094 119.18L75.7578 126H71.7031L66.3477 119.355V126H62.7734V112.898H66.3477V119.262L71.3633 112.898ZM75.7578 112.898H79.6719L82.1445 120.27C82.2227 120.504 82.2891 120.742 82.3438 120.984C82.3984 121.227 82.4453 121.477 82.4844 121.734C82.5234 121.992 82.5547 122.262 82.5781 122.543H82.6484C82.6953 122.121 82.7578 121.727 82.8359 121.359C82.9219 120.992 83.0273 120.629 83.1523 120.27L85.5781 112.898H89.4102L83.8672 127.676C83.5312 128.582 83.0938 129.336 82.5547 129.938C82.0156 130.547 81.3945 131.004 80.6914 131.309C79.9961 131.613 79.2305 131.766 78.3945 131.766C77.9883 131.766 77.6367 131.742 77.3398 131.695C77.043 131.656 76.7891 131.613 76.5781 131.566V128.73C76.7422 128.77 76.9492 128.805 77.1992 128.836C77.4492 128.867 77.7109 128.883 77.9844 128.883C78.4844 128.883 78.9141 128.777 79.2734 128.566C79.6328 128.355 79.9336 128.07 80.1758 127.711C80.418 127.359 80.6094 126.973 80.75 126.551L80.9609 125.906L75.7578 112.898ZM107.809 112.898V126H104.469V119.566C104.469 118.934 104.48 118.312 104.504 117.703C104.527 117.094 104.562 116.531 104.609 116.016H104.539L100.918 126H98.2344L94.5547 115.992H94.4609C94.5234 116.516 94.5664 117.078 94.5898 117.68C94.6133 118.281 94.625 118.941 94.625 119.66V126H91.2969V112.898H96.3594L99.6172 121.781L102.934 112.898H107.809ZM116.973 112.652C118.184 112.652 119.227 112.887 120.102 113.355C120.977 113.816 121.652 114.488 122.129 115.371C122.605 116.254 122.844 117.332 122.844 118.605V120.34H114.395C114.434 121.348 114.734 122.141 115.297 122.719C115.867 123.289 116.656 123.574 117.664 123.574C118.5 123.574 119.266 123.488 119.961 123.316C120.656 123.145 121.371 122.887 122.105 122.543V125.309C121.457 125.629 120.777 125.863 120.066 126.012C119.363 126.16 118.508 126.234 117.5 126.234C116.188 126.234 115.023 125.992 114.008 125.508C113 125.023 112.207 124.285 111.629 123.293C111.059 122.301 110.773 121.051 110.773 119.543C110.773 118.012 111.031 116.738 111.547 115.723C112.07 114.699 112.797 113.934 113.727 113.426C114.656 112.91 115.738 112.652 116.973 112.652ZM116.996 115.195C116.301 115.195 115.723 115.418 115.262 115.863C114.809 116.309 114.547 117.008 114.477 117.961H119.492C119.484 117.43 119.387 116.957 119.199 116.543C119.02 116.129 118.746 115.801 118.379 115.559C118.02 115.316 117.559 115.195 116.996 115.195ZM129.324 112.898V117.938H134.316V112.898H137.891V126H134.316V120.598H129.324V126H125.75V112.898H129.324ZM152.48 115.582H148.191V126H144.617V115.582H140.316V112.898H152.48V115.582ZM166.836 119.426C166.836 120.52 166.688 121.488 166.391 122.332C166.102 123.176 165.676 123.891 165.113 124.477C164.559 125.055 163.887 125.492 163.098 125.789C162.316 126.086 161.434 126.234 160.449 126.234C159.527 126.234 158.68 126.086 157.906 125.789C157.141 125.492 156.473 125.055 155.902 124.477C155.34 123.891 154.902 123.176 154.59 122.332C154.285 121.488 154.133 120.52 154.133 119.426C154.133 117.973 154.391 116.742 154.906 115.734C155.422 114.727 156.156 113.961 157.109 113.438C158.062 112.914 159.199 112.652 160.52 112.652C161.746 112.652 162.832 112.914 163.777 113.438C164.73 113.961 165.477 114.727 166.016 115.734C166.562 116.742 166.836 117.973 166.836 119.426ZM157.777 119.426C157.777 120.285 157.871 121.008 158.059 121.594C158.246 122.18 158.539 122.621 158.938 122.918C159.336 123.215 159.855 123.363 160.496 123.363C161.129 123.363 161.641 123.215 162.031 122.918C162.43 122.621 162.719 122.18 162.898 121.594C163.086 121.008 163.18 120.285 163.18 119.426C163.18 118.559 163.086 117.84 162.898 117.27C162.719 116.691 162.43 116.258 162.031 115.969C161.633 115.68 161.113 115.535 160.473 115.535C159.527 115.535 158.84 115.859 158.41 116.508C157.988 117.156 157.777 118.129 157.777 119.426ZM181.695 119.426C181.695 120.52 181.547 121.488 181.25 122.332C180.961 123.176 180.535 123.891 179.973 124.477C179.418 125.055 178.746 125.492 177.957 125.789C177.176 126.086 176.293 126.234 175.309 126.234C174.387 126.234 173.539 126.086 172.766 125.789C172 125.492 171.332 125.055 170.762 124.477C170.199 123.891 169.762 123.176 169.449 122.332C169.145 121.488 168.992 120.52 168.992 119.426C168.992 117.973 169.25 116.742 169.766 115.734C170.281 114.727 171.016 113.961 171.969 113.438C172.922 112.914 174.059 112.652 175.379 112.652C176.605 112.652 177.691 112.914 178.637 113.438C179.59 113.961 180.336 114.727 180.875 115.734C181.422 116.742 181.695 117.973 181.695 119.426ZM172.637 119.426C172.637 120.285 172.73 121.008 172.918 121.594C173.105 122.18 173.398 122.621 173.797 122.918C174.195 123.215 174.715 123.363 175.355 123.363C175.988 123.363 176.5 123.215 176.891 122.918C177.289 122.621 177.578 122.18 177.758 121.594C177.945 121.008 178.039 120.285 178.039 119.426C178.039 118.559 177.945 117.84 177.758 117.27C177.578 116.691 177.289 116.258 176.891 115.969C176.492 115.68 175.973 115.535 175.332 115.535C174.387 115.535 173.699 115.859 173.27 116.508C172.848 117.156 172.637 118.129 172.637 119.426ZM183.852 118.148C183.852 116.219 184.09 114.578 184.566 113.227C185.043 111.875 185.801 110.797 186.84 109.992C187.879 109.18 189.242 108.629 190.93 108.34C191.773 108.191 192.629 108.07 193.496 107.977C194.371 107.875 195.277 107.762 196.215 107.637L196.625 110.766C196.219 110.812 195.777 110.863 195.301 110.918C194.824 110.973 194.344 111.031 193.859 111.094C193.375 111.148 192.906 111.207 192.453 111.27C192 111.324 191.59 111.379 191.223 111.434C190.426 111.559 189.762 111.754 189.23 112.02C188.699 112.285 188.293 112.707 188.012 113.285C187.73 113.863 187.559 114.695 187.496 115.781H187.672C187.859 115.484 188.125 115.184 188.469 114.879C188.812 114.566 189.238 114.309 189.746 114.105C190.254 113.895 190.84 113.789 191.504 113.789C192.551 113.789 193.457 114.004 194.223 114.434C194.988 114.863 195.578 115.504 195.992 116.355C196.414 117.199 196.625 118.254 196.625 119.52C196.625 121.004 196.352 122.246 195.805 123.246C195.266 124.238 194.516 124.984 193.555 125.484C192.594 125.984 191.48 126.234 190.215 126.234C189.246 126.234 188.371 126.059 187.59 125.707C186.809 125.355 186.137 124.836 185.574 124.148C185.02 123.461 184.594 122.617 184.297 121.617C184 120.609 183.852 119.453 183.852 118.148ZM190.426 123.34C190.934 123.34 191.375 123.23 191.75 123.012C192.133 122.785 192.43 122.418 192.641 121.91C192.859 121.395 192.969 120.703 192.969 119.836C192.969 118.789 192.793 117.961 192.441 117.352C192.098 116.734 191.508 116.426 190.672 116.426C190.164 116.426 189.688 116.551 189.242 116.801C188.805 117.043 188.434 117.324 188.129 117.645C187.824 117.957 187.613 118.223 187.496 118.441C187.496 119.059 187.543 119.66 187.637 120.246C187.738 120.824 187.898 121.348 188.117 121.816C188.336 122.285 188.633 122.656 189.008 122.93C189.391 123.203 189.863 123.34 190.426 123.34ZM211.484 119.426C211.484 120.52 211.336 121.488 211.039 122.332C210.75 123.176 210.324 123.891 209.762 124.477C209.207 125.055 208.535 125.492 207.746 125.789C206.965 126.086 206.082 126.234 205.098 126.234C204.176 126.234 203.328 126.086 202.555 125.789C201.789 125.492 201.121 125.055 200.551 124.477C199.988 123.891 199.551 123.176 199.238 122.332C198.934 121.488 198.781 120.52 198.781 119.426C198.781 117.973 199.039 116.742 199.555 115.734C200.07 114.727 200.805 113.961 201.758 113.438C202.711 112.914 203.848 112.652 205.168 112.652C206.395 112.652 207.48 112.914 208.426 113.438C209.379 113.961 210.125 114.727 210.664 115.734C211.211 116.742 211.484 117.973 211.484 119.426ZM202.426 119.426C202.426 120.285 202.52 121.008 202.707 121.594C202.895 122.18 203.188 122.621 203.586 122.918C203.984 123.215 204.504 123.363 205.145 123.363C205.777 123.363 206.289 123.215 206.68 122.918C207.078 122.621 207.367 122.18 207.547 121.594C207.734 121.008 207.828 120.285 207.828 119.426C207.828 118.559 207.734 117.84 207.547 117.27C207.367 116.691 207.078 116.258 206.68 115.969C206.281 115.68 205.762 115.535 205.121 115.535C204.176 115.535 203.488 115.859 203.059 116.508C202.637 117.156 202.426 118.129 202.426 119.426ZM221.727 112.652C223.203 112.652 224.395 113.227 225.301 114.375C226.215 115.523 226.672 117.207 226.672 119.426C226.672 120.91 226.457 122.16 226.027 123.176C225.598 124.184 225.004 124.945 224.246 125.461C223.488 125.977 222.617 126.234 221.633 126.234C221 126.234 220.457 126.156 220.004 126C219.551 125.836 219.164 125.629 218.844 125.379C218.523 125.121 218.246 124.848 218.012 124.559H217.824C217.887 124.871 217.934 125.191 217.965 125.52C217.996 125.848 218.012 126.168 218.012 126.48V131.766H214.438V112.898H217.344L217.848 114.598H218.012C218.246 114.246 218.531 113.922 218.867 113.625C219.203 113.328 219.605 113.094 220.074 112.922C220.551 112.742 221.102 112.652 221.727 112.652ZM220.578 115.512C219.953 115.512 219.457 115.641 219.09 115.898C218.723 116.156 218.453 116.543 218.281 117.059C218.117 117.574 218.027 118.227 218.012 119.016V119.402C218.012 120.246 218.09 120.961 218.246 121.547C218.41 122.133 218.68 122.578 219.055 122.883C219.438 123.188 219.961 123.34 220.625 123.34C221.172 123.34 221.621 123.188 221.973 122.883C222.324 122.578 222.586 122.133 222.758 121.547C222.938 120.953 223.027 120.23 223.027 119.379C223.027 118.098 222.828 117.133 222.43 116.484C222.031 115.836 221.414 115.512 220.578 115.512ZM241.531 119.426C241.531 120.52 241.383 121.488 241.086 122.332C240.797 123.176 240.371 123.891 239.809 124.477C239.254 125.055 238.582 125.492 237.793 125.789C237.012 126.086 236.129 126.234 235.145 126.234C234.223 126.234 233.375 126.086 232.602 125.789C231.836 125.492 231.168 125.055 230.598 124.477C230.035 123.891 229.598 123.176 229.285 122.332C228.98 121.488 228.828 120.52 228.828 119.426C228.828 117.973 229.086 116.742 229.602 115.734C230.117 114.727 230.852 113.961 231.805 113.438C232.758 112.914 233.895 112.652 235.215 112.652C236.441 112.652 237.527 112.914 238.473 113.438C239.426 113.961 240.172 114.727 240.711 115.734C241.258 116.742 241.531 117.973 241.531 119.426ZM232.473 119.426C232.473 120.285 232.566 121.008 232.754 121.594C232.941 122.18 233.234 122.621 233.633 122.918C234.031 123.215 234.551 123.363 235.191 123.363C235.824 123.363 236.336 123.215 236.727 122.918C237.125 122.621 237.414 122.18 237.594 121.594C237.781 121.008 237.875 120.285 237.875 119.426C237.875 118.559 237.781 117.84 237.594 117.27C237.414 116.691 237.125 116.258 236.727 115.969C236.328 115.68 235.809 115.535 235.168 115.535C234.223 115.535 233.535 115.859 233.105 116.508C232.684 117.156 232.473 118.129 232.473 119.426ZM255.324 115.582H251.035V126H247.461V115.582H243.16V112.898H255.324V115.582ZM118.93 149.332C118.93 150.035 118.707 150.637 118.262 151.137C117.824 151.629 117.176 151.945 116.316 152.086V152.18C117.223 152.289 117.953 152.605 118.508 153.129C119.062 153.645 119.34 154.297 119.34 155.086C119.34 155.836 119.145 156.508 118.754 157.102C118.363 157.688 117.742 158.152 116.891 158.496C116.039 158.832 114.926 159 113.551 159H107.316V145.898H113.551C114.574 145.898 115.492 146.008 116.305 146.227C117.117 146.438 117.758 146.793 118.227 147.293C118.695 147.793 118.93 148.473 118.93 149.332ZM115.637 154.898C115.637 154.383 115.434 154.012 115.027 153.785C114.629 153.551 114.035 153.434 113.246 153.434H110.891V156.527H113.316C113.988 156.527 114.543 156.402 114.98 156.152C115.418 155.902 115.637 155.484 115.637 154.898ZM115.309 149.613C115.309 149.207 115.148 148.906 114.828 148.711C114.508 148.516 114.035 148.418 113.41 148.418H110.891V151.008H113C113.758 151.008 114.332 150.898 114.723 150.68C115.113 150.461 115.309 150.105 115.309 149.613ZM136.203 144.645C135.508 144.645 134.891 144.781 134.352 145.055C133.82 145.32 133.371 145.707 133.004 146.215C132.645 146.723 132.371 147.336 132.184 148.055C131.996 148.773 131.902 149.582 131.902 150.48C131.902 151.691 132.051 152.727 132.348 153.586C132.652 154.438 133.121 155.09 133.754 155.543C134.387 155.988 135.203 156.211 136.203 156.211C136.898 156.211 137.594 156.133 138.289 155.977C138.992 155.82 139.754 155.598 140.574 155.309V158.355C139.816 158.668 139.07 158.891 138.336 159.023C137.602 159.164 136.777 159.234 135.863 159.234C134.098 159.234 132.645 158.871 131.504 158.145C130.371 157.41 129.531 156.387 128.984 155.074C128.438 153.754 128.164 152.215 128.164 150.457C128.164 149.16 128.34 147.973 128.691 146.895C129.043 145.816 129.559 144.883 130.238 144.094C130.918 143.305 131.758 142.695 132.758 142.266C133.758 141.836 134.906 141.621 136.203 141.621C137.055 141.621 137.906 141.73 138.758 141.949C139.617 142.16 140.438 142.453 141.219 142.828L140.047 145.781C139.406 145.477 138.762 145.211 138.113 144.984C137.465 144.758 136.828 144.645 136.203 144.645ZM149.223 141.867C150.777 141.867 152.059 142.055 153.066 142.43C154.082 142.805 154.836 143.371 155.328 144.129C155.82 144.887 156.066 145.844 156.066 147C156.066 147.781 155.918 148.465 155.621 149.051C155.324 149.637 154.934 150.133 154.449 150.539C153.965 150.945 153.441 151.277 152.879 151.535L157.918 159H153.887L149.797 152.426H147.863V159H144.23V141.867H149.223ZM148.965 144.844H147.863V149.473H149.035C150.238 149.473 151.098 149.273 151.613 148.875C152.137 148.469 152.398 147.875 152.398 147.094C152.398 146.281 152.117 145.703 151.555 145.359C151 145.016 150.137 144.844 148.965 144.844ZM167.328 159L163.203 145.559H163.098C163.113 145.879 163.137 146.363 163.168 147.012C163.207 147.652 163.242 148.336 163.273 149.062C163.305 149.789 163.32 150.445 163.32 151.031V159H160.074V141.867H165.02L169.074 154.969H169.145L173.445 141.867H178.391V159H175.004V150.891C175.004 150.352 175.012 149.73 175.027 149.027C175.051 148.324 175.078 147.656 175.109 147.023C175.141 146.383 175.164 145.902 175.18 145.582H175.074L170.656 159H167.328Z" fill="#232323"/>
</svg>
