<svg width="287" height="390" viewBox="0 0 287 390" fill="none" xmlns="http://www.w3.org/2000/svg">
<path d="M276.86 10.0257L276.899 10.0696L276.943 10.1086C282.894 15.3794 286 24.3905 286 37.44V79.04C286 92.0767 282.899 101.474 276.9 107.452C271.614 112.719 262.55 115.48 249.423 115.48H163.832C154.582 115.48 147.329 118.321 142.227 124.115C137.13 129.208 134.65 136.421 134.65 145.6V161.2V162.2H135.65H249.423C262.523 162.2 271.569 165.296 276.86 171.226L276.899 171.27L276.943 171.309C282.894 176.579 286 185.59 286 198.64V352.56C286 365.597 282.899 374.994 276.9 380.972C271.614 386.239 262.55 389 249.423 389H38.5766C25.4969 389 16.0591 386.258 10.0575 380.97C4.75127 374.992 2 365.59 2 352.56V157.04C2 104.513 15.8708 65.6544 43.4295 40.2553L43.4303 40.2547C71.7402 14.1116 109.057 1 155.482 1H249.423C262.523 1 271.569 4.0955 276.86 10.0257Z" fill="#F5F6FF" stroke="#232323" stroke-width="2"/>
<path d="M52.9297 268.5H48.8047L42.5938 259.816V268.5H38.9609V251.367H42.5938V259.664L48.7344 251.367H52.6016L46.3555 259.594L52.9297 268.5ZM60.1719 255.129C61.9297 255.129 63.2773 255.512 64.2148 256.277C65.1523 257.043 65.6211 258.207 65.6211 259.77V268.5H63.125L62.4336 266.719H62.3398C61.9648 267.188 61.582 267.57 61.1914 267.867C60.8008 268.164 60.3516 268.383 59.8438 268.523C59.3359 268.664 58.7188 268.734 57.9922 268.734C57.2188 268.734 56.5234 268.586 55.9062 268.289C55.2969 267.992 54.8164 267.539 54.4648 266.93C54.1133 266.312 53.9375 265.531 53.9375 264.586C53.9375 263.195 54.4258 262.172 55.4023 261.516C56.3789 260.852 57.8438 260.484 59.7969 260.414L62.0703 260.344V259.77C62.0703 259.082 61.8906 258.578 61.5312 258.258C61.1719 257.938 60.6719 257.777 60.0312 257.777C59.3984 257.777 58.7773 257.867 58.168 258.047C57.5586 258.227 56.9492 258.453 56.3398 258.727L55.1562 256.312C55.8516 255.945 56.6289 255.656 57.4883 255.445C58.3555 255.234 59.25 255.129 60.1719 255.129ZM62.0703 262.43L60.6875 262.477C59.5312 262.508 58.7266 262.715 58.2734 263.098C57.8281 263.48 57.6055 263.984 57.6055 264.609C57.6055 265.156 57.7656 265.547 58.0859 265.781C58.4062 266.008 58.8242 266.121 59.3398 266.121C60.1055 266.121 60.75 265.895 61.2734 265.441C61.8047 264.988 62.0703 264.344 62.0703 263.508V262.43ZM77.9023 255.398H81.8398L76.6484 261.68L82.2969 268.5H78.2422L72.8867 261.855V268.5H69.3125V255.398H72.8867V261.762L77.9023 255.398ZM93.9805 255.398V260.438H98.9727V255.398H102.547V268.5H98.9727V263.098H93.9805V268.5H90.4062V255.398H93.9805ZM111.664 255.129C113.422 255.129 114.77 255.512 115.707 256.277C116.645 257.043 117.113 258.207 117.113 259.77V268.5H114.617L113.926 266.719H113.832C113.457 267.188 113.074 267.57 112.684 267.867C112.293 268.164 111.844 268.383 111.336 268.523C110.828 268.664 110.211 268.734 109.484 268.734C108.711 268.734 108.016 268.586 107.398 268.289C106.789 267.992 106.309 267.539 105.957 266.93C105.605 266.312 105.43 265.531 105.43 264.586C105.43 263.195 105.918 262.172 106.895 261.516C107.871 260.852 109.336 260.484 111.289 260.414L113.562 260.344V259.77C113.562 259.082 113.383 258.578 113.023 258.258C112.664 257.938 112.164 257.777 111.523 257.777C110.891 257.777 110.27 257.867 109.66 258.047C109.051 258.227 108.441 258.453 107.832 258.727L106.648 256.312C107.344 255.945 108.121 255.656 108.98 255.445C109.848 255.234 110.742 255.129 111.664 255.129ZM113.562 262.43L112.18 262.477C111.023 262.508 110.219 262.715 109.766 263.098C109.32 263.48 109.098 263.984 109.098 264.609C109.098 265.156 109.258 265.547 109.578 265.781C109.898 266.008 110.316 266.121 110.832 266.121C111.598 266.121 112.242 265.895 112.766 265.441C113.297 264.988 113.562 264.344 113.562 263.508V262.43ZM126.125 268.734C124.828 268.734 123.723 268.5 122.809 268.031C121.895 267.555 121.199 266.82 120.723 265.828C120.246 264.836 120.008 263.566 120.008 262.02C120.008 260.418 120.277 259.113 120.816 258.105C121.363 257.09 122.117 256.344 123.078 255.867C124.047 255.391 125.168 255.152 126.441 255.152C127.348 255.152 128.129 255.242 128.785 255.422C129.449 255.594 130.027 255.801 130.52 256.043L129.465 258.809C128.902 258.582 128.379 258.398 127.895 258.258C127.41 258.109 126.926 258.035 126.441 258.035C125.816 258.035 125.297 258.184 124.883 258.48C124.469 258.77 124.16 259.207 123.957 259.793C123.754 260.379 123.652 261.113 123.652 261.996C123.652 262.863 123.762 263.582 123.98 264.152C124.199 264.723 124.516 265.148 124.93 265.43C125.344 265.703 125.848 265.84 126.441 265.84C127.184 265.84 127.844 265.742 128.422 265.547C129 265.344 129.562 265.062 130.109 264.703V267.762C129.562 268.105 128.988 268.352 128.387 268.5C127.793 268.656 127.039 268.734 126.125 268.734ZM143.996 258.082H139.707V268.5H136.133V258.082H131.832V255.398H143.996V258.082ZM153.734 255.152C155.211 255.152 156.402 255.727 157.309 256.875C158.223 258.023 158.68 259.707 158.68 261.926C158.68 263.41 158.465 264.66 158.035 265.676C157.605 266.684 157.012 267.445 156.254 267.961C155.496 268.477 154.625 268.734 153.641 268.734C153.008 268.734 152.465 268.656 152.012 268.5C151.559 268.336 151.172 268.129 150.852 267.879C150.531 267.621 150.254 267.348 150.02 267.059H149.832C149.895 267.371 149.941 267.691 149.973 268.02C150.004 268.348 150.02 268.668 150.02 268.98V274.266H146.445V255.398H149.352L149.855 257.098H150.02C150.254 256.746 150.539 256.422 150.875 256.125C151.211 255.828 151.613 255.594 152.082 255.422C152.559 255.242 153.109 255.152 153.734 255.152ZM152.586 258.012C151.961 258.012 151.465 258.141 151.098 258.398C150.73 258.656 150.461 259.043 150.289 259.559C150.125 260.074 150.035 260.727 150.02 261.516V261.902C150.02 262.746 150.098 263.461 150.254 264.047C150.418 264.633 150.688 265.078 151.062 265.383C151.445 265.688 151.969 265.84 152.633 265.84C153.18 265.84 153.629 265.688 153.98 265.383C154.332 265.078 154.594 264.633 154.766 264.047C154.945 263.453 155.035 262.73 155.035 261.879C155.035 260.598 154.836 259.633 154.438 258.984C154.039 258.336 153.422 258.012 152.586 258.012ZM167 255.129C168.758 255.129 170.105 255.512 171.043 256.277C171.98 257.043 172.449 258.207 172.449 259.77V268.5H169.953L169.262 266.719H169.168C168.793 267.188 168.41 267.57 168.02 267.867C167.629 268.164 167.18 268.383 166.672 268.523C166.164 268.664 165.547 268.734 164.82 268.734C164.047 268.734 163.352 268.586 162.734 268.289C162.125 267.992 161.645 267.539 161.293 266.93C160.941 266.312 160.766 265.531 160.766 264.586C160.766 263.195 161.254 262.172 162.23 261.516C163.207 260.852 164.672 260.484 166.625 260.414L168.898 260.344V259.77C168.898 259.082 168.719 258.578 168.359 258.258C168 257.938 167.5 257.777 166.859 257.777C166.227 257.777 165.605 257.867 164.996 258.047C164.387 258.227 163.777 258.453 163.168 258.727L161.984 256.312C162.68 255.945 163.457 255.656 164.316 255.445C165.184 255.234 166.078 255.129 167 255.129ZM168.898 262.43L167.516 262.477C166.359 262.508 165.555 262.715 165.102 263.098C164.656 263.48 164.434 263.984 164.434 264.609C164.434 265.156 164.594 265.547 164.914 265.781C165.234 266.008 165.652 266.121 166.168 266.121C166.934 266.121 167.578 265.895 168.102 265.441C168.633 264.988 168.898 264.344 168.898 263.508V262.43ZM179.598 255.398V260.578C179.598 260.844 179.586 261.18 179.562 261.586C179.547 261.984 179.523 262.391 179.492 262.805C179.461 263.219 179.43 263.59 179.398 263.918C179.367 264.246 179.344 264.469 179.328 264.586L185.375 255.398H189.676V268.5H186.219V263.273C186.219 262.844 186.234 262.371 186.266 261.855C186.297 261.332 186.332 260.84 186.371 260.379C186.41 259.918 186.438 259.57 186.453 259.336L180.43 268.5H176.141V255.398H179.598ZM205.051 258.832C205.051 259.535 204.828 260.137 204.383 260.637C203.945 261.129 203.297 261.445 202.438 261.586V261.68C203.344 261.789 204.074 262.105 204.629 262.629C205.184 263.145 205.461 263.797 205.461 264.586C205.461 265.336 205.266 266.008 204.875 266.602C204.484 267.188 203.863 267.652 203.012 267.996C202.16 268.332 201.047 268.5 199.672 268.5H193.438V255.398H199.672C200.695 255.398 201.613 255.508 202.426 255.727C203.238 255.938 203.879 256.293 204.348 256.793C204.816 257.293 205.051 257.973 205.051 258.832ZM201.758 264.398C201.758 263.883 201.555 263.512 201.148 263.285C200.75 263.051 200.156 262.934 199.367 262.934H197.012V266.027H199.438C200.109 266.027 200.664 265.902 201.102 265.652C201.539 265.402 201.758 264.984 201.758 264.398ZM201.43 259.113C201.43 258.707 201.27 258.406 200.949 258.211C200.629 258.016 200.156 257.918 199.531 257.918H197.012V260.508H199.121C199.879 260.508 200.453 260.398 200.844 260.18C201.234 259.961 201.43 259.605 201.43 259.113ZM213.898 255.129C215.656 255.129 217.004 255.512 217.941 256.277C218.879 257.043 219.348 258.207 219.348 259.77V268.5H216.852L216.16 266.719H216.066C215.691 267.188 215.309 267.57 214.918 267.867C214.527 268.164 214.078 268.383 213.57 268.523C213.062 268.664 212.445 268.734 211.719 268.734C210.945 268.734 210.25 268.586 209.633 268.289C209.023 267.992 208.543 267.539 208.191 266.93C207.84 266.312 207.664 265.531 207.664 264.586C207.664 263.195 208.152 262.172 209.129 261.516C210.105 260.852 211.57 260.484 213.523 260.414L215.797 260.344V259.77C215.797 259.082 215.617 258.578 215.258 258.258C214.898 257.938 214.398 257.777 213.758 257.777C213.125 257.777 212.504 257.867 211.895 258.047C211.285 258.227 210.676 258.453 210.066 258.727L208.883 256.312C209.578 255.945 210.355 255.656 211.215 255.445C212.082 255.234 212.977 255.129 213.898 255.129ZM215.797 262.43L214.414 262.477C213.258 262.508 212.453 262.715 212 263.098C211.555 263.48 211.332 263.984 211.332 264.609C211.332 265.156 211.492 265.547 211.812 265.781C212.133 266.008 212.551 266.121 213.066 266.121C213.832 266.121 214.477 265.895 215 265.441C215.531 264.988 215.797 264.344 215.797 263.508V262.43ZM233.879 258.082H229.59V268.5H226.016V258.082H221.715V255.398H233.879V258.082ZM239.902 260.461H242.422C243.766 260.461 244.875 260.602 245.75 260.883C246.625 261.164 247.277 261.594 247.707 262.172C248.137 262.742 248.352 263.461 248.352 264.328C248.352 265.172 248.156 265.906 247.766 266.531C247.375 267.156 246.754 267.641 245.902 267.984C245.051 268.328 243.938 268.5 242.562 268.5H236.328V255.398H239.902V260.461ZM244.777 264.375C244.777 263.867 244.574 263.5 244.168 263.273C243.762 263.047 243.156 262.934 242.352 262.934H239.902V266.027H242.398C243.094 266.027 243.664 265.902 244.109 265.652C244.555 265.395 244.777 264.969 244.777 264.375ZM102.465 291.832C102.465 292.535 102.242 293.137 101.797 293.637C101.359 294.129 100.711 294.445 99.8516 294.586V294.68C100.758 294.789 101.488 295.105 102.043 295.629C102.598 296.145 102.875 296.797 102.875 297.586C102.875 298.336 102.68 299.008 102.289 299.602C101.898 300.188 101.277 300.652 100.426 300.996C99.5742 301.332 98.4609 301.5 97.0859 301.5H90.8516V288.398H97.0859C98.1094 288.398 99.0273 288.508 99.8398 288.727C100.652 288.938 101.293 289.293 101.762 289.793C102.23 290.293 102.465 290.973 102.465 291.832ZM99.1719 297.398C99.1719 296.883 98.9688 296.512 98.5625 296.285C98.1641 296.051 97.5703 295.934 96.7812 295.934H94.4258V299.027H96.8516C97.5234 299.027 98.0781 298.902 98.5156 298.652C98.9531 298.402 99.1719 297.984 99.1719 297.398ZM98.8438 292.113C98.8438 291.707 98.6836 291.406 98.3633 291.211C98.043 291.016 97.5703 290.918 96.9453 290.918H94.4258V293.508H96.5352C97.293 293.508 97.8672 293.398 98.2578 293.18C98.6484 292.961 98.8438 292.605 98.8438 292.113ZM117.852 294.926C117.852 296.02 117.703 296.988 117.406 297.832C117.117 298.676 116.691 299.391 116.129 299.977C115.574 300.555 114.902 300.992 114.113 301.289C113.332 301.586 112.449 301.734 111.465 301.734C110.543 301.734 109.695 301.586 108.922 301.289C108.156 300.992 107.488 300.555 106.918 299.977C106.355 299.391 105.918 298.676 105.605 297.832C105.301 296.988 105.148 296.02 105.148 294.926C105.148 293.473 105.406 292.242 105.922 291.234C106.438 290.227 107.172 289.461 108.125 288.938C109.078 288.414 110.215 288.152 111.535 288.152C112.762 288.152 113.848 288.414 114.793 288.938C115.746 289.461 116.492 290.227 117.031 291.234C117.578 292.242 117.852 293.473 117.852 294.926ZM108.793 294.926C108.793 295.785 108.887 296.508 109.074 297.094C109.262 297.68 109.555 298.121 109.953 298.418C110.352 298.715 110.871 298.863 111.512 298.863C112.145 298.863 112.656 298.715 113.047 298.418C113.445 298.121 113.734 297.68 113.914 297.094C114.102 296.508 114.195 295.785 114.195 294.926C114.195 294.059 114.102 293.34 113.914 292.77C113.734 292.191 113.445 291.758 113.047 291.469C112.648 291.18 112.129 291.035 111.488 291.035C110.543 291.035 109.855 291.359 109.426 292.008C109.004 292.656 108.793 293.629 108.793 294.926ZM128.094 288.152C129.57 288.152 130.762 288.727 131.668 289.875C132.582 291.023 133.039 292.707 133.039 294.926C133.039 296.41 132.824 297.66 132.395 298.676C131.965 299.684 131.371 300.445 130.613 300.961C129.855 301.477 128.984 301.734 128 301.734C127.367 301.734 126.824 301.656 126.371 301.5C125.918 301.336 125.531 301.129 125.211 300.879C124.891 300.621 124.613 300.348 124.379 300.059H124.191C124.254 300.371 124.301 300.691 124.332 301.02C124.363 301.348 124.379 301.668 124.379 301.98V307.266H120.805V288.398H123.711L124.215 290.098H124.379C124.613 289.746 124.898 289.422 125.234 289.125C125.57 288.828 125.973 288.594 126.441 288.422C126.918 288.242 127.469 288.152 128.094 288.152ZM126.945 291.012C126.32 291.012 125.824 291.141 125.457 291.398C125.09 291.656 124.82 292.043 124.648 292.559C124.484 293.074 124.395 293.727 124.379 294.516V294.902C124.379 295.746 124.457 296.461 124.613 297.047C124.777 297.633 125.047 298.078 125.422 298.383C125.805 298.688 126.328 298.84 126.992 298.84C127.539 298.84 127.988 298.688 128.34 298.383C128.691 298.078 128.953 297.633 129.125 297.047C129.305 296.453 129.395 295.73 129.395 294.879C129.395 293.598 129.195 292.633 128.797 291.984C128.398 291.336 127.781 291.012 126.945 291.012ZM147.898 294.926C147.898 296.02 147.75 296.988 147.453 297.832C147.164 298.676 146.738 299.391 146.176 299.977C145.621 300.555 144.949 300.992 144.16 301.289C143.379 301.586 142.496 301.734 141.512 301.734C140.59 301.734 139.742 301.586 138.969 301.289C138.203 300.992 137.535 300.555 136.965 299.977C136.402 299.391 135.965 298.676 135.652 297.832C135.348 296.988 135.195 296.02 135.195 294.926C135.195 293.473 135.453 292.242 135.969 291.234C136.484 290.227 137.219 289.461 138.172 288.938C139.125 288.414 140.262 288.152 141.582 288.152C142.809 288.152 143.895 288.414 144.84 288.938C145.793 289.461 146.539 290.227 147.078 291.234C147.625 292.242 147.898 293.473 147.898 294.926ZM138.84 294.926C138.84 295.785 138.934 296.508 139.121 297.094C139.309 297.68 139.602 298.121 140 298.418C140.398 298.715 140.918 298.863 141.559 298.863C142.191 298.863 142.703 298.715 143.094 298.418C143.492 298.121 143.781 297.68 143.961 297.094C144.148 296.508 144.242 295.785 144.242 294.926C144.242 294.059 144.148 293.34 143.961 292.77C143.781 292.191 143.492 291.758 143.094 291.469C142.695 291.18 142.176 291.035 141.535 291.035C140.59 291.035 139.902 291.359 139.473 292.008C139.051 292.656 138.84 293.629 138.84 294.926ZM154.426 288.398V293.438H159.418V288.398H162.992V301.5H159.418V296.098H154.426V301.5H150.852V288.398H154.426ZM175.332 288.398H179.27L174.078 294.68L179.727 301.5H175.672L170.316 294.855V301.5H166.742V288.398H170.316V294.762L175.332 288.398ZM185.059 288.398V293.578C185.059 293.844 185.047 294.18 185.023 294.586C185.008 294.984 184.984 295.391 184.953 295.805C184.922 296.219 184.891 296.59 184.859 296.918C184.828 297.246 184.805 297.469 184.789 297.586L190.836 288.398H195.137V301.5H191.68V296.273C191.68 295.844 191.695 295.371 191.727 294.855C191.758 294.332 191.793 293.84 191.832 293.379C191.871 292.918 191.898 292.57 191.914 292.336L185.891 301.5H181.602V288.398H185.059Z" fill="#232323"/>
</svg>
