<svg width="287" height="390" viewBox="0 0 287 390" fill="none" xmlns="http://www.w3.org/2000/svg">
<path d="M145.75 266.948L145.773 266.925L145.795 266.9C150.86 261.133 153.35 253.6 153.35 244.4V228.8V227.8H152.35H38.5767C25.4968 227.8 16.059 225.058 10.0574 219.77C4.75122 213.792 2 204.39 2 191.36V37.44C2 24.3629 4.77087 15.3345 10.0562 10.0684C16.0562 4.09014 25.4902 1 38.5767 1H249.423C262.523 1 271.569 4.0955 276.86 10.0257L276.899 10.0696L276.943 10.1086C282.894 15.3794 286 24.3905 286 37.44V232.96C286 285.478 271.786 324.688 243.526 350.785C215.917 376.231 178.951 389 132.518 389H38.5767C25.4969 389 16.0591 386.258 10.0576 380.97C4.75133 374.992 2 365.59 2 352.56V310.96C2 297.883 4.77096 288.854 10.0562 283.588C16.0563 277.61 25.4902 274.52 38.5767 274.52H124.168C133.392 274.52 140.638 272.042 145.75 266.948Z" fill="#F5F6FF" stroke="#232323" stroke-width="2"/>
<path d="M75.6055 109.5H71.4805L65.2695 100.816V109.5H61.6367V92.3672H65.2695V100.664L71.4102 92.3672H75.2773L69.0312 100.594L75.6055 109.5ZM82.8477 96.1289C84.6055 96.1289 85.9531 96.5117 86.8906 97.2773C87.8281 98.043 88.2969 99.207 88.2969 100.77V109.5H85.8008L85.1094 107.719H85.0156C84.6406 108.188 84.2578 108.57 83.8672 108.867C83.4766 109.164 83.0273 109.383 82.5195 109.523C82.0117 109.664 81.3945 109.734 80.668 109.734C79.8945 109.734 79.1992 109.586 78.582 109.289C77.9727 108.992 77.4922 108.539 77.1406 107.93C76.7891 107.312 76.6133 106.531 76.6133 105.586C76.6133 104.195 77.1016 103.172 78.0781 102.516C79.0547 101.852 80.5195 101.484 82.4727 101.414L84.7461 101.344V100.77C84.7461 100.082 84.5664 99.5781 84.207 99.2578C83.8477 98.9375 83.3477 98.7773 82.707 98.7773C82.0742 98.7773 81.4531 98.8672 80.8438 99.0469C80.2344 99.2266 79.625 99.4531 79.0156 99.7266L77.832 97.3125C78.5273 96.9453 79.3047 96.6562 80.1641 96.4453C81.0312 96.2344 81.9258 96.1289 82.8477 96.1289ZM84.7461 103.43L83.3633 103.477C82.207 103.508 81.4023 103.715 80.9492 104.098C80.5039 104.48 80.2812 104.984 80.2812 105.609C80.2812 106.156 80.4414 106.547 80.7617 106.781C81.082 107.008 81.5 107.121 82.0156 107.121C82.7812 107.121 83.4258 106.895 83.9492 106.441C84.4805 105.988 84.7461 105.344 84.7461 104.508V103.43ZM100.578 96.3984H104.516L99.3242 102.68L104.973 109.5H100.918L95.5625 102.855V109.5H91.9883V96.3984H95.5625V102.762L100.578 96.3984ZM120.371 96.1523C121.848 96.1523 123.039 96.7266 123.945 97.875C124.859 99.0234 125.316 100.707 125.316 102.926C125.316 104.41 125.102 105.66 124.672 106.676C124.242 107.684 123.648 108.445 122.891 108.961C122.133 109.477 121.262 109.734 120.277 109.734C119.645 109.734 119.102 109.656 118.648 109.5C118.195 109.336 117.809 109.129 117.488 108.879C117.168 108.621 116.891 108.348 116.656 108.059H116.469C116.531 108.371 116.578 108.691 116.609 109.02C116.641 109.348 116.656 109.668 116.656 109.98V115.266H113.082V96.3984H115.988L116.492 98.0977H116.656C116.891 97.7461 117.176 97.4219 117.512 97.125C117.848 96.8281 118.25 96.5938 118.719 96.4219C119.195 96.2422 119.746 96.1523 120.371 96.1523ZM119.223 99.0117C118.598 99.0117 118.102 99.1406 117.734 99.3984C117.367 99.6562 117.098 100.043 116.926 100.559C116.762 101.074 116.672 101.727 116.656 102.516V102.902C116.656 103.746 116.734 104.461 116.891 105.047C117.055 105.633 117.324 106.078 117.699 106.383C118.082 106.688 118.605 106.84 119.27 106.84C119.816 106.84 120.266 106.688 120.617 106.383C120.969 106.078 121.23 105.633 121.402 105.047C121.582 104.453 121.672 103.73 121.672 102.879C121.672 101.598 121.473 100.633 121.074 99.9844C120.676 99.3359 120.059 99.0117 119.223 99.0117ZM133.637 96.1289C135.395 96.1289 136.742 96.5117 137.68 97.2773C138.617 98.043 139.086 99.207 139.086 100.77V109.5H136.59L135.898 107.719H135.805C135.43 108.188 135.047 108.57 134.656 108.867C134.266 109.164 133.816 109.383 133.309 109.523C132.801 109.664 132.184 109.734 131.457 109.734C130.684 109.734 129.988 109.586 129.371 109.289C128.762 108.992 128.281 108.539 127.93 107.93C127.578 107.312 127.402 106.531 127.402 105.586C127.402 104.195 127.891 103.172 128.867 102.516C129.844 101.852 131.309 101.484 133.262 101.414L135.535 101.344V100.77C135.535 100.082 135.355 99.5781 134.996 99.2578C134.637 98.9375 134.137 98.7773 133.496 98.7773C132.863 98.7773 132.242 98.8672 131.633 99.0469C131.023 99.2266 130.414 99.4531 129.805 99.7266L128.621 97.3125C129.316 96.9453 130.094 96.6562 130.953 96.4453C131.82 96.2344 132.715 96.1289 133.637 96.1289ZM135.535 103.43L134.152 103.477C132.996 103.508 132.191 103.715 131.738 104.098C131.293 104.48 131.07 104.984 131.07 105.609C131.07 106.156 131.23 106.547 131.551 106.781C131.871 107.008 132.289 107.121 132.805 107.121C133.57 107.121 134.215 106.895 134.738 106.441C135.27 105.988 135.535 105.344 135.535 104.508V103.43ZM141.98 101.648C141.98 99.7188 142.219 98.0781 142.695 96.7266C143.172 95.375 143.93 94.2969 144.969 93.4922C146.008 92.6797 147.371 92.1289 149.059 91.8398C149.902 91.6914 150.758 91.5703 151.625 91.4766C152.5 91.375 153.406 91.2617 154.344 91.1367L154.754 94.2656C154.348 94.3125 153.906 94.3633 153.43 94.418C152.953 94.4727 152.473 94.5312 151.988 94.5938C151.504 94.6484 151.035 94.707 150.582 94.7695C150.129 94.8242 149.719 94.8789 149.352 94.9336C148.555 95.0586 147.891 95.2539 147.359 95.5195C146.828 95.7852 146.422 96.207 146.141 96.7852C145.859 97.3633 145.688 98.1953 145.625 99.2812H145.801C145.988 98.9844 146.254 98.6836 146.598 98.3789C146.941 98.0664 147.367 97.8086 147.875 97.6055C148.383 97.3945 148.969 97.2891 149.633 97.2891C150.68 97.2891 151.586 97.5039 152.352 97.9336C153.117 98.3633 153.707 99.0039 154.121 99.8555C154.543 100.699 154.754 101.754 154.754 103.02C154.754 104.504 154.48 105.746 153.934 106.746C153.395 107.738 152.645 108.484 151.684 108.984C150.723 109.484 149.609 109.734 148.344 109.734C147.375 109.734 146.5 109.559 145.719 109.207C144.938 108.855 144.266 108.336 143.703 107.648C143.148 106.961 142.723 106.117 142.426 105.117C142.129 104.109 141.98 102.953 141.98 101.648ZM148.555 106.84C149.062 106.84 149.504 106.73 149.879 106.512C150.262 106.285 150.559 105.918 150.77 105.41C150.988 104.895 151.098 104.203 151.098 103.336C151.098 102.289 150.922 101.461 150.57 100.852C150.227 100.234 149.637 99.9258 148.801 99.9258C148.293 99.9258 147.816 100.051 147.371 100.301C146.934 100.543 146.562 100.824 146.258 101.145C145.953 101.457 145.742 101.723 145.625 101.941C145.625 102.559 145.672 103.16 145.766 103.746C145.867 104.324 146.027 104.848 146.246 105.316C146.465 105.785 146.762 106.156 147.137 106.43C147.52 106.703 147.992 106.84 148.555 106.84ZM169.613 102.926C169.613 104.02 169.465 104.988 169.168 105.832C168.879 106.676 168.453 107.391 167.891 107.977C167.336 108.555 166.664 108.992 165.875 109.289C165.094 109.586 164.211 109.734 163.227 109.734C162.305 109.734 161.457 109.586 160.684 109.289C159.918 108.992 159.25 108.555 158.68 107.977C158.117 107.391 157.68 106.676 157.367 105.832C157.062 104.988 156.91 104.02 156.91 102.926C156.91 101.473 157.168 100.242 157.684 99.2344C158.199 98.2266 158.934 97.4609 159.887 96.9375C160.84 96.4141 161.977 96.1523 163.297 96.1523C164.523 96.1523 165.609 96.4141 166.555 96.9375C167.508 97.4609 168.254 98.2266 168.793 99.2344C169.34 100.242 169.613 101.473 169.613 102.926ZM160.555 102.926C160.555 103.785 160.648 104.508 160.836 105.094C161.023 105.68 161.316 106.121 161.715 106.418C162.113 106.715 162.633 106.863 163.273 106.863C163.906 106.863 164.418 106.715 164.809 106.418C165.207 106.121 165.496 105.68 165.676 105.094C165.863 104.508 165.957 103.785 165.957 102.926C165.957 102.059 165.863 101.34 165.676 100.77C165.496 100.191 165.207 99.7578 164.809 99.4688C164.41 99.1797 163.891 99.0352 163.25 99.0352C162.305 99.0352 161.617 99.3594 161.188 100.008C160.766 100.656 160.555 101.629 160.555 102.926ZM183.406 99.082H179.117V109.5H175.543V99.082H171.242V96.3984H183.406V99.082ZM191.223 96.1289C192.98 96.1289 194.328 96.5117 195.266 97.2773C196.203 98.043 196.672 99.207 196.672 100.77V109.5H194.176L193.484 107.719H193.391C193.016 108.188 192.633 108.57 192.242 108.867C191.852 109.164 191.402 109.383 190.895 109.523C190.387 109.664 189.77 109.734 189.043 109.734C188.27 109.734 187.574 109.586 186.957 109.289C186.348 108.992 185.867 108.539 185.516 107.93C185.164 107.312 184.988 106.531 184.988 105.586C184.988 104.195 185.477 103.172 186.453 102.516C187.43 101.852 188.895 101.484 190.848 101.414L193.121 101.344V100.77C193.121 100.082 192.941 99.5781 192.582 99.2578C192.223 98.9375 191.723 98.7773 191.082 98.7773C190.449 98.7773 189.828 98.8672 189.219 99.0469C188.609 99.2266 188 99.4531 187.391 99.7266L186.207 97.3125C186.902 96.9453 187.68 96.6562 188.539 96.4453C189.406 96.2344 190.301 96.1289 191.223 96.1289ZM193.121 103.43L191.738 103.477C190.582 103.508 189.777 103.715 189.324 104.098C188.879 104.48 188.656 104.984 188.656 105.609C188.656 106.156 188.816 106.547 189.137 106.781C189.457 107.008 189.875 107.121 190.391 107.121C191.156 107.121 191.801 106.895 192.324 106.441C192.855 105.988 193.121 105.344 193.121 104.508V103.43ZM211.203 99.082H206.914V109.5H203.34V99.082H199.039V96.3984H211.203V99.082ZM217.227 101.461H219.746C221.09 101.461 222.199 101.602 223.074 101.883C223.949 102.164 224.602 102.594 225.031 103.172C225.461 103.742 225.676 104.461 225.676 105.328C225.676 106.172 225.48 106.906 225.09 107.531C224.699 108.156 224.078 108.641 223.227 108.984C222.375 109.328 221.262 109.5 219.887 109.5H213.652V96.3984H217.227V101.461ZM222.102 105.375C222.102 104.867 221.898 104.5 221.492 104.273C221.086 104.047 220.48 103.934 219.676 103.934H217.227V107.027H219.723C220.418 107.027 220.988 106.902 221.434 106.652C221.879 106.395 222.102 105.969 222.102 105.375ZM118.93 132.832C118.93 133.535 118.707 134.137 118.262 134.637C117.824 135.129 117.176 135.445 116.316 135.586V135.68C117.223 135.789 117.953 136.105 118.508 136.629C119.062 137.145 119.34 137.797 119.34 138.586C119.34 139.336 119.145 140.008 118.754 140.602C118.363 141.188 117.742 141.652 116.891 141.996C116.039 142.332 114.926 142.5 113.551 142.5H107.316V129.398H113.551C114.574 129.398 115.492 129.508 116.305 129.727C117.117 129.938 117.758 130.293 118.227 130.793C118.695 131.293 118.93 131.973 118.93 132.832ZM115.637 138.398C115.637 137.883 115.434 137.512 115.027 137.285C114.629 137.051 114.035 136.934 113.246 136.934H110.891V140.027H113.316C113.988 140.027 114.543 139.902 114.98 139.652C115.418 139.402 115.637 138.984 115.637 138.398ZM115.309 133.113C115.309 132.707 115.148 132.406 114.828 132.211C114.508 132.016 114.035 131.918 113.41 131.918H110.891V134.508H113C113.758 134.508 114.332 134.398 114.723 134.18C115.113 133.961 115.309 133.605 115.309 133.113ZM136.203 128.145C135.508 128.145 134.891 128.281 134.352 128.555C133.82 128.82 133.371 129.207 133.004 129.715C132.645 130.223 132.371 130.836 132.184 131.555C131.996 132.273 131.902 133.082 131.902 133.98C131.902 135.191 132.051 136.227 132.348 137.086C132.652 137.938 133.121 138.59 133.754 139.043C134.387 139.488 135.203 139.711 136.203 139.711C136.898 139.711 137.594 139.633 138.289 139.477C138.992 139.32 139.754 139.098 140.574 138.809V141.855C139.816 142.168 139.07 142.391 138.336 142.523C137.602 142.664 136.777 142.734 135.863 142.734C134.098 142.734 132.645 142.371 131.504 141.645C130.371 140.91 129.531 139.887 128.984 138.574C128.438 137.254 128.164 135.715 128.164 133.957C128.164 132.66 128.34 131.473 128.691 130.395C129.043 129.316 129.559 128.383 130.238 127.594C130.918 126.805 131.758 126.195 132.758 125.766C133.758 125.336 134.906 125.121 136.203 125.121C137.055 125.121 137.906 125.23 138.758 125.449C139.617 125.66 140.438 125.953 141.219 126.328L140.047 129.281C139.406 128.977 138.762 128.711 138.113 128.484C137.465 128.258 136.828 128.145 136.203 128.145ZM149.223 125.367C150.777 125.367 152.059 125.555 153.066 125.93C154.082 126.305 154.836 126.871 155.328 127.629C155.82 128.387 156.066 129.344 156.066 130.5C156.066 131.281 155.918 131.965 155.621 132.551C155.324 133.137 154.934 133.633 154.449 134.039C153.965 134.445 153.441 134.777 152.879 135.035L157.918 142.5H153.887L149.797 135.926H147.863V142.5H144.23V125.367H149.223ZM148.965 128.344H147.863V132.973H149.035C150.238 132.973 151.098 132.773 151.613 132.375C152.137 131.969 152.398 131.375 152.398 130.594C152.398 129.781 152.117 129.203 151.555 128.859C151 128.516 150.137 128.344 148.965 128.344ZM167.328 142.5L163.203 129.059H163.098C163.113 129.379 163.137 129.863 163.168 130.512C163.207 131.152 163.242 131.836 163.273 132.562C163.305 133.289 163.32 133.945 163.32 134.531V142.5H160.074V125.367H165.02L169.074 138.469H169.145L173.445 125.367H178.391V142.5H175.004V134.391C175.004 133.852 175.012 133.23 175.027 132.527C175.051 131.824 175.078 131.156 175.109 130.523C175.141 129.883 175.164 129.402 175.18 129.082H175.074L170.656 142.5H167.328Z" fill="#232323"/>
</svg>
