<svg xmlns="http://www.w3.org/2000/svg" width="95" height="81" viewBox="0 0 95 81" fill="none">
  <path d="M94.0284 0C90.1935 7.35797 87.3408 14.3574 85.4701 20.9983C83.6306 27.608 82.7109 34.1085 82.7109 40.5C82.7109 46.7979 83.6306 53.2517 85.4701 59.8614C87.3408 66.44 90.1935 73.4861 94.0284 81H75.8829C69.9279 74.6397 65.4851 68.1391 62.5544 61.4983C59.6548 54.8574 58.2051 47.858 58.2051 40.5C58.2051 33.1109 59.6548 26.1114 62.5544 19.5017C65.4851 12.8609 69.9279 6.36028 75.8829 0H94.0284Z" fill="#FF7D04"/>
  <path d="M52.5819 16.4619V33.2979H0.203125V16.4619H52.5819ZM0.203125 40.7806H52.5819V57.6166H0.203125V40.7806Z" fill="#FF7D04"/>
</svg>