<svg width="286" height="390" viewBox="0 0 286 390" fill="none" xmlns="http://www.w3.org/2000/svg">
<path d="M144.75 266.948L144.773 266.925L144.795 266.9C149.86 261.133 152.35 253.6 152.35 244.4V228.8V227.8H151.35H37.5767C24.4968 227.8 15.059 225.058 9.05744 219.77C3.75122 213.792 1 204.39 1 191.36V37.44C1 24.3629 3.77087 15.3345 9.05617 10.0684C15.0562 4.09014 24.4902 1 37.5767 1H248.423C261.523 1 270.569 4.0955 275.86 10.0257L275.899 10.0696L275.943 10.1086C281.894 15.3794 285 24.3905 285 37.44V232.96C285 285.478 270.786 324.688 242.526 350.785C214.917 376.231 177.951 389 131.518 389H37.5767C24.4969 389 15.0591 386.258 9.05758 380.97C3.75133 374.992 1 365.59 1 352.56V310.96C1 297.883 3.77096 288.854 9.05624 283.588C15.0563 277.61 24.4902 274.52 37.5767 274.52H123.168C132.392 274.52 139.638 272.042 144.75 266.948Z" fill="#F5F6FF" stroke="#232323" stroke-width="2"/>
</svg>
