<svg width="287" height="390" viewBox="0 0 287 390" fill="none" xmlns="http://www.w3.org/2000/svg">
<path d="M276.86 10.0257L276.899 10.0696L276.943 10.1086C282.894 15.3794 286 24.3905 286 37.44V79.04C286 92.0767 282.899 101.474 276.9 107.452C271.614 112.719 262.55 115.48 249.423 115.48H163.832C154.582 115.48 147.329 118.321 142.227 124.115C137.13 129.208 134.65 136.421 134.65 145.6V161.2V162.2H135.65H249.423C262.523 162.2 271.569 165.296 276.86 171.226L276.899 171.27L276.943 171.309C282.894 176.579 286 185.59 286 198.64V352.56C286 365.597 282.899 374.994 276.9 380.972C271.614 386.239 262.55 389 249.423 389H38.5766C25.4969 389 16.0591 386.258 10.0575 380.97C4.75127 374.992 2 365.59 2 352.56V157.04C2 104.513 15.8708 65.6544 43.4295 40.2553L43.4303 40.2547C71.7402 14.1116 109.057 1 155.482 1H249.423C262.523 1 271.569 4.0955 276.86 10.0257Z" fill="#F5F6FF" stroke="#232323" stroke-width="2"/>
<path d="M50.7266 267.867C52.9375 267.867 54.5508 268.344 55.5664 269.297C56.582 270.242 57.0898 271.547 57.0898 273.211C57.0898 273.961 56.9766 274.68 56.75 275.367C56.5234 276.047 56.1523 276.652 55.6367 277.184C55.1289 277.715 54.4492 278.137 53.5977 278.449C52.7461 278.754 51.6953 278.906 50.4453 278.906H48.8867V285H45.2539V267.867H50.7266ZM50.5391 270.844H48.8867V275.93H50.082C50.7617 275.93 51.3516 275.84 51.8516 275.66C52.3516 275.48 52.7383 275.199 53.0117 274.816C53.2852 274.434 53.4219 273.941 53.4219 273.34C53.4219 272.496 53.1875 271.871 52.7188 271.465C52.25 271.051 51.5234 270.844 50.5391 270.844ZM65.4102 271.629C67.168 271.629 68.5156 272.012 69.4531 272.777C70.3906 273.543 70.8594 274.707 70.8594 276.27V285H68.3633L67.6719 283.219H67.5781C67.2031 283.688 66.8203 284.07 66.4297 284.367C66.0391 284.664 65.5898 284.883 65.082 285.023C64.5742 285.164 63.957 285.234 63.2305 285.234C62.457 285.234 61.7617 285.086 61.1445 284.789C60.5352 284.492 60.0547 284.039 59.7031 283.43C59.3516 282.812 59.1758 282.031 59.1758 281.086C59.1758 279.695 59.6641 278.672 60.6406 278.016C61.6172 277.352 63.082 276.984 65.0352 276.914L67.3086 276.844V276.27C67.3086 275.582 67.1289 275.078 66.7695 274.758C66.4102 274.438 65.9102 274.277 65.2695 274.277C64.6367 274.277 64.0156 274.367 63.4062 274.547C62.7969 274.727 62.1875 274.953 61.5781 275.227L60.3945 272.812C61.0898 272.445 61.8672 272.156 62.7266 271.945C63.5938 271.734 64.4883 271.629 65.4102 271.629ZM67.3086 278.93L65.9258 278.977C64.7695 279.008 63.9648 279.215 63.5117 279.598C63.0664 279.98 62.8438 280.484 62.8438 281.109C62.8438 281.656 63.0039 282.047 63.3242 282.281C63.6445 282.508 64.0625 282.621 64.5781 282.621C65.3438 282.621 65.9883 282.395 66.5117 281.941C67.043 281.488 67.3086 280.844 67.3086 280.008V278.93ZM79.3203 271.652C80.2656 271.652 81.1484 271.777 81.9688 272.027C82.7891 272.27 83.4531 272.648 83.9609 273.164C84.4688 273.672 84.7227 274.328 84.7227 275.133C84.7227 275.922 84.4844 276.551 84.0078 277.02C83.5312 277.48 82.8984 277.812 82.1094 278.016V278.133C82.6641 278.266 83.1641 278.445 83.6094 278.672C84.0625 278.898 84.4219 279.211 84.6875 279.609C84.9531 280.008 85.0859 280.531 85.0859 281.18C85.0859 281.906 84.8555 282.578 84.3945 283.195C83.9336 283.805 83.2266 284.297 82.2734 284.672C81.3281 285.047 80.1133 285.234 78.6289 285.234C77.9258 285.234 77.2617 285.203 76.6367 285.141C76.0195 285.078 75.4531 284.988 74.9375 284.871C74.4219 284.746 73.9727 284.598 73.5898 284.426V281.473C74.1289 281.723 74.793 281.953 75.582 282.164C76.3789 282.375 77.2266 282.48 78.125 282.48C78.7734 282.48 79.3594 282.434 79.8828 282.34C80.4141 282.246 80.832 282.09 81.1367 281.871C81.4492 281.645 81.6055 281.344 81.6055 280.969C81.6055 280.617 81.4688 280.328 81.1953 280.102C80.9297 279.867 80.5195 279.695 79.9648 279.586C79.418 279.469 78.7227 279.41 77.8789 279.41H76.4961V276.938H77.8086C78.9961 276.938 79.9141 276.84 80.5625 276.645C81.2109 276.449 81.5352 276.09 81.5352 275.566C81.5352 275.145 81.3281 274.828 80.9141 274.617C80.5 274.406 79.8164 274.301 78.8633 274.301C78.2461 274.301 77.5664 274.375 76.8242 274.523C76.082 274.664 75.3867 274.867 74.7383 275.133L73.6836 272.637C74.4414 272.348 75.2617 272.113 76.1445 271.934C77.0352 271.746 78.0938 271.652 79.3203 271.652ZM95.1758 271.652C96.6523 271.652 97.8438 272.227 98.75 273.375C99.6641 274.523 100.121 276.207 100.121 278.426C100.121 279.91 99.9062 281.16 99.4766 282.176C99.0469 283.184 98.4531 283.945 97.6953 284.461C96.9375 284.977 96.0664 285.234 95.082 285.234C94.4492 285.234 93.9062 285.156 93.4531 285C93 284.836 92.6133 284.629 92.293 284.379C91.9727 284.121 91.6953 283.848 91.4609 283.559H91.2734C91.3359 283.871 91.3828 284.191 91.4141 284.52C91.4453 284.848 91.4609 285.168 91.4609 285.48V290.766H87.8867V271.898H90.793L91.2969 273.598H91.4609C91.6953 273.246 91.9805 272.922 92.3164 272.625C92.6523 272.328 93.0547 272.094 93.5234 271.922C94 271.742 94.5508 271.652 95.1758 271.652ZM94.0273 274.512C93.4023 274.512 92.9062 274.641 92.5391 274.898C92.1719 275.156 91.9023 275.543 91.7305 276.059C91.5664 276.574 91.4766 277.227 91.4609 278.016V278.402C91.4609 279.246 91.5391 279.961 91.6953 280.547C91.8594 281.133 92.1289 281.578 92.5039 281.883C92.8867 282.188 93.4102 282.34 94.0742 282.34C94.6211 282.34 95.0703 282.188 95.4219 281.883C95.7734 281.578 96.0352 281.133 96.207 280.547C96.3867 279.953 96.4766 279.23 96.4766 278.379C96.4766 277.098 96.2773 276.133 95.8789 275.484C95.4805 274.836 94.8633 274.512 94.0273 274.512ZM108.441 271.629C110.199 271.629 111.547 272.012 112.484 272.777C113.422 273.543 113.891 274.707 113.891 276.27V285H111.395L110.703 283.219H110.609C110.234 283.688 109.852 284.07 109.461 284.367C109.07 284.664 108.621 284.883 108.113 285.023C107.605 285.164 106.988 285.234 106.262 285.234C105.488 285.234 104.793 285.086 104.176 284.789C103.566 284.492 103.086 284.039 102.734 283.43C102.383 282.812 102.207 282.031 102.207 281.086C102.207 279.695 102.695 278.672 103.672 278.016C104.648 277.352 106.113 276.984 108.066 276.914L110.34 276.844V276.27C110.34 275.582 110.16 275.078 109.801 274.758C109.441 274.438 108.941 274.277 108.301 274.277C107.668 274.277 107.047 274.367 106.438 274.547C105.828 274.727 105.219 274.953 104.609 275.227L103.426 272.812C104.121 272.445 104.898 272.156 105.758 271.945C106.625 271.734 107.52 271.629 108.441 271.629ZM110.34 278.93L108.957 278.977C107.801 279.008 106.996 279.215 106.543 279.598C106.098 279.98 105.875 280.484 105.875 281.109C105.875 281.656 106.035 282.047 106.355 282.281C106.676 282.508 107.094 282.621 107.609 282.621C108.375 282.621 109.02 282.395 109.543 281.941C110.074 281.488 110.34 280.844 110.34 280.008V278.93ZM116.785 277.148C116.785 275.219 117.023 273.578 117.5 272.227C117.977 270.875 118.734 269.797 119.773 268.992C120.812 268.18 122.176 267.629 123.863 267.34C124.707 267.191 125.562 267.07 126.43 266.977C127.305 266.875 128.211 266.762 129.148 266.637L129.559 269.766C129.152 269.812 128.711 269.863 128.234 269.918C127.758 269.973 127.277 270.031 126.793 270.094C126.309 270.148 125.84 270.207 125.387 270.27C124.934 270.324 124.523 270.379 124.156 270.434C123.359 270.559 122.695 270.754 122.164 271.02C121.633 271.285 121.227 271.707 120.945 272.285C120.664 272.863 120.492 273.695 120.43 274.781H120.605C120.793 274.484 121.059 274.184 121.402 273.879C121.746 273.566 122.172 273.309 122.68 273.105C123.188 272.895 123.773 272.789 124.438 272.789C125.484 272.789 126.391 273.004 127.156 273.434C127.922 273.863 128.512 274.504 128.926 275.355C129.348 276.199 129.559 277.254 129.559 278.52C129.559 280.004 129.285 281.246 128.738 282.246C128.199 283.238 127.449 283.984 126.488 284.484C125.527 284.984 124.414 285.234 123.148 285.234C122.18 285.234 121.305 285.059 120.523 284.707C119.742 284.355 119.07 283.836 118.508 283.148C117.953 282.461 117.527 281.617 117.23 280.617C116.934 279.609 116.785 278.453 116.785 277.148ZM123.359 282.34C123.867 282.34 124.309 282.23 124.684 282.012C125.066 281.785 125.363 281.418 125.574 280.91C125.793 280.395 125.902 279.703 125.902 278.836C125.902 277.789 125.727 276.961 125.375 276.352C125.031 275.734 124.441 275.426 123.605 275.426C123.098 275.426 122.621 275.551 122.176 275.801C121.738 276.043 121.367 276.324 121.062 276.645C120.758 276.957 120.547 277.223 120.43 277.441C120.43 278.059 120.477 278.66 120.57 279.246C120.672 279.824 120.832 280.348 121.051 280.816C121.27 281.285 121.566 281.656 121.941 281.93C122.324 282.203 122.797 282.34 123.359 282.34ZM137.879 271.629C139.637 271.629 140.984 272.012 141.922 272.777C142.859 273.543 143.328 274.707 143.328 276.27V285H140.832L140.141 283.219H140.047C139.672 283.688 139.289 284.07 138.898 284.367C138.508 284.664 138.059 284.883 137.551 285.023C137.043 285.164 136.426 285.234 135.699 285.234C134.926 285.234 134.23 285.086 133.613 284.789C133.004 284.492 132.523 284.039 132.172 283.43C131.82 282.812 131.645 282.031 131.645 281.086C131.645 279.695 132.133 278.672 133.109 278.016C134.086 277.352 135.551 276.984 137.504 276.914L139.777 276.844V276.27C139.777 275.582 139.598 275.078 139.238 274.758C138.879 274.438 138.379 274.277 137.738 274.277C137.105 274.277 136.484 274.367 135.875 274.547C135.266 274.727 134.656 274.953 134.047 275.227L132.863 272.812C133.559 272.445 134.336 272.156 135.195 271.945C136.062 271.734 136.957 271.629 137.879 271.629ZM139.777 278.93L138.395 278.977C137.238 279.008 136.434 279.215 135.98 279.598C135.535 279.98 135.312 280.484 135.312 281.109C135.312 281.656 135.473 282.047 135.793 282.281C136.113 282.508 136.531 282.621 137.047 282.621C137.812 282.621 138.457 282.395 138.98 281.941C139.512 281.488 139.777 280.844 139.777 280.008V278.93ZM157.859 274.582H153.57V285H149.996V274.582H145.695V271.898H157.859V274.582ZM160.309 285V271.898H163.883V276.961H165.605C166.941 276.961 168.043 277.102 168.91 277.383C169.785 277.664 170.434 278.094 170.855 278.672C171.277 279.242 171.488 279.961 171.488 280.828C171.488 281.672 171.293 282.406 170.902 283.031C170.512 283.656 169.895 284.141 169.051 284.484C168.207 284.828 167.102 285 165.734 285H160.309ZM163.883 282.527H165.535C166.23 282.527 166.801 282.402 167.246 282.152C167.691 281.895 167.914 281.469 167.914 280.875C167.914 280.367 167.711 280 167.305 279.773C166.898 279.547 166.293 279.434 165.488 279.434H163.883V282.527ZM173.387 285V271.898H176.961V285H173.387ZM192.336 275.332C192.336 276.035 192.113 276.637 191.668 277.137C191.23 277.629 190.582 277.945 189.723 278.086V278.18C190.629 278.289 191.359 278.605 191.914 279.129C192.469 279.645 192.746 280.297 192.746 281.086C192.746 281.836 192.551 282.508 192.16 283.102C191.77 283.688 191.148 284.152 190.297 284.496C189.445 284.832 188.332 285 186.957 285H180.723V271.898H186.957C187.98 271.898 188.898 272.008 189.711 272.227C190.523 272.438 191.164 272.793 191.633 273.293C192.102 273.793 192.336 274.473 192.336 275.332ZM189.043 280.898C189.043 280.383 188.84 280.012 188.434 279.785C188.035 279.551 187.441 279.434 186.652 279.434H184.297V282.527H186.723C187.395 282.527 187.949 282.402 188.387 282.152C188.824 281.902 189.043 281.484 189.043 280.898ZM188.715 275.613C188.715 275.207 188.555 274.906 188.234 274.711C187.914 274.516 187.441 274.418 186.816 274.418H184.297V277.008H186.406C187.164 277.008 187.738 276.898 188.129 276.68C188.52 276.461 188.715 276.105 188.715 275.613ZM201.184 271.629C202.941 271.629 204.289 272.012 205.227 272.777C206.164 273.543 206.633 274.707 206.633 276.27V285H204.137L203.445 283.219H203.352C202.977 283.688 202.594 284.07 202.203 284.367C201.812 284.664 201.363 284.883 200.855 285.023C200.348 285.164 199.73 285.234 199.004 285.234C198.23 285.234 197.535 285.086 196.918 284.789C196.309 284.492 195.828 284.039 195.477 283.43C195.125 282.812 194.949 282.031 194.949 281.086C194.949 279.695 195.438 278.672 196.414 278.016C197.391 277.352 198.855 276.984 200.809 276.914L203.082 276.844V276.27C203.082 275.582 202.902 275.078 202.543 274.758C202.184 274.438 201.684 274.277 201.043 274.277C200.41 274.277 199.789 274.367 199.18 274.547C198.57 274.727 197.961 274.953 197.352 275.227L196.168 272.812C196.863 272.445 197.641 272.156 198.5 271.945C199.367 271.734 200.262 271.629 201.184 271.629ZM203.082 278.93L201.699 278.977C200.543 279.008 199.738 279.215 199.285 279.598C198.84 279.98 198.617 280.484 198.617 281.109C198.617 281.656 198.777 282.047 199.098 282.281C199.418 282.508 199.836 282.621 200.352 282.621C201.117 282.621 201.762 282.395 202.285 281.941C202.816 281.488 203.082 280.844 203.082 280.008V278.93ZM215.727 271.652C216.938 271.652 217.98 271.887 218.855 272.355C219.73 272.816 220.406 273.488 220.883 274.371C221.359 275.254 221.598 276.332 221.598 277.605V279.34H213.148C213.188 280.348 213.488 281.141 214.051 281.719C214.621 282.289 215.41 282.574 216.418 282.574C217.254 282.574 218.02 282.488 218.715 282.316C219.41 282.145 220.125 281.887 220.859 281.543V284.309C220.211 284.629 219.531 284.863 218.82 285.012C218.117 285.16 217.262 285.234 216.254 285.234C214.941 285.234 213.777 284.992 212.762 284.508C211.754 284.023 210.961 283.285 210.383 282.293C209.812 281.301 209.527 280.051 209.527 278.543C209.527 277.012 209.785 275.738 210.301 274.723C210.824 273.699 211.551 272.934 212.48 272.426C213.41 271.91 214.492 271.652 215.727 271.652ZM215.75 274.195C215.055 274.195 214.477 274.418 214.016 274.863C213.562 275.309 213.301 276.008 213.23 276.961H218.246C218.238 276.43 218.141 275.957 217.953 275.543C217.773 275.129 217.5 274.801 217.133 274.559C216.773 274.316 216.312 274.195 215.75 274.195ZM241.016 271.898V285H237.676V278.566C237.676 277.934 237.688 277.312 237.711 276.703C237.734 276.094 237.77 275.531 237.816 275.016H237.746L234.125 285H231.441L227.762 274.992H227.668C227.73 275.516 227.773 276.078 227.797 276.68C227.82 277.281 227.832 277.941 227.832 278.66V285H224.504V271.898H229.566L232.824 280.781L236.141 271.898H241.016Z" fill="#232323"/>
</svg>
