<svg width="287" height="390" viewBox="0 0 287 390" fill="none" xmlns="http://www.w3.org/2000/svg">
<path d="M145.75 266.948L145.773 266.925L145.795 266.9C150.86 261.133 153.35 253.6 153.35 244.4V228.8V227.8H152.35H38.5767C25.4968 227.8 16.059 225.058 10.0574 219.77C4.75122 213.792 2 204.39 2 191.36V37.44C2 24.3629 4.77087 15.3345 10.0562 10.0684C16.0562 4.09014 25.4902 1 38.5767 1H249.423C262.523 1 271.569 4.0955 276.86 10.0257L276.899 10.0696L276.943 10.1086C282.894 15.3794 286 24.3905 286 37.44V232.96C286 285.478 271.786 324.688 243.526 350.785C215.917 376.231 178.951 389 132.518 389H38.5767C25.4969 389 16.0591 386.258 10.0576 380.97C4.75133 374.992 2 365.59 2 352.56V310.96C2 297.883 4.77096 288.854 10.0562 283.588C16.0563 277.61 25.4902 274.52 38.5767 274.52H124.168C133.392 274.52 140.638 272.042 145.75 266.948Z" fill="#F5F6FF" stroke="#232323" stroke-width="2"/>
<path d="M71.7969 109.5V92.3672H85.3555V109.5H81.7344V95.3906H75.4297V109.5H71.7969ZM101.305 102.926C101.305 104.02 101.156 104.988 100.859 105.832C100.57 106.676 100.145 107.391 99.582 107.977C99.0273 108.555 98.3555 108.992 97.5664 109.289C96.7852 109.586 95.9023 109.734 94.918 109.734C93.9961 109.734 93.1484 109.586 92.375 109.289C91.6094 108.992 90.9414 108.555 90.3711 107.977C89.8086 107.391 89.3711 106.676 89.0586 105.832C88.7539 104.988 88.6016 104.02 88.6016 102.926C88.6016 101.473 88.8594 100.242 89.375 99.2344C89.8906 98.2266 90.625 97.4609 91.5781 96.9375C92.5312 96.4141 93.668 96.1523 94.9883 96.1523C96.2148 96.1523 97.3008 96.4141 98.2461 96.9375C99.1992 97.4609 99.9453 98.2266 100.484 99.2344C101.031 100.242 101.305 101.473 101.305 102.926ZM92.2461 102.926C92.2461 103.785 92.3398 104.508 92.5273 105.094C92.7148 105.68 93.0078 106.121 93.4062 106.418C93.8047 106.715 94.3242 106.863 94.9648 106.863C95.5977 106.863 96.1094 106.715 96.5 106.418C96.8984 106.121 97.1875 105.68 97.3672 105.094C97.5547 104.508 97.6484 103.785 97.6484 102.926C97.6484 102.059 97.5547 101.34 97.3672 100.77C97.1875 100.191 96.8984 99.7578 96.5 99.4688C96.1016 99.1797 95.582 99.0352 94.9414 99.0352C93.9961 99.0352 93.3086 99.3594 92.8789 100.008C92.457 100.656 92.2461 101.629 92.2461 102.926ZM115.871 99.832C115.871 100.535 115.648 101.137 115.203 101.637C114.766 102.129 114.117 102.445 113.258 102.586V102.68C114.164 102.789 114.895 103.105 115.449 103.629C116.004 104.145 116.281 104.797 116.281 105.586C116.281 106.336 116.086 107.008 115.695 107.602C115.305 108.188 114.684 108.652 113.832 108.996C112.98 109.332 111.867 109.5 110.492 109.5H104.258V96.3984H110.492C111.516 96.3984 112.434 96.5078 113.246 96.7266C114.059 96.9375 114.699 97.293 115.168 97.793C115.637 98.293 115.871 98.9727 115.871 99.832ZM112.578 105.398C112.578 104.883 112.375 104.512 111.969 104.285C111.57 104.051 110.977 103.934 110.188 103.934H107.832V107.027H110.258C110.93 107.027 111.484 106.902 111.922 106.652C112.359 106.402 112.578 105.984 112.578 105.398ZM112.25 100.113C112.25 99.707 112.09 99.4062 111.77 99.2109C111.449 99.0156 110.977 98.918 110.352 98.918H107.832V101.508H109.941C110.699 101.508 111.273 101.398 111.664 101.18C112.055 100.961 112.25 100.605 112.25 100.113ZM119.352 109.5V96.3984H122.926V101.461H124.648C125.984 101.461 127.086 101.602 127.953 101.883C128.828 102.164 129.477 102.594 129.898 103.172C130.32 103.742 130.531 104.461 130.531 105.328C130.531 106.172 130.336 106.906 129.945 107.531C129.555 108.156 128.938 108.641 128.094 108.984C127.25 109.328 126.145 109.5 124.777 109.5H119.352ZM122.926 107.027H124.578C125.273 107.027 125.844 106.902 126.289 106.652C126.734 106.395 126.957 105.969 126.957 105.375C126.957 104.867 126.754 104.5 126.348 104.273C125.941 104.047 125.336 103.934 124.531 103.934H122.926V107.027ZM132.43 109.5V96.3984H136.004V109.5H132.43ZM159.277 96.3984V109.5H139.766V96.3984H143.34V106.816H147.734V96.3984H151.309V106.816H155.703V96.3984H159.277ZM168.406 96.1289C170.164 96.1289 171.512 96.5117 172.449 97.2773C173.387 98.043 173.855 99.207 173.855 100.77V109.5H171.359L170.668 107.719H170.574C170.199 108.188 169.816 108.57 169.426 108.867C169.035 109.164 168.586 109.383 168.078 109.523C167.57 109.664 166.953 109.734 166.227 109.734C165.453 109.734 164.758 109.586 164.141 109.289C163.531 108.992 163.051 108.539 162.699 107.93C162.348 107.312 162.172 106.531 162.172 105.586C162.172 104.195 162.66 103.172 163.637 102.516C164.613 101.852 166.078 101.484 168.031 101.414L170.305 101.344V100.77C170.305 100.082 170.125 99.5781 169.766 99.2578C169.406 98.9375 168.906 98.7773 168.266 98.7773C167.633 98.7773 167.012 98.8672 166.402 99.0469C165.793 99.2266 165.184 99.4531 164.574 99.7266L163.391 97.3125C164.086 96.9453 164.863 96.6562 165.723 96.4453C166.59 96.2344 167.484 96.1289 168.406 96.1289ZM170.305 103.43L168.922 103.477C167.766 103.508 166.961 103.715 166.508 104.098C166.062 104.48 165.84 104.984 165.84 105.609C165.84 106.156 166 106.547 166.32 106.781C166.641 107.008 167.059 107.121 167.574 107.121C168.34 107.121 168.984 106.895 169.508 106.441C170.039 105.988 170.305 105.344 170.305 104.508V103.43ZM182.949 96.1523C184.16 96.1523 185.203 96.3867 186.078 96.8555C186.953 97.3164 187.629 97.9883 188.105 98.8711C188.582 99.7539 188.82 100.832 188.82 102.105V103.84H180.371C180.41 104.848 180.711 105.641 181.273 106.219C181.844 106.789 182.633 107.074 183.641 107.074C184.477 107.074 185.242 106.988 185.938 106.816C186.633 106.645 187.348 106.387 188.082 106.043V108.809C187.434 109.129 186.754 109.363 186.043 109.512C185.34 109.66 184.484 109.734 183.477 109.734C182.164 109.734 181 109.492 179.984 109.008C178.977 108.523 178.184 107.785 177.605 106.793C177.035 105.801 176.75 104.551 176.75 103.043C176.75 101.512 177.008 100.238 177.523 99.2227C178.047 98.1992 178.773 97.4336 179.703 96.9258C180.633 96.4102 181.715 96.1523 182.949 96.1523ZM182.973 98.6953C182.277 98.6953 181.699 98.918 181.238 99.3633C180.785 99.8086 180.523 100.508 180.453 101.461H185.469C185.461 100.93 185.363 100.457 185.176 100.043C184.996 99.6289 184.723 99.3008 184.355 99.0586C183.996 98.8164 183.535 98.6953 182.973 98.6953ZM208.238 96.3984V109.5H204.898V103.066C204.898 102.434 204.91 101.812 204.934 101.203C204.957 100.594 204.992 100.031 205.039 99.5156H204.969L201.348 109.5H198.664L194.984 99.4922H194.891C194.953 100.016 194.996 100.578 195.02 101.18C195.043 101.781 195.055 102.441 195.055 103.16V109.5H191.727V96.3984H196.789L200.047 105.281L203.363 96.3984H208.238ZM49.2734 142.734C48.4453 142.734 47.707 142.672 47.0586 142.547C46.4102 142.422 45.8047 142.215 45.2422 141.926V139.137C45.8203 139.402 46.4297 139.625 47.0703 139.805C47.7188 139.984 48.3867 140.074 49.0742 140.074C49.6211 140.074 50.0938 139.973 50.4922 139.77C50.8984 139.566 51.2188 139.246 51.4531 138.809C51.6953 138.363 51.8398 137.785 51.8867 137.074H46.9414V134.695H51.8867C51.832 133.727 51.5938 133.004 51.1719 132.527C50.7578 132.043 50.1562 131.801 49.3672 131.801C48.8047 131.801 48.2656 131.875 47.75 132.023C47.2344 132.172 46.7578 132.344 46.3203 132.539L45.3125 130.09C45.8203 129.863 46.4375 129.652 47.1641 129.457C47.8906 129.254 48.6719 129.152 49.5078 129.152C50.6562 129.152 51.6875 129.352 52.6016 129.75C53.5156 130.148 54.2383 130.832 54.7695 131.801C55.3086 132.762 55.5781 134.098 55.5781 135.809C55.5781 137.379 55.332 138.676 54.8398 139.699C54.3477 140.723 53.6289 141.484 52.6836 141.984C51.7461 142.484 50.6094 142.734 49.2734 142.734ZM68.1289 124.266V129.328C69.6445 129.453 70.9219 129.809 71.9609 130.395C73 130.973 73.7891 131.738 74.3281 132.691C74.8672 133.637 75.1367 134.723 75.1367 135.949C75.1367 137.168 74.875 138.254 74.3516 139.207C73.8359 140.16 73.0586 140.93 72.0195 141.516C70.9883 142.102 69.6914 142.461 68.1289 142.594V148.266H64.8125V142.594C63.3047 142.453 62.0273 142.09 60.9805 141.504C59.9336 140.91 59.1328 140.141 58.5781 139.195C58.0312 138.242 57.7578 137.16 57.7578 135.949C57.7578 134.699 58.0117 133.598 58.5195 132.645C59.0273 131.684 59.8008 130.918 60.8398 130.348C61.8867 129.77 63.2109 129.43 64.8125 129.328V124.266H68.1289ZM64.8125 132.012C64.1172 132.105 63.5156 132.332 63.0078 132.691C62.5078 133.051 62.1211 133.512 61.8477 134.074C61.5742 134.629 61.4375 135.254 61.4375 135.949C61.4375 136.66 61.5664 137.297 61.8242 137.859C62.0898 138.414 62.4727 138.867 62.9727 139.219C63.4805 139.57 64.0938 139.793 64.8125 139.887V132.012ZM68.1289 132.059V139.887C68.8398 139.793 69.4414 139.57 69.9336 139.219C70.4336 138.867 70.8125 138.414 71.0703 137.859C71.3359 137.297 71.4688 136.66 71.4688 135.949C71.4688 134.902 71.168 134.027 70.5664 133.324C69.9727 132.613 69.1602 132.191 68.1289 132.059ZM87.6758 124.266V129.328C89.1914 129.453 90.4688 129.809 91.5078 130.395C92.5469 130.973 93.3359 131.738 93.875 132.691C94.4141 133.637 94.6836 134.723 94.6836 135.949C94.6836 137.168 94.4219 138.254 93.8984 139.207C93.3828 140.16 92.6055 140.93 91.5664 141.516C90.5352 142.102 89.2383 142.461 87.6758 142.594V148.266H84.3594V142.594C82.8516 142.453 81.5742 142.09 80.5273 141.504C79.4805 140.91 78.6797 140.141 78.125 139.195C77.5781 138.242 77.3047 137.16 77.3047 135.949C77.3047 134.699 77.5586 133.598 78.0664 132.645C78.5742 131.684 79.3477 130.918 80.3867 130.348C81.4336 129.77 82.7578 129.43 84.3594 129.328V124.266H87.6758ZM84.3594 132.012C83.6641 132.105 83.0625 132.332 82.5547 132.691C82.0547 133.051 81.668 133.512 81.3945 134.074C81.1211 134.629 80.9844 135.254 80.9844 135.949C80.9844 136.66 81.1133 137.297 81.3711 137.859C81.6367 138.414 82.0195 138.867 82.5195 139.219C83.0273 139.57 83.6406 139.793 84.3594 139.887V132.012ZM87.6758 132.059V139.887C88.3867 139.793 88.9883 139.57 89.4805 139.219C89.9805 138.867 90.3594 138.414 90.6172 137.859C90.8828 137.297 91.0156 136.66 91.0156 135.949C91.0156 134.902 90.7148 134.027 90.1133 133.324C89.5195 132.613 88.707 132.191 87.6758 132.059ZM103.051 129.152C104.262 129.152 105.305 129.387 106.18 129.855C107.055 130.316 107.73 130.988 108.207 131.871C108.684 132.754 108.922 133.832 108.922 135.105V136.84H100.473C100.512 137.848 100.812 138.641 101.375 139.219C101.945 139.789 102.734 140.074 103.742 140.074C104.578 140.074 105.344 139.988 106.039 139.816C106.734 139.645 107.449 139.387 108.184 139.043V141.809C107.535 142.129 106.855 142.363 106.145 142.512C105.441 142.66 104.586 142.734 103.578 142.734C102.266 142.734 101.102 142.492 100.086 142.008C99.0781 141.523 98.2852 140.785 97.707 139.793C97.1367 138.801 96.8516 137.551 96.8516 136.043C96.8516 134.512 97.1094 133.238 97.625 132.223C98.1484 131.199 98.875 130.434 99.8047 129.926C100.734 129.41 101.816 129.152 103.051 129.152ZM103.074 131.695C102.379 131.695 101.801 131.918 101.34 132.363C100.887 132.809 100.625 133.508 100.555 134.461H105.57C105.562 133.93 105.465 133.457 105.277 133.043C105.098 132.629 104.824 132.301 104.457 132.059C104.098 131.816 103.637 131.695 103.074 131.695ZM120.418 129.398H124.355L119.164 135.68L124.812 142.5H120.758L115.402 135.855V142.5H111.828V129.398H115.402V135.762L120.418 129.398ZM137.527 132.082H133.238V142.5H129.664V132.082H125.363V129.398H137.527V132.082ZM143.434 129.398V134.578C143.434 134.844 143.422 135.18 143.398 135.586C143.383 135.984 143.359 136.391 143.328 136.805C143.297 137.219 143.266 137.59 143.234 137.918C143.203 138.246 143.18 138.469 143.164 138.586L149.211 129.398H153.512V142.5H150.055V137.273C150.055 136.844 150.07 136.371 150.102 135.855C150.133 135.332 150.168 134.84 150.207 134.379C150.246 133.918 150.273 133.57 150.289 133.336L144.266 142.5H139.977V129.398H143.434ZM168.887 132.832C168.887 133.535 168.664 134.137 168.219 134.637C167.781 135.129 167.133 135.445 166.273 135.586V135.68C167.18 135.789 167.91 136.105 168.465 136.629C169.02 137.145 169.297 137.797 169.297 138.586C169.297 139.336 169.102 140.008 168.711 140.602C168.32 141.188 167.699 141.652 166.848 141.996C165.996 142.332 164.883 142.5 163.508 142.5H157.273V129.398H163.508C164.531 129.398 165.449 129.508 166.262 129.727C167.074 129.938 167.715 130.293 168.184 130.793C168.652 131.293 168.887 131.973 168.887 132.832ZM165.594 138.398C165.594 137.883 165.391 137.512 164.984 137.285C164.586 137.051 163.992 136.934 163.203 136.934H160.848V140.027H163.273C163.945 140.027 164.5 139.902 164.938 139.652C165.375 139.402 165.594 138.984 165.594 138.398ZM165.266 133.113C165.266 132.707 165.105 132.406 164.785 132.211C164.465 132.016 163.992 131.918 163.367 131.918H160.848V134.508H162.957C163.715 134.508 164.289 134.398 164.68 134.18C165.07 133.961 165.266 133.605 165.266 133.113ZM175.941 129.398V134.438H180.934V129.398H184.508V142.5H180.934V137.098H175.941V142.5H172.367V129.398H175.941ZM200.164 135.926C200.164 137.02 200.016 137.988 199.719 138.832C199.43 139.676 199.004 140.391 198.441 140.977C197.887 141.555 197.215 141.992 196.426 142.289C195.645 142.586 194.762 142.734 193.777 142.734C192.855 142.734 192.008 142.586 191.234 142.289C190.469 141.992 189.801 141.555 189.23 140.977C188.668 140.391 188.23 139.676 187.918 138.832C187.613 137.988 187.461 137.02 187.461 135.926C187.461 134.473 187.719 133.242 188.234 132.234C188.75 131.227 189.484 130.461 190.438 129.938C191.391 129.414 192.527 129.152 193.848 129.152C195.074 129.152 196.16 129.414 197.105 129.938C198.059 130.461 198.805 131.227 199.344 132.234C199.891 133.242 200.164 134.473 200.164 135.926ZM191.105 135.926C191.105 136.785 191.199 137.508 191.387 138.094C191.574 138.68 191.867 139.121 192.266 139.418C192.664 139.715 193.184 139.863 193.824 139.863C194.457 139.863 194.969 139.715 195.359 139.418C195.758 139.121 196.047 138.68 196.227 138.094C196.414 137.508 196.508 136.785 196.508 135.926C196.508 135.059 196.414 134.34 196.227 133.77C196.047 133.191 195.758 132.758 195.359 132.469C194.961 132.18 194.441 132.035 193.801 132.035C192.855 132.035 192.168 132.359 191.738 133.008C191.316 133.656 191.105 134.629 191.105 135.926ZM208.438 142.734C207.141 142.734 206.035 142.5 205.121 142.031C204.207 141.555 203.512 140.82 203.035 139.828C202.559 138.836 202.32 137.566 202.32 136.02C202.32 134.418 202.59 133.113 203.129 132.105C203.676 131.09 204.43 130.344 205.391 129.867C206.359 129.391 207.48 129.152 208.754 129.152C209.66 129.152 210.441 129.242 211.098 129.422C211.762 129.594 212.34 129.801 212.832 130.043L211.777 132.809C211.215 132.582 210.691 132.398 210.207 132.258C209.723 132.109 209.238 132.035 208.754 132.035C208.129 132.035 207.609 132.184 207.195 132.48C206.781 132.77 206.473 133.207 206.27 133.793C206.066 134.379 205.965 135.113 205.965 135.996C205.965 136.863 206.074 137.582 206.293 138.152C206.512 138.723 206.828 139.148 207.242 139.43C207.656 139.703 208.16 139.84 208.754 139.84C209.496 139.84 210.156 139.742 210.734 139.547C211.312 139.344 211.875 139.062 212.422 138.703V141.762C211.875 142.105 211.301 142.352 210.699 142.5C210.105 142.656 209.352 142.734 208.438 142.734ZM226.309 132.082H222.02V142.5H218.445V132.082H214.145V129.398H226.309V132.082ZM232.332 134.461H234.852C236.195 134.461 237.305 134.602 238.18 134.883C239.055 135.164 239.707 135.594 240.137 136.172C240.566 136.742 240.781 137.461 240.781 138.328C240.781 139.172 240.586 139.906 240.195 140.531C239.805 141.156 239.184 141.641 238.332 141.984C237.48 142.328 236.367 142.5 234.992 142.5H228.758V129.398H232.332V134.461ZM237.207 138.375C237.207 137.867 237.004 137.5 236.598 137.273C236.191 137.047 235.586 136.934 234.781 136.934H232.332V140.027H234.828C235.523 140.027 236.094 139.902 236.539 139.652C236.984 139.395 237.207 138.969 237.207 138.375Z" fill="#232323"/>
</svg>
