<svg width="287" height="390" viewBox="0 0 287 390" fill="none" xmlns="http://www.w3.org/2000/svg">
<path d="M276.86 10.0257L276.899 10.0696L276.943 10.1086C282.894 15.3794 286 24.3905 286 37.44V79.04C286 92.0767 282.899 101.474 276.9 107.452C271.614 112.719 262.55 115.48 249.423 115.48H163.832C154.582 115.48 147.329 118.321 142.227 124.115C137.13 129.208 134.65 136.421 134.65 145.6V161.2V162.2H135.65H249.423C262.523 162.2 271.569 165.296 276.86 171.226L276.899 171.27L276.943 171.309C282.894 176.579 286 185.59 286 198.64V352.56C286 365.597 282.899 374.994 276.9 380.972C271.614 386.239 262.55 389 249.423 389H38.5766C25.4969 389 16.0591 386.258 10.0575 380.97C4.75127 374.992 2 365.59 2 352.56V157.04C2 104.513 15.8708 65.6544 43.4295 40.2553L43.4303 40.2547C71.7402 14.1116 109.057 1 155.482 1H249.423C262.523 1 271.569 4.0955 276.86 10.0257Z" fill="#F5F6FF" stroke="#232323" stroke-width="2"/>
<path d="M66.8047 285V267.867H80.3633V285H76.7422V270.891H70.4375V285H66.8047ZM91.6953 271.652C93.1719 271.652 94.3633 272.227 95.2695 273.375C96.1836 274.523 96.6406 276.207 96.6406 278.426C96.6406 279.91 96.4258 281.16 95.9961 282.176C95.5664 283.184 94.9727 283.945 94.2148 284.461C93.457 284.977 92.5859 285.234 91.6016 285.234C90.9688 285.234 90.4258 285.156 89.9727 285C89.5195 284.836 89.1328 284.629 88.8125 284.379C88.4922 284.121 88.2148 283.848 87.9805 283.559H87.793C87.8555 283.871 87.9023 284.191 87.9336 284.52C87.9648 284.848 87.9805 285.168 87.9805 285.48V290.766H84.4062V271.898H87.3125L87.8164 273.598H87.9805C88.2148 273.246 88.5 272.922 88.8359 272.625C89.1719 272.328 89.5742 272.094 90.043 271.922C90.5195 271.742 91.0703 271.652 91.6953 271.652ZM90.5469 274.512C89.9219 274.512 89.4258 274.641 89.0586 274.898C88.6914 275.156 88.4219 275.543 88.25 276.059C88.0859 276.574 87.9961 277.227 87.9805 278.016V278.402C87.9805 279.246 88.0586 279.961 88.2148 280.547C88.3789 281.133 88.6484 281.578 89.0234 281.883C89.4062 282.188 89.9297 282.34 90.5938 282.34C91.1406 282.34 91.5898 282.188 91.9414 281.883C92.293 281.578 92.5547 281.133 92.7266 280.547C92.9062 279.953 92.9961 279.23 92.9961 278.379C92.9961 277.098 92.7969 276.133 92.3984 275.484C92 274.836 91.3828 274.512 90.5469 274.512ZM111.5 278.426C111.5 279.52 111.352 280.488 111.055 281.332C110.766 282.176 110.34 282.891 109.777 283.477C109.223 284.055 108.551 284.492 107.762 284.789C106.98 285.086 106.098 285.234 105.113 285.234C104.191 285.234 103.344 285.086 102.57 284.789C101.805 284.492 101.137 284.055 100.566 283.477C100.004 282.891 99.5664 282.176 99.2539 281.332C98.9492 280.488 98.7969 279.52 98.7969 278.426C98.7969 276.973 99.0547 275.742 99.5703 274.734C100.086 273.727 100.82 272.961 101.773 272.438C102.727 271.914 103.863 271.652 105.184 271.652C106.41 271.652 107.496 271.914 108.441 272.438C109.395 272.961 110.141 273.727 110.68 274.734C111.227 275.742 111.5 276.973 111.5 278.426ZM102.441 278.426C102.441 279.285 102.535 280.008 102.723 280.594C102.91 281.18 103.203 281.621 103.602 281.918C104 282.215 104.52 282.363 105.16 282.363C105.793 282.363 106.305 282.215 106.695 281.918C107.094 281.621 107.383 281.18 107.562 280.594C107.75 280.008 107.844 279.285 107.844 278.426C107.844 277.559 107.75 276.84 107.562 276.27C107.383 275.691 107.094 275.258 106.695 274.969C106.297 274.68 105.777 274.535 105.137 274.535C104.191 274.535 103.504 274.859 103.074 275.508C102.652 276.156 102.441 277.129 102.441 278.426ZM126.23 271.898V282.387H128.152V289.699H124.941V285H116.129V289.699H112.918V282.387H114.02C114.598 281.504 115.082 280.496 115.473 279.363C115.871 278.23 116.191 277.031 116.434 275.766C116.684 274.492 116.863 273.203 116.973 271.898H126.23ZM122.656 274.582H119.973C119.848 275.551 119.688 276.488 119.492 277.395C119.305 278.293 119.07 279.16 118.789 279.996C118.508 280.824 118.164 281.621 117.758 282.387H122.656V274.582ZM142.004 275.332C142.004 276.035 141.781 276.637 141.336 277.137C140.898 277.629 140.25 277.945 139.391 278.086V278.18C140.297 278.289 141.027 278.605 141.582 279.129C142.137 279.645 142.414 280.297 142.414 281.086C142.414 281.836 142.219 282.508 141.828 283.102C141.438 283.688 140.816 284.152 139.965 284.496C139.113 284.832 138 285 136.625 285H130.391V271.898H136.625C137.648 271.898 138.566 272.008 139.379 272.227C140.191 272.438 140.832 272.793 141.301 273.293C141.77 273.793 142.004 274.473 142.004 275.332ZM138.711 280.898C138.711 280.383 138.508 280.012 138.102 279.785C137.703 279.551 137.109 279.434 136.32 279.434H133.965V282.527H136.391C137.062 282.527 137.617 282.402 138.055 282.152C138.492 281.902 138.711 281.484 138.711 280.898ZM138.383 275.613C138.383 275.207 138.223 274.906 137.902 274.711C137.582 274.516 137.109 274.418 136.484 274.418H133.965V277.008H136.074C136.832 277.008 137.406 276.898 137.797 276.68C138.188 276.461 138.383 276.105 138.383 275.613ZM148.941 271.898V277.078C148.941 277.344 148.93 277.68 148.906 278.086C148.891 278.484 148.867 278.891 148.836 279.305C148.805 279.719 148.773 280.09 148.742 280.418C148.711 280.746 148.688 280.969 148.672 281.086L154.719 271.898H159.02V285H155.562V279.773C155.562 279.344 155.578 278.871 155.609 278.355C155.641 277.832 155.676 277.34 155.715 276.879C155.754 276.418 155.781 276.07 155.797 275.836L149.773 285H145.484V271.898H148.941ZM171.828 271.898V274.582H166.355V285H162.781V271.898H171.828ZM179.633 271.629C181.391 271.629 182.738 272.012 183.676 272.777C184.613 273.543 185.082 274.707 185.082 276.27V285H182.586L181.895 283.219H181.801C181.426 283.688 181.043 284.07 180.652 284.367C180.262 284.664 179.812 284.883 179.305 285.023C178.797 285.164 178.18 285.234 177.453 285.234C176.68 285.234 175.984 285.086 175.367 284.789C174.758 284.492 174.277 284.039 173.926 283.43C173.574 282.812 173.398 282.031 173.398 281.086C173.398 279.695 173.887 278.672 174.863 278.016C175.84 277.352 177.305 276.984 179.258 276.914L181.531 276.844V276.27C181.531 275.582 181.352 275.078 180.992 274.758C180.633 274.438 180.133 274.277 179.492 274.277C178.859 274.277 178.238 274.367 177.629 274.547C177.02 274.727 176.41 274.953 175.801 275.227L174.617 272.812C175.312 272.445 176.09 272.156 176.949 271.945C177.816 271.734 178.711 271.629 179.633 271.629ZM181.531 278.93L180.148 278.977C178.992 279.008 178.188 279.215 177.734 279.598C177.289 279.98 177.066 280.484 177.066 281.109C177.066 281.656 177.227 282.047 177.547 282.281C177.867 282.508 178.285 282.621 178.801 282.621C179.566 282.621 180.211 282.395 180.734 281.941C181.266 281.488 181.531 280.844 181.531 280.008V278.93ZM194.176 271.652C195.387 271.652 196.43 271.887 197.305 272.355C198.18 272.816 198.855 273.488 199.332 274.371C199.809 275.254 200.047 276.332 200.047 277.605V279.34H191.598C191.637 280.348 191.938 281.141 192.5 281.719C193.07 282.289 193.859 282.574 194.867 282.574C195.703 282.574 196.469 282.488 197.164 282.316C197.859 282.145 198.574 281.887 199.309 281.543V284.309C198.66 284.629 197.98 284.863 197.27 285.012C196.566 285.16 195.711 285.234 194.703 285.234C193.391 285.234 192.227 284.992 191.211 284.508C190.203 284.023 189.41 283.285 188.832 282.293C188.262 281.301 187.977 280.051 187.977 278.543C187.977 277.012 188.234 275.738 188.75 274.723C189.273 273.699 190 272.934 190.93 272.426C191.859 271.91 192.941 271.652 194.176 271.652ZM194.199 274.195C193.504 274.195 192.926 274.418 192.465 274.863C192.012 275.309 191.75 276.008 191.68 276.961H196.695C196.688 276.43 196.59 275.957 196.402 275.543C196.223 275.129 195.949 274.801 195.582 274.559C195.223 274.316 194.762 274.195 194.199 274.195ZM219.465 271.898V285H216.125V278.566C216.125 277.934 216.137 277.312 216.16 276.703C216.184 276.094 216.219 275.531 216.266 275.016H216.195L212.574 285H209.891L206.211 274.992H206.117C206.18 275.516 206.223 276.078 206.246 276.68C206.27 277.281 206.281 277.941 206.281 278.66V285H202.953V271.898H208.016L211.273 280.781L214.59 271.898H219.465Z" fill="#232323"/>
</svg>
