<svg width="287" height="390" viewBox="0 0 287 390" fill="none" xmlns="http://www.w3.org/2000/svg">
<path d="M276.86 10.0257L276.899 10.0696L276.943 10.1086C282.894 15.3794 286 24.3905 286 37.44V79.04C286 92.0767 282.899 101.474 276.9 107.452C271.614 112.719 262.55 115.48 249.423 115.48H163.832C154.582 115.48 147.329 118.321 142.227 124.115C137.13 129.208 134.65 136.421 134.65 145.6V161.2V162.2H135.65H249.423C262.523 162.2 271.569 165.296 276.86 171.226L276.899 171.27L276.943 171.309C282.894 176.579 286 185.59 286 198.64V352.56C286 365.597 282.899 374.994 276.9 380.972C271.614 386.239 262.55 389 249.423 389H38.5766C25.4969 389 16.0591 386.258 10.0575 380.97C4.75127 374.992 2 365.59 2 352.56V157.04C2 104.513 15.8708 65.6544 43.4295 40.2553L43.4303 40.2547C71.7402 14.1116 109.057 1 155.482 1H249.423C262.523 1 271.569 4.0955 276.86 10.0257Z" fill="#F5F6FF" stroke="#232323" stroke-width="2"/>
<path d="M46.0859 267.867H51.418C53.6992 267.867 55.4258 268.188 56.5977 268.828C57.7695 269.469 58.3555 270.594 58.3555 272.203C58.3555 272.852 58.25 273.438 58.0391 273.961C57.8359 274.484 57.5391 274.914 57.1484 275.25C56.7578 275.586 56.2812 275.805 55.7188 275.906V276.023C56.2891 276.141 56.8047 276.344 57.2656 276.633C57.7266 276.914 58.0938 277.328 58.3672 277.875C58.6484 278.414 58.7891 279.133 58.7891 280.031C58.7891 281.07 58.5352 281.961 58.0273 282.703C57.5195 283.445 56.793 284.016 55.8477 284.414C54.9102 284.805 53.793 285 52.4961 285H46.0859V267.867ZM49.7188 274.652H51.8281C52.8828 274.652 53.6133 274.488 54.0195 274.16C54.4258 273.824 54.6289 273.332 54.6289 272.684C54.6289 272.027 54.3867 271.559 53.9023 271.277C53.4258 270.988 52.668 270.844 51.6289 270.844H49.7188V274.652ZM49.7188 277.535V282H52.0859C53.1797 282 53.9414 281.789 54.3711 281.367C54.8008 280.945 55.0156 280.379 55.0156 279.668C55.0156 279.246 54.9219 278.875 54.7344 278.555C54.5469 278.234 54.2305 277.984 53.7852 277.805C53.3477 277.625 52.7422 277.535 51.9688 277.535H49.7188ZM67.332 271.652C68.543 271.652 69.5859 271.887 70.4609 272.355C71.3359 272.816 72.0117 273.488 72.4883 274.371C72.9648 275.254 73.2031 276.332 73.2031 277.605V279.34H64.7539C64.793 280.348 65.0938 281.141 65.6562 281.719C66.2266 282.289 67.0156 282.574 68.0234 282.574C68.8594 282.574 69.625 282.488 70.3203 282.316C71.0156 282.145 71.7305 281.887 72.4648 281.543V284.309C71.8164 284.629 71.1367 284.863 70.4258 285.012C69.7227 285.16 68.8672 285.234 67.8594 285.234C66.5469 285.234 65.3828 284.992 64.3672 284.508C63.3594 284.023 62.5664 283.285 61.9883 282.293C61.418 281.301 61.1328 280.051 61.1328 278.543C61.1328 277.012 61.3906 275.738 61.9062 274.723C62.4297 273.699 63.1562 272.934 64.0859 272.426C65.0156 271.91 66.0977 271.652 67.332 271.652ZM67.3555 274.195C66.6602 274.195 66.082 274.418 65.6211 274.863C65.168 275.309 64.9062 276.008 64.8359 276.961H69.8516C69.8438 276.43 69.7461 275.957 69.5586 275.543C69.3789 275.129 69.1055 274.801 68.7383 274.559C68.3789 274.316 67.918 274.195 67.3555 274.195ZM75.3125 277.148C75.3125 275.219 75.5508 273.578 76.0273 272.227C76.5039 270.875 77.2617 269.797 78.3008 268.992C79.3398 268.18 80.7031 267.629 82.3906 267.34C83.2344 267.191 84.0898 267.07 84.957 266.977C85.832 266.875 86.7383 266.762 87.6758 266.637L88.0859 269.766C87.6797 269.812 87.2383 269.863 86.7617 269.918C86.2852 269.973 85.8047 270.031 85.3203 270.094C84.8359 270.148 84.3672 270.207 83.9141 270.27C83.4609 270.324 83.0508 270.379 82.6836 270.434C81.8867 270.559 81.2227 270.754 80.6914 271.02C80.1602 271.285 79.7539 271.707 79.4727 272.285C79.1914 272.863 79.0195 273.695 78.957 274.781H79.1328C79.3203 274.484 79.5859 274.184 79.9297 273.879C80.2734 273.566 80.6992 273.309 81.207 273.105C81.7148 272.895 82.3008 272.789 82.9648 272.789C84.0117 272.789 84.918 273.004 85.6836 273.434C86.4492 273.863 87.0391 274.504 87.4531 275.355C87.875 276.199 88.0859 277.254 88.0859 278.52C88.0859 280.004 87.8125 281.246 87.2656 282.246C86.7266 283.238 85.9766 283.984 85.0156 284.484C84.0547 284.984 82.9414 285.234 81.6758 285.234C80.707 285.234 79.832 285.059 79.0508 284.707C78.2695 284.355 77.5977 283.836 77.0352 283.148C76.4805 282.461 76.0547 281.617 75.7578 280.617C75.4609 279.609 75.3125 278.453 75.3125 277.148ZM81.8867 282.34C82.3945 282.34 82.8359 282.23 83.2109 282.012C83.5938 281.785 83.8906 281.418 84.1016 280.91C84.3203 280.395 84.4297 279.703 84.4297 278.836C84.4297 277.789 84.2539 276.961 83.9023 276.352C83.5586 275.734 82.9688 275.426 82.1328 275.426C81.625 275.426 81.1484 275.551 80.7031 275.801C80.2656 276.043 79.8945 276.324 79.5898 276.645C79.2852 276.957 79.0742 277.223 78.957 277.441C78.957 278.059 79.0039 278.66 79.0977 279.246C79.1992 279.824 79.3594 280.348 79.5781 280.816C79.7969 281.285 80.0938 281.656 80.4688 281.93C80.8516 282.203 81.3242 282.34 81.8867 282.34ZM89.8789 280.031V277.102H96.1719V280.031H89.8789ZM106.062 271.652C107.539 271.652 108.73 272.227 109.637 273.375C110.551 274.523 111.008 276.207 111.008 278.426C111.008 279.91 110.793 281.16 110.363 282.176C109.934 283.184 109.34 283.945 108.582 284.461C107.824 284.977 106.953 285.234 105.969 285.234C105.336 285.234 104.793 285.156 104.34 285C103.887 284.836 103.5 284.629 103.18 284.379C102.859 284.121 102.582 283.848 102.348 283.559H102.16C102.223 283.871 102.27 284.191 102.301 284.52C102.332 284.848 102.348 285.168 102.348 285.48V290.766H98.7734V271.898H101.68L102.184 273.598H102.348C102.582 273.246 102.867 272.922 103.203 272.625C103.539 272.328 103.941 272.094 104.41 271.922C104.887 271.742 105.438 271.652 106.062 271.652ZM104.914 274.512C104.289 274.512 103.793 274.641 103.426 274.898C103.059 275.156 102.789 275.543 102.617 276.059C102.453 276.574 102.363 277.227 102.348 278.016V278.402C102.348 279.246 102.426 279.961 102.582 280.547C102.746 281.133 103.016 281.578 103.391 281.883C103.773 282.188 104.297 282.34 104.961 282.34C105.508 282.34 105.957 282.188 106.309 281.883C106.66 281.578 106.922 281.133 107.094 280.547C107.273 279.953 107.363 279.23 107.363 278.379C107.363 277.098 107.164 276.133 106.766 275.484C106.367 274.836 105.75 274.512 104.914 274.512ZM119.328 271.629C121.086 271.629 122.434 272.012 123.371 272.777C124.309 273.543 124.777 274.707 124.777 276.27V285H122.281L121.59 283.219H121.496C121.121 283.688 120.738 284.07 120.348 284.367C119.957 284.664 119.508 284.883 119 285.023C118.492 285.164 117.875 285.234 117.148 285.234C116.375 285.234 115.68 285.086 115.062 284.789C114.453 284.492 113.973 284.039 113.621 283.43C113.27 282.812 113.094 282.031 113.094 281.086C113.094 279.695 113.582 278.672 114.559 278.016C115.535 277.352 117 276.984 118.953 276.914L121.227 276.844V276.27C121.227 275.582 121.047 275.078 120.688 274.758C120.328 274.438 119.828 274.277 119.188 274.277C118.555 274.277 117.934 274.367 117.324 274.547C116.715 274.727 116.105 274.953 115.496 275.227L114.312 272.812C115.008 272.445 115.785 272.156 116.645 271.945C117.512 271.734 118.406 271.629 119.328 271.629ZM121.227 278.93L119.844 278.977C118.688 279.008 117.883 279.215 117.43 279.598C116.984 279.98 116.762 280.484 116.762 281.109C116.762 281.656 116.922 282.047 117.242 282.281C117.562 282.508 117.98 282.621 118.496 282.621C119.262 282.621 119.906 282.395 120.43 281.941C120.961 281.488 121.227 280.844 121.227 280.008V278.93ZM133.238 271.652C134.184 271.652 135.066 271.777 135.887 272.027C136.707 272.27 137.371 272.648 137.879 273.164C138.387 273.672 138.641 274.328 138.641 275.133C138.641 275.922 138.402 276.551 137.926 277.02C137.449 277.48 136.816 277.812 136.027 278.016V278.133C136.582 278.266 137.082 278.445 137.527 278.672C137.98 278.898 138.34 279.211 138.605 279.609C138.871 280.008 139.004 280.531 139.004 281.18C139.004 281.906 138.773 282.578 138.312 283.195C137.852 283.805 137.145 284.297 136.191 284.672C135.246 285.047 134.031 285.234 132.547 285.234C131.844 285.234 131.18 285.203 130.555 285.141C129.938 285.078 129.371 284.988 128.855 284.871C128.34 284.746 127.891 284.598 127.508 284.426V281.473C128.047 281.723 128.711 281.953 129.5 282.164C130.297 282.375 131.145 282.48 132.043 282.48C132.691 282.48 133.277 282.434 133.801 282.34C134.332 282.246 134.75 282.09 135.055 281.871C135.367 281.645 135.523 281.344 135.523 280.969C135.523 280.617 135.387 280.328 135.113 280.102C134.848 279.867 134.438 279.695 133.883 279.586C133.336 279.469 132.641 279.41 131.797 279.41H130.414V276.938H131.727C132.914 276.938 133.832 276.84 134.48 276.645C135.129 276.449 135.453 276.09 135.453 275.566C135.453 275.145 135.246 274.828 134.832 274.617C134.418 274.406 133.734 274.301 132.781 274.301C132.164 274.301 131.484 274.375 130.742 274.523C130 274.664 129.305 274.867 128.656 275.133L127.602 272.637C128.359 272.348 129.18 272.113 130.062 271.934C130.953 271.746 132.012 271.652 133.238 271.652ZM149.094 271.652C150.57 271.652 151.762 272.227 152.668 273.375C153.582 274.523 154.039 276.207 154.039 278.426C154.039 279.91 153.824 281.16 153.395 282.176C152.965 283.184 152.371 283.945 151.613 284.461C150.855 284.977 149.984 285.234 149 285.234C148.367 285.234 147.824 285.156 147.371 285C146.918 284.836 146.531 284.629 146.211 284.379C145.891 284.121 145.613 283.848 145.379 283.559H145.191C145.254 283.871 145.301 284.191 145.332 284.52C145.363 284.848 145.379 285.168 145.379 285.48V290.766H141.805V271.898H144.711L145.215 273.598H145.379C145.613 273.246 145.898 272.922 146.234 272.625C146.57 272.328 146.973 272.094 147.441 271.922C147.918 271.742 148.469 271.652 149.094 271.652ZM147.945 274.512C147.32 274.512 146.824 274.641 146.457 274.898C146.09 275.156 145.82 275.543 145.648 276.059C145.484 276.574 145.395 277.227 145.379 278.016V278.402C145.379 279.246 145.457 279.961 145.613 280.547C145.777 281.133 146.047 281.578 146.422 281.883C146.805 282.188 147.328 282.34 147.992 282.34C148.539 282.34 148.988 282.188 149.34 281.883C149.691 281.578 149.953 281.133 150.125 280.547C150.305 279.953 150.395 279.23 150.395 278.379C150.395 277.098 150.195 276.133 149.797 275.484C149.398 274.836 148.781 274.512 147.945 274.512ZM162.359 271.629C164.117 271.629 165.465 272.012 166.402 272.777C167.34 273.543 167.809 274.707 167.809 276.27V285H165.312L164.621 283.219H164.527C164.152 283.688 163.77 284.07 163.379 284.367C162.988 284.664 162.539 284.883 162.031 285.023C161.523 285.164 160.906 285.234 160.18 285.234C159.406 285.234 158.711 285.086 158.094 284.789C157.484 284.492 157.004 284.039 156.652 283.43C156.301 282.812 156.125 282.031 156.125 281.086C156.125 279.695 156.613 278.672 157.59 278.016C158.566 277.352 160.031 276.984 161.984 276.914L164.258 276.844V276.27C164.258 275.582 164.078 275.078 163.719 274.758C163.359 274.438 162.859 274.277 162.219 274.277C161.586 274.277 160.965 274.367 160.355 274.547C159.746 274.727 159.137 274.953 158.527 275.227L157.344 272.812C158.039 272.445 158.816 272.156 159.676 271.945C160.543 271.734 161.438 271.629 162.359 271.629ZM164.258 278.93L162.875 278.977C161.719 279.008 160.914 279.215 160.461 279.598C160.016 279.98 159.793 280.484 159.793 281.109C159.793 281.656 159.953 282.047 160.273 282.281C160.594 282.508 161.012 282.621 161.527 282.621C162.293 282.621 162.938 282.395 163.461 281.941C163.992 281.488 164.258 280.844 164.258 280.008V278.93ZM170.703 277.148C170.703 275.219 170.941 273.578 171.418 272.227C171.895 270.875 172.652 269.797 173.691 268.992C174.73 268.18 176.094 267.629 177.781 267.34C178.625 267.191 179.48 267.07 180.348 266.977C181.223 266.875 182.129 266.762 183.066 266.637L183.477 269.766C183.07 269.812 182.629 269.863 182.152 269.918C181.676 269.973 181.195 270.031 180.711 270.094C180.227 270.148 179.758 270.207 179.305 270.27C178.852 270.324 178.441 270.379 178.074 270.434C177.277 270.559 176.613 270.754 176.082 271.02C175.551 271.285 175.145 271.707 174.863 272.285C174.582 272.863 174.41 273.695 174.348 274.781H174.523C174.711 274.484 174.977 274.184 175.32 273.879C175.664 273.566 176.09 273.309 176.598 273.105C177.105 272.895 177.691 272.789 178.355 272.789C179.402 272.789 180.309 273.004 181.074 273.434C181.84 273.863 182.43 274.504 182.844 275.355C183.266 276.199 183.477 277.254 183.477 278.52C183.477 280.004 183.203 281.246 182.656 282.246C182.117 283.238 181.367 283.984 180.406 284.484C179.445 284.984 178.332 285.234 177.066 285.234C176.098 285.234 175.223 285.059 174.441 284.707C173.66 284.355 172.988 283.836 172.426 283.148C171.871 282.461 171.445 281.617 171.148 280.617C170.852 279.609 170.703 278.453 170.703 277.148ZM177.277 282.34C177.785 282.34 178.227 282.23 178.602 282.012C178.984 281.785 179.281 281.418 179.492 280.91C179.711 280.395 179.82 279.703 179.82 278.836C179.82 277.789 179.645 276.961 179.293 276.352C178.949 275.734 178.359 275.426 177.523 275.426C177.016 275.426 176.539 275.551 176.094 275.801C175.656 276.043 175.285 276.324 174.98 276.645C174.676 276.957 174.465 277.223 174.348 277.441C174.348 278.059 174.395 278.66 174.488 279.246C174.59 279.824 174.75 280.348 174.969 280.816C175.188 281.285 175.484 281.656 175.859 281.93C176.242 282.203 176.715 282.34 177.277 282.34ZM198.336 278.426C198.336 279.52 198.188 280.488 197.891 281.332C197.602 282.176 197.176 282.891 196.613 283.477C196.059 284.055 195.387 284.492 194.598 284.789C193.816 285.086 192.934 285.234 191.949 285.234C191.027 285.234 190.18 285.086 189.406 284.789C188.641 284.492 187.973 284.055 187.402 283.477C186.84 282.891 186.402 282.176 186.09 281.332C185.785 280.488 185.633 279.52 185.633 278.426C185.633 276.973 185.891 275.742 186.406 274.734C186.922 273.727 187.656 272.961 188.609 272.438C189.562 271.914 190.699 271.652 192.02 271.652C193.246 271.652 194.332 271.914 195.277 272.438C196.23 272.961 196.977 273.727 197.516 274.734C198.062 275.742 198.336 276.973 198.336 278.426ZM189.277 278.426C189.277 279.285 189.371 280.008 189.559 280.594C189.746 281.18 190.039 281.621 190.438 281.918C190.836 282.215 191.355 282.363 191.996 282.363C192.629 282.363 193.141 282.215 193.531 281.918C193.93 281.621 194.219 281.18 194.398 280.594C194.586 280.008 194.68 279.285 194.68 278.426C194.68 277.559 194.586 276.84 194.398 276.27C194.219 275.691 193.93 275.258 193.531 274.969C193.133 274.68 192.613 274.535 191.973 274.535C191.027 274.535 190.34 274.859 189.91 275.508C189.488 276.156 189.277 277.129 189.277 278.426ZM212.129 274.582H207.84V285H204.266V274.582H199.965V271.898H212.129V274.582ZM223.168 271.898H227.105L221.914 278.18L227.562 285H223.508L218.152 278.355V285H214.578V271.898H218.152V278.262L223.168 271.898ZM234.805 271.629C236.562 271.629 237.91 272.012 238.848 272.777C239.785 273.543 240.254 274.707 240.254 276.27V285H237.758L237.066 283.219H236.973C236.598 283.688 236.215 284.07 235.824 284.367C235.434 284.664 234.984 284.883 234.477 285.023C233.969 285.164 233.352 285.234 232.625 285.234C231.852 285.234 231.156 285.086 230.539 284.789C229.93 284.492 229.449 284.039 229.098 283.43C228.746 282.812 228.57 282.031 228.57 281.086C228.57 279.695 229.059 278.672 230.035 278.016C231.012 277.352 232.477 276.984 234.43 276.914L236.703 276.844V276.27C236.703 275.582 236.523 275.078 236.164 274.758C235.805 274.438 235.305 274.277 234.664 274.277C234.031 274.277 233.41 274.367 232.801 274.547C232.191 274.727 231.582 274.953 230.973 275.227L229.789 272.812C230.484 272.445 231.262 272.156 232.121 271.945C232.988 271.734 233.883 271.629 234.805 271.629ZM236.703 278.93L235.32 278.977C234.164 279.008 233.359 279.215 232.906 279.598C232.461 279.98 232.238 280.484 232.238 281.109C232.238 281.656 232.398 282.047 232.719 282.281C233.039 282.508 233.457 282.621 233.973 282.621C234.738 282.621 235.383 282.395 235.906 281.941C236.438 281.488 236.703 280.844 236.703 280.008V278.93Z" fill="#232323"/>
</svg>
