<svg width="388" height="506" viewBox="0 0 388 506" fill="none" xmlns="http://www.w3.org/2000/svg">
<path d="M178.423 506H50.9781C33.0414 506 20.2968 501.952 12.7445 493.856C4.24817 486.66 -3.05176e-05 474.516 -3.05176e-05 457.424V403.451C-3.05176e-05 386.359 4.24817 373.765 12.7445 365.669C20.2968 358.473 33.0414 354.875 50.9781 354.875H167.095C179.367 354.875 188.808 351.276 195.416 344.08C202.024 337.783 205.328 328.788 205.328 317.093V296.853H50.9781C33.0413 296.853 20.2968 292.805 12.7445 284.709C4.24817 277.513 0 265.369 0 248.277V48.576C0 31.4844 4.24817 18.8907 12.7445 10.7947C20.2968 3.59824 33.0413 0 50.9781 0H337.022C354.959 0 368.175 3.59824 376.672 10.7947C384.224 18.8907 388 31.4844 388 48.576V302.251C388 370.617 369.119 421.442 331.358 454.725C292.652 488.908 241.674 506 178.423 506Z" fill="#0A7272"/>
</svg>
