<svg xmlns="http://www.w3.org/2000/svg" width="360" height="939" viewBox="0 0 360 939" fill="none">
<path fill-rule="evenodd" clip-rule="evenodd" d="M26.9097 7.6537e-05C23.849 7.6537e-05 21.3679 2.4297 21.3679 5.4268V17.9214C21.3679 22.3397 17.7862 25.9214 13.3679 25.9214H0.999996C-12.2548 25.9214 -23 36.6666 -23 49.9214L-23 915C-23 928.255 -12.2548 939 1.00001 939H418C431.255 939 442 928.255 442 915V49.9214C442 36.6666 431.255 25.9214 418 25.9214L151.183 25.9213C146.765 25.9213 143.183 22.3396 143.183 17.9213V5.42673C143.183 2.42963 140.702 0 137.642 0L26.9097 7.6537e-05Z" fill="#0A7272"/>
</svg>