<svg width="287" height="390" viewBox="0 0 287 390" fill="none" xmlns="http://www.w3.org/2000/svg">
<path d="M145.75 266.948L145.773 266.925L145.795 266.9C150.86 261.133 153.35 253.6 153.35 244.4V228.8V227.8H152.35H38.5767C25.4968 227.8 16.059 225.058 10.0574 219.77C4.75122 213.792 2 204.39 2 191.36V37.44C2 24.3629 4.77087 15.3345 10.0562 10.0684C16.0562 4.09014 25.4902 1 38.5767 1H249.423C262.523 1 271.569 4.0955 276.86 10.0257L276.899 10.0696L276.943 10.1086C282.894 15.3794 286 24.3905 286 37.44V232.96C286 285.478 271.786 324.688 243.526 350.785C215.917 376.231 178.951 389 132.518 389H38.5767C25.4969 389 16.0591 386.258 10.0576 380.97C4.75133 374.992 2 365.59 2 352.56V310.96C2 297.883 4.77096 288.854 10.0562 283.588C16.0563 277.61 25.4902 274.52 38.5767 274.52H124.168C133.392 274.52 140.638 272.042 145.75 266.948Z" fill="#F5F6FF" stroke="#232323" stroke-width="2"/>
<path d="M83.8086 100.91C83.8086 102.23 83.6445 103.434 83.3164 104.52C82.9883 105.598 82.4883 106.527 81.8164 107.309C81.1523 108.09 80.3086 108.691 79.2852 109.113C78.2617 109.527 77.0508 109.734 75.6523 109.734C74.2539 109.734 73.043 109.527 72.0195 109.113C70.9961 108.691 70.1484 108.09 69.4766 107.309C68.8125 106.527 68.3164 105.594 67.9883 104.508C67.6602 103.422 67.4961 102.215 67.4961 100.887C67.4961 99.1133 67.7852 97.5703 68.3633 96.2578C68.9492 94.9375 69.8477 93.9141 71.0586 93.1875C72.2695 92.4609 73.8086 92.0977 75.6758 92.0977C77.5352 92.0977 79.0625 92.4609 80.2578 93.1875C81.4609 93.9141 82.3516 94.9375 82.9297 96.2578C83.5156 97.5781 83.8086 99.1289 83.8086 100.91ZM71.3047 100.91C71.3047 102.105 71.4531 103.137 71.75 104.004C72.0547 104.863 72.5273 105.527 73.168 105.996C73.8086 106.457 74.6367 106.688 75.6523 106.688C76.6836 106.688 77.5195 106.457 78.1602 105.996C78.8008 105.527 79.2656 104.863 79.5547 104.004C79.8516 103.137 80 102.105 80 100.91C80 99.1133 79.6641 97.6992 78.9922 96.668C78.3203 95.6367 77.2148 95.1211 75.6758 95.1211C74.6523 95.1211 73.8164 95.3555 73.168 95.8242C72.5273 96.2852 72.0547 96.9492 71.75 97.8164C71.4531 98.6758 71.3047 99.707 71.3047 100.91ZM97.918 99.082H93.6289V109.5H90.0547V99.082H85.7539V96.3984H97.918V99.082ZM107.656 96.1523C109.133 96.1523 110.324 96.7266 111.23 97.875C112.145 99.0234 112.602 100.707 112.602 102.926C112.602 104.41 112.387 105.66 111.957 106.676C111.527 107.684 110.934 108.445 110.176 108.961C109.418 109.477 108.547 109.734 107.562 109.734C106.93 109.734 106.387 109.656 105.934 109.5C105.48 109.336 105.094 109.129 104.773 108.879C104.453 108.621 104.176 108.348 103.941 108.059H103.754C103.816 108.371 103.863 108.691 103.895 109.02C103.926 109.348 103.941 109.668 103.941 109.98V115.266H100.367V96.3984H103.273L103.777 98.0977H103.941C104.176 97.7461 104.461 97.4219 104.797 97.125C105.133 96.8281 105.535 96.5938 106.004 96.4219C106.48 96.2422 107.031 96.1523 107.656 96.1523ZM106.508 99.0117C105.883 99.0117 105.387 99.1406 105.02 99.3984C104.652 99.6562 104.383 100.043 104.211 100.559C104.047 101.074 103.957 101.727 103.941 102.516V102.902C103.941 103.746 104.02 104.461 104.176 105.047C104.34 105.633 104.609 106.078 104.984 106.383C105.367 106.688 105.891 106.84 106.555 106.84C107.102 106.84 107.551 106.688 107.902 106.383C108.254 106.078 108.516 105.633 108.688 105.047C108.867 104.453 108.957 103.73 108.957 102.879C108.957 101.598 108.758 100.633 108.359 99.9844C107.961 99.3359 107.344 99.0117 106.508 99.0117ZM120.922 96.1289C122.68 96.1289 124.027 96.5117 124.965 97.2773C125.902 98.043 126.371 99.207 126.371 100.77V109.5H123.875L123.184 107.719H123.09C122.715 108.188 122.332 108.57 121.941 108.867C121.551 109.164 121.102 109.383 120.594 109.523C120.086 109.664 119.469 109.734 118.742 109.734C117.969 109.734 117.273 109.586 116.656 109.289C116.047 108.992 115.566 108.539 115.215 107.93C114.863 107.312 114.688 106.531 114.688 105.586C114.688 104.195 115.176 103.172 116.152 102.516C117.129 101.852 118.594 101.484 120.547 101.414L122.82 101.344V100.77C122.82 100.082 122.641 99.5781 122.281 99.2578C121.922 98.9375 121.422 98.7773 120.781 98.7773C120.148 98.7773 119.527 98.8672 118.918 99.0469C118.309 99.2266 117.699 99.4531 117.09 99.7266L115.906 97.3125C116.602 96.9453 117.379 96.6562 118.238 96.4453C119.105 96.2344 120 96.1289 120.922 96.1289ZM122.82 103.43L121.438 103.477C120.281 103.508 119.477 103.715 119.023 104.098C118.578 104.48 118.355 104.984 118.355 105.609C118.355 106.156 118.516 106.547 118.836 106.781C119.156 107.008 119.574 107.121 120.09 107.121C120.855 107.121 121.5 106.895 122.023 106.441C122.555 105.988 122.82 105.344 122.82 104.508V103.43ZM135.383 109.734C134.086 109.734 132.98 109.5 132.066 109.031C131.152 108.555 130.457 107.82 129.98 106.828C129.504 105.836 129.266 104.566 129.266 103.02C129.266 101.418 129.535 100.113 130.074 99.1055C130.621 98.0898 131.375 97.3438 132.336 96.8672C133.305 96.3906 134.426 96.1523 135.699 96.1523C136.605 96.1523 137.387 96.2422 138.043 96.4219C138.707 96.5938 139.285 96.8008 139.777 97.043L138.723 99.8086C138.16 99.582 137.637 99.3984 137.152 99.2578C136.668 99.1094 136.184 99.0352 135.699 99.0352C135.074 99.0352 134.555 99.1836 134.141 99.4805C133.727 99.7695 133.418 100.207 133.215 100.793C133.012 101.379 132.91 102.113 132.91 102.996C132.91 103.863 133.02 104.582 133.238 105.152C133.457 105.723 133.773 106.148 134.188 106.43C134.602 106.703 135.105 106.84 135.699 106.84C136.441 106.84 137.102 106.742 137.68 106.547C138.258 106.344 138.82 106.062 139.367 105.703V108.762C138.82 109.105 138.246 109.352 137.645 109.5C137.051 109.656 136.297 109.734 135.383 109.734ZM154.145 109.5H150.57V99.082H147.277C147.113 101.004 146.918 102.641 146.691 103.992C146.465 105.344 146.176 106.445 145.824 107.297C145.473 108.141 145.035 108.758 144.512 109.148C143.988 109.539 143.344 109.734 142.578 109.734C142.156 109.734 141.777 109.703 141.441 109.641C141.113 109.578 140.812 109.484 140.539 109.359V106.5C140.711 106.57 140.895 106.629 141.09 106.676C141.285 106.715 141.484 106.734 141.688 106.734C141.914 106.734 142.129 106.645 142.332 106.465C142.535 106.285 142.727 105.977 142.906 105.539C143.086 105.094 143.254 104.48 143.41 103.699C143.574 102.918 143.723 101.93 143.855 100.734C143.988 99.5391 144.113 98.0938 144.23 96.3984H154.145V109.5ZM163.309 96.1523C164.52 96.1523 165.562 96.3867 166.438 96.8555C167.312 97.3164 167.988 97.9883 168.465 98.8711C168.941 99.7539 169.18 100.832 169.18 102.105V103.84H160.73C160.77 104.848 161.07 105.641 161.633 106.219C162.203 106.789 162.992 107.074 164 107.074C164.836 107.074 165.602 106.988 166.297 106.816C166.992 106.645 167.707 106.387 168.441 106.043V108.809C167.793 109.129 167.113 109.363 166.402 109.512C165.699 109.66 164.844 109.734 163.836 109.734C162.523 109.734 161.359 109.492 160.344 109.008C159.336 108.523 158.543 107.785 157.965 106.793C157.395 105.801 157.109 104.551 157.109 103.043C157.109 101.512 157.367 100.238 157.883 99.2227C158.406 98.1992 159.133 97.4336 160.062 96.9258C160.992 96.4102 162.074 96.1523 163.309 96.1523ZM163.332 98.6953C162.637 98.6953 162.059 98.918 161.598 99.3633C161.145 99.8086 160.883 100.508 160.812 101.461H165.828C165.82 100.93 165.723 100.457 165.535 100.043C165.355 99.6289 165.082 99.3008 164.715 99.0586C164.355 98.8164 163.895 98.6953 163.332 98.6953ZM183.699 99.832C183.699 100.535 183.477 101.137 183.031 101.637C182.594 102.129 181.945 102.445 181.086 102.586V102.68C181.992 102.789 182.723 103.105 183.277 103.629C183.832 104.145 184.109 104.797 184.109 105.586C184.109 106.336 183.914 107.008 183.523 107.602C183.133 108.188 182.512 108.652 181.66 108.996C180.809 109.332 179.695 109.5 178.32 109.5H172.086V96.3984H178.32C179.344 96.3984 180.262 96.5078 181.074 96.7266C181.887 96.9375 182.527 97.293 182.996 97.793C183.465 98.293 183.699 98.9727 183.699 99.832ZM180.406 105.398C180.406 104.883 180.203 104.512 179.797 104.285C179.398 104.051 178.805 103.934 178.016 103.934H175.66V107.027H178.086C178.758 107.027 179.312 106.902 179.75 106.652C180.188 106.402 180.406 105.984 180.406 105.398ZM180.078 100.113C180.078 99.707 179.918 99.4062 179.598 99.2109C179.277 99.0156 178.805 98.918 178.18 98.918H175.66V101.508H177.77C178.527 101.508 179.102 101.398 179.492 101.18C179.883 100.961 180.078 100.605 180.078 100.113ZM187.18 109.5V96.3984H190.754V101.461H192.477C193.812 101.461 194.914 101.602 195.781 101.883C196.656 102.164 197.305 102.594 197.727 103.172C198.148 103.742 198.359 104.461 198.359 105.328C198.359 106.172 198.164 106.906 197.773 107.531C197.383 108.156 196.766 108.641 195.922 108.984C195.078 109.328 193.973 109.5 192.605 109.5H187.18ZM190.754 107.027H192.406C193.102 107.027 193.672 106.902 194.117 106.652C194.562 106.395 194.785 105.969 194.785 105.375C194.785 104.867 194.582 104.5 194.176 104.273C193.77 104.047 193.164 103.934 192.359 103.934H190.754V107.027ZM200.258 109.5V96.3984H203.832V109.5H200.258ZM212.996 96.1523C214.207 96.1523 215.25 96.3867 216.125 96.8555C217 97.3164 217.676 97.9883 218.152 98.8711C218.629 99.7539 218.867 100.832 218.867 102.105V103.84H210.418C210.457 104.848 210.758 105.641 211.32 106.219C211.891 106.789 212.68 107.074 213.688 107.074C214.523 107.074 215.289 106.988 215.984 106.816C216.68 106.645 217.395 106.387 218.129 106.043V108.809C217.48 109.129 216.801 109.363 216.09 109.512C215.387 109.66 214.531 109.734 213.523 109.734C212.211 109.734 211.047 109.492 210.031 109.008C209.023 108.523 208.23 107.785 207.652 106.793C207.082 105.801 206.797 104.551 206.797 103.043C206.797 101.512 207.055 100.238 207.57 99.2227C208.094 98.1992 208.82 97.4336 209.75 96.9258C210.68 96.4102 211.762 96.1523 212.996 96.1523ZM213.02 98.6953C212.324 98.6953 211.746 98.918 211.285 99.3633C210.832 99.8086 210.57 100.508 210.5 101.461H215.516C215.508 100.93 215.41 100.457 215.223 100.043C215.043 99.6289 214.77 99.3008 214.402 99.0586C214.043 98.8164 213.582 98.6953 213.02 98.6953ZM44.5859 129.152C46.0625 129.152 47.2539 129.727 48.1602 130.875C49.0742 132.023 49.5312 133.707 49.5312 135.926C49.5312 137.41 49.3164 138.66 48.8867 139.676C48.457 140.684 47.8633 141.445 47.1055 141.961C46.3477 142.477 45.4766 142.734 44.4922 142.734C43.8594 142.734 43.3164 142.656 42.8633 142.5C42.4102 142.336 42.0234 142.129 41.7031 141.879C41.3828 141.621 41.1055 141.348 40.8711 141.059H40.6836C40.7461 141.371 40.793 141.691 40.8242 142.02C40.8555 142.348 40.8711 142.668 40.8711 142.98V148.266H37.2969V129.398H40.2031L40.707 131.098H40.8711C41.1055 130.746 41.3906 130.422 41.7266 130.125C42.0625 129.828 42.4648 129.594 42.9336 129.422C43.4102 129.242 43.9609 129.152 44.5859 129.152ZM43.4375 132.012C42.8125 132.012 42.3164 132.141 41.9492 132.398C41.582 132.656 41.3125 133.043 41.1406 133.559C40.9766 134.074 40.8867 134.727 40.8711 135.516V135.902C40.8711 136.746 40.9492 137.461 41.1055 138.047C41.2695 138.633 41.5391 139.078 41.9141 139.383C42.2969 139.688 42.8203 139.84 43.4844 139.84C44.0312 139.84 44.4805 139.688 44.832 139.383C45.1836 139.078 45.4453 138.633 45.6172 138.047C45.7969 137.453 45.8867 136.73 45.8867 135.879C45.8867 134.598 45.6875 133.633 45.2891 132.984C44.8906 132.336 44.2734 132.012 43.4375 132.012ZM57.8867 129.152C59.0977 129.152 60.1406 129.387 61.0156 129.855C61.8906 130.316 62.5664 130.988 63.043 131.871C63.5195 132.754 63.7578 133.832 63.7578 135.105V136.84H55.3086C55.3477 137.848 55.6484 138.641 56.2109 139.219C56.7812 139.789 57.5703 140.074 58.5781 140.074C59.4141 140.074 60.1797 139.988 60.875 139.816C61.5703 139.645 62.2852 139.387 63.0195 139.043V141.809C62.3711 142.129 61.6914 142.363 60.9805 142.512C60.2773 142.66 59.4219 142.734 58.4141 142.734C57.1016 142.734 55.9375 142.492 54.9219 142.008C53.9141 141.523 53.1211 140.785 52.543 139.793C51.9727 138.801 51.6875 137.551 51.6875 136.043C51.6875 134.512 51.9453 133.238 52.4609 132.223C52.9844 131.199 53.7109 130.434 54.6406 129.926C55.5703 129.41 56.6523 129.152 57.8867 129.152ZM57.9102 131.695C57.2148 131.695 56.6367 131.918 56.1758 132.363C55.7227 132.809 55.4609 133.508 55.3906 134.461H60.4062C60.3984 133.93 60.3008 133.457 60.1133 133.043C59.9336 132.629 59.6602 132.301 59.293 132.059C58.9336 131.816 58.4727 131.695 57.9102 131.695ZM86.1758 129.398V142.5H66.6641V129.398H70.2383V139.816H74.6328V129.398H78.207V139.816H82.6016V129.398H86.1758ZM95.3398 129.152C96.5508 129.152 97.5938 129.387 98.4688 129.855C99.3438 130.316 100.02 130.988 100.496 131.871C100.973 132.754 101.211 133.832 101.211 135.105V136.84H92.7617C92.8008 137.848 93.1016 138.641 93.6641 139.219C94.2344 139.789 95.0234 140.074 96.0312 140.074C96.8672 140.074 97.6328 139.988 98.3281 139.816C99.0234 139.645 99.7383 139.387 100.473 139.043V141.809C99.8242 142.129 99.1445 142.363 98.4336 142.512C97.7305 142.66 96.875 142.734 95.8672 142.734C94.5547 142.734 93.3906 142.492 92.375 142.008C91.3672 141.523 90.5742 140.785 89.9961 139.793C89.4258 138.801 89.1406 137.551 89.1406 136.043C89.1406 134.512 89.3984 133.238 89.9141 132.223C90.4375 131.199 91.1641 130.434 92.0938 129.926C93.0234 129.41 94.1055 129.152 95.3398 129.152ZM95.3633 131.695C94.668 131.695 94.0898 131.918 93.6289 132.363C93.1758 132.809 92.9141 133.508 92.8438 134.461H97.8594C97.8516 133.93 97.7539 133.457 97.5664 133.043C97.3867 132.629 97.1133 132.301 96.7461 132.059C96.3867 131.816 95.9258 131.695 95.3633 131.695ZM107.691 129.398V134.438H112.684V129.398H116.258V142.5H112.684V137.098H107.691V142.5H104.117V129.398H107.691ZM123.465 129.398V134.578C123.465 134.844 123.453 135.18 123.43 135.586C123.414 135.984 123.391 136.391 123.359 136.805C123.328 137.219 123.297 137.59 123.266 137.918C123.234 138.246 123.211 138.469 123.195 138.586L129.242 129.398H133.543V142.5H130.086V137.273C130.086 136.844 130.102 136.371 130.133 135.855C130.164 135.332 130.199 134.84 130.238 134.379C130.277 133.918 130.305 133.57 130.32 133.336L124.297 142.5H120.008V129.398H123.465ZM139.297 142.5H135.43L138.957 137.32C138.512 137.133 138.094 136.875 137.703 136.547C137.312 136.211 136.996 135.789 136.754 135.281C136.512 134.773 136.391 134.164 136.391 133.453C136.391 132.148 136.883 131.148 137.867 130.453C138.859 129.75 140.137 129.398 141.699 129.398H147.793V142.5H144.219V137.625H142.25L139.297 142.5ZM139.895 133.477C139.895 134.023 140.109 134.453 140.539 134.766C140.977 135.07 141.539 135.223 142.227 135.223H144.219V131.918H141.77C141.129 131.918 140.656 132.074 140.352 132.387C140.047 132.691 139.895 133.055 139.895 133.477ZM169.543 129.398V139.887H171.465V147.199H168.254V142.5H159.441V147.199H156.23V139.887H157.332C157.91 139.004 158.395 137.996 158.785 136.863C159.184 135.73 159.504 134.531 159.746 133.266C159.996 131.992 160.176 130.703 160.285 129.398H169.543ZM165.969 132.082H163.285C163.16 133.051 163 133.988 162.805 134.895C162.617 135.793 162.383 136.66 162.102 137.496C161.82 138.324 161.477 139.121 161.07 139.887H165.969V132.082ZM185.434 142.5H181.859V132.082H178.566C178.402 134.004 178.207 135.641 177.98 136.992C177.754 138.344 177.465 139.445 177.113 140.297C176.762 141.141 176.324 141.758 175.801 142.148C175.277 142.539 174.633 142.734 173.867 142.734C173.445 142.734 173.066 142.703 172.73 142.641C172.402 142.578 172.102 142.484 171.828 142.359V139.5C172 139.57 172.184 139.629 172.379 139.676C172.574 139.715 172.773 139.734 172.977 139.734C173.203 139.734 173.418 139.645 173.621 139.465C173.824 139.285 174.016 138.977 174.195 138.539C174.375 138.094 174.543 137.48 174.699 136.699C174.863 135.918 175.012 134.93 175.145 133.734C175.277 132.539 175.402 131.094 175.52 129.398H185.434V142.5ZM191.188 142.5H187.32L190.848 137.32C190.402 137.133 189.984 136.875 189.594 136.547C189.203 136.211 188.887 135.789 188.645 135.281C188.402 134.773 188.281 134.164 188.281 133.453C188.281 132.148 188.773 131.148 189.758 130.453C190.75 129.75 192.027 129.398 193.59 129.398H199.684V142.5H196.109V137.625H194.141L191.188 142.5ZM191.785 133.477C191.785 134.023 192 134.453 192.43 134.766C192.867 135.07 193.43 135.223 194.117 135.223H196.109V131.918H193.66C193.02 131.918 192.547 132.074 192.242 132.387C191.938 132.691 191.785 133.055 191.785 133.477ZM209.938 142.5V125.367H220.766V128.367H213.57V131.941H215C216.609 131.941 217.93 132.164 218.961 132.609C220 133.055 220.766 133.672 221.258 134.461C221.758 135.242 222.008 136.137 222.008 137.145C222.008 138.84 221.441 140.156 220.309 141.094C219.184 142.031 217.391 142.5 214.93 142.5H209.938ZM213.57 139.523H214.789C215.891 139.523 216.758 139.348 217.391 138.996C218.023 138.637 218.34 138.02 218.34 137.145C218.34 136.535 218.184 136.07 217.871 135.75C217.566 135.43 217.125 135.211 216.547 135.094C215.977 134.977 215.293 134.918 214.496 134.918H213.57V139.523ZM236.047 142.5H224.07V139.98L228.371 135.633C229.238 134.742 229.934 134 230.457 133.406C230.988 132.805 231.371 132.258 231.605 131.766C231.848 131.273 231.969 130.746 231.969 130.184C231.969 129.504 231.777 128.996 231.395 128.66C231.02 128.316 230.516 128.145 229.883 128.145C229.219 128.145 228.574 128.297 227.949 128.602C227.324 128.906 226.672 129.34 225.992 129.902L224.023 127.57C224.516 127.148 225.035 126.75 225.582 126.375C226.137 126 226.777 125.699 227.504 125.473C228.238 125.238 229.117 125.121 230.141 125.121C231.266 125.121 232.23 125.324 233.035 125.73C233.848 126.137 234.473 126.691 234.91 127.395C235.348 128.09 235.566 128.879 235.566 129.762C235.566 130.707 235.379 131.57 235.004 132.352C234.629 133.133 234.082 133.906 233.363 134.672C232.652 135.438 231.793 136.285 230.785 137.215L228.582 139.289V139.453H236.047V142.5ZM250.168 138.949H248.105V142.5H244.566V138.949H237.254V136.43L244.766 125.367H248.105V136.137H250.168V138.949ZM244.566 136.137V133.23C244.566 132.957 244.57 132.633 244.578 132.258C244.594 131.883 244.609 131.508 244.625 131.133C244.641 130.758 244.656 130.426 244.672 130.137C244.695 129.84 244.711 129.633 244.719 129.516H244.625C244.477 129.836 244.32 130.148 244.156 130.453C243.992 130.75 243.801 131.062 243.582 131.391L240.441 136.137H244.566Z" fill="#232323"/>
</svg>
