<svg xmlns="http://www.w3.org/2000/svg" width="360" height="695" viewBox="0 0 360 695" fill="none">
  <path fill-rule="evenodd" clip-rule="evenodd" d="M26.9097 7.6537e-05C23.849 7.6537e-05 21.3679 2.4297 21.3679 5.4268V17.9214C21.3679 22.3397 17.7862 25.9214 13.3679 25.9214H0.999996C-12.2548 25.9214 -23 36.6666 -23 49.9214L-23 670.5C-23 683.755 -12.2548 694.5 1.00001 694.5H418C431.255 694.5 442 683.755 442 670.5V49.9214C442 36.6666 431.255 25.9214 418 25.9214L151.183 25.9213C146.765 25.9213 143.183 22.3396 143.183 17.9213V5.42673C143.183 2.42963 140.702 0 137.642 0L26.9097 7.6537e-05Z" fill="#0A7272"/>
</svg>